<svg width="56" height="22" viewBox="0 0 56 22" fill="none" xmlns="http://www.w3.org/2000/svg">
<path d="M10.152 10.632C10.128 10.728 10.2 10.752 10.176 10.848C9.984 10.872 9.792 10.848 9.6 10.848C9.528 10.848 9.552 10.968 9.552 11.04C9.384 11.064 9.384 11.016 9.192 11.04C9.216 11.088 9.36 11.04 9.432 11.064C9.432 11.208 9.36 11.256 9.312 11.304C8.592 11.304 8.064 11.28 7.344 11.304C7.128 11.568 6.984 12.072 7.056 12.36C7.392 12.384 7.824 12.624 8.112 12.504C8.184 12.528 8.112 12.576 8.04 12.576C8.184 12.624 7.992 12.744 8.136 12.72C7.968 12.912 7.2 12.672 6.912 12.816C7.152 12.936 7.584 12.84 7.896 12.864C7.92 12.936 7.92 12.936 7.872 13.008H8.16C8.208 13.056 8.256 13.104 8.256 13.224C7.968 13.248 7.608 13.128 7.704 13.44C7.56 13.416 7.512 13.512 7.344 13.488C7.368 13.56 7.512 13.488 7.584 13.512C7.608 13.608 7.56 13.68 7.512 13.728C7.176 13.752 6.912 13.776 6.696 13.776C6.456 14.112 6.456 14.448 6.36 14.904C6.216 15.264 6.216 15.696 6.096 16.032C6.024 16.344 6.072 16.824 5.832 16.968C5.808 16.896 5.88 16.92 5.856 16.848C5.808 16.848 5.76 17.016 5.736 16.896C5.856 16.872 5.76 16.8 5.76 16.68C5.712 16.68 5.712 16.776 5.712 16.848C5.664 16.824 5.616 16.704 5.544 16.776C5.52 16.752 5.496 16.704 5.496 16.656C5.4 16.656 5.352 16.608 5.256 16.608C5.232 16.464 5.304 16.368 5.28 16.2C5.232 16.152 5.208 16.32 5.088 16.272C5.016 15.6 5.256 14.784 5.304 14.064C5.136 14.784 5.04 15.408 5.016 16.2C4.944 16.272 4.896 16.344 4.8 16.368C4.848 15.48 5.064 14.832 5.016 13.872L3.792 13.968C3.744 14.064 3.768 14.208 3.648 14.232C3.576 14.76 3.384 15.144 3.312 15.696C3.192 15.96 3.168 16.368 3.048 16.728C3.024 16.872 3.072 17.112 2.904 17.136V16.968C2.856 16.968 2.904 17.064 2.88 17.112C2.784 17.088 2.856 16.92 2.832 16.848C2.76 16.824 2.808 16.944 2.808 16.968C2.64 16.92 2.616 16.776 2.376 16.752V16.464C2.328 16.416 2.208 16.44 2.184 16.368C2.208 15.648 2.352 15.024 2.472 14.352C2.28 14.88 2.16 15.744 2.112 16.464C2.088 16.488 1.992 16.464 1.992 16.536C1.896 15.72 2.232 14.952 2.208 14.112C1.8 14.064 1.128 14.232 1.08 13.92C1.104 13.872 1.152 13.872 1.2 13.848C1.104 13.8 1.104 13.704 1.176 13.632C1.176 13.536 1.056 13.608 1.056 13.536C1.056 13.464 1.08 13.416 1.104 13.368C1.08 13.272 0.984 13.224 0.936 13.128C1.008 12.936 1.464 13.104 1.56 12.912C1.536 12.888 1.464 12.888 1.416 12.888H1.44C1.224 12.96 1.224 12.744 1.056 12.768C1.08 12.744 1.128 12.768 1.176 12.744C1.104 12.696 1.128 12.696 1.104 12.552C1.104 12.504 1.008 12.6 1.008 12.672C0.96 12.6 0.888 12.576 0.816 12.624L0.864 12.528C0.84 12.48 0.768 12.576 0.696 12.504C0.696 12.432 0.792 12.48 0.768 12.36C1.368 12.288 1.92 12.264 2.472 12.264C2.688 12.144 2.664 11.856 2.688 11.616C2.016 11.496 1.296 11.64 0.552 11.496C0.48 11.424 0.528 11.352 0.408 11.304C0.432 11.232 0.528 11.232 0.576 11.184C0.528 11.088 0.504 11.28 0.432 11.184C0.504 11.064 0.408 11.016 0.48 10.992C0.456 10.944 0.408 10.92 0.384 10.896C0.408 10.848 0.384 10.8 0.432 10.704C0.408 10.584 0.24 10.608 0.264 10.416C0.456 10.344 0.648 10.368 0.84 10.344C0.696 10.224 1.128 10.224 1.464 10.224C0.936 10.2 0.552 10.128 0.072 9.88799C0.096 9.86399 0.12 9.86399 0.168 9.86399C0.12 9.79199 0.072 9.86399 0 9.79199C0.048 9.67199 0.384 9.55199 0.624 9.64799C1.248 9.52799 2.088 9.52799 2.664 9.52799C2.688 9.52799 2.688 9.50399 2.664 9.50399C2.664 9.45599 2.952 9.55199 2.856 9.50399C2.904 9.47999 3 9.50399 3.048 9.50399C3.408 9.26399 3.336 8.59199 3.624 8.25599C3.768 7.70399 4.056 7.19999 4.512 6.93599H4.536C4.728 6.83999 4.752 6.76799 4.896 6.55199C4.92 6.55199 4.944 6.59999 4.944 6.62399C4.992 6.62399 5.016 6.57599 5.04 6.55199C5.016 6.52799 5.016 6.50399 5.04 6.50399C5.04 6.43199 4.992 6.45599 5.04 6.40799C5.064 6.40799 5.04 6.43199 5.04 6.43199C5.04 6.45599 5.064 6.45599 5.088 6.45599C5.088 6.50399 5.04 6.50399 5.04 6.55199C5.064 6.50399 5.112 6.47999 5.208 6.47999C5.28 6.52799 5.184 6.57599 5.328 6.57599C5.376 6.71999 5.256 6.71999 5.232 6.79199C5.352 6.74399 5.232 6.86399 5.352 6.95999C5.472 6.88799 5.472 6.74399 5.544 6.67199C5.64 6.69599 5.688 6.74399 5.76 6.76799C5.688 7.12799 5.4 7.41599 5.712 7.67999C5.616 8.35199 5.16 8.95199 5.256 9.52799C5.496 9.55199 5.544 9.52799 5.76 9.57599C6.096 9.26399 6.048 8.61599 6.312 8.30399C6.432 7.84799 6.624 7.60799 6.864 7.24799C7.152 7.17599 7.416 6.95999 7.56 6.74399C7.632 6.76799 7.632 6.83999 7.752 6.86399C7.68 6.95999 7.68 7.03199 7.632 7.07999C7.656 7.10399 7.776 7.10399 7.752 7.17599C7.872 7.15199 7.872 7.05599 7.92 6.98399C8.04 6.95999 8.064 7.03199 8.136 7.05599C8.112 7.29599 8.04 7.51199 7.968 7.70399C8.136 8.03999 7.896 8.63999 7.824 8.97599C7.824 9.11999 7.8 9.23999 7.728 9.31199C7.776 9.40799 7.728 9.45599 7.728 9.57599C7.728 9.57599 7.752 9.59999 7.752 9.62399C8.28 9.76799 8.784 9.71999 9.36 9.83999C9.264 9.88799 9.504 9.93599 9.36 9.93599C9.624 10.008 9.84 10.104 10.104 10.176V10.392C9.312 10.344 8.328 10.152 7.632 10.248C8.4 10.32 9.096 10.344 9.864 10.44C9.888 10.512 9.84 10.536 9.792 10.584C9.888 10.632 10.008 10.632 10.152 10.632ZM5.208 12.312C5.448 12.096 5.472 11.76 5.448 11.352C5.184 11.376 4.992 11.4 4.656 11.4C4.44 11.52 4.392 11.832 4.296 12.096C4.392 12.144 4.296 12.192 4.392 12.264C4.368 12.312 4.632 12.168 4.584 12.288C4.68 12.312 4.776 12.192 4.896 12.264C4.872 12.264 4.704 12.264 4.8 12.288C5.04 12.312 5.16 12.24 5.208 12.312ZM2.976 10.176C2.976 10.128 2.976 10.08 3 10.056C2.52 9.98399 2.328 10.08 1.824 10.056C1.8 10.152 1.8 10.176 1.776 10.176C2.136 10.248 2.544 10.104 2.976 10.176ZM4.728 12.816C4.92 12.816 5.208 12.888 5.232 12.696C4.896 12.696 4.536 12.672 4.224 12.696C4.176 12.696 4.152 12.744 4.176 12.816H4.728ZM1.344 12.768C1.32 12.84 1.368 12.84 1.416 12.864L1.44 12.84C1.44 12.696 1.536 12.912 1.56 12.768C1.632 12.816 1.56 12.84 1.608 12.912C1.848 12.84 2.256 12.936 2.448 12.816C2.304 12.672 1.92 12.768 1.8 12.816C1.608 12.72 1.512 12.72 1.344 12.768ZM5.016 10.2C5.208 10.152 5.544 10.272 5.664 10.128C5.448 10.128 5.112 10.032 5.016 10.2ZM8.544 11.016C8.592 11.112 8.952 11.064 9.048 11.04C8.856 11.016 8.808 11.04 8.544 11.016ZM5.664 12.12C5.64 11.952 5.808 11.664 5.712 11.592C5.712 11.76 5.592 11.928 5.664 12.12ZM3.624 9.11999C3.624 9.07199 3.72 8.95199 3.648 8.90399C3.624 8.97599 3.504 9.09599 3.624 9.11999ZM2.928 12.048C2.952 12 3 11.832 2.928 11.808C2.952 11.904 2.832 12.024 2.928 12.048ZM7.776 11.04C7.872 11.016 8.04 11.064 8.088 11.016C7.992 11.016 7.824 10.968 7.776 11.04ZM3.648 8.87999C3.72 8.90399 3.768 8.68799 3.672 8.71199C3.696 8.80799 3.648 8.83199 3.648 8.87999ZM5.304 11.016C5.256 11.088 5.448 11.088 5.448 11.04C5.4 10.992 5.376 11.064 5.304 11.016ZM6.24 9.19199C6.312 9.21599 6.264 9.09599 6.312 9.07199C6.24 9.07199 6.216 9.11999 6.24 9.19199ZM6.648 8.03999C6.672 8.03999 6.72 7.99199 6.672 7.99199C6.552 8.08799 6.6 8.32799 6.648 8.03999ZM4.8 13.632C4.824 13.536 4.68 13.536 4.68 13.608C4.728 13.632 4.728 13.584 4.8 13.632ZM6.36 8.87999C6.36 8.83199 6.456 8.78399 6.36 8.75999C6.384 8.80799 6.288 8.85599 6.36 8.87999ZM7.512 11.04C7.56 11.016 7.68 11.064 7.68 11.016C7.632 11.016 7.512 10.968 7.512 11.04ZM6.456 8.49599C6.552 8.49599 6.456 8.44799 6.528 8.39999C6.456 8.37599 6.456 8.44799 6.456 8.49599ZM6.432 8.71199C6.408 8.63999 6.528 8.49599 6.432 8.56799C6.504 8.56799 6.312 8.68799 6.432 8.71199ZM3.816 8.35199C3.888 8.35199 3.912 8.23199 3.84 8.23199C3.84 8.27999 3.84 8.32799 3.816 8.35199ZM5.136 6.38399C5.256 6.40799 5.04 6.50399 5.088 6.38399C5.112 6.40799 5.136 6.40799 5.136 6.38399ZM9.072 11.016C9.024 11.088 9.192 11.088 9.168 11.04C9.12 11.04 9.096 11.04 9.072 11.016ZM6.312 8.92799C6.192 9.09599 6.456 8.87999 6.312 8.90399V8.92799ZM7.92 12.456C7.92 12.384 8.016 12.432 8.064 12.432C8.064 12.48 7.968 12.432 7.92 12.456ZM4.824 13.608C4.848 13.584 4.968 13.632 4.944 13.56C4.92 13.584 4.824 13.536 4.824 13.608ZM6.936 13.488V13.536H7.008V13.488H6.936ZM6.216 9.40799C6.216 9.35999 6.264 9.33599 6.216 9.31199C6.192 9.35999 6.168 9.38399 6.216 9.40799ZM3.84 8.44799C3.84 8.37599 3.888 8.35199 3.816 8.39999C3.816 8.37599 3.792 8.35199 3.792 8.39999C3.816 8.39999 3.816 8.44799 3.84 8.44799ZM6.24 9.23999C6.096 9.38399 6.36 9.19199 6.24 9.21599V9.23999ZM0.384 9.88799C0.408 9.88799 0.456 9.88799 0.456 9.86399C0.432 9.86399 0.384 9.86399 0.384 9.88799ZM4.92 11.04C4.896 11.04 4.848 11.04 4.848 11.064C4.872 11.064 4.92 11.064 4.92 11.04ZM9.936 10.056C9.936 10.08 9.912 10.08 9.888 10.08C9.888 10.056 9.912 10.056 9.936 10.056ZM7.704 11.04C7.728 11.04 7.752 11.04 7.752 11.016C7.728 11.016 7.704 11.016 7.704 11.04ZM8.304 11.04C8.328 11.04 8.352 11.04 8.352 11.016C8.328 11.016 8.304 11.016 8.304 11.04ZM8.232 11.04C8.232 11.04 8.28 11.04 8.28 11.016C8.256 11.016 8.232 11.016 8.232 11.04ZM2.016 13.776C2.04 13.776 2.064 13.776 2.064 13.752C2.04 13.776 2.016 13.752 2.016 13.776ZM1.848 13.776C1.872 13.776 1.896 13.776 1.896 13.752C1.872 13.776 1.848 13.752 1.848 13.776ZM1.656 10.2C1.68 10.176 1.704 10.2 1.704 10.176C1.704 10.176 1.656 10.176 1.656 10.2Z" fill="#7A7A7A"/>
<path d="M13.9928 17.64C13.9448 17.664 13.8968 17.568 13.8728 17.64C13.8968 17.64 13.9208 17.64 13.8968 17.664C13.8968 17.664 13.8728 17.688 13.8968 17.712C13.8248 17.712 13.7768 17.712 13.7528 17.736C14.0648 17.808 14.2088 17.712 14.6408 17.808C14.6648 17.784 14.6888 17.76 14.6888 17.736C14.6648 17.712 14.4728 17.76 14.4248 17.76C14.4007 17.712 14.4488 17.664 14.4248 17.64C14.4488 17.64 14.5448 17.688 14.5208 17.736C14.5448 17.712 14.5928 17.688 14.6408 17.712C14.6168 17.664 14.5688 17.664 14.5928 17.616C14.6408 17.664 14.6408 17.688 14.7128 17.64C14.6888 17.712 14.7128 17.76 14.7128 17.808H14.8328C14.8088 17.784 14.7848 17.76 14.7608 17.76C14.7608 17.736 14.9768 17.76 15.0008 17.664C15.0008 17.712 15.1928 17.832 15.2168 17.712C15.2407 17.712 15.2408 17.76 15.2408 17.808C15.1448 17.856 15.0727 17.736 15.0487 17.808C15.0007 17.808 15.0488 17.736 15.0008 17.736C14.9768 17.76 14.9768 17.808 14.8568 17.784C15.2408 17.904 15.6248 17.832 15.9848 17.928C15.9128 17.88 15.9608 17.832 16.0568 17.808C16.0328 17.808 16.0328 17.808 16.0328 17.784C16.0568 17.784 16.1047 17.784 16.1047 17.808C16.2007 17.808 16.2968 17.832 16.2488 17.928C16.2008 17.904 16.2248 17.832 16.1768 17.832C16.1528 17.928 16.1048 17.856 16.0088 17.88C16.0808 18 16.2248 17.88 16.3208 17.976C16.4648 17.832 16.7527 17.952 16.4167 17.952C16.6087 18.024 16.8248 18.048 17.0168 18V18.024C17.1368 18.168 17.2088 17.928 17.3288 18C17.2808 17.952 17.4487 18 17.4967 18.024C17.4248 18.024 17.3048 18.144 17.2808 18C17.2568 18 17.2327 18.048 17.2087 18.048C17.2807 18.144 17.4488 18.12 17.5448 18.168C17.6408 18.144 17.5448 18.096 17.6168 18.072C17.6888 18.072 17.6408 18.144 17.6408 18.168C17.6888 18.192 17.7367 18.168 17.8088 18.216C17.8327 18.216 17.8568 18.192 17.8808 18.192C17.9528 18.264 18.0488 18.264 18.1688 18.264C18.1928 18.192 18.0728 18.24 18.1448 18.168C18.1928 18.12 18.2168 18.216 18.2168 18.216C18.1928 18.24 18.1688 18.264 18.1688 18.288C18.4088 18.336 18.6488 18.504 18.9128 18.552C18.9608 18.576 18.9128 18.672 18.9848 18.648C18.9848 18.744 18.9368 18.624 18.8888 18.648C18.8648 18.744 18.9848 18.672 18.9368 18.768C18.7208 18.768 18.4807 18.624 18.3127 18.744C18.6007 18.912 19.1047 18.912 19.1528 19.296C18.9128 19.272 18.7208 19.152 18.5288 19.272C18.6008 19.416 18.4328 19.488 18.5288 19.608C18.4328 19.632 18.3848 19.512 18.4088 19.656C18.3368 19.656 18.3128 19.608 18.2408 19.632C18.2648 19.704 18.3848 19.68 18.4328 19.704L18.3608 19.944L18.1688 19.992C17.4248 19.8 16.6088 19.776 15.7448 19.704C13.4168 19.704 11.1607 19.848 8.90475 20.136C8.83275 20.064 8.80875 19.944 8.73675 19.896C8.76075 19.872 8.76075 19.776 8.83275 19.8C8.78475 19.704 8.68875 19.632 8.78475 19.488C8.61675 19.488 8.56875 19.32 8.71275 19.248C8.66475 19.224 8.68875 19.2 8.71275 19.176C8.59275 19.056 8.35275 18.888 8.42475 18.768L9.02475 18.336C8.73675 18.408 8.61675 18.12 8.42475 18.168C8.42475 18.144 8.44875 18.144 8.44875 18.12C8.40075 18.144 7.96875 18.168 7.96875 17.952C8.01675 17.976 8.08875 17.88 8.18475 17.808L8.20875 17.832C10.0327 16.392 11.8808 15.168 13.8728 13.752C14.4488 13.248 15.0727 12.84 15.6488 12.288C16.1287 11.904 16.7768 11.28 17.0648 10.92C17.3048 10.728 17.6408 10.368 17.8328 10.08C18.0728 9.91199 18.2408 9.52799 18.4808 9.31199C18.4808 9.28799 18.4568 9.28799 18.4568 9.31199C18.3848 9.31199 18.4567 9.23999 18.5047 9.26399C18.7207 8.95199 18.8168 8.68799 19.0808 8.44799C19.0568 8.27999 19.3448 8.03999 19.3208 7.87199C19.5128 7.63199 19.5608 7.41599 19.6808 7.12799C19.7048 7.12799 19.7048 7.15199 19.7288 7.15199C19.7048 7.12799 19.6808 7.00799 19.7528 7.07999C19.7287 6.95999 19.8247 6.64799 19.8967 6.67199C19.8967 6.16799 20.0648 5.75999 19.9688 5.23199C19.7288 4.99199 19.3448 4.89599 18.9368 4.84799C17.0888 4.89599 16.1288 5.97599 15.1208 6.79199C14.2328 7.77599 13.2488 8.80799 12.9608 10.248C12.9368 10.848 12.7928 11.712 13.1768 12.264C13.1768 12.312 13.0808 12.288 13.0808 12.336C12.9848 12.336 13.0088 12.24 12.9128 12.216C12.8888 12.432 13.0808 13.008 12.6488 12.96C12.1928 12.384 11.5207 11.712 11.3527 11.184C11.3048 10.992 11.1367 10.68 11.2087 10.512C11.0407 10.296 11.2328 10.152 11.1368 10.032C11.2088 9.31199 11.3767 8.47199 11.6648 7.94399C11.6887 7.91999 11.7127 7.96799 11.7367 7.94399C12.0247 7.29599 12.2648 6.79199 12.6488 6.38399C13.2248 5.51999 14.0888 4.65599 14.9288 4.12799C14.9768 4.10399 14.9288 4.07999 15.0008 4.03199C15.0248 4.03199 15.0247 4.05599 15.0247 4.07999C15.2887 3.83999 15.6007 3.64799 15.8407 3.59999C16.2008 3.26399 16.9688 3.16799 17.4728 2.99999H17.4487C17.5447 3.07199 17.6648 2.95199 17.8568 2.99999C17.6648 2.90399 17.9527 2.92799 18.0007 2.85599C18.0247 2.85599 18.0007 2.90399 18.0247 2.95199C18.0247 2.90399 18.1208 2.92799 18.1208 2.87999C18.0968 2.90399 18.0728 2.90399 18.0728 2.87999C18.0728 2.83199 18.1448 2.83199 18.2168 2.83199C18.2408 2.90399 18.1928 2.92799 18.2408 2.95199C18.2888 2.92799 18.2168 2.87999 18.2408 2.83199C18.2408 2.87999 18.3848 2.83199 18.4088 2.90399C18.5288 2.92799 18.5768 2.87999 18.6968 2.87999C18.6968 2.83199 18.5768 2.87999 18.6248 2.78399C18.6487 2.80799 18.6728 2.83199 18.7208 2.83199C18.7928 2.83199 18.7208 2.75999 18.6728 2.78399C18.6968 2.66399 18.7928 2.80799 18.8407 2.85599C18.7687 2.85599 18.7688 2.80799 18.7208 2.85599C18.8168 2.92799 18.9128 2.92799 18.9608 2.85599C19.1767 2.87999 19.4888 2.97599 19.7768 2.95199C19.7528 2.92799 19.7768 2.87999 19.7528 2.85599C19.8488 2.85599 19.8967 2.92799 19.9207 2.97599C20.0407 2.99999 19.9928 2.80799 20.0408 2.87999C20.0648 2.87999 20.0648 2.90399 20.0408 2.95199L20.0887 2.99999C20.0647 3.07199 20.0168 2.99999 20.0168 2.95199C19.9687 2.97599 19.8968 2.99999 19.8728 2.97599C19.9208 3.16799 20.2808 3.11999 20.3048 3.26399C20.3288 3.26399 20.5688 3.33599 20.4967 3.43199C20.5688 3.43199 20.6888 3.35999 20.6408 3.31199C20.6648 3.31199 20.7128 3.38399 20.7608 3.47999C20.7608 3.55199 20.7368 3.57599 20.6888 3.52799C20.7368 3.50399 20.7608 3.40799 20.6888 3.40799C20.6888 3.45599 20.6168 3.40799 20.5928 3.45599C20.6407 3.45599 20.6408 3.50399 20.6408 3.52799C20.6408 3.52799 20.6648 3.55199 20.6888 3.52799L20.7848 3.64799C20.7848 3.57599 20.7368 3.57599 20.7848 3.50399C20.8568 3.55199 20.8568 3.64799 20.9528 3.64799C20.8808 3.76799 21.1208 3.86399 21.1208 4.05599C21.0248 3.98399 20.9768 3.83999 20.8808 3.76799C20.8808 3.71999 20.9048 3.74399 20.9288 3.71999C20.9048 3.64799 20.8568 3.71999 20.7848 3.67199C20.9048 3.83999 20.9768 4.05599 21.1927 4.10399C21.1447 4.19999 21.3368 4.24799 21.2887 4.41599C21.5528 4.82399 21.7208 5.25599 21.7928 5.73599C22.0328 7.12799 21.3848 8.30399 20.9048 9.35999C20.8808 9.35999 20.8808 9.33599 20.8568 9.33599C20.6408 9.86399 20.2088 10.32 19.9688 10.752C19.9448 10.8 19.9447 10.776 19.8967 10.752C19.7767 11.064 19.5608 11.304 19.3208 11.496C18.8648 12.144 18.2167 12.816 17.7367 13.368C17.5208 13.536 17.3048 13.848 17.1128 13.944C17.0648 14.04 16.8967 14.208 16.7528 14.304C16.7287 14.304 16.7528 14.328 16.7528 14.328C16.3447 14.688 15.8888 15.048 15.4808 15.432C15.4328 15.456 15.4328 15.408 15.4088 15.408C15.4328 15.552 15.1928 15.624 15.0728 15.72C14.3768 16.32 13.5608 16.872 12.7688 17.424C12.7688 17.448 12.7928 17.448 12.8168 17.448C12.7448 17.472 12.6008 17.448 12.6488 17.64C12.6728 17.64 12.6728 17.616 12.6968 17.592C12.7448 17.712 12.7927 17.544 12.8647 17.64C12.8647 17.688 12.7928 17.664 12.7688 17.664C12.8648 17.736 13.0328 17.712 13.1048 17.712C13.1288 17.64 12.9848 17.712 13.0328 17.616C13.1528 17.592 13.1528 17.736 13.2008 17.616C13.2968 17.664 13.2008 17.64 13.2008 17.736C13.3928 17.712 13.2968 17.544 13.4888 17.568C13.4888 17.616 13.4167 17.592 13.4167 17.64C13.4887 17.712 13.7048 17.568 13.7768 17.664C13.8248 17.568 13.9928 17.568 14.0408 17.664C14.1367 17.664 14.1847 17.568 14.2568 17.664C14.3047 17.664 14.2568 17.616 14.2327 17.616C14.2327 17.568 14.3048 17.664 14.3768 17.616C14.3528 17.712 14.3528 17.664 14.3768 17.76C14.3048 17.736 14.2088 17.736 14.1847 17.664C14.1847 17.76 14.0168 17.736 13.8968 17.712C13.8968 17.664 13.9687 17.688 13.9928 17.64ZM14.6408 18.192C13.8008 18.168 12.5767 18.096 11.8088 18.12C11.7127 18.144 11.6408 18.192 11.5928 18.264C13.7528 18.168 15.9848 18.36 17.7367 18.6C16.7528 18.408 15.6968 18.288 14.6408 18.192ZM13.0328 6.45599C13.0088 6.35999 13.2488 6.26399 13.1048 6.23999C13.0328 6.35999 12.9847 6.47999 12.8888 6.47999C12.9368 6.67199 12.7208 6.62399 12.7928 6.74399C12.6728 6.74399 12.6728 6.79199 12.6968 6.86399C12.5048 6.98399 12.4567 7.31999 12.3368 7.34399C12.2407 7.72799 11.9528 7.96799 11.9528 8.27999C11.9048 8.27999 11.9047 8.25599 11.8807 8.25599C11.8567 8.51999 11.6408 8.78399 11.6648 8.97599C11.6408 8.99999 11.6168 8.97599 11.6168 9.02399C11.6408 9.02399 11.6648 9.02399 11.6648 9.04799C11.6408 9.04799 11.5928 9.07199 11.5928 9.11999C11.6168 9.11999 11.6647 9.11999 11.6407 9.16799C11.5447 9.09599 11.5448 9.40799 11.6168 9.21599V9.33599C11.4728 9.40799 11.4728 9.57599 11.5688 9.67199C11.4728 9.67199 11.4488 10.056 11.5448 10.104C11.5208 10.152 11.4488 10.128 11.4488 10.176C11.5448 10.536 11.4967 10.896 11.6648 11.16C11.6408 10.968 11.6408 10.68 11.5688 10.584C11.6408 10.56 11.6168 10.32 11.5448 10.272C11.6648 10.152 11.4968 9.98399 11.6168 9.91199C11.5688 9.76799 11.6167 9.33599 11.7367 9.11999C11.6887 9.11999 11.6888 9.07199 11.6888 9.04799C11.8568 8.66399 11.9527 8.18399 12.1927 7.87199V7.75199C12.4807 7.34399 12.6968 6.81599 13.0328 6.45599ZM16.4167 12.12C17.6167 11.064 18.7208 9.86399 19.5368 8.42399C19.5128 8.42399 19.4648 8.30399 19.4648 8.37599C19.5128 8.37599 19.3688 8.49599 19.4888 8.44799C19.4648 8.47199 19.4648 8.54399 19.4167 8.56799C19.3927 8.51999 19.4407 8.51999 19.4167 8.49599C19.3927 8.54399 19.3208 8.59199 19.3688 8.66399C19.2488 8.68799 19.3448 8.78399 19.2248 8.83199C19.2248 8.78399 19.2728 8.75999 19.2248 8.73599C19.1528 8.85599 19.1767 8.92799 19.1528 8.97599C19.1288 8.97599 19.1288 8.97599 19.1047 8.95199C19.1047 9.07199 18.9608 9.09599 19.0328 9.21599C18.9608 9.21599 18.8888 9.26399 18.9368 9.31199C18.9128 9.31199 18.9128 9.28799 18.8888 9.28799C18.8888 9.31199 18.8887 9.33599 18.9128 9.35999C18.8887 9.35999 18.8887 9.33599 18.8647 9.33599C18.8167 9.38399 18.8647 9.38399 18.8647 9.45599C18.7687 9.40799 18.7207 9.55199 18.8167 9.47999C18.7927 9.55199 18.6728 9.50399 18.7448 9.57599C18.6488 9.59999 18.6248 9.67199 18.5768 9.71999C18.6248 9.71999 18.5287 9.83999 18.5047 9.76799C18.2647 10.248 18.0247 10.344 17.7127 10.8C17.5447 10.872 17.4728 11.136 17.3288 11.136C17.3528 11.136 17.3768 11.16 17.3528 11.184C17.2568 11.232 17.2088 11.376 17.1128 11.352C16.9688 11.64 16.6328 11.784 16.4167 12.12ZM20.7608 8.83199C21.1448 8.08799 21.5768 7.05599 21.4808 6.14399C21.4328 6.38399 21.4808 6.57599 21.3848 6.64799C21.4088 6.67199 21.4328 6.67199 21.4568 6.64799C21.2648 7.27199 20.9528 8.01599 20.7608 8.83199ZM16.3447 4.24799C16.9688 3.83999 17.7848 3.50399 18.6968 3.35999C17.9288 3.19199 17.2568 3.69599 16.7528 3.91199C16.7287 3.95999 16.4167 4.10399 16.3447 4.24799ZM20.2808 6.91199C20.3047 6.83999 20.2088 6.86399 20.2327 6.79199C20.2567 6.79199 20.2568 6.81599 20.2808 6.83999C20.3047 6.76799 20.3288 6.71999 20.3288 6.64799C20.2568 6.67199 20.2807 6.59999 20.2327 6.59999C20.2088 6.64799 20.2328 6.67199 20.2568 6.69599C20.2568 6.69599 20.2327 6.69599 20.2327 6.67199C20.2088 6.76799 20.1367 6.81599 20.2327 6.88799C20.0887 6.81599 20.2568 7.00799 20.1847 7.00799C20.1607 6.98399 20.1848 6.93599 20.1128 6.93599C20.0887 7.15199 19.9928 7.31999 19.9928 7.43999C19.9688 7.41599 19.9447 7.41599 19.9447 7.43999C19.9687 7.46399 19.8968 7.51199 19.9688 7.51199C19.8968 7.53599 19.8728 7.55999 19.9447 7.60799C19.8728 7.55999 19.8728 7.63199 19.8488 7.65599C19.8248 7.72799 19.8727 7.72799 19.8967 7.79999C19.8008 7.75199 19.8248 7.77599 19.7528 7.82399C19.7287 7.89599 19.7768 7.91999 19.7768 7.96799C19.7528 7.96799 19.7287 7.94399 19.7048 7.91999C19.6567 7.99199 19.7527 8.13599 19.6567 8.03999C19.6567 8.06399 19.6328 8.08799 19.6328 8.11199C19.6328 8.11199 19.6808 8.11199 19.6808 8.13599C19.6088 8.15999 19.5368 8.25599 19.5848 8.30399C19.5608 8.30399 19.5608 8.27999 19.5128 8.27999C19.5128 8.35199 19.5128 8.39999 19.5608 8.42399C19.7768 8.01599 20.0648 7.53599 20.1608 7.12799C20.0888 7.17599 20.1608 7.22399 20.0648 7.27199C20.0888 7.19999 20.1128 7.22399 20.0887 7.12799C20.2327 7.15199 20.2088 6.98399 20.2808 6.91199ZM15.9848 12.552C16.0328 12.36 16.4647 12.264 16.3447 12.096C16.0807 12.432 15.6968 12.672 15.3368 13.032C15.5528 12.936 15.6727 12.768 15.8407 12.624C15.9128 12.624 15.8888 12.552 15.9848 12.552ZM12.5528 11.328C12.6728 11.304 12.6008 11.472 12.6728 11.52C12.6488 11.28 12.6488 11.016 12.6007 10.776C12.5048 11.04 12.6488 11.184 12.5528 11.328ZM19.2248 2.78399C19.1048 2.85599 18.9608 2.85599 18.8407 2.78399C18.9128 2.71199 19.1528 2.78399 19.2968 2.71199C19.3208 2.75999 19.3928 2.75999 19.3688 2.83199C19.3448 2.83199 19.3208 2.83199 19.3208 2.85599C19.2728 2.85599 19.3448 2.83199 19.3208 2.78399H19.2488C19.3208 2.83199 19.2008 2.87999 19.2248 2.78399ZM20.3288 6.62399C20.4007 6.45599 20.3768 6.28799 20.3528 6.09599C20.3288 6.31199 20.1847 6.47999 20.3288 6.62399ZM20.1847 3.04799C20.1368 3.04799 20.1607 3.11999 20.0887 3.09599C20.0887 3.07199 20.1128 3.07199 20.1128 3.02399C20.1368 3.04799 20.1608 3.04799 20.1608 3.02399C20.2088 3.02399 20.2327 3.04799 20.2327 3.09599C20.2567 3.09599 20.2808 3.07199 20.2808 3.04799C20.2088 2.99999 20.3528 3.04799 20.2808 3.09599C20.3528 3.14399 20.3048 3.02399 20.3768 3.04799C20.3768 3.07199 20.3528 3.09599 20.3768 3.09599C20.3288 3.09599 20.3047 3.16799 20.3528 3.19199C20.3047 3.14399 20.2328 3.11999 20.1608 3.11999C20.1848 3.11999 20.1847 3.09599 20.1847 3.04799ZM16.9447 17.928C16.9688 18 16.8968 18 16.8488 18C16.8488 17.976 16.8728 17.952 16.8728 17.928C16.8248 17.904 16.8248 17.928 16.8248 17.976C16.8008 17.976 16.8008 17.952 16.7528 17.952V17.88C16.8487 17.88 16.8728 17.928 16.9447 17.928ZM20.5928 3.31199C20.4968 3.38399 20.4248 3.26399 20.3528 3.19199C20.3528 3.21599 20.3767 3.21599 20.4007 3.21599C20.4248 3.23999 20.4728 3.21599 20.4728 3.19199C20.5208 3.19199 20.4728 3.23999 20.4488 3.23999C20.4488 3.26399 20.4967 3.26399 20.4967 3.28799C20.5207 3.28799 20.5208 3.23999 20.5208 3.21599C20.6407 3.26399 20.4488 3.31199 20.5928 3.31199ZM15.2648 17.808C15.2408 17.712 15.3368 17.736 15.4088 17.712C15.3848 17.712 15.3848 17.736 15.3848 17.76C15.3848 17.784 15.4328 17.784 15.4567 17.784C15.5048 17.856 15.3128 17.76 15.2648 17.808ZM17.8568 18.168C17.8088 18.144 17.7608 18.144 17.6888 18.144C17.6888 18.072 17.8088 18.12 17.8088 18.048C17.8327 18.072 17.8568 18.12 17.8568 18.168ZM14.7847 13.464C14.8328 13.512 15.0008 13.344 14.9768 13.32C14.8808 13.344 14.8567 13.416 14.8088 13.464C14.8088 13.416 14.7128 13.44 14.7847 13.464ZM13.7768 17.52C13.7048 17.592 13.4887 17.472 13.4648 17.544C13.4408 17.424 13.6568 17.52 13.7768 17.52ZM12.8407 17.592V17.544C12.9607 17.592 12.9848 17.52 13.0568 17.568C13.0568 17.64 12.8647 17.544 12.8647 17.616C12.8407 17.616 12.8407 17.616 12.8407 17.592ZM15.0008 13.296C15.0728 13.368 15.0968 13.2 15.1928 13.176C15.1448 13.176 15.1448 13.152 15.0968 13.152C15.0968 13.176 15.0728 13.176 15.0728 13.2C15.1688 13.248 15.0008 13.248 15.0008 13.296ZM18.5047 18.264C18.5527 18.288 18.5047 18.312 18.5047 18.36C18.4327 18.36 18.4088 18.312 18.3608 18.264C18.3128 18.216 18.5047 18.336 18.5047 18.264ZM12.7448 17.664C12.6247 17.688 12.4568 17.64 12.4088 17.712C12.5048 17.688 12.6727 17.736 12.7448 17.664ZM15.9128 17.856H15.7928C15.7928 17.832 15.8407 17.784 15.8407 17.832C15.8648 17.808 15.8888 17.784 15.8888 17.76C15.9607 17.784 15.9128 17.784 15.9128 17.856ZM13.0808 14.784C13.0568 14.712 13.2008 14.712 13.1048 14.688C13.1048 14.712 13.0808 14.712 13.0568 14.736C13.0568 14.712 13.0568 14.688 13.0328 14.712C13.0328 14.712 12.9607 14.808 13.0328 14.808C13.0328 14.784 13.0328 14.76 13.0568 14.76C13.0568 14.784 13.0568 14.784 13.0808 14.784ZM13.4167 14.544C13.4167 14.448 13.5127 14.472 13.5608 14.4C13.4648 14.4 13.3447 14.472 13.4167 14.544ZM19.6328 2.85599C19.6088 2.83199 19.6328 2.83199 19.6567 2.83199H19.7048C19.7287 2.90399 19.7527 2.92799 19.6567 2.95199C19.6567 2.92799 19.6568 2.90399 19.6808 2.90399C19.6568 2.87999 19.6568 2.85599 19.6328 2.85599ZM13.4167 17.472C13.3927 17.52 13.2008 17.52 13.1768 17.472C13.2728 17.496 13.3687 17.448 13.4167 17.472ZM12.7688 14.976C12.8168 14.976 12.9127 14.88 12.8407 14.832C12.8647 14.928 12.7208 14.88 12.7688 14.976ZM14.3048 13.824C14.4008 13.8 14.4728 13.776 14.4967 13.704C14.4248 13.776 14.3528 13.728 14.3048 13.824ZM13.7048 17.664C13.7048 17.736 13.6088 17.712 13.5848 17.688C13.5848 17.808 13.7768 17.736 13.7048 17.664ZM14.5688 13.704C14.5448 13.632 14.6408 13.656 14.6408 13.608C14.5688 13.56 14.6168 13.632 14.5688 13.632C14.5448 13.632 14.5688 13.584 14.5208 13.584C14.5208 13.632 14.5207 13.656 14.5448 13.68C14.5448 13.704 14.5208 13.704 14.5688 13.704ZM8.90475 17.784C8.85675 17.712 9.07275 17.712 8.95275 17.64C8.95275 17.688 8.80875 17.736 8.90475 17.784ZM18.4808 2.78399C18.5288 2.71199 18.5768 2.75999 18.6248 2.78399C18.5287 2.80799 18.5528 2.80799 18.4808 2.78399ZM16.7048 17.976C16.6567 17.976 16.6567 17.928 16.6567 17.856C16.7047 17.88 16.7528 17.928 16.7048 17.976ZM19.4648 2.87999C19.4648 2.85599 19.4888 2.80799 19.5128 2.78399C19.5848 2.78399 19.5368 2.90399 19.4648 2.87999ZM13.1528 17.472C13.1287 17.568 13.0328 17.424 13.0328 17.52C12.9368 17.448 13.1048 17.448 13.1528 17.472ZM12.0008 15.432C12.0008 15.504 11.8328 15.504 11.9047 15.576C11.9287 15.552 12.0488 15.456 12.0008 15.432ZM9.00075 17.616C9.04875 17.664 9.09675 17.664 9.12075 17.592C9.07275 17.592 9.00075 17.592 9.00075 17.616ZM13.4167 17.712C13.3927 17.64 13.2488 17.712 13.3208 17.76C13.3448 17.712 13.4167 17.736 13.4167 17.712ZM14.6408 13.56C14.6648 13.608 14.7128 13.584 14.7608 13.536C14.6888 13.536 14.6648 13.488 14.6408 13.56ZM17.8568 2.83199C17.8088 2.87999 17.7368 2.90399 17.6648 2.90399C17.6888 2.85599 17.7847 2.85599 17.8568 2.83199ZM11.2568 16.008C11.3048 16.032 11.4007 15.936 11.3527 15.936L11.3287 15.96C11.3047 15.936 11.3048 15.936 11.2808 15.936C11.2808 15.96 11.2808 15.984 11.2568 16.008ZM18.1208 18.672C18.0728 18.696 17.9048 18.624 17.9528 18.672C18.0248 18.648 18.0968 18.768 18.1208 18.672ZM13.8968 17.544C13.8968 17.472 13.9928 17.52 14.0168 17.544C13.9928 17.616 13.9448 17.52 13.8968 17.544ZM10.9207 16.296C10.9447 16.248 11.0168 16.248 11.0168 16.2H10.9447C10.9447 16.248 10.8487 16.344 10.9207 16.296ZM13.0087 17.64C12.9847 17.664 12.9128 17.688 12.8647 17.64C12.8887 17.592 12.9847 17.64 13.0087 17.64ZM16.4167 17.832C16.3927 17.88 16.2248 17.856 16.2488 17.784C16.2968 17.808 16.3207 17.856 16.4167 17.832ZM15.1928 13.152C15.2888 13.176 15.3368 13.08 15.2408 13.08C15.2408 13.128 15.1928 13.128 15.1928 13.152ZM12.4567 15.168C12.4087 15.168 12.3128 15.264 12.3608 15.288C12.3608 15.216 12.4567 15.24 12.4567 15.168ZM12.6488 15.024H12.7448C12.7207 15 12.7448 14.952 12.6968 14.952C12.6968 15 12.6248 14.976 12.6488 15.024ZM12.7928 17.544C12.7928 17.592 12.7448 17.592 12.6968 17.592C12.6968 17.568 12.6968 17.52 12.7928 17.544ZM18.1688 2.87999C18.1688 2.83199 18.1448 2.87999 18.1208 2.87999C18.1688 2.90399 18.1208 2.92799 18.1208 2.97599C18.1928 2.97599 18.1688 2.92799 18.1688 2.87999ZM12.8888 12.216C12.9368 12.192 12.9368 12.168 12.8647 12.144C12.8647 12.168 12.8647 12.168 12.8407 12.168V12.216H12.8888ZM15.5288 17.64C15.5528 17.712 15.4328 17.664 15.4088 17.664C15.4328 17.592 15.4567 17.664 15.5288 17.64ZM13.3927 5.92799C13.4647 5.97599 13.4647 5.80799 13.3927 5.85599V5.92799ZM19.5128 2.71199C19.4408 2.68799 19.6328 2.71199 19.6567 2.75999C19.7287 2.78399 19.5368 2.73599 19.5128 2.71199ZM14.9768 17.592C14.9527 17.664 14.8088 17.592 14.7608 17.616C14.7608 17.568 14.9047 17.616 14.9768 17.592ZM15.6488 5.90399C15.6488 5.85599 15.7688 5.83199 15.6968 5.80799C15.6968 5.83199 15.5528 5.87999 15.6488 5.90399ZM13.2008 17.544C13.2488 17.544 13.2247 17.616 13.2968 17.592C13.2968 17.664 13.1768 17.616 13.2008 17.544ZM13.6328 14.352C13.6808 14.352 13.6808 14.28 13.7288 14.256C13.6568 14.28 13.6328 14.304 13.6328 14.352ZM18.2648 18.696C18.0968 18.672 18.1928 18.792 18.2648 18.72V18.696ZM20.4728 3.11999C20.5208 3.14399 20.4488 3.21599 20.4007 3.21599C20.4248 3.19199 20.4008 3.19199 20.3768 3.19199C20.4008 3.11999 20.4488 3.21599 20.4728 3.11999ZM13.1528 6.21599C13.2008 6.21599 13.2248 6.16799 13.2488 6.11999C13.1768 6.11999 13.1768 6.16799 13.1528 6.21599ZM9.74475 17.16C9.74475 17.112 9.79275 17.136 9.79275 17.112C9.76875 17.112 9.74475 17.064 9.72075 17.064C9.72075 17.112 9.69675 17.16 9.74475 17.16ZM17.8808 18.072C17.9528 18.096 17.9528 18.192 17.8808 18.192C17.9048 18.168 17.8808 18.12 17.8808 18.072ZM12.6248 15.048C12.5768 15.048 12.5528 15.072 12.5528 15.12C12.6008 15.12 12.6248 15.096 12.6248 15.048ZM11.5448 15.816H11.5928C11.6168 15.792 11.6168 15.744 11.5688 15.744C11.5688 15.768 11.5688 15.768 11.5448 15.768V15.816ZM9.12075 17.52C9.07275 17.568 9.19275 17.592 9.19275 17.544C9.16875 17.544 9.14475 17.496 9.12075 17.52ZM9.55275 17.328V17.256H9.50475V17.328H9.55275ZM19.4408 2.85599C19.3928 2.85599 19.4168 2.83199 19.4408 2.83199C19.4168 2.80799 19.3927 2.78399 19.4167 2.75999C19.4167 2.73599 19.4408 2.75999 19.4408 2.78399C19.4648 2.78399 19.4648 2.75999 19.4648 2.75999C19.5128 2.75999 19.4168 2.83199 19.4408 2.85599ZM10.2008 16.776C10.2248 16.752 10.2727 16.752 10.2727 16.728C10.2488 16.704 10.1288 16.752 10.2008 16.776ZM10.0568 16.872C10.1048 16.896 10.1287 16.872 10.1528 16.824C10.1047 16.824 10.0808 16.848 10.0568 16.872ZM9.60075 17.208C9.64875 17.208 9.69675 17.208 9.67275 17.16H9.62475C9.62475 17.184 9.60075 17.184 9.60075 17.208ZM19.5608 2.83199C19.5848 2.85599 19.6087 2.90399 19.6567 2.87999C19.6328 2.95199 19.5368 2.87999 19.5608 2.83199ZM13.6328 5.66399C13.6328 5.63999 13.7528 5.61599 13.6568 5.59199C13.6808 5.61599 13.5608 5.63999 13.6328 5.66399ZM13.2728 14.592C13.3448 14.64 13.3688 14.496 13.3208 14.568C13.2968 14.568 13.2248 14.568 13.2728 14.592ZM9.81675 17.04C9.84075 17.04 9.88875 17.04 9.91275 17.016C9.84075 17.016 9.91275 16.968 9.86475 16.968C9.86475 17.016 9.84075 17.016 9.81675 17.04ZM13.8968 14.184C13.8968 14.16 13.9448 14.136 13.8968 14.112C13.8968 14.136 13.8488 14.16 13.8968 14.184ZM18.6248 2.66399C18.6007 2.71199 18.5768 2.68799 18.5288 2.68799C18.5288 2.66399 18.5768 2.66399 18.6248 2.66399ZM18.6728 18.24C18.6728 18.288 18.6248 18.264 18.5768 18.264C18.6008 18.24 18.6488 18.24 18.6728 18.24ZM17.0168 18C17.0408 17.976 17.1368 17.976 17.1368 17.976C17.0888 18 17.0648 18 17.0168 18ZM17.7607 18.072C17.7367 18.072 17.6888 18.096 17.6888 18.048C17.7368 18.048 17.7607 18.048 17.7607 18.072ZM19.0328 2.63999C19.0088 2.66399 18.9848 2.66399 18.9368 2.66399C18.9368 2.63999 18.9848 2.63999 19.0328 2.63999ZM19.8248 2.95199C19.8248 2.92799 19.8248 2.87999 19.7768 2.95199H19.8248C19.8248 2.97599 19.8248 2.97599 19.8728 2.95199H19.8248ZM16.6328 5.18399C16.6568 5.15999 16.6807 5.18399 16.6807 5.13599C16.6568 5.15999 16.6328 5.13599 16.6328 5.18399ZM17.1128 18C17.1368 18 17.1368 17.976 17.1368 17.976H17.1608C17.1848 18.024 17.0408 18.024 17.1128 18ZM17.9288 2.97599C17.9288 2.95199 17.8808 2.92799 17.8808 2.97599C17.9048 2.97599 17.9288 2.99999 17.9288 2.97599ZM12.2168 15.36C12.2168 15.336 12.1688 15.336 12.1688 15.36C12.1928 15.36 12.1928 15.408 12.2168 15.36ZM17.9048 18.624C17.8808 18.624 17.8328 18.624 17.8328 18.648C17.8568 18.648 17.9048 18.648 17.9048 18.624ZM13.5608 17.712C13.5127 17.712 13.4648 17.688 13.4648 17.736C13.4887 17.712 13.5367 17.736 13.5608 17.712ZM14.2808 17.544C14.2808 17.568 14.2328 17.568 14.2088 17.568C14.2088 17.544 14.2568 17.544 14.2808 17.544ZM14.1847 17.544C14.1847 17.568 14.1367 17.568 14.1128 17.568C14.1128 17.544 14.1607 17.544 14.1847 17.544ZM19.0808 9.04799C19.1048 9.04799 19.1048 9.09599 19.0808 9.09599C19.0328 9.07199 19.0808 9.07199 19.0808 9.04799ZM18.1208 18.12C18.1208 18.072 18.1448 18.096 18.1688 18.072C18.1688 18.096 18.1448 18.096 18.1208 18.12ZM17.5688 2.95199C17.5688 2.97599 17.5208 2.97599 17.4728 2.99999L17.5688 2.95199ZM18.2408 18.192C18.2648 18.192 18.2408 18.216 18.2168 18.216C18.2168 18.216 18.2408 18.216 18.2408 18.192ZM12.9608 17.448C12.9608 17.472 12.9128 17.472 12.8888 17.472C12.8888 17.448 12.9368 17.472 12.9608 17.448ZM15.6728 17.808C15.6728 17.832 15.6488 17.832 15.6248 17.832C15.6248 17.808 15.6488 17.808 15.6728 17.808ZM16.2488 4.27199C16.2728 4.27199 16.2967 4.27199 16.2967 4.24799C16.2727 4.24799 16.2488 4.24799 16.2488 4.27199ZM19.3208 2.66399C19.3208 2.68799 19.2968 2.68799 19.2728 2.68799C19.2728 2.66399 19.2968 2.66399 19.3208 2.66399ZM8.78475 17.808C8.80875 17.808 8.83275 17.808 8.83275 17.784C8.80875 17.784 8.78475 17.784 8.78475 17.808ZM14.4248 4.84799C14.4488 4.84799 14.4728 4.84799 14.4728 4.82399C14.4488 4.82399 14.4248 4.82399 14.4248 4.84799ZM15.6488 17.64C15.6488 17.664 15.6247 17.664 15.6007 17.664C15.6007 17.64 15.6247 17.64 15.6488 17.64ZM17.0648 17.832C17.0648 17.856 17.0408 17.856 17.0168 17.856C17.0168 17.832 17.0408 17.832 17.0648 17.832ZM15.2168 17.616C15.2168 17.64 15.1688 17.64 15.1688 17.64C15.1688 17.616 15.1928 17.616 15.2168 17.616ZM14.9768 4.41599C14.9768 4.41599 15.0247 4.41599 15.0247 4.39199C15.0008 4.39199 14.9768 4.39199 14.9768 4.41599ZM16.9447 17.832C16.9447 17.856 16.9207 17.856 16.8967 17.856C16.8967 17.832 16.9447 17.832 16.9447 17.832ZM14.6168 17.568C14.6168 17.592 14.5688 17.592 14.5688 17.592C14.5688 17.568 14.5928 17.568 14.6168 17.568ZM14.0408 5.20799C14.0648 5.18399 14.0888 5.20799 14.0888 5.18399C14.0648 5.18399 14.0408 5.18399 14.0408 5.20799ZM17.3048 4.79999C17.3288 4.77599 17.3528 4.79999 17.3528 4.77599C17.3528 4.77599 17.3048 4.77599 17.3048 4.79999ZM18.3368 2.68799C18.3368 2.71199 18.3128 2.71199 18.2887 2.71199C18.2887 2.68799 18.3128 2.71199 18.3368 2.68799ZM16.0088 17.736C16.0088 17.712 16.0328 17.712 16.0568 17.712C16.0568 17.736 16.0328 17.712 16.0088 17.736ZM16.6328 17.856C16.6328 17.88 16.5848 17.88 16.5848 17.88C16.5848 17.856 16.6088 17.88 16.6328 17.856ZM8.20875 17.832C8.20875 17.856 8.18475 17.856 8.18475 17.856L8.20875 17.832ZM20.0408 2.95199C20.0168 2.92799 20.0168 2.95199 20.0168 2.95199H20.0408Z" fill="#7A7A7A"/>
<path d="M30.4237 6.21599C30.6637 7.10399 30.8318 8.85599 30.5198 10.248C30.4718 10.704 30.4238 10.92 30.3038 11.232C30.2798 11.352 30.2557 11.688 30.1838 11.808C30.2318 11.88 30.1597 11.928 30.1838 12.048C29.9917 12.792 29.8478 13.32 29.5597 14.064C28.7918 15.696 27.7358 17.04 26.5358 18.24C25.7198 18.912 25.0238 19.704 23.8717 20.016C23.3917 20.064 23.1998 19.968 22.8878 19.824C22.6478 19.632 22.4797 19.392 22.2397 19.2V19.152C22.0477 19.008 21.8318 18.888 21.7118 18.696C21.2317 18.6 20.8477 18.144 20.7997 17.736C20.7757 17.712 20.7518 17.712 20.7518 17.736C20.6318 17.496 20.6317 17.328 20.5357 17.088C20.5597 17.088 20.5597 17.112 20.6077 17.112C20.4157 16.464 20.5118 16.296 20.4638 15.6C20.4878 15.6 20.4877 15.648 20.4877 15.672C20.5597 15.336 20.4397 14.952 20.6077 14.784C20.5357 14.784 20.5837 14.784 20.5357 14.712C20.5597 14.688 20.5838 14.688 20.6318 14.688C20.6078 14.64 20.5597 14.616 20.5597 14.544C20.5837 14.544 20.6078 14.568 20.6318 14.568C20.5598 14.376 20.6798 14.376 20.6318 14.136C20.6558 14.136 20.6558 14.16 20.6798 14.16C20.7278 13.632 20.8478 13.2 20.9438 12.72L21.2078 11.856C21.2558 11.616 21.4478 11.16 21.4718 10.872C22.2638 8.68799 23.3678 6.47999 24.4718 4.55999C24.4718 4.53599 24.4478 4.46399 24.4718 4.43999C24.5918 4.19999 24.7597 3.98399 24.9277 3.79199C24.8797 3.71999 25.0238 3.50399 25.0958 3.55199C25.0958 3.35999 25.3597 3.23999 25.4797 3.33599C25.5277 3.23999 25.7437 3.26399 25.7437 3.11999C25.8637 3.09599 25.8638 3.07199 25.9358 3.11999C25.9838 3.04799 25.9358 3.07199 25.9358 2.99999C25.9598 3.02399 26.0317 3.07199 26.0077 2.97599C26.1277 2.99999 26.1517 3.16799 26.2717 3.11999L26.1038 3.23999C26.1038 3.28799 26.1518 3.28799 26.1518 3.33599C26.3438 3.21599 26.4638 3.11999 26.6318 3.04799C26.6077 3.02399 26.6077 2.95199 26.5837 2.90399C26.6317 2.95199 26.6798 2.85599 26.7278 2.92799C26.7038 2.97599 26.6558 2.87999 26.7038 2.97599C26.7518 2.97599 26.7998 2.87999 26.7278 2.85599H26.7998C26.8478 2.95199 26.7038 2.97599 26.6558 3.04799L26.8717 2.97599C26.8237 2.95199 26.8478 2.87999 26.7998 2.85599C26.8238 2.85599 26.8237 2.85599 26.8237 2.78399C26.8717 2.78399 26.8478 2.83199 26.8717 2.85599C26.8957 2.87999 26.9918 2.80799 26.9198 2.80799C26.9437 2.75999 27.0638 2.87999 26.9918 2.90399C27.1358 2.87999 27.2558 2.90399 27.3278 2.83199C27.3278 2.75999 27.2078 2.80799 27.2798 2.73599C27.3758 2.68799 27.3518 2.78399 27.3518 2.85599C27.4478 2.87999 27.4718 2.85599 27.5438 2.83199C27.5438 2.78399 27.4237 2.83199 27.3757 2.80799C27.4237 2.68799 27.5198 2.78399 27.5918 2.71199C27.5678 2.78399 27.6878 2.80799 27.5678 2.80799L27.9998 2.85599C27.9998 2.75999 27.9517 2.71199 27.9277 2.61599C27.9757 2.66399 28.0238 2.71199 28.0718 2.73599C28.0958 2.75999 28.1677 2.75999 28.2157 2.78399V2.75999H28.2638L28.2157 2.80799C28.2398 2.83199 28.3117 2.78399 28.2878 2.75999C28.4558 2.80799 28.7198 3.09599 28.8878 3.23999C28.7678 3.26399 28.7918 3.11999 28.6958 3.14399C28.7678 3.21599 28.8638 3.38399 28.9598 3.35999C29.6318 3.67199 29.8958 4.24799 30.1597 4.96799C30.2078 5.39999 30.4237 5.80799 30.4237 6.21599ZM26.6077 14.52C27.0878 13.824 27.4957 13.008 27.6637 12.336C27.8077 12.24 27.7118 12.048 27.8318 11.952C27.6878 11.88 27.9997 11.76 27.8797 11.64C27.9037 11.64 27.9037 11.664 27.9277 11.664C27.9277 11.52 27.9758 11.544 27.9038 11.52L27.9757 11.448C27.9038 11.328 28.0958 11.184 27.9998 11.016C28.0238 11.016 28.0478 11.04 28.0718 11.04C28.0718 10.8 28.1198 10.656 28.1438 10.416C28.2158 9.93599 28.2877 8.97599 28.1917 8.37599C28.2877 8.32799 28.1197 8.11199 28.2397 8.06399L28.1677 7.91999C28.1917 7.91999 28.1918 7.94399 28.2157 7.96799L27.9038 5.99999C27.8078 5.75999 27.6878 5.49599 27.7358 5.35199C27.6157 5.30399 27.6398 5.11199 27.5438 4.99199C26.7758 5.03999 26.3197 5.42399 25.7917 5.73599C25.7917 5.68799 25.8157 5.63999 25.7677 5.63999C25.5277 6.23999 25.3118 6.86399 25.0718 7.34399C24.8078 8.20799 24.3757 9.07199 24.0637 9.98399C23.8717 10.512 23.7037 11.112 23.5357 11.496C23.4877 11.616 23.4878 11.856 23.4398 12.048C23.2958 12.528 23.0797 13.296 23.0317 13.656C22.7917 14.904 22.7438 15.936 22.8878 17.256C22.9358 17.28 23.0317 17.616 23.0798 17.736C23.1758 17.736 23.1517 17.76 23.2477 17.736C23.2717 17.76 23.2717 17.832 23.2477 17.88C23.3197 17.856 23.3438 17.88 23.3678 17.832C23.3198 17.832 23.2957 17.76 23.2717 17.712C23.2957 17.736 23.3438 17.736 23.3918 17.736V17.832H23.5597V17.688C23.4637 17.664 23.5838 17.808 23.4638 17.808C23.5118 17.736 23.4157 17.664 23.5597 17.664C23.6077 17.64 23.6318 17.784 23.6558 17.712C23.5838 17.712 23.6318 17.616 23.6798 17.616C23.6558 17.664 23.6558 17.688 23.7038 17.712C23.7518 17.664 23.7038 17.664 23.7038 17.592C23.5598 17.616 23.4158 17.64 23.3918 17.712C23.3678 17.592 23.1278 17.784 23.1038 17.616C23.3438 17.688 23.5837 17.544 23.7757 17.544L23.7038 17.592C23.7518 17.712 23.8478 17.688 23.8958 17.592C23.8238 17.568 23.7998 17.712 23.7518 17.616C24.3518 17.376 24.7598 16.728 25.2397 16.392C25.7197 15.744 26.1277 15.336 26.5837 14.592C26.6317 14.592 26.6318 14.64 26.6558 14.592C26.6078 14.592 26.6077 14.568 26.6077 14.52ZM29.9438 6.91199C30.0638 7.22399 30.1117 7.89599 30.2318 8.25599C30.2078 6.74399 29.9438 5.66399 29.4398 4.34399C29.4158 4.34399 29.3918 4.34399 29.4158 4.36799C29.4878 4.70399 29.6557 4.99199 29.6318 5.27999C29.7037 5.35199 29.7758 5.73599 29.7998 5.87999C29.8718 6.23999 29.8718 6.55199 29.9918 6.86399C29.9678 6.86399 29.9198 6.88799 29.9438 6.91199ZM26.5837 16.128C26.6077 16.08 26.7998 15.936 26.7038 15.912C26.2958 16.44 25.7438 16.848 25.3118 17.28C25.3118 17.232 25.3598 17.232 25.3118 17.208C24.8798 17.64 24.2557 17.904 23.7757 18.288C24.1837 18.264 24.6158 17.976 24.7838 17.76C24.7838 17.784 24.7598 17.784 24.7598 17.808C24.8558 17.784 24.9517 17.712 24.9517 17.664C24.9757 17.736 24.9998 17.592 25.0718 17.616C25.3598 17.328 25.6958 17.112 25.9598 16.8L26.3918 16.368C26.4638 16.272 26.5357 16.224 26.5837 16.128ZM22.7677 8.63999C22.5037 9.11999 22.3118 9.67199 22.0718 10.416C22.0478 10.416 22.0478 10.392 22.0238 10.392C22.0478 10.56 21.9038 10.896 21.8318 10.992C21.8798 11.016 21.8078 11.256 21.7358 11.208C21.7838 11.472 21.4958 11.832 21.5678 12.048C21.4958 12.024 21.5438 12.144 21.4718 12.072C21.5438 12.192 21.4717 12.36 21.3997 12.408C21.4477 12.576 21.3518 12.768 21.2798 12.888C21.3998 12.96 21.1118 13.368 21.2558 13.584C21.3038 13.392 21.2797 13.224 21.3997 13.056C21.6157 11.568 22.2637 10.032 22.7677 8.63999ZM28.7917 8.90399C28.7677 8.80799 28.8397 8.61599 28.7677 8.56799C28.7677 8.59199 28.7198 8.59199 28.6958 8.59199C28.6718 8.66399 28.7677 8.61599 28.7677 8.68799C28.7197 8.68799 28.7198 8.66399 28.6958 8.68799C28.7438 8.83199 28.6477 8.99999 28.7197 9.02399C28.6237 9.07199 28.6718 9.38399 28.7438 9.33599C28.6718 9.45599 28.6477 9.57599 28.7197 9.62399C28.6957 9.79199 28.6718 9.74399 28.6238 9.83999C28.6478 9.88799 28.6718 9.81599 28.6958 9.86399C28.6238 10.056 28.5518 10.104 28.6238 10.32C28.5518 10.272 28.6238 10.632 28.5037 10.656C28.5758 10.752 28.5038 10.92 28.4318 10.944C28.5038 10.992 28.4558 11.208 28.4078 11.064C28.3838 11.616 28.1677 11.976 28.0238 12.552C27.9997 12.552 27.9757 12.528 27.9757 12.576C28.1197 12.576 28.1437 12.192 28.2397 12.072C28.4557 11.304 28.6958 10.464 28.7438 9.57599C28.7918 9.31199 28.7437 9.11999 28.7917 8.92799C28.7437 8.92799 28.6957 8.95199 28.7197 8.87999C28.7437 8.87999 28.7677 8.90399 28.7917 8.90399ZM22.7677 8.59199V8.61599L22.8158 8.51999C23.3918 7.27199 24.0877 5.85599 24.7358 4.55999C24.3278 5.25599 24.0158 5.85599 23.7278 6.40799C23.6798 6.47999 23.7038 6.62399 23.6558 6.69599C23.6558 6.69599 23.5837 6.71999 23.5357 6.81599C23.3197 7.27199 23.0317 7.96799 22.7677 8.59199ZM20.9678 16.464C20.9198 16.536 20.9198 16.704 20.9918 16.632C20.9438 16.728 20.8718 16.872 21.0158 16.92C21.0398 16.848 20.9678 16.848 20.9918 16.776C21.0158 16.776 21.0157 16.824 21.0637 16.824C21.0157 16.776 21.0877 16.752 21.0397 16.704C21.0397 16.728 21.0158 16.752 20.9918 16.752C21.0398 16.68 21.0878 16.464 20.9678 16.44C20.9918 16.44 20.9917 16.416 21.0397 16.416C20.9677 16.152 21.0158 15.576 21.0158 15.264C21.0158 14.712 21.2317 14.112 21.1597 13.608C21.1597 13.632 21.1357 13.656 21.1357 13.656C21.2557 13.68 21.0637 13.824 21.1597 13.896C21.1117 13.92 21.0877 13.968 21.1357 14.04C21.1117 14.04 21.0637 14.016 21.0637 14.064C21.1117 14.184 20.9677 14.496 21.0637 14.568L20.9438 14.64C20.9918 14.88 20.9438 15.072 21.0158 15.168C20.9678 15.168 20.9198 15.168 20.9198 15.192C20.9678 15.192 20.9918 15.216 21.0158 15.264C20.8718 15.24 21.0638 15.48 20.8958 15.456C21.0398 15.504 20.8718 15.792 20.9918 15.696C20.8958 15.816 21.0158 15.912 20.9438 16.008C20.9198 16.008 20.9198 15.96 20.8958 15.96C20.9438 16.056 20.8718 16.08 20.8958 16.128C20.9198 16.08 20.9438 16.056 20.9918 16.056C20.9678 16.104 20.9678 16.176 20.9918 16.248C20.9438 16.152 20.8718 16.296 20.9198 16.32C20.9438 16.296 20.9678 16.248 20.9918 16.296C20.9198 16.344 20.9678 16.368 20.9918 16.416L20.9678 16.44V16.464ZM28.7197 8.27999C28.8397 8.27999 28.7437 8.23199 28.7197 8.20799C28.8397 8.01599 28.7437 7.77599 28.7197 7.55999L28.5998 7.65599C28.6718 7.75199 28.6717 7.53599 28.7197 7.63199C28.7197 7.67999 28.5998 7.77599 28.6478 7.79999C28.7198 7.72799 28.7198 7.82399 28.6478 7.84799C28.7198 7.84799 28.7438 7.89599 28.7677 7.91999C28.7197 7.94399 28.7438 7.99199 28.6958 7.99199C28.7198 7.94399 28.7678 7.89599 28.6958 7.87199C28.6478 7.99199 28.6958 7.99199 28.7438 8.08799C28.6718 8.13599 28.6718 7.96799 28.6238 8.06399C28.6718 8.13599 28.7198 8.13599 28.7438 8.15999C28.6958 8.15999 28.6958 8.18399 28.6478 8.15999C28.6478 8.27999 28.7198 8.37599 28.6478 8.56799C28.7438 8.56799 28.7917 8.51999 28.7917 8.44799C28.6717 8.42399 28.7677 8.35199 28.7917 8.37599L28.7197 8.27999ZM21.0158 17.184C21.1598 17.496 21.2077 17.856 21.4237 18.024C21.4237 17.928 21.2797 17.88 21.3517 17.784C21.2317 17.784 21.2558 17.664 21.3038 17.592C21.1838 17.64 21.2797 17.568 21.1597 17.52C21.1597 17.448 21.2318 17.472 21.2318 17.4C21.1838 17.376 21.1357 17.376 21.1117 17.328C21.1597 17.328 21.1838 17.376 21.2078 17.328C21.1358 17.256 21.1597 17.136 21.0637 17.16C21.2077 17.112 21.0398 16.968 20.9918 16.944C21.0158 17.016 20.9917 17.16 21.0637 17.064C21.0637 17.112 21.0158 17.136 21.0158 17.184ZM27.6637 2.78399C27.6637 2.73599 27.7597 2.66399 27.6637 2.61599C27.7358 2.59199 27.7598 2.61599 27.9038 2.61599C27.9038 2.68799 27.8318 2.66399 27.8078 2.71199C27.8318 2.78399 27.8797 2.68799 27.9277 2.71199C27.9757 2.73599 27.8798 2.75999 27.9517 2.78399C27.9038 2.87999 27.7358 2.71199 27.7358 2.80799C27.7117 2.80799 27.6878 2.78399 27.6637 2.78399ZM28.5998 7.22399C28.6238 7.24799 28.6958 7.29599 28.6958 7.19999C28.5758 7.22399 28.6718 7.10399 28.5518 7.05599C28.5758 7.12799 28.5758 7.19999 28.5758 7.29599C28.6478 7.29599 28.6478 7.36799 28.6958 7.39199C28.6478 7.41599 28.5998 7.29599 28.5758 7.39199C28.6238 7.41599 28.5998 7.53599 28.6958 7.55999C28.7198 7.46399 28.5998 7.53599 28.6238 7.43999C28.6718 7.43999 28.6957 7.48799 28.7197 7.43999C28.6717 7.41599 28.7198 7.41599 28.7438 7.39199C28.6718 7.34399 28.6238 7.29599 28.5998 7.22399ZM28.4797 6.67199C28.5037 6.69599 28.5278 6.69599 28.5518 6.74399C28.5278 6.74399 28.4798 6.74399 28.5037 6.79199C28.6238 6.79199 28.5758 6.69599 28.5278 6.64799C28.5997 6.64799 28.5278 6.50399 28.5518 6.43199C28.5278 6.43199 28.5037 6.40799 28.5037 6.43199C28.5278 6.43199 28.5277 6.47999 28.4797 6.45599C28.4797 6.55199 28.5277 6.57599 28.4797 6.67199ZM27.1357 2.83199C27.0877 2.92799 27.0398 2.80799 27.0158 2.78399C27.0638 2.68799 27.2077 2.87999 27.1838 2.73599C27.2317 2.73599 27.2078 2.80799 27.2798 2.80799C27.2558 2.90399 27.0637 2.75999 27.1357 2.83199ZM28.6478 6.86399C28.5758 6.91199 28.5758 6.74399 28.5278 6.83999C28.5517 6.88799 28.5518 6.93599 28.5518 6.95999C28.5518 6.95999 28.5758 6.93599 28.5758 6.88799C28.5758 6.91199 28.5998 6.93599 28.5998 6.93599C28.5998 6.98399 28.5998 7.03199 28.5758 7.05599C28.5998 7.05599 28.6718 7.12799 28.6958 7.05599C28.6718 7.05599 28.6238 7.05599 28.6238 7.03199C28.6478 7.00799 28.6718 6.95999 28.6238 6.93599C28.6478 6.93599 28.6478 6.91199 28.6478 6.86399ZM26.5358 3.02399C26.4398 3.04799 26.4638 3.16799 26.3438 3.16799L26.4638 2.97599C26.5118 2.95199 26.5117 3.02399 26.5837 2.99999C26.5837 3.04799 26.5358 3.04799 26.5358 3.07199C26.4878 3.07199 26.5358 3.04799 26.5358 3.02399ZM28.0718 2.78399C28.0478 2.80799 28.0238 2.83199 28.0238 2.85599L28.2397 2.90399C28.2637 2.80799 28.1438 2.78399 28.1198 2.83199V2.78399H28.0718ZM28.3118 5.35199C28.2878 5.25599 28.1918 5.23199 28.1438 5.18399C28.1678 5.25599 28.1678 5.23199 28.1438 5.32799C28.2398 5.27999 28.1677 5.39999 28.2397 5.37599C28.2637 5.35199 28.2638 5.32799 28.3118 5.35199ZM28.4078 5.78399C28.3598 5.78399 28.3598 5.80799 28.3118 5.80799C28.3118 5.87999 28.3838 5.95199 28.3358 5.99999C28.3838 5.99999 28.3838 5.95199 28.4078 5.95199C28.4078 5.97599 28.4557 5.97599 28.4797 5.95199L28.3598 5.87999C28.3598 5.78399 28.4318 5.87999 28.4318 5.83199C28.4318 5.83199 28.4078 5.80799 28.4078 5.78399ZM28.3358 5.54399C28.2878 5.44799 28.3358 5.42399 28.3118 5.37599C28.1678 5.35199 28.2398 5.51999 28.2878 5.56799C28.2878 5.54399 28.2878 5.51999 28.3118 5.49599C28.3118 5.51999 28.3118 5.54399 28.3358 5.54399ZM28.5758 6.28799C28.5037 6.28799 28.5277 6.35999 28.4797 6.35999C28.4797 6.31199 28.4558 6.31199 28.4318 6.28799C28.4558 6.28799 28.5037 6.28799 28.5037 6.26399C28.4798 6.26399 28.4318 6.26399 28.4318 6.23999C28.4558 6.23999 28.4797 6.23999 28.4797 6.21599H28.4078C28.4078 6.21599 28.3838 6.21599 28.3838 6.23999C28.4558 6.26399 28.4077 6.38399 28.4797 6.40799L28.5758 6.28799ZM27.0637 2.71199C27.1117 2.63999 27.2317 2.61599 27.3757 2.61599C27.3037 2.68799 27.1597 2.66399 27.0637 2.71199ZM27.9038 12.936C27.8798 12.84 28.0477 12.672 27.9757 12.672C27.9517 12.744 27.7838 12.888 27.9038 12.936ZM28.3598 5.71199C28.3598 5.66399 28.3118 5.66399 28.3118 5.63999C28.3118 5.61599 28.3598 5.59199 28.3118 5.56799L28.2397 5.63999C28.3117 5.63999 28.3118 5.71199 28.3358 5.71199L28.2878 5.75999C28.4078 5.78399 28.4078 5.71199 28.3598 5.71199ZM25.2878 3.55199C25.2398 3.64799 25.0958 3.79199 25.1198 3.86399C25.1678 3.76799 25.3118 3.62399 25.2878 3.55199ZM23.2238 17.88C23.2238 17.808 23.1998 17.784 23.1278 17.784V17.88H23.2238ZM28.5278 6.16799C28.3598 6.19199 28.4558 6.02399 28.4078 5.99999C28.4318 6.04799 28.3838 6.04799 28.3598 6.07199C28.3838 6.07199 28.3838 6.11999 28.3838 6.16799C28.4078 6.16799 28.5278 6.21599 28.5278 6.16799ZM24.1357 17.352C24.1117 17.424 24.0398 17.448 23.9438 17.472C24.0158 17.424 24.0397 17.352 24.1357 17.352ZM22.4317 17.28C22.4557 17.328 22.5038 17.496 22.5518 17.424C22.4798 17.4 22.5517 17.328 22.5037 17.328C22.4797 17.424 22.4557 17.16 22.4317 17.28ZM28.1917 5.15999C28.1917 5.13599 28.2157 5.11199 28.2157 5.08799C28.1918 5.08799 28.1678 5.06399 28.1438 5.03999C28.0958 5.08799 28.1438 5.08799 28.1438 5.15999H28.1917ZM28.1917 2.66399C28.1677 2.75999 28.1438 2.68799 28.0718 2.73599C28.0718 2.68799 28.0477 2.68799 28.0238 2.66399C28.0477 2.61599 28.1197 2.71199 28.1917 2.66399ZM28.8398 3.31199C28.8638 3.21599 28.8878 3.26399 28.9598 3.26399C28.9358 3.35999 28.9118 3.31199 28.8398 3.31199ZM27.7838 13.056C27.8798 13.056 27.9038 12.936 27.8078 12.936C27.8078 12.984 27.8078 13.032 27.7838 13.056ZM22.4557 17.064C22.4557 17.16 22.4557 17.232 22.5037 17.28C22.5037 17.184 22.4797 17.112 22.4557 17.064ZM26.6558 2.83199C26.5838 2.80799 26.7038 2.75999 26.7518 2.75999C26.7998 2.85599 26.6318 2.75999 26.6558 2.83199ZM27.6877 13.272C27.7597 13.296 27.7118 13.176 27.7598 13.152C27.6638 13.128 27.7117 13.248 27.6877 13.272ZM27.5918 2.66399C27.5678 2.66399 27.5678 2.61599 27.5678 2.59199C27.6398 2.56799 27.6157 2.63999 27.6637 2.63999C27.6398 2.68799 27.6158 2.61599 27.5918 2.66399ZM26.8958 2.90399C26.8238 2.90399 26.8718 2.97599 26.9198 2.97599C26.9198 2.92799 26.9438 2.92799 26.9438 2.90399H26.8958ZM23.5837 17.808C23.6557 17.808 23.6798 17.808 23.7038 17.76C23.6318 17.76 23.6077 17.76 23.5837 17.808ZM27.8078 2.63999C27.7358 2.61599 27.6878 2.71199 27.7598 2.73599C27.7598 2.66399 27.8078 2.66399 27.8078 2.63999ZM28.5037 6.09599V6.04799H28.4318V6.09599H28.5037ZM20.9198 16.128C20.9438 16.176 20.8957 16.176 20.8717 16.2C20.9197 16.224 20.9918 16.128 20.9198 16.128ZM27.4237 13.704C27.4718 13.704 27.4718 13.752 27.4958 13.704C27.4958 13.68 27.4477 13.68 27.4237 13.704ZM21.0877 16.92C21.0637 16.92 21.0637 16.92 21.0637 16.896C21.0877 16.896 21.0877 16.872 21.0637 16.872C21.0157 16.896 21.0637 16.992 21.0877 16.92ZM21.2078 17.4C21.2078 17.424 21.1597 17.424 21.1357 17.424C21.1357 17.4 21.1838 17.424 21.2078 17.4ZM27.7598 13.104C27.7838 13.104 27.8078 13.104 27.8078 13.08C27.7838 13.08 27.7598 13.08 27.7598 13.104ZM26.8717 2.73599V2.71199C26.8478 2.71199 26.8477 2.73599 26.8237 2.73599H26.8717ZM21.3277 17.712C21.3037 17.712 21.3038 17.736 21.3038 17.76C21.3278 17.76 21.3277 17.736 21.3277 17.712ZM20.8717 16.392C20.8957 16.392 20.9198 16.392 20.9198 16.368C20.8958 16.368 20.8717 16.368 20.8717 16.392ZM26.2717 3.19199C26.2717 3.16799 26.2957 3.16799 26.3197 3.16799C26.3197 3.19199 26.2957 3.19199 26.2717 3.19199ZM28.1198 15.768C28.1438 15.768 28.1677 15.768 28.1677 15.744C28.1437 15.744 28.1198 15.744 28.1198 15.768ZM20.9918 14.64C21.0158 14.64 20.9918 14.664 21.0158 14.688C20.9918 14.688 20.9918 14.64 20.9918 14.64ZM28.3358 5.71199H28.3598V5.73599L28.3358 5.71199ZM28.6238 6.91199L28.5998 6.93599H28.6238V6.91199ZM21.0158 16.608C21.0158 16.632 20.9918 16.632 20.9918 16.632L21.0158 16.608ZM28.1917 2.75999C28.1917 2.73599 28.2157 2.73599 28.2157 2.75999H28.1917Z" fill="#7A7A7A"/>
<path d="M34.6881 17.64C34.6401 17.664 34.5921 17.568 34.5681 17.64C34.5921 17.64 34.6161 17.64 34.5921 17.664C34.5921 17.664 34.5681 17.688 34.5921 17.712C34.5201 17.712 34.4721 17.712 34.4481 17.736C34.7601 17.808 34.9041 17.712 35.3361 17.808C35.3601 17.784 35.3841 17.76 35.3841 17.736C35.3601 17.712 35.1681 17.76 35.1201 17.76C35.0961 17.712 35.1441 17.664 35.1201 17.64C35.1441 17.64 35.2401 17.688 35.2161 17.736C35.2401 17.712 35.2881 17.688 35.3361 17.712C35.3121 17.664 35.2641 17.664 35.2881 17.616C35.3361 17.664 35.3361 17.688 35.4081 17.64C35.3841 17.712 35.4081 17.76 35.4081 17.808H35.5281C35.5041 17.784 35.4801 17.76 35.4561 17.76C35.4561 17.736 35.6721 17.76 35.6961 17.664C35.6961 17.712 35.8881 17.832 35.9121 17.712C35.9361 17.712 35.9361 17.76 35.9361 17.808C35.8401 17.856 35.7681 17.736 35.7441 17.808C35.6961 17.808 35.7441 17.736 35.6961 17.736C35.6721 17.76 35.6721 17.808 35.5521 17.784C35.9361 17.904 36.3201 17.832 36.6801 17.928C36.6081 17.88 36.6561 17.832 36.7521 17.808C36.7281 17.808 36.7281 17.808 36.7281 17.784C36.7521 17.784 36.8001 17.784 36.8001 17.808C36.8961 17.808 36.9921 17.832 36.9441 17.928C36.8961 17.904 36.9201 17.832 36.8721 17.832C36.8481 17.928 36.8001 17.856 36.7041 17.88C36.7761 18 36.9201 17.88 37.0161 17.976C37.1601 17.832 37.4481 17.952 37.1121 17.952C37.3041 18.024 37.5201 18.048 37.7121 18V18.024C37.8321 18.168 37.9041 17.928 38.0241 18C37.9761 17.952 38.1441 18 38.1921 18.024C38.1201 18.024 38.0001 18.144 37.9761 18C37.9521 18 37.9281 18.048 37.9041 18.048C37.9761 18.144 38.1441 18.12 38.2401 18.168C38.3361 18.144 38.2401 18.096 38.3121 18.072C38.3841 18.072 38.3361 18.144 38.3361 18.168C38.3841 18.192 38.4321 18.168 38.5041 18.216C38.5281 18.216 38.5521 18.192 38.5761 18.192C38.6481 18.264 38.7441 18.264 38.8641 18.264C38.8881 18.192 38.7681 18.24 38.8401 18.168C38.8881 18.12 38.9121 18.216 38.9121 18.216C38.8881 18.24 38.8641 18.264 38.8641 18.288C39.1041 18.336 39.3441 18.504 39.6081 18.552C39.6561 18.576 39.6081 18.672 39.6801 18.648C39.6801 18.744 39.6321 18.624 39.5841 18.648C39.5601 18.744 39.6801 18.672 39.6321 18.768C39.4161 18.768 39.1761 18.624 39.0081 18.744C39.2961 18.912 39.8001 18.912 39.8481 19.296C39.6081 19.272 39.4161 19.152 39.2241 19.272C39.2961 19.416 39.1281 19.488 39.2241 19.608C39.1281 19.632 39.0801 19.512 39.1041 19.656C39.0321 19.656 39.0081 19.608 38.9361 19.632C38.9601 19.704 39.0801 19.68 39.1281 19.704L39.0561 19.944L38.8641 19.992C38.1201 19.8 37.3041 19.776 36.4401 19.704C34.1121 19.704 31.8561 19.848 29.6001 20.136C29.5281 20.064 29.5041 19.944 29.4321 19.896C29.4561 19.872 29.4561 19.776 29.5281 19.8C29.4801 19.704 29.3841 19.632 29.4801 19.488C29.3121 19.488 29.2641 19.32 29.4081 19.248C29.3601 19.224 29.3841 19.2 29.4081 19.176C29.2881 19.056 29.0481 18.888 29.1201 18.768L29.7201 18.336C29.4321 18.408 29.3121 18.12 29.1201 18.168C29.1201 18.144 29.1441 18.144 29.1441 18.12C29.0961 18.144 28.6641 18.168 28.6641 17.952C28.7121 17.976 28.7841 17.88 28.8801 17.808L28.9041 17.832C30.7281 16.392 32.5761 15.168 34.5681 13.752C35.1441 13.248 35.7681 12.84 36.3441 12.288C36.8241 11.904 37.4721 11.28 37.7601 10.92C38.0001 10.728 38.3361 10.368 38.5281 10.08C38.7681 9.91199 38.9361 9.52799 39.1761 9.31199C39.1761 9.28799 39.1521 9.28799 39.1521 9.31199C39.0801 9.31199 39.1521 9.23999 39.2001 9.26399C39.4161 8.95199 39.5121 8.68799 39.7761 8.44799C39.7521 8.27999 40.0401 8.03999 40.0161 7.87199C40.2081 7.63199 40.2561 7.41599 40.3761 7.12799C40.4001 7.12799 40.4001 7.15199 40.4241 7.15199C40.4001 7.12799 40.3761 7.00799 40.4481 7.07999C40.4241 6.95999 40.5201 6.64799 40.5921 6.67199C40.5921 6.16799 40.7601 5.75999 40.6641 5.23199C40.4241 4.99199 40.0401 4.89599 39.6321 4.84799C37.7841 4.89599 36.8241 5.97599 35.8161 6.79199C34.9281 7.77599 33.9441 8.80799 33.6561 10.248C33.6321 10.848 33.4881 11.712 33.8721 12.264C33.8721 12.312 33.7761 12.288 33.7761 12.336C33.6801 12.336 33.7041 12.24 33.6081 12.216C33.5841 12.432 33.7761 13.008 33.3441 12.96C32.8881 12.384 32.2161 11.712 32.0481 11.184C32.0001 10.992 31.8321 10.68 31.9041 10.512C31.7361 10.296 31.9281 10.152 31.8321 10.032C31.9041 9.31199 32.0721 8.47199 32.3601 7.94399C32.3841 7.91999 32.4081 7.96799 32.4321 7.94399C32.7201 7.29599 32.9601 6.79199 33.3441 6.38399C33.9201 5.51999 34.7841 4.65599 35.6241 4.12799C35.6721 4.10399 35.6241 4.07999 35.6961 4.03199C35.7201 4.03199 35.7201 4.05599 35.7201 4.07999C35.9841 3.83999 36.2961 3.64799 36.5361 3.59999C36.8961 3.26399 37.6641 3.16799 38.1681 2.99999H38.1441C38.2401 3.07199 38.3601 2.95199 38.5521 2.99999C38.3601 2.90399 38.6481 2.92799 38.6961 2.85599C38.7201 2.85599 38.6961 2.90399 38.7201 2.95199C38.7201 2.90399 38.8161 2.92799 38.8161 2.87999C38.7921 2.90399 38.7681 2.90399 38.7681 2.87999C38.7681 2.83199 38.8401 2.83199 38.9121 2.83199C38.9361 2.90399 38.8881 2.92799 38.9361 2.95199C38.9841 2.92799 38.9121 2.87999 38.9361 2.83199C38.9361 2.87999 39.0801 2.83199 39.1041 2.90399C39.2241 2.92799 39.2721 2.87999 39.3921 2.87999C39.3921 2.83199 39.2721 2.87999 39.3201 2.78399C39.3441 2.80799 39.3681 2.83199 39.4161 2.83199C39.4881 2.83199 39.4161 2.75999 39.3681 2.78399C39.3921 2.66399 39.4881 2.80799 39.5361 2.85599C39.4641 2.85599 39.4641 2.80799 39.4161 2.85599C39.5121 2.92799 39.6081 2.92799 39.6561 2.85599C39.8721 2.87999 40.1841 2.97599 40.4721 2.95199C40.4481 2.92799 40.4721 2.87999 40.4481 2.85599C40.5441 2.85599 40.5921 2.92799 40.6161 2.97599C40.7361 2.99999 40.6881 2.80799 40.7361 2.87999C40.7601 2.87999 40.7601 2.90399 40.7361 2.95199L40.7841 2.99999C40.7601 3.07199 40.7121 2.99999 40.7121 2.95199C40.6641 2.97599 40.5921 2.99999 40.5681 2.97599C40.6161 3.16799 40.9761 3.11999 41.0001 3.26399C41.0241 3.26399 41.2641 3.33599 41.1921 3.43199C41.2641 3.43199 41.3841 3.35999 41.3361 3.31199C41.3601 3.31199 41.4081 3.38399 41.4561 3.47999C41.4561 3.55199 41.4321 3.57599 41.3841 3.52799C41.4321 3.50399 41.4561 3.40799 41.3841 3.40799C41.3841 3.45599 41.3121 3.40799 41.2881 3.45599C41.3361 3.45599 41.3361 3.50399 41.3361 3.52799C41.3361 3.52799 41.3601 3.55199 41.3841 3.52799L41.4801 3.64799C41.4801 3.57599 41.4321 3.57599 41.4801 3.50399C41.5521 3.55199 41.5521 3.64799 41.6481 3.64799C41.5761 3.76799 41.8161 3.86399 41.8161 4.05599C41.7201 3.98399 41.6721 3.83999 41.5761 3.76799C41.5761 3.71999 41.6001 3.74399 41.6241 3.71999C41.6001 3.64799 41.5521 3.71999 41.4801 3.67199C41.6001 3.83999 41.6721 4.05599 41.8881 4.10399C41.8401 4.19999 42.0321 4.24799 41.9841 4.41599C42.2481 4.82399 42.4161 5.25599 42.4881 5.73599C42.7281 7.12799 42.0801 8.30399 41.6001 9.35999C41.5761 9.35999 41.5761 9.33599 41.5521 9.33599C41.3361 9.86399 40.9041 10.32 40.6641 10.752C40.6401 10.8 40.6401 10.776 40.5921 10.752C40.4721 11.064 40.2561 11.304 40.0161 11.496C39.5601 12.144 38.9121 12.816 38.4321 13.368C38.2161 13.536 38.0001 13.848 37.8081 13.944C37.7601 14.04 37.5921 14.208 37.4481 14.304C37.4241 14.304 37.4481 14.328 37.4481 14.328C37.0401 14.688 36.5841 15.048 36.1761 15.432C36.1281 15.456 36.1281 15.408 36.1041 15.408C36.1281 15.552 35.8881 15.624 35.7681 15.72C35.0721 16.32 34.2561 16.872 33.4641 17.424C33.4641 17.448 33.4881 17.448 33.5121 17.448C33.4401 17.472 33.2961 17.448 33.3441 17.64C33.3681 17.64 33.3681 17.616 33.3921 17.592C33.4401 17.712 33.4881 17.544 33.5601 17.64C33.5601 17.688 33.4881 17.664 33.4641 17.664C33.5601 17.736 33.7281 17.712 33.8001 17.712C33.8241 17.64 33.6801 17.712 33.7281 17.616C33.8481 17.592 33.8481 17.736 33.8961 17.616C33.9921 17.664 33.8961 17.64 33.8961 17.736C34.0881 17.712 33.9921 17.544 34.1841 17.568C34.1841 17.616 34.1121 17.592 34.1121 17.64C34.1841 17.712 34.4001 17.568 34.4721 17.664C34.5201 17.568 34.6881 17.568 34.7361 17.664C34.8321 17.664 34.8801 17.568 34.9521 17.664C35.0001 17.664 34.9521 17.616 34.9281 17.616C34.9281 17.568 35.0001 17.664 35.0721 17.616C35.0481 17.712 35.0481 17.664 35.0721 17.76C35.0001 17.736 34.9041 17.736 34.8801 17.664C34.8801 17.76 34.7121 17.736 34.5921 17.712C34.5921 17.664 34.6641 17.688 34.6881 17.64ZM35.3361 18.192C34.4961 18.168 33.2721 18.096 32.5041 18.12C32.4081 18.144 32.3361 18.192 32.2881 18.264C34.4481 18.168 36.6801 18.36 38.4321 18.6C37.4481 18.408 36.3921 18.288 35.3361 18.192ZM33.7281 6.45599C33.7041 6.35999 33.9441 6.26399 33.8001 6.23999C33.7281 6.35999 33.6801 6.47999 33.5841 6.47999C33.6321 6.67199 33.4161 6.62399 33.4881 6.74399C33.3681 6.74399 33.3681 6.79199 33.3921 6.86399C33.2001 6.98399 33.1521 7.31999 33.0321 7.34399C32.9361 7.72799 32.6481 7.96799 32.6481 8.27999C32.6001 8.27999 32.6001 8.25599 32.5761 8.25599C32.5521 8.51999 32.3361 8.78399 32.3601 8.97599C32.3361 8.99999 32.3121 8.97599 32.3121 9.02399C32.3361 9.02399 32.3601 9.02399 32.3601 9.04799C32.3361 9.04799 32.2881 9.07199 32.2881 9.11999C32.3121 9.11999 32.3601 9.11999 32.3361 9.16799C32.2401 9.09599 32.2401 9.40799 32.3121 9.21599V9.33599C32.1681 9.40799 32.1681 9.57599 32.2641 9.67199C32.1681 9.67199 32.1441 10.056 32.2401 10.104C32.2161 10.152 32.1441 10.128 32.1441 10.176C32.2401 10.536 32.1921 10.896 32.3601 11.16C32.3361 10.968 32.3361 10.68 32.2641 10.584C32.3361 10.56 32.3121 10.32 32.2401 10.272C32.3601 10.152 32.1921 9.98399 32.3121 9.91199C32.2641 9.76799 32.3121 9.33599 32.4321 9.11999C32.3841 9.11999 32.3841 9.07199 32.3841 9.04799C32.5521 8.66399 32.6481 8.18399 32.8881 7.87199V7.75199C33.1761 7.34399 33.3921 6.81599 33.7281 6.45599ZM37.1121 12.12C38.3121 11.064 39.4161 9.86399 40.2321 8.42399C40.2081 8.42399 40.1601 8.30399 40.1601 8.37599C40.2081 8.37599 40.0641 8.49599 40.1841 8.44799C40.1601 8.47199 40.1601 8.54399 40.1121 8.56799C40.0881 8.51999 40.1361 8.51999 40.1121 8.49599C40.0881 8.54399 40.0161 8.59199 40.0641 8.66399C39.9441 8.68799 40.0401 8.78399 39.9201 8.83199C39.9201 8.78399 39.9681 8.75999 39.9201 8.73599C39.8481 8.85599 39.8721 8.92799 39.8481 8.97599C39.8241 8.97599 39.8241 8.97599 39.8001 8.95199C39.8001 9.07199 39.6561 9.09599 39.7281 9.21599C39.6561 9.21599 39.5841 9.26399 39.6321 9.31199C39.6081 9.31199 39.6081 9.28799 39.5841 9.28799C39.5841 9.31199 39.5841 9.33599 39.6081 9.35999C39.5841 9.35999 39.5841 9.33599 39.5601 9.33599C39.5121 9.38399 39.5601 9.38399 39.5601 9.45599C39.4641 9.40799 39.4161 9.55199 39.5121 9.47999C39.4881 9.55199 39.3681 9.50399 39.4401 9.57599C39.3441 9.59999 39.3201 9.67199 39.2721 9.71999C39.3201 9.71999 39.2241 9.83999 39.2001 9.76799C38.9601 10.248 38.7201 10.344 38.4081 10.8C38.2401 10.872 38.1681 11.136 38.0241 11.136C38.0481 11.136 38.0721 11.16 38.0481 11.184C37.9521 11.232 37.9041 11.376 37.8081 11.352C37.6641 11.64 37.3281 11.784 37.1121 12.12ZM41.4561 8.83199C41.8401 8.08799 42.2721 7.05599 42.1761 6.14399C42.1281 6.38399 42.1761 6.57599 42.0801 6.64799C42.1041 6.67199 42.1281 6.67199 42.1521 6.64799C41.9601 7.27199 41.6481 8.01599 41.4561 8.83199ZM37.0401 4.24799C37.6641 3.83999 38.4801 3.50399 39.3921 3.35999C38.6241 3.19199 37.9521 3.69599 37.4481 3.91199C37.4241 3.95999 37.1121 4.10399 37.0401 4.24799ZM40.9761 6.91199C41.0001 6.83999 40.9041 6.86399 40.9281 6.79199C40.9521 6.79199 40.9521 6.81599 40.9761 6.83999C41.0001 6.76799 41.0241 6.71999 41.0241 6.64799C40.9521 6.67199 40.9761 6.59999 40.9281 6.59999C40.9041 6.64799 40.9281 6.67199 40.9521 6.69599C40.9521 6.69599 40.9281 6.69599 40.9281 6.67199C40.9041 6.76799 40.8321 6.81599 40.9281 6.88799C40.7841 6.81599 40.9521 7.00799 40.8801 7.00799C40.8561 6.98399 40.8801 6.93599 40.8081 6.93599C40.7841 7.15199 40.6881 7.31999 40.6881 7.43999C40.6641 7.41599 40.6401 7.41599 40.6401 7.43999C40.6641 7.46399 40.5921 7.51199 40.6641 7.51199C40.5921 7.53599 40.5681 7.55999 40.6401 7.60799C40.5681 7.55999 40.5681 7.63199 40.5441 7.65599C40.5201 7.72799 40.5681 7.72799 40.5921 7.79999C40.4961 7.75199 40.5201 7.77599 40.4481 7.82399C40.4241 7.89599 40.4721 7.91999 40.4721 7.96799C40.4481 7.96799 40.4241 7.94399 40.4001 7.91999C40.3521 7.99199 40.4481 8.13599 40.3521 8.03999C40.3521 8.06399 40.3281 8.08799 40.3281 8.11199C40.3281 8.11199 40.3761 8.11199 40.3761 8.13599C40.3041 8.15999 40.2321 8.25599 40.2801 8.30399C40.2561 8.30399 40.2561 8.27999 40.2081 8.27999C40.2081 8.35199 40.2081 8.39999 40.2561 8.42399C40.4721 8.01599 40.7601 7.53599 40.8561 7.12799C40.7841 7.17599 40.8561 7.22399 40.7601 7.27199C40.7841 7.19999 40.8081 7.22399 40.7841 7.12799C40.9281 7.15199 40.9041 6.98399 40.9761 6.91199ZM36.6801 12.552C36.7281 12.36 37.1601 12.264 37.0401 12.096C36.7761 12.432 36.3921 12.672 36.0321 13.032C36.2481 12.936 36.3681 12.768 36.5361 12.624C36.6081 12.624 36.5841 12.552 36.6801 12.552ZM33.2481 11.328C33.3681 11.304 33.2961 11.472 33.3681 11.52C33.3441 11.28 33.3441 11.016 33.2961 10.776C33.2001 11.04 33.3441 11.184 33.2481 11.328ZM39.9201 2.78399C39.8001 2.85599 39.6561 2.85599 39.5361 2.78399C39.6081 2.71199 39.8481 2.78399 39.9921 2.71199C40.0161 2.75999 40.0881 2.75999 40.0641 2.83199C40.0401 2.83199 40.0161 2.83199 40.0161 2.85599C39.9681 2.85599 40.0401 2.83199 40.0161 2.78399H39.9441C40.0161 2.83199 39.8961 2.87999 39.9201 2.78399ZM41.0241 6.62399C41.0961 6.45599 41.0721 6.28799 41.0481 6.09599C41.0241 6.31199 40.8801 6.47999 41.0241 6.62399ZM40.8801 3.04799C40.8321 3.04799 40.8561 3.11999 40.7841 3.09599C40.7841 3.07199 40.8081 3.07199 40.8081 3.02399C40.8321 3.04799 40.8561 3.04799 40.8561 3.02399C40.9041 3.02399 40.9281 3.04799 40.9281 3.09599C40.9521 3.09599 40.9761 3.07199 40.9761 3.04799C40.9041 2.99999 41.0481 3.04799 40.9761 3.09599C41.0481 3.14399 41.0001 3.02399 41.0721 3.04799C41.0721 3.07199 41.0481 3.09599 41.0721 3.09599C41.0241 3.09599 41.0001 3.16799 41.0481 3.19199C41.0001 3.14399 40.9281 3.11999 40.8561 3.11999C40.8801 3.11999 40.8801 3.09599 40.8801 3.04799ZM37.6401 17.928C37.6641 18 37.5921 18 37.5441 18C37.5441 17.976 37.5681 17.952 37.5681 17.928C37.5201 17.904 37.5201 17.928 37.5201 17.976C37.4961 17.976 37.4961 17.952 37.4481 17.952V17.88C37.5441 17.88 37.5681 17.928 37.6401 17.928ZM41.2881 3.31199C41.1921 3.38399 41.1201 3.26399 41.0481 3.19199C41.0481 3.21599 41.0721 3.21599 41.0961 3.21599C41.1201 3.23999 41.1681 3.21599 41.1681 3.19199C41.2161 3.19199 41.1681 3.23999 41.1441 3.23999C41.1441 3.26399 41.1921 3.26399 41.1921 3.28799C41.2161 3.28799 41.2161 3.23999 41.2161 3.21599C41.3361 3.26399 41.1441 3.31199 41.2881 3.31199ZM35.9601 17.808C35.9361 17.712 36.0321 17.736 36.1041 17.712C36.0801 17.712 36.0801 17.736 36.0801 17.76C36.0801 17.784 36.1281 17.784 36.1521 17.784C36.2001 17.856 36.0081 17.76 35.9601 17.808ZM38.5521 18.168C38.5041 18.144 38.4561 18.144 38.3841 18.144C38.3841 18.072 38.5041 18.12 38.5041 18.048C38.5281 18.072 38.5521 18.12 38.5521 18.168ZM35.4801 13.464C35.5281 13.512 35.6961 13.344 35.6721 13.32C35.5761 13.344 35.5521 13.416 35.5041 13.464C35.5041 13.416 35.4081 13.44 35.4801 13.464ZM34.4721 17.52C34.4001 17.592 34.1841 17.472 34.1601 17.544C34.1361 17.424 34.3521 17.52 34.4721 17.52ZM33.5361 17.592V17.544C33.6561 17.592 33.6801 17.52 33.7521 17.568C33.7521 17.64 33.5601 17.544 33.5601 17.616C33.5361 17.616 33.5361 17.616 33.5361 17.592ZM35.6961 13.296C35.7681 13.368 35.7921 13.2 35.8881 13.176C35.8401 13.176 35.8401 13.152 35.7921 13.152C35.7921 13.176 35.7681 13.176 35.7681 13.2C35.8641 13.248 35.6961 13.248 35.6961 13.296ZM39.2001 18.264C39.2481 18.288 39.2001 18.312 39.2001 18.36C39.1281 18.36 39.1041 18.312 39.0561 18.264C39.0081 18.216 39.2001 18.336 39.2001 18.264ZM33.4401 17.664C33.3201 17.688 33.1521 17.64 33.1041 17.712C33.2001 17.688 33.3681 17.736 33.4401 17.664ZM36.6081 17.856H36.4881C36.4881 17.832 36.5361 17.784 36.5361 17.832C36.5601 17.808 36.5841 17.784 36.5841 17.76C36.6561 17.784 36.6081 17.784 36.6081 17.856ZM33.7761 14.784C33.7521 14.712 33.8961 14.712 33.8001 14.688C33.8001 14.712 33.7761 14.712 33.7521 14.736C33.7521 14.712 33.7521 14.688 33.7281 14.712C33.7281 14.712 33.6561 14.808 33.7281 14.808C33.7281 14.784 33.7281 14.76 33.7521 14.76C33.7521 14.784 33.7521 14.784 33.7761 14.784ZM34.1121 14.544C34.1121 14.448 34.2081 14.472 34.2561 14.4C34.1601 14.4 34.0401 14.472 34.1121 14.544ZM40.3281 2.85599C40.3041 2.83199 40.3281 2.83199 40.3521 2.83199H40.4001C40.4241 2.90399 40.4481 2.92799 40.3521 2.95199C40.3521 2.92799 40.3521 2.90399 40.3761 2.90399C40.3521 2.87999 40.3521 2.85599 40.3281 2.85599ZM34.1121 17.472C34.0881 17.52 33.8961 17.52 33.8721 17.472C33.9681 17.496 34.0641 17.448 34.1121 17.472ZM33.4641 14.976C33.5121 14.976 33.6081 14.88 33.5361 14.832C33.5601 14.928 33.4161 14.88 33.4641 14.976ZM35.0001 13.824C35.0961 13.8 35.1681 13.776 35.1921 13.704C35.1201 13.776 35.0481 13.728 35.0001 13.824ZM34.4001 17.664C34.4001 17.736 34.3041 17.712 34.2801 17.688C34.2801 17.808 34.4721 17.736 34.4001 17.664ZM35.2641 13.704C35.2401 13.632 35.3361 13.656 35.3361 13.608C35.2641 13.56 35.3121 13.632 35.2641 13.632C35.2401 13.632 35.2641 13.584 35.2161 13.584C35.2161 13.632 35.2161 13.656 35.2401 13.68C35.2401 13.704 35.2161 13.704 35.2641 13.704ZM29.6001 17.784C29.5521 17.712 29.7681 17.712 29.6481 17.64C29.6481 17.688 29.5041 17.736 29.6001 17.784ZM39.1761 2.78399C39.2241 2.71199 39.2721 2.75999 39.3201 2.78399C39.2241 2.80799 39.2481 2.80799 39.1761 2.78399ZM37.4001 17.976C37.3521 17.976 37.3521 17.928 37.3521 17.856C37.4001 17.88 37.4481 17.928 37.4001 17.976ZM40.1601 2.87999C40.1601 2.85599 40.1841 2.80799 40.2081 2.78399C40.2801 2.78399 40.2321 2.90399 40.1601 2.87999ZM33.8481 17.472C33.8241 17.568 33.7281 17.424 33.7281 17.52C33.6321 17.448 33.8001 17.448 33.8481 17.472ZM32.6961 15.432C32.6961 15.504 32.5281 15.504 32.6001 15.576C32.6241 15.552 32.7441 15.456 32.6961 15.432ZM29.6961 17.616C29.7441 17.664 29.7921 17.664 29.8161 17.592C29.7681 17.592 29.6961 17.592 29.6961 17.616ZM34.1121 17.712C34.0881 17.64 33.9441 17.712 34.0161 17.76C34.0401 17.712 34.1121 17.736 34.1121 17.712ZM35.3361 13.56C35.3601 13.608 35.4081 13.584 35.4561 13.536C35.3841 13.536 35.3601 13.488 35.3361 13.56ZM38.5521 2.83199C38.5041 2.87999 38.4321 2.90399 38.3601 2.90399C38.3841 2.85599 38.4801 2.85599 38.5521 2.83199ZM31.9521 16.008C32.0001 16.032 32.0961 15.936 32.0481 15.936L32.0241 15.96C32.0001 15.936 32.0001 15.936 31.9761 15.936C31.9761 15.96 31.9761 15.984 31.9521 16.008ZM38.8161 18.672C38.7681 18.696 38.6001 18.624 38.6481 18.672C38.7201 18.648 38.7921 18.768 38.8161 18.672ZM34.5921 17.544C34.5921 17.472 34.6881 17.52 34.7121 17.544C34.6881 17.616 34.6401 17.52 34.5921 17.544ZM31.6161 16.296C31.6401 16.248 31.7121 16.248 31.7121 16.2H31.6401C31.6401 16.248 31.5441 16.344 31.6161 16.296ZM33.7041 17.64C33.6801 17.664 33.6081 17.688 33.5601 17.64C33.5841 17.592 33.6801 17.64 33.7041 17.64ZM37.1121 17.832C37.0881 17.88 36.9201 17.856 36.9441 17.784C36.9921 17.808 37.0161 17.856 37.1121 17.832ZM35.8881 13.152C35.9841 13.176 36.0321 13.08 35.9361 13.08C35.9361 13.128 35.8881 13.128 35.8881 13.152ZM33.1521 15.168C33.1041 15.168 33.0081 15.264 33.0561 15.288C33.0561 15.216 33.1521 15.24 33.1521 15.168ZM33.3441 15.024H33.4401C33.4161 15 33.4401 14.952 33.3921 14.952C33.3921 15 33.3201 14.976 33.3441 15.024ZM33.4881 17.544C33.4881 17.592 33.4401 17.592 33.3921 17.592C33.3921 17.568 33.3921 17.52 33.4881 17.544ZM38.8641 2.87999C38.8641 2.83199 38.8401 2.87999 38.8161 2.87999C38.8641 2.90399 38.8161 2.92799 38.8161 2.97599C38.8881 2.97599 38.8641 2.92799 38.8641 2.87999ZM33.5841 12.216C33.6321 12.192 33.6321 12.168 33.5601 12.144C33.5601 12.168 33.5601 12.168 33.5361 12.168V12.216H33.5841ZM36.2241 17.64C36.2481 17.712 36.1281 17.664 36.1041 17.664C36.1281 17.592 36.1521 17.664 36.2241 17.64ZM34.0881 5.92799C34.1601 5.97599 34.1601 5.80799 34.0881 5.85599V5.92799ZM40.2081 2.71199C40.1361 2.68799 40.3281 2.71199 40.3521 2.75999C40.4241 2.78399 40.2321 2.73599 40.2081 2.71199ZM35.6721 17.592C35.6481 17.664 35.5041 17.592 35.4561 17.616C35.4561 17.568 35.6001 17.616 35.6721 17.592ZM36.3441 5.90399C36.3441 5.85599 36.4641 5.83199 36.3921 5.80799C36.3921 5.83199 36.2481 5.87999 36.3441 5.90399ZM33.8961 17.544C33.9441 17.544 33.9201 17.616 33.9921 17.592C33.9921 17.664 33.8721 17.616 33.8961 17.544ZM34.3281 14.352C34.3761 14.352 34.3761 14.28 34.4241 14.256C34.3521 14.28 34.3281 14.304 34.3281 14.352ZM38.9601 18.696C38.7921 18.672 38.8881 18.792 38.9601 18.72V18.696ZM41.1681 3.11999C41.2161 3.14399 41.1441 3.21599 41.0961 3.21599C41.1201 3.19199 41.0961 3.19199 41.0721 3.19199C41.0961 3.11999 41.1441 3.21599 41.1681 3.11999ZM33.8481 6.21599C33.8961 6.21599 33.9201 6.16799 33.9441 6.11999C33.8721 6.11999 33.8721 6.16799 33.8481 6.21599ZM30.4401 17.16C30.4401 17.112 30.4881 17.136 30.4881 17.112C30.4641 17.112 30.4401 17.064 30.4161 17.064C30.4161 17.112 30.3921 17.16 30.4401 17.16ZM38.5761 18.072C38.6481 18.096 38.6481 18.192 38.5761 18.192C38.6001 18.168 38.5761 18.12 38.5761 18.072ZM33.3201 15.048C33.2721 15.048 33.2481 15.072 33.2481 15.12C33.2961 15.12 33.3201 15.096 33.3201 15.048ZM32.2401 15.816H32.2881C32.3121 15.792 32.3121 15.744 32.2641 15.744C32.2641 15.768 32.2641 15.768 32.2401 15.768V15.816ZM29.8161 17.52C29.7681 17.568 29.8881 17.592 29.8881 17.544C29.8641 17.544 29.8401 17.496 29.8161 17.52ZM30.2481 17.328V17.256H30.2001V17.328H30.2481ZM40.1361 2.85599C40.0881 2.85599 40.1121 2.83199 40.1361 2.83199C40.1121 2.80799 40.0881 2.78399 40.1121 2.75999C40.1121 2.73599 40.1361 2.75999 40.1361 2.78399C40.1601 2.78399 40.1601 2.75999 40.1601 2.75999C40.2081 2.75999 40.1121 2.83199 40.1361 2.85599ZM30.8961 16.776C30.9201 16.752 30.9681 16.752 30.9681 16.728C30.9441 16.704 30.8241 16.752 30.8961 16.776ZM30.7521 16.872C30.8001 16.896 30.8241 16.872 30.8481 16.824C30.8001 16.824 30.7761 16.848 30.7521 16.872ZM30.2961 17.208C30.3441 17.208 30.3921 17.208 30.3681 17.16H30.3201C30.3201 17.184 30.2961 17.184 30.2961 17.208ZM40.2561 2.83199C40.2801 2.85599 40.3041 2.90399 40.3521 2.87999C40.3281 2.95199 40.2321 2.87999 40.2561 2.83199ZM34.3281 5.66399C34.3281 5.63999 34.4481 5.61599 34.3521 5.59199C34.3761 5.61599 34.2561 5.63999 34.3281 5.66399ZM33.9681 14.592C34.0401 14.64 34.0641 14.496 34.0161 14.568C33.9921 14.568 33.9201 14.568 33.9681 14.592ZM30.5121 17.04C30.5361 17.04 30.5841 17.04 30.6081 17.016C30.5361 17.016 30.6081 16.968 30.5601 16.968C30.5601 17.016 30.5361 17.016 30.5121 17.04ZM34.5921 14.184C34.5921 14.16 34.6401 14.136 34.5921 14.112C34.5921 14.136 34.5441 14.16 34.5921 14.184ZM39.3201 2.66399C39.2961 2.71199 39.2721 2.68799 39.2241 2.68799C39.2241 2.66399 39.2721 2.66399 39.3201 2.66399ZM39.3681 18.24C39.3681 18.288 39.3201 18.264 39.2721 18.264C39.2961 18.24 39.3441 18.24 39.3681 18.24ZM37.7121 18C37.7361 17.976 37.8321 17.976 37.8321 17.976C37.7841 18 37.7601 18 37.7121 18ZM38.4561 18.072C38.4321 18.072 38.3841 18.096 38.3841 18.048C38.4321 18.048 38.4561 18.048 38.4561 18.072ZM39.7281 2.63999C39.7041 2.66399 39.6801 2.66399 39.6321 2.66399C39.6321 2.63999 39.6801 2.63999 39.7281 2.63999ZM40.5201 2.95199C40.5201 2.92799 40.5201 2.87999 40.4721 2.95199H40.5201C40.5201 2.97599 40.5201 2.97599 40.5681 2.95199H40.5201ZM37.3281 5.18399C37.3521 5.15999 37.3761 5.18399 37.3761 5.13599C37.3521 5.15999 37.3281 5.13599 37.3281 5.18399ZM37.8081 18C37.8321 18 37.8321 17.976 37.8321 17.976H37.8561C37.8801 18.024 37.7361 18.024 37.8081 18ZM38.6241 2.97599C38.6241 2.95199 38.5761 2.92799 38.5761 2.97599C38.6001 2.97599 38.6241 2.99999 38.6241 2.97599ZM32.9121 15.36C32.9121 15.336 32.8641 15.336 32.8641 15.36C32.8881 15.36 32.8881 15.408 32.9121 15.36ZM38.6001 18.624C38.5761 18.624 38.5281 18.624 38.5281 18.648C38.5521 18.648 38.6001 18.648 38.6001 18.624ZM34.2561 17.712C34.2081 17.712 34.1601 17.688 34.1601 17.736C34.1841 17.712 34.2321 17.736 34.2561 17.712ZM34.9761 17.544C34.9761 17.568 34.9281 17.568 34.9041 17.568C34.9041 17.544 34.9521 17.544 34.9761 17.544ZM34.8801 17.544C34.8801 17.568 34.8321 17.568 34.8081 17.568C34.8081 17.544 34.8561 17.544 34.8801 17.544ZM39.7761 9.04799C39.8001 9.04799 39.8001 9.09599 39.7761 9.09599C39.7281 9.07199 39.7761 9.07199 39.7761 9.04799ZM38.8161 18.12C38.8161 18.072 38.8401 18.096 38.8641 18.072C38.8641 18.096 38.8401 18.096 38.8161 18.12ZM38.2641 2.95199C38.2641 2.97599 38.2161 2.97599 38.1681 2.99999L38.2641 2.95199ZM38.9361 18.192C38.9601 18.192 38.9361 18.216 38.9121 18.216C38.9121 18.216 38.9361 18.216 38.9361 18.192ZM33.6561 17.448C33.6561 17.472 33.6081 17.472 33.5841 17.472C33.5841 17.448 33.6321 17.472 33.6561 17.448ZM36.3681 17.808C36.3681 17.832 36.3441 17.832 36.3201 17.832C36.3201 17.808 36.3441 17.808 36.3681 17.808ZM36.9441 4.27199C36.9681 4.27199 36.9921 4.27199 36.9921 4.24799C36.9681 4.24799 36.9441 4.24799 36.9441 4.27199ZM40.0161 2.66399C40.0161 2.68799 39.9921 2.68799 39.9681 2.68799C39.9681 2.66399 39.9921 2.66399 40.0161 2.66399ZM29.4801 17.808C29.5041 17.808 29.5281 17.808 29.5281 17.784C29.5041 17.784 29.4801 17.784 29.4801 17.808ZM35.1201 4.84799C35.1441 4.84799 35.1681 4.84799 35.1681 4.82399C35.1441 4.82399 35.1201 4.82399 35.1201 4.84799ZM36.3441 17.64C36.3441 17.664 36.3201 17.664 36.2961 17.664C36.2961 17.64 36.3201 17.64 36.3441 17.64ZM37.7601 17.832C37.7601 17.856 37.7361 17.856 37.7121 17.856C37.7121 17.832 37.7361 17.832 37.7601 17.832ZM35.9121 17.616C35.9121 17.64 35.8641 17.64 35.8641 17.64C35.8641 17.616 35.8881 17.616 35.9121 17.616ZM35.6721 4.41599C35.6721 4.41599 35.7201 4.41599 35.7201 4.39199C35.6961 4.39199 35.6721 4.39199 35.6721 4.41599ZM37.6401 17.832C37.6401 17.856 37.6161 17.856 37.5921 17.856C37.5921 17.832 37.6401 17.832 37.6401 17.832ZM35.3121 17.568C35.3121 17.592 35.2641 17.592 35.2641 17.592C35.2641 17.568 35.2881 17.568 35.3121 17.568ZM34.7361 5.20799C34.7601 5.18399 34.7841 5.20799 34.7841 5.18399C34.7601 5.18399 34.7361 5.18399 34.7361 5.20799ZM38.0001 4.79999C38.0241 4.77599 38.0481 4.79999 38.0481 4.77599C38.0481 4.77599 38.0001 4.77599 38.0001 4.79999ZM39.0321 2.68799C39.0321 2.71199 39.0081 2.71199 38.9841 2.71199C38.9841 2.68799 39.0081 2.71199 39.0321 2.68799ZM36.7041 17.736C36.7041 17.712 36.7281 17.712 36.7521 17.712C36.7521 17.736 36.7281 17.712 36.7041 17.736ZM37.3281 17.856C37.3281 17.88 37.2801 17.88 37.2801 17.88C37.2801 17.856 37.3041 17.88 37.3281 17.856ZM28.9041 17.832C28.9041 17.856 28.8801 17.856 28.8801 17.856L28.9041 17.832ZM40.7361 2.95199C40.7121 2.92799 40.7121 2.95199 40.7121 2.95199H40.7361Z" fill="#7A7A7A"/>
<path d="M55.5077 4.51199C55.6037 4.53599 55.6517 4.60799 55.6997 4.67999C55.1957 6.38399 54.5717 8.15999 54.0677 9.93599C53.6597 10.992 53.3237 12.144 53.0837 13.368H53.0357C53.0117 13.608 52.8917 14.064 52.7957 14.256C52.6997 14.976 52.4837 15.912 52.2917 16.512C52.1237 17.304 51.9797 18.312 51.7397 19.056C51.8117 19.344 51.6917 19.704 51.6437 19.968C51.5717 19.968 51.5717 19.92 51.5237 19.968C51.3077 20.376 51.4997 21.072 51.1397 21.216C51.0437 21.216 51.0437 21.12 50.9477 21.12C50.9477 21.048 50.9477 20.976 50.9717 20.928C50.9237 20.952 50.8517 20.904 50.8517 20.784C50.7557 20.808 50.7557 20.784 50.6837 20.76C50.7077 20.472 50.5157 20.592 50.3717 20.472V19.968C50.3717 19.944 50.2997 19.872 50.2997 19.944C50.2277 19.896 50.2517 19.776 50.2037 19.752C50.2757 17.496 50.6597 15.144 51.2357 13.128C51.1397 13.152 51.2117 13.344 51.0917 13.32C51.1157 13.44 51.0437 13.872 50.8997 13.944C50.9957 14.208 50.7317 14.616 50.7317 15.024C50.7077 15.024 50.7077 15 50.6837 15C50.7077 15.192 50.5877 15.24 50.6837 15.36C50.6357 15.36 50.6117 15.408 50.5637 15.408C50.6357 15.504 50.6117 15.648 50.5397 15.648C50.5877 15.696 50.5637 15.744 50.6117 15.768C50.5877 15.816 50.5877 15.768 50.5397 15.768C50.5157 15.96 50.5637 16.104 50.4437 16.296C50.4677 16.272 50.4677 16.272 50.4917 16.272C50.4197 16.44 50.3717 16.56 50.4197 16.656C50.4197 16.68 50.4197 16.704 50.4437 16.728C50.3717 16.752 50.3477 16.728 50.4437 16.8C50.4197 16.848 50.3957 16.848 50.3477 16.824C50.4197 16.92 50.3957 16.92 50.3237 16.992C50.3717 16.992 50.3717 16.992 50.3717 16.968C50.4437 16.968 50.3477 17.04 50.2997 17.016C50.3477 17.088 50.3717 17.136 50.2997 17.208C50.3717 17.208 50.4437 17.256 50.2997 17.28L50.3477 17.52C50.3237 17.496 50.2277 17.568 50.3237 17.616C50.2997 17.664 50.2517 17.664 50.2277 17.688C50.2517 17.784 50.2517 17.736 50.3237 17.736C50.3237 17.808 50.2277 17.76 50.2277 17.832C50.2037 17.88 50.2277 17.928 50.2517 17.952C50.1797 17.976 50.2997 18.264 50.2037 18.216C50.2757 18.336 50.1557 18.432 50.2517 18.456C50.1317 18.624 50.1077 18.96 50.2037 19.152L50.1077 19.224C50.2037 19.296 50.0597 19.488 50.1557 19.584C50.1557 19.608 50.1317 19.584 50.1077 19.584C50.1317 19.68 50.1077 19.896 50.1077 19.968C50.1077 20.016 50.0357 19.944 50.0597 19.896C49.9877 19.92 49.8917 19.896 49.9157 20.016H49.7957C49.7957 19.584 49.7237 19.488 49.8437 19.2C49.7717 19.152 49.7717 19.032 49.7957 18.936C49.7957 18.936 49.8197 18.96 49.8437 18.96C49.7957 18.888 49.7477 18.816 49.8437 18.816C49.7957 18.192 49.8677 17.376 49.9637 17.016C49.8917 16.848 50.0597 16.44 50.0117 16.32L50.0837 16.224C49.9637 15.96 50.1797 15.864 50.1077 15.624C50.1317 15.624 50.1317 15.648 50.1557 15.648C50.0837 15.432 50.2757 15.312 50.2277 15.096C50.2517 15.096 50.2517 15.12 50.2757 15.12C50.2277 15.072 50.2277 14.952 50.2997 15.024C50.3237 14.952 50.2037 15 50.2517 14.928C50.3237 14.976 50.2997 14.76 50.3477 14.664C50.3477 14.664 50.3237 14.688 50.3237 14.64C50.3237 14.568 50.3477 14.616 50.3717 14.616C50.3957 14.448 50.3717 14.304 50.4677 14.328C50.4437 14.304 50.4437 14.256 50.4437 14.208C50.4677 14.208 50.4677 14.232 50.4917 14.232C50.5157 13.944 50.5877 13.632 50.6357 13.2C47.9717 13.56 46.0037 14.856 43.5317 15.096C43.4597 15.024 43.4597 15.048 43.3397 15.024C43.3397 15 43.2197 14.832 43.0757 14.808C43.1237 14.712 43.0037 14.736 43.0037 14.544C43.0277 14.544 43.0517 14.592 43.0757 14.592C43.0757 14.568 43.0517 14.544 43.0757 14.544C43.0277 14.52 42.8837 14.352 42.9557 14.208C42.9077 14.256 42.8837 14.232 42.8837 14.184C42.8597 14.208 42.8597 14.256 42.8117 14.232C42.8837 14.208 42.7637 14.112 42.7877 14.208C42.7397 14.088 42.5957 13.896 42.6677 13.752C42.4997 13.632 42.3077 13.536 42.1637 13.392C42.1397 12.96 42.3557 12.864 42.5477 12.576C42.5477 12.528 42.4037 12.648 42.4757 12.552C42.2837 12.36 41.3717 12.744 41.1797 12.264C41.2997 11.808 41.6117 11.568 41.8517 11.376C41.8277 11.352 41.8517 11.328 41.8517 11.304C43.9877 9.38399 46.1957 7.41599 48.2357 5.49599C48.3557 5.35199 48.4997 5.20799 48.6677 5.08799C49.2437 4.53599 49.9157 3.86399 50.5397 3.40799C50.5397 3.38399 50.5397 3.38399 50.5157 3.38399C50.8757 3.07199 51.2117 2.73599 51.6197 2.44799C52.3397 1.82399 52.9157 1.22399 53.8037 0.887992C53.9237 1.05599 54.0197 0.863993 54.1877 0.863993C54.1637 0.839993 54.1877 0.815993 54.1877 0.791994C54.2837 0.863993 54.6197 0.695993 54.6677 0.647993C54.5717 0.575994 54.5717 0.767992 54.4517 0.743993C54.4757 0.671992 54.5717 0.647993 54.6197 0.575994C54.6677 0.551992 54.6917 0.599993 54.6917 0.623993C54.7877 0.623993 54.6677 0.551992 54.7397 0.503993C54.8357 0.551992 54.7157 0.623993 54.8837 0.551992C54.8837 0.623993 54.7877 0.599993 54.7397 0.623993C54.8357 0.623993 54.8357 0.767992 54.9797 0.791994C54.9797 0.839993 54.9557 0.863993 54.9557 0.863993C54.9077 0.887992 54.8597 1.05599 54.8837 1.07999C54.8357 1.12799 54.7397 1.10399 54.8117 1.00799C54.7397 1.03199 54.7637 1.10399 54.7157 1.12799C54.7397 1.12799 54.7637 1.10399 54.7877 1.10399C54.8837 1.19999 54.8597 1.22399 54.8837 1.34399L55.1957 1.07999C55.2917 1.12799 55.3637 1.19999 55.4117 1.27199C55.2917 1.65599 55.0517 1.72799 54.8837 2.06399C54.9317 2.13599 54.9077 2.23199 54.9557 2.30399C54.6677 2.97599 54.1157 3.50399 53.7317 3.98399C51.9317 6.16799 49.8677 8.15999 47.8517 10.248C47.9477 10.2 48.0917 10.248 48.1157 10.152C48.2837 10.2 48.4277 10.176 48.6437 10.128C48.5717 10.32 47.9717 10.2 47.7317 10.344C47.7557 10.416 47.8517 10.296 47.8037 10.392C47.8517 10.392 47.9477 10.296 47.8757 10.392C47.9957 10.296 48.3077 10.272 48.4517 10.32C48.5957 10.152 49.0517 10.272 49.2677 10.152C49.0997 10.104 48.7877 10.248 48.6917 10.128C48.9557 10.128 49.3157 10.032 49.4837 10.104C49.4597 10.176 49.3157 10.104 49.2917 10.152C49.3877 10.2 49.3397 10.152 49.4117 10.248C49.4597 10.224 49.3637 10.152 49.4837 10.152C49.4597 10.2 49.4837 10.2 49.4837 10.248C49.5077 10.224 49.5557 10.2 49.5557 10.248C49.5797 10.2 49.6997 10.104 49.6517 10.2C49.6757 10.176 49.7237 10.176 49.7477 10.128C49.6757 10.08 49.5797 10.152 49.4837 10.104C49.6517 10.032 49.6757 10.08 49.7237 9.98399C49.7717 10.008 49.7237 10.032 49.7237 10.08C49.9157 10.08 50.3237 9.98399 50.4197 10.104C50.2037 10.128 49.9397 10.056 49.7957 10.128C49.8197 10.152 49.8677 10.152 49.9397 10.128C49.9157 10.176 49.9397 10.176 49.9637 10.2C49.9157 10.128 50.1077 10.176 50.0837 10.176C50.1797 10.176 50.2277 10.104 50.3477 10.128C50.3477 10.152 50.3237 10.152 50.3237 10.176C50.3717 10.176 50.3957 10.152 50.4197 10.104C50.4437 10.2 50.4437 10.128 50.4917 10.248C50.5397 10.224 50.6117 10.152 50.5397 10.104C50.4677 10.128 50.5877 10.176 50.5157 10.2C50.4437 10.128 50.4917 10.128 50.4437 10.056C50.5877 10.056 50.7797 10.176 50.8277 10.08C50.9237 10.104 50.8517 10.224 50.7557 10.152C50.8037 10.2 50.7797 10.2 50.7557 10.248C50.8757 10.128 51.0917 10.152 50.9717 10.32C50.9957 10.296 51.0197 10.296 51.0677 10.296C51.0677 10.44 51.1877 10.536 51.3317 10.68C51.2357 10.68 51.2117 10.536 51.1157 10.608C51.1637 10.68 51.2117 10.728 51.3077 10.752C51.3077 10.824 51.2837 10.872 51.2597 10.92C51.1157 10.872 51.1637 10.896 50.9717 10.872C51.1157 10.944 51.0197 10.92 50.8757 10.944C50.9477 10.872 50.8997 10.92 50.8517 10.872C50.8277 10.968 50.7077 10.944 50.6117 10.944C50.5877 11.016 50.6357 10.992 50.6117 11.064C50.6357 11.04 50.8037 11.064 50.7557 11.04C50.8277 11.04 51.1397 10.992 51.0437 11.064C51.1157 11.04 51.1157 10.968 51.1877 10.968C51.1877 11.016 51.1157 10.992 51.1157 11.064C51.1637 11.016 51.2117 11.04 51.2357 10.968C51.2597 10.992 51.2117 11.016 51.2597 11.016C51.3557 11.016 51.3077 10.848 51.4517 10.872C51.3797 10.656 51.4997 10.584 51.6197 10.512C51.5957 10.488 51.5477 10.488 51.5477 10.44C51.6677 10.392 51.7157 10.104 51.7157 9.98399C51.9077 9.59999 52.0757 9.14399 52.1477 8.75999C52.2917 8.75999 52.1717 8.56799 52.3157 8.51999C52.2437 8.39999 52.6037 7.84799 52.6517 7.53599C53.1077 6.67199 53.5397 5.30399 54.2837 4.51199C54.4037 4.51199 54.4757 4.53599 54.5477 4.46399C54.5957 4.48799 54.5477 4.48799 54.5477 4.51199C54.7877 4.39199 54.9797 4.29599 55.1957 4.22399C55.1957 4.31999 55.2437 4.31999 55.3157 4.31999C55.2917 4.41599 55.2437 4.46399 55.1957 4.53599C55.2677 4.63199 55.2197 4.65599 55.3157 4.72799C55.3637 4.65599 55.4117 4.55999 55.5077 4.51199ZM51.7637 11.16C52.5557 8.99999 53.3237 6.67199 54.3317 4.75199C53.8997 5.35199 53.7077 6.07199 53.2757 6.86399C53.2997 6.86399 53.3237 6.86399 53.3237 6.88799C53.2757 6.86399 53.2037 6.93599 53.2757 6.93599C53.1557 7.29599 52.8917 7.82399 52.7477 8.23199C52.6277 8.54399 52.5077 9.09599 52.3397 9.28799C52.3397 9.59999 52.0757 10.08 52.0277 10.296C51.9557 10.488 51.8837 10.728 51.7637 11.16ZM48.6197 11.256C48.6437 11.232 48.6677 11.256 48.6677 11.256C48.6437 11.256 48.6437 11.28 48.6437 11.28H48.6677V11.256H48.7397C48.7637 11.28 48.7157 11.28 48.7397 11.304C48.8357 11.208 48.9557 11.28 49.0517 11.184C48.9317 11.184 48.7877 11.256 48.7877 11.184C48.7157 11.256 48.4997 11.184 48.5957 11.28C48.4997 11.232 48.5237 11.28 48.4277 11.304C48.4277 11.28 48.4517 11.256 48.4277 11.256C48.3557 11.328 48.3557 11.28 48.3317 11.256C48.2837 11.28 48.3317 11.304 48.2837 11.328C48.2597 11.28 48.1637 11.256 48.2357 11.328C48.0917 11.328 48.0677 11.376 48.0677 11.304C48.0437 11.376 47.9477 11.256 48.0197 11.352C47.9477 11.424 47.8277 11.256 47.8757 11.376C47.7797 11.352 47.5877 11.376 47.6117 11.424C47.5637 11.376 47.5157 11.448 47.4677 11.472C47.4677 11.448 47.4677 11.4 47.4437 11.4C47.3477 11.496 47.1797 11.472 47.0357 11.544C47.0357 11.52 47.0837 11.472 47.0357 11.472C47.0357 11.616 46.8197 11.472 46.8437 11.568C46.8197 11.52 46.6757 11.52 46.7237 11.568C46.7717 11.544 46.7957 11.544 46.8197 11.592C46.6997 11.64 46.6517 11.52 46.6277 11.568C46.6517 11.568 46.6997 11.616 46.6517 11.616C46.6037 11.616 46.6037 11.592 46.5797 11.568C46.4837 11.64 46.5797 11.664 46.5317 11.712C46.4837 11.616 46.3637 11.736 46.3637 11.784C47.1317 11.592 47.8517 11.448 48.6437 11.28L48.6197 11.256ZM51.3077 12.888C51.4277 12.48 51.5237 12.192 51.6197 11.784C51.4517 12.024 51.3557 12.456 51.3077 12.888ZM50.7077 10.344C50.6117 10.2 50.7797 10.128 50.6117 10.152C50.6837 10.176 50.5877 10.44 50.7077 10.344ZM51.0677 10.512C51.1157 10.368 50.8757 10.416 50.9237 10.44C50.9477 10.44 50.9477 10.44 50.9477 10.488C50.9957 10.488 51.0437 10.488 51.0677 10.512ZM50.1317 10.344C50.2517 10.368 50.3957 10.368 50.5157 10.344C50.3957 10.32 50.2757 10.32 50.1317 10.344ZM50.8277 10.344C50.8037 10.392 50.7797 10.344 50.7317 10.344C50.7077 10.416 50.8997 10.416 50.8757 10.392C50.8277 10.392 50.8517 10.344 50.8277 10.344ZM47.5397 10.584V10.656H47.6117V10.584H47.5397ZM54.2837 0.791994C54.2357 0.767992 54.3077 0.743993 54.2597 0.743993C54.2837 0.719993 54.3557 0.719993 54.3797 0.647993C54.4757 0.623993 54.3077 0.743993 54.2837 0.791994ZM54.6917 0.455994C54.6677 0.503993 54.6437 0.527993 54.5957 0.503993C54.6197 0.479993 54.6437 0.455994 54.6917 0.455994ZM55.0277 0.695993C55.0277 0.743993 55.0037 0.767992 54.9317 0.767992C54.9557 0.719993 54.9797 0.719993 55.0277 0.695993ZM49.7477 10.344C49.6277 10.488 49.8917 10.296 49.7477 10.32V10.344ZM49.3157 10.392C49.3157 10.416 49.3397 10.44 49.3397 10.392C49.3157 10.344 49.2197 10.392 49.2917 10.44C49.2917 10.416 49.2917 10.392 49.3157 10.392ZM54.4037 4.72799V4.67999H54.3557V4.72799H54.4037ZM50.1077 10.368V10.32H50.0597V10.368H50.1077ZM48.2837 10.488C48.2357 10.512 48.2837 10.632 48.3077 10.536C48.3077 10.536 48.2837 10.536 48.2837 10.512C48.3077 10.512 48.3077 10.488 48.2837 10.488ZM50.5397 10.344C50.5877 10.344 50.5877 10.392 50.6117 10.344C50.6117 10.32 50.5637 10.32 50.5397 10.344ZM49.5557 10.368C49.6037 10.368 49.6037 10.416 49.6277 10.368C49.6277 10.344 49.5797 10.344 49.5557 10.368ZM46.5797 11.592C46.6037 11.616 46.6037 11.664 46.5797 11.664C46.5317 11.64 46.5797 11.64 46.5797 11.592ZM47.8757 10.512C47.8037 10.536 47.9237 10.536 47.8997 10.488C47.8517 10.464 47.8517 10.464 47.8757 10.512ZM49.9637 10.368C49.9877 10.368 50.0357 10.368 50.0357 10.344C50.0117 10.344 49.9637 10.344 49.9637 10.368ZM48.1157 10.44L48.1637 10.416C48.1397 10.416 48.1157 10.416 48.1157 10.44ZM48.1157 10.536C48.0917 10.536 48.0677 10.536 48.0677 10.56C48.0917 10.56 48.1157 10.56 48.1157 10.536ZM50.4917 10.272C50.4677 10.272 50.4437 10.272 50.4437 10.296C50.4677 10.296 50.4917 10.296 50.4917 10.272ZM43.0037 14.376C43.0277 14.376 43.0517 14.376 43.0517 14.352C43.0277 14.352 43.0037 14.352 43.0037 14.376ZM54.6917 1.15199C54.6917 1.19999 54.6917 1.17599 54.7157 1.12799C54.7157 1.15199 54.6917 1.15199 54.6917 1.15199ZM49.8197 10.368C49.8437 10.368 49.8677 10.368 49.8677 10.344C49.8437 10.344 49.8197 10.344 49.8197 10.368ZM50.6117 15.432C50.6117 15.408 50.6357 15.408 50.6597 15.408C50.6597 15.432 50.6117 15.432 50.6117 15.432ZM48.6437 10.464C48.6197 10.464 48.5957 10.464 48.5957 10.488C48.5957 10.488 48.6437 10.488 48.6437 10.464ZM49.6517 10.272C49.6757 10.248 49.6997 10.272 49.6997 10.248C49.6757 10.248 49.6517 10.248 49.6517 10.272ZM49.0757 11.208C49.0997 11.208 49.1237 11.208 49.1237 11.184C49.0997 11.208 49.0757 11.184 49.0757 11.208ZM50.9237 3.50399C50.8997 3.52799 50.8757 3.50399 50.8757 3.52799C50.8997 3.52799 50.9237 3.52799 50.9237 3.50399Z" fill="#7A7A7A"/>
</svg>
