<svg width="78" height="56" viewBox="0 0 78 56" fill="none" xmlns="http://www.w3.org/2000/svg">
<rect y="0.333252" width="78" height="55" rx="3" fill="white"/>
<path d="M74 4.33325H4V51.3333H74V4.33325Z" fill="#52C162"/>
<path d="M11.1233 27.8502L39 45.651L66.8766 27.8502L39 10.0494L11.1233 27.8502Z" fill="#F6D660"/>
<path d="M38.9999 39.6053C45.4921 39.6053 50.7551 34.3423 50.7551 27.8501C50.7551 21.3579 45.4921 16.0948 38.9999 16.0948C32.5076 16.0948 27.2446 21.3579 27.2446 27.8501C27.2446 34.3423 32.5076 39.6053 38.9999 39.6053Z" fill="#4758A9"/>
<mask id="mask0_591_14200" style="mask-type:luminance" maskUnits="userSpaceOnUse" x="27" y="16" width="24" height="24">
<path d="M38.9999 39.6054C45.4921 39.6054 50.7551 34.3424 50.7551 27.8502C50.7551 21.358 45.4921 16.095 38.9999 16.095C32.5076 16.095 27.2446 21.358 27.2446 27.8502C27.2446 34.3424 32.5076 39.6054 38.9999 39.6054Z" fill="white"/>
</mask>
<g mask="url(#mask0_591_14200)">
<path d="M3.73413 51.3606C3.73797 43.7916 6.74744 36.5339 12.1009 31.1832C17.4543 25.8325 24.7135 22.8267 32.2825 22.8267C39.8515 22.8267 47.1107 25.8325 52.4642 31.1832C57.8176 36.5339 60.8271 43.7916 60.8309 51.3606H59.1516C59.1537 47.8308 58.4603 44.3351 57.1109 41.0734C55.7615 37.8116 53.7827 34.8477 51.2875 32.351C48.7922 29.8543 45.8295 27.8737 42.5686 26.5224C39.3076 25.1711 35.8124 24.4756 32.2825 24.4756C28.7527 24.4756 25.2574 25.1711 21.9965 26.5224C18.7356 27.8737 15.7728 29.8543 13.2776 32.351C10.7824 34.8477 8.80352 37.8116 7.45416 41.0734C6.1048 44.3351 5.41135 47.8308 5.41345 51.3606H3.73413Z" fill="#F5F7FA"/>
</g>
<path fill-rule="evenodd" clip-rule="evenodd" d="M28.9736 24.414C29.1061 24.3977 29.2261 24.3235 29.307 24.2078C29.388 24.0921 29.4233 23.9443 29.4052 23.797C29.3871 23.6497 29.3171 23.5149 29.2106 23.4222C29.104 23.3295 28.9697 23.2866 28.8371 23.3028C28.7045 23.3191 28.5846 23.3933 28.5037 23.509C28.4227 23.6247 28.3874 23.7724 28.4055 23.9197C28.4236 24.0671 28.4936 24.2019 28.6001 24.2946C28.7066 24.3872 28.841 24.4302 28.9736 24.414ZM28.9483 24.2076C29.0262 24.1981 29.0963 24.1521 29.1434 24.0798C29.1904 24.0076 29.2104 23.915 29.199 23.8223C29.1877 23.7297 29.1458 23.6447 29.0827 23.5859C29.0196 23.5272 28.9404 23.4996 28.8625 23.5092C28.8239 23.5139 28.7868 23.5276 28.7534 23.5496C28.7199 23.5715 28.6907 23.6012 28.6674 23.637C28.6441 23.6727 28.6272 23.7139 28.6176 23.7581C28.6081 23.8022 28.6061 23.8486 28.6117 23.8945C28.6173 23.9403 28.6305 23.9848 28.6505 24.0254C28.6704 24.066 28.6968 24.1018 28.728 24.1309C28.7593 24.1599 28.7948 24.1817 28.8326 24.1949C28.8704 24.2081 28.9097 24.2124 28.9483 24.2076Z" fill="#52C162"/>
<path fill-rule="evenodd" clip-rule="evenodd" d="M29.8857 24.3129L30.0931 24.2984L30.0641 23.8836L30.5108 23.8524C30.6039 23.8459 30.6906 23.8026 30.7518 23.7322C30.8131 23.6618 30.8438 23.5699 30.8373 23.4768C30.8308 23.3837 30.7876 23.297 30.7171 23.2358C30.6467 23.1746 30.5548 23.1439 30.4618 23.1504L29.8236 23.195L29.8857 24.3129ZM30.0496 23.6762L30.4804 23.6461C30.5185 23.6434 30.5539 23.6257 30.579 23.5969C30.604 23.5681 30.6166 23.5305 30.6139 23.4924C30.6112 23.4544 30.5936 23.4189 30.5648 23.3939C30.536 23.3688 30.4984 23.3562 30.4603 23.3589L30.0295 23.389L30.0496 23.6762Z" fill="#52C162"/>
<path d="M30.835 24.2466C30.8238 24.087 30.7993 23.736 30.56 23.7528L30.2568 23.774C30.6078 23.7494 30.6324 24.1004 30.6435 24.26" fill="#52C162"/>
<path fill-rule="evenodd" clip-rule="evenodd" d="M31.3047 24.2245L31.8324 24.2155C31.9596 24.2133 32.0807 24.1606 32.1691 24.069C32.2575 23.9775 32.3059 23.8546 32.3037 23.7274L32.3007 23.5675C32.2985 23.4402 32.2458 23.3191 32.1543 23.2307C32.0627 23.1423 31.9399 23.0939 31.8126 23.0961L31.2849 23.1051L31.3047 24.2245ZM31.5089 24.013L31.8127 24.008C31.8933 24.0066 31.97 23.9732 32.026 23.9152C32.082 23.8573 32.1127 23.7794 32.1113 23.6989L32.1093 23.6029C32.1086 23.563 32.1 23.5236 32.0841 23.487C32.0682 23.4504 32.0452 23.4173 32.0165 23.3895C31.9878 23.3618 31.9539 23.34 31.9168 23.3254C31.8797 23.3108 31.84 23.3036 31.8001 23.3043L31.4963 23.3093L31.5089 24.013Z" fill="#52C162"/>
<path d="M32.7261 24.2105L33.733 24.2457L33.7401 24.0379L32.9249 24.0095L32.935 23.7217L33.5743 23.744L33.5813 23.5522L32.942 23.5299L32.95 23.3062L33.7172 23.3329L33.7242 23.1252L32.7652 23.0917L32.7261 24.2105Z" fill="#52C162"/>
<path d="M34.1465 24.271L34.3377 24.2877L34.4046 23.5229L34.5607 24.3072L34.736 24.3225L35.026 23.5772L34.959 24.342L35.1503 24.3587L35.2478 23.2434L34.969 23.219L34.6791 23.9642L34.5229 23.18L34.2441 23.1556L34.1465 24.271Z" fill="#52C162"/>
<path d="M36.4661 24.5326L37.2936 24.6748L37.3261 24.4857L36.6877 24.376L36.731 24.1238L37.2512 24.2132L37.2837 24.024L36.7635 23.9346L36.7933 23.7612L37.412 23.8676L37.4445 23.6784L36.6367 23.5396L36.4661 24.5326Z" fill="#52C162"/>
<path fill-rule="evenodd" clip-rule="evenodd" d="M38.592 24.9502L38.7933 25.0023L38.8975 24.5997L39.331 24.7119C39.4214 24.7352 39.5173 24.7217 39.5977 24.6744C39.6781 24.627 39.7364 24.5496 39.7598 24.4593C39.7831 24.3689 39.7696 24.273 39.7223 24.1926C39.6749 24.1122 39.5975 24.0539 39.5072 24.0305L38.8878 23.8704L38.592 24.9502ZM38.9495 24.3984L39.3676 24.5065C39.4045 24.516 39.4438 24.5105 39.4767 24.4911C39.5096 24.4718 39.5334 24.4402 39.543 24.4032C39.5525 24.3662 39.547 24.327 39.5277 24.2941C39.5083 24.2612 39.4766 24.2373 39.4397 24.2278L39.0216 24.1197L38.9495 24.3984Z" fill="#52C162"/>
<path fill-rule="evenodd" clip-rule="evenodd" d="M39.9656 25.3167L40.1639 25.3792L40.2889 24.9826L40.716 25.1173C40.805 25.1454 40.9015 25.1369 40.9843 25.0938C41.0671 25.0507 41.1293 24.9765 41.1574 24.8875C41.1855 24.7985 41.177 24.702 41.1339 24.6192C41.0908 24.5365 41.0166 24.4742 40.9276 24.4461L40.3175 24.2538L39.9656 25.3167ZM40.3514 24.7843L40.7633 24.9142C40.7997 24.9257 40.8392 24.9222 40.873 24.9046C40.9069 24.8869 40.9324 24.8566 40.9438 24.8202C40.9553 24.7838 40.9519 24.7443 40.9342 24.7104C40.9166 24.6766 40.8863 24.6511 40.8499 24.6396L40.438 24.5098L40.3514 24.7843Z" fill="#52C162"/>
<path d="M40.8733 25.6028C40.9214 25.4503 41.0272 25.1147 40.7984 25.0425L40.5085 24.9512C40.8441 25.057 40.7383 25.3925 40.6902 25.5451" fill="#52C162"/>
<path fill-rule="evenodd" clip-rule="evenodd" d="M41.79 25.9309C41.9152 25.9777 42.0559 25.9674 42.1811 25.9021C42.3064 25.8369 42.406 25.7221 42.458 25.583C42.5099 25.444 42.5101 25.292 42.4584 25.1606C42.4066 25.0292 42.3073 24.9291 42.1821 24.8823C42.057 24.8355 41.9163 24.8458 41.791 24.9111C41.6658 24.9763 41.5662 25.0911 41.5142 25.2302C41.4622 25.3692 41.4621 25.5212 41.5138 25.6526C41.5655 25.784 41.6649 25.8841 41.79 25.9309ZM41.8628 25.7362C41.9363 25.7636 42.0198 25.7553 42.0949 25.7129C42.17 25.6705 42.2305 25.5976 42.2632 25.5102C42.2959 25.4228 42.298 25.3281 42.2692 25.2468C42.2403 25.1656 42.1828 25.1045 42.1093 25.077C42.0358 25.0496 41.9523 25.0579 41.8772 25.1003C41.8022 25.1427 41.7416 25.2156 41.7089 25.303C41.6762 25.3904 41.6741 25.4851 41.703 25.5664C41.7318 25.6476 41.7893 25.7087 41.8628 25.7362Z" fill="#52C162"/>
<path fill-rule="evenodd" clip-rule="evenodd" d="M43.1077 26.4633C43.2302 26.5166 43.3712 26.5135 43.4997 26.4549C43.6282 26.3963 43.7336 26.2869 43.7928 26.1508C43.852 26.0147 43.8601 25.863 43.8153 25.7291C43.7706 25.5952 43.6766 25.49 43.5541 25.4367C43.4316 25.3834 43.2906 25.3865 43.1621 25.4451C43.0337 25.5037 42.9283 25.6131 42.8691 25.7492C42.8099 25.8853 42.8018 26.037 42.8465 26.1709C42.8913 26.3049 42.9852 26.41 43.1077 26.4633ZM43.1906 26.2727C43.2626 26.3039 43.3464 26.2999 43.4235 26.2615C43.5007 26.2231 43.565 26.1535 43.6022 26.0679C43.6394 25.9824 43.6465 25.8879 43.6219 25.8053C43.5974 25.7227 43.5432 25.6586 43.4712 25.6273C43.3993 25.5961 43.3155 25.6001 43.2383 25.6385C43.1612 25.6769 43.0969 25.7465 43.0597 25.8321C43.0225 25.9176 43.0154 26.0121 43.04 26.0947C43.0645 26.1774 43.1187 26.2414 43.1906 26.2727Z" fill="#52C162"/>
<path d="M43.793 26.1509L43.4043 25.9819L43.3405 26.1286L43.7292 26.2976L43.793 26.1509Z" fill="#52C162"/>
<path d="M43.7929 26.1509L43.6462 26.0871L43.423 26.6005L43.5697 26.6642L43.7929 26.1509Z" fill="#52C162"/>
<path fill-rule="evenodd" clip-rule="evenodd" d="M43.4042 25.9819L43.7929 26.1509L43.8889 25.9921L43.4919 25.8293L43.4042 25.9819Z" fill="#F5F7FA"/>
<path fill-rule="evenodd" clip-rule="evenodd" d="M43.9453 26.8393L44.1314 26.932L44.3169 26.5599L44.7177 26.7597C44.8012 26.8013 44.8978 26.8081 44.9863 26.7785C45.0748 26.7489 45.1479 26.6853 45.1896 26.6018C45.2312 26.5183 45.2379 26.4217 45.2083 26.3332C45.1787 26.2447 45.1152 26.1716 45.0317 26.1299L44.4591 25.8445L43.9453 26.8393ZM44.4097 26.3738L44.7961 26.5665C44.8303 26.5835 44.8698 26.5863 44.906 26.5742C44.9422 26.5621 44.9721 26.5361 44.9892 26.5019C45.0062 26.4677 45.0089 26.4282 44.9968 26.392C44.9847 26.3558 44.9587 26.3259 44.9246 26.3089L44.5381 26.1162L44.4097 26.3738Z" fill="#52C162"/>
<path d="M44.7969 27.2639C44.8682 27.1207 45.0252 26.8058 44.8105 26.6988L44.5386 26.5632C44.8535 26.7202 44.6965 27.0351 44.6251 27.1782" fill="#52C162"/>
<path d="M45.2124 27.4832L46.0894 27.9794L46.1917 27.7984L45.4818 27.3967L45.6236 27.1462L46.1804 27.4612L46.2749 27.2942L45.7181 26.9791L45.8283 26.7842L46.4965 27.1623L46.5989 26.9813L45.7637 26.5088L45.2124 27.4832Z" fill="#52C162"/>
<path d="M46.846 28.0313C46.7859 28.1257 46.8468 28.2309 46.9817 28.3168C47.1166 28.4027 47.2084 28.3996 47.2472 28.339C47.3697 28.1468 46.6618 27.8665 46.88 27.5314C47.0681 27.2435 47.39 27.4676 47.5114 27.5449C47.6328 27.6222 47.8277 27.8223 47.6761 28.0528L47.4704 27.9218C47.5348 27.8206 47.4644 27.7234 47.3562 27.6546C47.2516 27.588 47.1667 27.5576 47.1044 27.6554C47 27.8118 47.6939 28.1068 47.4812 28.4406C47.3244 28.6868 47.0515 28.5793 46.8694 28.4633C46.7143 28.3645 46.4825 28.1315 46.6335 27.8959L46.846 28.0313Z" fill="#52C162"/>
<path d="M48.047 28.8255C47.982 28.9166 48.037 29.0249 48.1676 29.1177C48.2978 29.2106 48.3897 29.2124 48.4316 29.1539C48.5639 28.9683 47.8716 28.6513 48.1071 28.3281C48.31 28.0505 48.6197 28.2911 48.7369 28.3746C48.8541 28.4582 49.0383 28.6682 48.8748 28.8905L48.6763 28.7489C48.7459 28.6512 48.6803 28.5504 48.5762 28.4761C48.4753 28.4041 48.392 28.3692 48.3247 28.4636C48.2123 28.6143 48.8898 28.9453 48.6599 29.2675C48.4904 29.5051 48.2235 29.3836 48.0477 29.2586C47.898 29.1517 47.6787 28.9069 47.8419 28.6795L48.047 28.8255Z" fill="#52C162"/>
<path fill-rule="evenodd" clip-rule="evenodd" d="M49.1828 30.1136C49.2874 30.1967 49.4244 30.2304 49.5637 30.207C49.7029 30.1837 49.8331 30.1052 49.9255 29.9891C50.0179 29.8729 50.065 29.7284 50.0564 29.5874C50.0479 29.4465 49.9843 29.3206 49.8798 29.2374C49.7752 29.1542 49.6382 29.1206 49.4989 29.144C49.3596 29.1673 49.2295 29.2457 49.137 29.3619C49.0446 29.4781 48.9975 29.6226 49.0061 29.7635C49.0147 29.9045 49.0783 30.0304 49.1828 30.1136ZM49.3122 29.9508C49.3737 29.9994 49.4556 30.0169 49.5399 29.9997C49.6242 29.9825 49.7041 29.932 49.7621 29.8591C49.8201 29.7862 49.8514 29.697 49.8492 29.6109C49.847 29.5249 49.8114 29.4491 49.7503 29.4001C49.6889 29.3516 49.607 29.334 49.5227 29.3512C49.4383 29.3684 49.3584 29.419 49.3005 29.4919C49.2425 29.5647 49.2112 29.654 49.2134 29.74C49.2156 29.8261 49.2511 29.9019 49.3122 29.9508Z" fill="#52C162"/>
<path d="M42.646 23.7001L42.7568 24.0513L43.125 24.0483L42.8252 24.2622L42.942 24.6115L42.646 24.3924L42.35 24.6115L42.4668 24.2622L42.167 24.0483L42.5352 24.0513L42.646 23.7001Z" fill="#F5F7FA"/>
<path d="M39.0004 29.3174L39.0928 29.6103L39.3999 29.6073L39.1499 29.7856L39.2473 30.0769L39.0004 29.8942L38.7535 30.0769L38.8509 29.7856L38.6008 29.6073L38.908 29.6103L39.0004 29.3174Z" fill="#F5F7FA"/>
<path d="M37.8171 30.4565L37.891 30.6908L38.1366 30.6888L37.9366 30.8315L38.0145 31.0644L37.8171 30.9183L37.6196 31.0644L37.6975 30.8315L37.4976 30.6888L37.7432 30.6908L37.8171 30.4565Z" fill="#F5F7FA"/>
<path d="M40.36 30.3724L40.4524 30.6653L40.7595 30.6623L40.5095 30.8406L40.6069 31.1319L40.36 30.9492L40.1131 31.1319L40.2105 30.8406L39.9604 30.6623L40.2676 30.6653L40.36 30.3724Z" fill="#F5F7FA"/>
<path d="M38.408 31.3696L38.4607 31.5367L38.636 31.5347L38.4933 31.6365L38.5489 31.8028L38.4079 31.6985L38.267 31.8028L38.3226 31.6365L38.1799 31.5347L38.3552 31.5367L38.408 31.3696Z" fill="#F5F7FA"/>
<path d="M39.0005 32.6241L39.1112 32.9753L39.4795 32.9724L39.1797 33.1862L39.2965 33.5355L39.0005 33.3164L38.7045 33.5355L38.8213 33.1862L38.5215 32.9724L38.8897 32.9753L39.0005 32.6241Z" fill="#F5F7FA"/>
<path d="M41.5915 34.1035L41.6654 34.3378L41.911 34.3358L41.7111 34.4784L41.789 34.7114L41.5915 34.5652L41.394 34.7114L41.4719 34.4784L41.272 34.3358L41.5176 34.3378L41.5915 34.1035Z" fill="#F5F7FA"/>
<path d="M42.519 35.3464L42.6113 35.6393L42.9185 35.6363L42.6684 35.8146L42.7658 36.1059L42.5189 35.9232L42.272 36.1059L42.3694 35.8146L42.1194 35.6363L42.4265 35.6393L42.519 35.3464Z" fill="#F5F7FA"/>
<path d="M43.5266 34.3915L43.6005 34.6258L43.8461 34.6238L43.6461 34.7665L43.724 34.9994L43.5266 34.8533L43.3291 34.9994L43.407 34.7665L43.207 34.6238L43.4527 34.6258L43.5266 34.3915Z" fill="#F5F7FA"/>
<path d="M44.8856 35.0583L44.978 35.3513L45.2852 35.3483L45.0351 35.5266L45.1325 35.8179L44.8856 35.6352L44.6387 35.8179L44.7361 35.5266L44.4861 35.3483L44.7932 35.3513L44.8856 35.0583Z" fill="#F5F7FA"/>
<path d="M44.8376 33.9915L44.9115 34.2258L45.1571 34.2238L44.9572 34.3664L45.035 34.5994L44.8376 34.4532L44.6401 34.5994L44.718 34.3664L44.5181 34.2238L44.7637 34.2258L44.8376 33.9915Z" fill="#F5F7FA"/>
<path d="M46.0536 34.2155L46.1275 34.4498L46.3732 34.4478L46.1732 34.5904L46.2511 34.8234L46.0536 34.6772L45.8562 34.8234L45.9341 34.5904L45.7341 34.4478L45.9797 34.4498L46.0536 34.2155Z" fill="#F5F7FA"/>
<path d="M46.9965 33.5394L47.0889 33.8323L47.396 33.8293L47.146 34.0076L47.2434 34.2989L46.9965 34.1163L46.7496 34.2989L46.847 34.0076L46.5969 33.8293L46.9041 33.8323L46.9965 33.5394Z" fill="#F5F7FA"/>
<path d="M44.8696 36.3265L44.9435 36.5608L45.1891 36.5588L44.9892 36.7014L45.067 36.9344L44.8696 36.7883L44.6721 36.9344L44.75 36.7014L44.55 36.5588L44.7957 36.5608L44.8696 36.3265Z" fill="#F5F7FA"/>
<path d="M47.7169 32.5954L47.8093 32.8883L48.1165 32.8853L47.8664 33.0637L47.9638 33.355L47.7169 33.1723L47.47 33.355L47.5674 33.0637L47.3174 32.8853L47.6245 32.8883L47.7169 32.5954Z" fill="#F5F7FA"/>
<path d="M47.2371 31.4731L47.3478 31.8243L47.7161 31.8214L47.4163 32.0352L47.5331 32.3845L47.2371 32.1654L46.941 32.3845L47.0578 32.0352L46.7581 31.8214L47.1263 31.8243L47.2371 31.4731Z" fill="#F5F7FA"/>
<path d="M34.2825 33.5841L34.3932 33.9353L34.7615 33.9323L34.4617 34.1462L34.5785 34.4954L34.2825 34.2764L33.9864 34.4954L34.1033 34.1462L33.8035 33.9323L34.1717 33.9353L34.2825 33.5841Z" fill="#F5F7FA"/>
<path d="M32.5385 32.6805L32.6124 32.9148L32.858 32.9128L32.6581 33.0555L32.736 33.2884L32.5385 33.1423L32.341 33.2884L32.4189 33.0555L32.219 32.9128L32.4646 32.9148L32.5385 32.6805Z" fill="#F5F7FA"/>
<path d="M32.891 31.4283L32.9834 31.7213L33.2905 31.7183L33.0405 31.8966L33.1379 32.1879L32.891 32.0052L32.6441 32.1879L32.7415 31.8966L32.4915 31.7183L32.7986 31.7213L32.891 31.4283Z" fill="#F5F7FA"/>
<path d="M31.5955 29.7216L31.6482 29.8887L31.8235 29.8867L31.6808 29.9885L31.7364 30.1548L31.5954 30.0505L31.4545 30.1548L31.5101 29.9885L31.3674 29.8867L31.5427 29.8887L31.5955 29.7216Z" fill="#F5F7FA"/>
<path d="M30.4431 30.1771L30.5538 30.5283L30.9221 30.5253L30.6223 30.7392L30.7391 31.0884L30.4431 30.8694L30.1471 31.0884L30.2639 30.7392L29.9641 30.5253L30.3324 30.5283L30.4431 30.1771Z" fill="#F5F7FA"/>
<path d="M29.0045 31.3163L29.0969 31.6093L29.4041 31.6063L29.154 31.7846L29.2514 32.0759L29.0045 31.8932L28.7576 32.0759L28.855 31.7846L28.605 31.6063L28.9121 31.6093L29.0045 31.3163Z" fill="#F5F7FA"/>
<path d="M34.5224 27.9094L34.6148 28.2023L34.9219 28.1993L34.6719 28.3776L34.7693 28.6689L34.5223 28.4862L34.2755 28.6689L34.3728 28.3776L34.1228 28.1993L34.4299 28.2023L34.5224 27.9094Z" fill="#F5F7FA"/>
<path d="M29.4043 25.2351L29.515 25.5863L29.8833 25.5833L29.5835 25.7972L29.7003 26.1464L29.4043 25.9274L29.1082 26.1464L29.2251 25.7972L28.9253 25.5833L29.2935 25.5863L29.4043 25.2351Z" fill="#F5F7FA"/>
<path d="M42.1984 26.9225L42.2723 27.1568L42.518 27.1548L42.318 27.2974L42.3959 27.5304L42.1984 27.3843L42.001 27.5304L42.0789 27.2974L41.8789 27.1548L42.1245 27.1568L42.1984 26.9225Z" fill="#F5F7FA"/>
<path d="M38.9996 36.8788L39.0365 36.9958L39.1591 36.9948L39.0593 37.066L39.0982 37.1823L38.9996 37.1094L38.901 37.1823L38.9399 37.066L38.8401 36.9948L38.9627 36.9958L38.9996 36.8788Z" fill="#F5F7FA"/>
<path d="M48.8686 31.7526L48.9425 31.9868L49.1881 31.9848L48.9882 32.1274L49.0661 32.3604L48.8686 32.2143L48.6711 32.3604L48.749 32.1274L48.5491 31.9848L48.7947 31.9868L48.8686 31.7526Z" fill="#F5F7FA"/>
</svg>
