<svg width="43" height="29" viewBox="0 0 43 29" fill="none" xmlns="http://www.w3.org/2000/svg">
<path d="M3.67422 16.1956L39.8179 16.1956C40.5674 16.1956 41.1632 15.8988 41.5648 15.4312C41.9574 14.9741 42.1418 14.3815 42.1421 13.8074C42.1424 13.2333 41.9586 12.6405 41.566 12.1832C41.1644 11.7153 40.5682 11.4187 39.8179 11.4187L3.67422 11.4187C2.92469 11.4187 2.32888 11.7155 1.92733 12.1831C1.53475 12.6402 1.35033 13.2328 1.35003 13.8069C1.34972 14.3809 1.53351 14.9738 1.92613 15.4311C2.32773 15.8989 2.92393 16.1956 3.67422 16.1956Z" fill="#202020" stroke="#202020"/>
<path d="M32.9085 9.15787L33.2418 8.78521L32.9085 9.15787C33.8177 9.97115 34.692 10.8231 35.5279 11.7113C35.8914 12.0975 36.2476 12.4905 36.5962 12.89L36.973 12.5612L36.5963 12.89C36.6946 13.0027 36.7966 13.148 36.9203 13.3242C36.989 13.4221 37.0643 13.5294 37.1495 13.6461C37.1609 13.6618 37.1727 13.6778 37.1846 13.6939C37.1538 13.7297 37.1239 13.7629 37.0922 13.7952C37.0922 13.7952 37.0922 13.7952 37.0922 13.7952L35.6625 15.2498L32.803 18.159L26.8242 24.2418C26.2986 24.7766 26.0914 25.4104 26.1402 26.0253C26.1879 26.627 26.4768 27.1769 26.8827 27.5831C27.2885 27.9891 27.8375 28.2779 28.4382 28.3212C29.0529 28.3655 29.6819 28.1488 30.2081 27.6135L36.9667 20.7372L40.346 17.2991C40.4253 17.2184 40.5077 17.1359 40.5919 17.0515C41.0742 16.5684 41.6178 16.0239 41.9913 15.4167C42.452 14.6678 42.6831 13.7835 42.3253 12.7303C42.075 11.9934 41.5938 11.3163 41.0901 10.7178C40.7758 10.3444 40.4231 9.96928 40.0996 9.62525C39.9155 9.42944 39.7409 9.24371 39.5882 9.07411C38.6441 8.0254 37.6496 7.02205 36.6083 6.06938C34.488 4.12957 32.1797 2.38971 29.7431 0.871357C29.1055 0.47409 28.4449 0.412332 27.8607 0.606313C27.2907 0.795561 26.8339 1.21379 26.5449 1.70956C26.2557 2.20576 26.1154 2.81197 26.217 3.40832C26.3207 4.01711 26.6725 4.58534 27.3079 4.98129C29.2945 6.2192 31.1675 7.60054 32.9085 9.15787Z" fill="#202020" stroke="#202020"/>
</svg>
