<svg width="23" height="17" viewBox="0 0 23 17" fill="none" xmlns="http://www.w3.org/2000/svg">
<g clip-path="url(#clip0_536_12)">
<path d="M4.69079 3.59597C3.22085 5.17862 1.7509 6.76126 0.280962 8.34391C-0.25724 8.92338 0.0275045 9.71354 0.713702 9.98299C2.52613 10.6947 4.16483 11.8052 5.53413 13.1841C6.42479 14.081 7.81179 12.6943 6.92102 11.7972C5.30161 10.1664 3.37063 8.93028 1.23511 8.09171L1.66785 9.73079C3.13779 8.14814 4.60773 6.5655 6.07768 4.98285C6.93583 4.0589 5.55201 2.66871 4.69079 3.59597Z" fill="#858585"/>
<path d="M16.5809 4.98274C18.0508 6.56538 19.5208 8.14803 20.9907 9.73068C21.1349 9.18432 21.2792 8.63795 21.4234 8.09159C19.2879 8.93016 17.3569 10.1663 15.7375 11.7971C14.8471 12.6938 16.2334 14.0813 17.1244 13.184C18.4937 11.805 20.1324 10.6946 21.9448 9.98288C22.631 9.71342 22.9158 8.92326 22.3776 8.34379C20.9076 6.76115 19.4377 5.1785 17.9677 3.59585C17.1069 2.669 15.7223 4.05839 16.5809 4.98274Z" fill="#858585"/>
<path d="M9.68529 16.0584C11.6135 11.1199 13.5417 6.18148 15.4699 1.24301C15.6626 0.749505 15.258 0.166655 14.785 0.0366645C14.2295 -0.115948 13.772 0.226296 13.5786 0.721607C11.6504 5.66007 9.7222 10.5985 7.794 15.537C7.60131 16.0305 8.00586 16.6133 8.47894 16.7433C9.03436 16.896 9.49189 16.5537 9.68529 16.0584Z" fill="#858585"/>
</g>
<defs>
<clipPath id="clip0_536_12">
<rect width="22.6585" height="16.78" fill="white"/>
</clipPath>
</defs>
</svg>
