<svg width="364" height="138" viewBox="0 0 364 138" fill="none" xmlns="http://www.w3.org/2000/svg">
<g clip-path="url(#clip0_580_3)">
<path d="M-1500.63 -426.95C-1503.37 -412.092 -1507.51 -400.937 -1513.08 -393.483C-1518.52 -376.728 -1516.92 -362.313 -1508.27 -350.24C-1499.61 -338.166 -1490.34 -329.597 -1480.46 -324.533C-1479.11 -322.242 -1477.28 -319.796 -1474.98 -317.197C-1472.96 -313.759 -1469.57 -311.271 -1464.83 -309.731C-1466.86 -313.168 -1466.65 -315.416 -1464.21 -316.476C-1462.45 -318.681 -1461.5 -321.613 -1461.36 -325.272C-1461.89 -330.077 -1463.17 -334.198 -1465.2 -337.636C-1466.95 -341.911 -1468.1 -346.451 -1468.63 -351.256C-1464.17 -348.878 -1462 -345.859 -1462.14 -342.2C-1462.96 -339.687 -1461.61 -337.395 -1458.09 -335.326L-1463.75 -356.615C-1439.34 -373.69 -1409.17 -384.266 -1373.26 -388.344C-1338.3 -392.729 -1300.64 -392.532 -1260.27 -387.751C-1220.57 -384.116 -1178.99 -376.625 -1135.51 -365.277C-1092.71 -355.076 -1050.93 -343.353 -1010.17 -330.108C-981.732 -320.868 -952.819 -311.473 -923.432 -301.925C-894.992 -292.684 -868.858 -282.803 -845.027 -272.282C-764.862 -241.604 -692.085 -209.158 -626.694 -174.944C-561.303 -140.73 -494.49 -106.055 -426.255 -70.9169C-399.721 -55.8122 -370.682 -40.3563 -339.136 -24.5492C-307.318 -9.5799 -279.494 3.16559 -255.663 13.6872C-216.674 35.6175 -172.941 55.8476 -124.463 74.3776C-76.6611 91.7619 -27.3619 104.538 23.4344 112.707L36.232 116.866C61.9681 121.523 87.8402 125.761 113.848 129.581C139.181 132.255 163.702 134.202 187.41 135.422C211.391 135.804 234.223 134.886 255.904 132.669C277.585 130.452 297.441 125.789 315.472 118.68C320.625 115.724 326.252 112.921 332.353 110.272C338.726 106.786 342.255 102.375 342.94 97.0405C343.081 93.3815 342.133 93.0735 340.096 96.1165C337.111 98.8515 334.807 99.4921 333.183 98.0383C333.728 96.3628 334.272 94.6873 334.817 93.0118C335.633 90.4985 337.665 90.6956 340.913 93.6032C340.922 87.1229 342.964 80.8397 347.037 74.7536C345.686 72.4621 344.874 71.7352 344.602 72.5729C344.602 72.5729 343.79 71.846 342.166 70.3922C344.203 67.3492 346.441 65.298 348.882 64.2385C350.646 62.0332 352.073 59.255 353.162 55.904C349.511 51.0129 344.635 49.8917 338.534 52.5404C331.757 54.0434 326.201 55.0166 321.865 55.4601C319.969 54.844 319.767 53.8523 321.259 52.4847C321.804 50.8092 321.128 49.6635 319.232 49.0474C326.15 43.8854 334.691 40.1772 344.856 37.9228C354.073 35.3603 360.38 30.4632 363.778 23.2313C362.426 20.9398 359.582 20.0158 355.246 20.4592C350.91 20.9027 347.859 22.227 346.095 24.4323C344.471 22.9785 341.355 22.8922 336.747 24.1735C332.138 25.4547 327.731 27.7277 323.526 30.9924C320.955 29.2306 320.349 26.2553 321.71 22.0665C318.322 22.818 315.272 24.1424 312.559 26.0396C310.119 27.0991 306.801 26.0211 302.605 22.8055C294.609 24.8382 288.372 27.9058 283.894 32.0083C278.469 35.8028 271.693 37.3058 263.564 36.5172C262.616 36.2092 262.48 36.628 263.156 37.7738C261.119 40.8168 256.375 42.5169 248.922 42.8741C240.794 42.0855 236.392 41.1183 235.716 39.9726C235.585 37.1513 234.773 36.4244 233.281 37.7919C231.113 38.0136 230.23 39.1163 230.634 41.0998C228.466 41.3215 227.518 41.0135 227.79 40.1758C227.386 38.1922 226.101 37.3113 223.933 37.533C215.26 38.42 204.354 38.118 191.213 36.6271C177.397 33.9904 163.107 31.1997 148.343 28.255C133.579 25.3103 119.289 22.5196 105.473 19.883C90.9816 16.1005 78.7237 13.507 68.6995 12.1023C58.8163 7.03866 48.6608 2.81275 38.2332 -0.575401C27.8055 -3.96356 17.2417 -6.93284 6.54182 -9.48325C4.64587 -10.0993 3.56179 -9.98841 3.28959 -9.15065C2.06943 -8.6209 0.985353 -8.51004 0.0373669 -8.81806C-1.85855 -9.43408 -4.0924 -10.623 -6.66412 -12.3848C-9.23582 -14.1466 -11.8075 -15.9084 -14.3792 -17.6702C-36.5861 -26.7381 -59.4031 -35.5411 -82.8301 -44.0792C-106.257 -52.6173 -128.938 -61.8392 -150.873 -71.7448C-187.158 -89.0919 -222.698 -107.123 -257.491 -125.837C-292.284 -144.552 -327.077 -163.267 -361.871 -181.981L-456.916 -228.146C-472.215 -235.895 -486.43 -243.756 -499.561 -251.727C-512.691 -259.698 -526.568 -266.986 -541.191 -273.59C-597.516 -300.226 -658.242 -327.83 -723.37 -356.401C-788.226 -385.81 -853.632 -410.303 -919.586 -429.881C-931.234 -432.739 -945.115 -436.787 -961.231 -442.023C-978.022 -448.405 -993.598 -452.076 -1007.96 -453.038C-1006.47 -454.405 -1008.7 -455.594 -1014.66 -456.604C-1021.3 -458.76 -1025.36 -459.155 -1026.85 -457.787C-1041.07 -462.407 -1055.9 -466.763 -1071.34 -470.853C-1086.78 -474.944 -1100.4 -476.589 -1112.18 -475.788C-1143.06 -483.969 -1173.14 -488.183 -1202.4 -488.43C-1231.39 -489.514 -1260.45 -492.009 -1289.58 -495.915C-1288.23 -493.624 -1289.24 -492.102 -1292.63 -491.351C-1295.75 -491.437 -1299.34 -491.677 -1303.4 -492.072C-1307.47 -492.466 -1311.19 -492.287 -1314.58 -491.536C-1317.7 -491.622 -1318.92 -491.092 -1318.24 -489.947C-1322.44 -493.162 -1325.28 -494.086 -1326.77 -492.719C-1327.99 -492.189 -1331.65 -490.6 -1337.75 -487.951C-1339.65 -488.567 -1340.33 -489.713 -1339.78 -491.388C-1339.24 -493.064 -1340.05 -493.791 -1342.22 -493.569C-1338.97 -490.661 -1338.77 -489.67 -1341.61 -490.594C-1345.4 -491.826 -1348.52 -491.912 -1350.96 -490.853C-1350.69 -491.69 -1348.93 -490.655 -1345.68 -487.748C-1354.76 -488.844 -1359.63 -489.966 -1360.31 -491.111C-1361.93 -492.565 -1366.74 -492.276 -1374.74 -490.243C-1373.93 -486.276 -1371.56 -485.506 -1367.63 -487.933C-1363.7 -490.36 -1359.5 -490.384 -1355.03 -488.007C-1359.37 -487.563 -1363.7 -487.12 -1368.04 -486.676C-1372.37 -486.233 -1377.19 -485.943 -1382.47 -485.808C-1382.33 -489.467 -1381.11 -489.997 -1378.81 -487.397C-1377.46 -485.106 -1376.71 -485.789 -1376.57 -489.448C-1378.47 -490.064 -1380.16 -489.689 -1381.65 -488.321C-1382.87 -487.791 -1382.94 -489.202 -1381.85 -492.553C-1384.29 -491.494 -1385.17 -490.391 -1384.5 -489.245C-1384.5 -489.245 -1384.16 -488.672 -1383.48 -487.527C-1388.64 -484.57 -1394.6 -482.34 -1401.38 -480.837C-1409.1 -479.642 -1416.42 -479.704 -1423.33 -481.022L-1421.9 -480.56C-1438.17 -475.657 -1452.81 -469.3 -1465.83 -461.489C-1479.8 -453.987 -1491.4 -442.474 -1500.63 -426.95ZM-1358.52 -462.744C-1365.97 -462.387 -1374.17 -461.346 -1383.12 -459.622C-1391.79 -458.735 -1399.24 -458.377 -1405.47 -458.55C-1384.33 -465.572 -1361.63 -469.311 -1337.38 -469.767C-1313.12 -470.222 -1287.99 -468.54 -1261.98 -464.72C-1236.65 -462.047 -1210.78 -457.808 -1184.37 -452.005C-1158.9 -446.51 -1133.91 -441.169 -1109.4 -435.982C-1111.57 -435.76 -1110.89 -434.614 -1107.37 -432.545C-1103.58 -431.312 -1101.88 -431.688 -1102.29 -433.672C-1100.94 -431.38 -1100.12 -430.653 -1099.85 -431.491C-1097.96 -430.875 -1096.4 -430.832 -1095.18 -431.362C-1094.91 -432.199 -1094.09 -431.473 -1092.74 -429.181C-1086.51 -429.008 -1081.16 -427.733 -1076.69 -425.355C-1073.17 -423.286 -1075.68 -423.637 -1084.21 -426.409C-1125.79 -437.14 -1165.68 -445.007 -1203.88 -450.01C-1241.81 -455.85 -1277.84 -461.074 -1311.98 -465.682C-1310.9 -462.553 -1313.34 -461.493 -1319.3 -462.504C-1325.26 -463.514 -1329.93 -463.643 -1333.32 -462.892L-1358.52 -462.744ZM21.0985 42.483C11.891 38.565 1.32719 35.5958 -10.5929 33.5751C-22.5129 31.5545 -31.3825 28.2095 -37.2017 23.5401C-9.43835 31.6347 14.8053 37.6596 35.5293 41.6146C56.2533 45.5696 82.1255 49.8081 113.146 54.3299C139.154 58.1495 165.707 60.2936 192.804 60.7621C219.225 60.0848 243.952 59.7833 266.985 59.8576C231.337 69.5776 192.517 71.3204 150.525 65.0859C108.533 58.8513 65.3904 51.317 21.0985 42.483ZM-1485.33 -328.895C-1489.66 -334.932 -1494.32 -341.542 -1499.33 -348.724C-1504.06 -356.745 -1505.53 -365.098 -1503.76 -373.783C-1503.08 -372.637 -1502 -372.748 -1500.51 -374.116C-1501.32 -371.603 -1500.86 -368.208 -1499.1 -363.933C-1498.02 -360.804 -1496.13 -356.948 -1493.43 -352.365C-1491.4 -348.927 -1489.51 -345.071 -1487.75 -340.796C-1486 -336.521 -1485.19 -332.554 -1485.33 -328.895ZM-1420.27 -485.587C-1419.19 -482.457 -1416.82 -481.687 -1413.16 -483.277C-1410.18 -486.012 -1411.05 -488.149 -1415.79 -489.689C-1413.09 -485.106 -1414.58 -483.739 -1420.27 -485.587ZM-16.1548 84.5616C-17.6472 85.9291 -20.2893 85.9968 -24.0812 84.7648C-27.6009 82.695 -27.6666 81.2843 -24.2783 80.5328C-23.8747 82.5164 -22.1149 83.5513 -18.9988 83.6376C-15.6104 82.8861 -14.6624 83.1941 -16.1548 84.5616ZM-33.6266 80.274C-34.171 81.9495 -36.3392 82.1712 -40.1311 80.9392C-44.5987 78.5614 -44.6644 77.1507 -40.3281 76.7072C-41.1447 79.2205 -39.8589 80.1014 -36.4705 79.3499C-33.758 77.4527 -32.81 77.7607 -33.6266 80.274ZM-1460.13 -469.362C-1456.74 -470.113 -1455.11 -471.9 -1455.24 -474.721C-1457.81 -476.483 -1458.9 -476.372 -1458.5 -474.388C-1458.09 -472.405 -1458.64 -470.729 -1460.13 -469.362ZM-51.5067 77.243C-53.1304 75.7892 -55.5004 75.0192 -58.6165 74.9329C-61.7326 74.8466 -63.4925 73.8117 -63.896 71.8282C-62.0001 72.4442 -59.6301 73.2142 -56.7862 74.1383C-53.6701 74.2246 -51.9103 75.2595 -51.5067 77.243ZM-1460.33 -473.594C-1462.49 -473.372 -1464.26 -471.167 -1465.62 -466.978C-1463.72 -466.362 -1461.96 -468.567 -1460.33 -473.594ZM-952.039 -334.838L-947.773 -333.452L-948.998 -329.682L-953.264 -331.068L-952.039 -334.838ZM-436.024 -200.518C-442.659 -202.674 -445.705 -204.59 -445.161 -206.265C-443.537 -204.812 -441.777 -203.777 -439.881 -203.161C-437.713 -203.382 -436.427 -202.501 -436.024 -200.518ZM-1393.24 -486.529C-1390.4 -485.605 -1388.84 -485.562 -1388.57 -486.399C-1389.24 -487.545 -1389.31 -488.956 -1388.76 -490.631C-1389.71 -490.939 -1390.46 -490.256 -1391 -488.58C-1391.95 -488.888 -1392.42 -489.042 -1392.42 -489.042C-1393.1 -490.188 -1394.38 -491.069 -1396.28 -491.685C-1395.6 -490.539 -1394.79 -489.812 -1393.85 -489.504C-1392.9 -489.196 -1392.7 -488.204 -1393.24 -486.529ZM-1471.93 -462.081C-1469.49 -463.14 -1467.86 -464.927 -1467.04 -467.44C-1469.61 -469.202 -1470.7 -469.091 -1470.29 -467.107C-1470.84 -465.432 -1471.38 -463.756 -1471.93 -462.081ZM-1446.91 -476.181C-1445.69 -476.71 -1444.13 -476.667 -1442.23 -476.051C-1441.29 -475.743 -1441.01 -476.581 -1441.42 -478.564C-1445.21 -479.797 -1447.04 -479.002 -1446.91 -476.181ZM70.5987 103.024C68.1583 104.084 65.9245 102.895 63.8972 99.4576C64.8452 99.7657 66.2671 100.228 68.1631 100.844C70.3312 100.622 71.1431 101.349 70.5987 103.024ZM-1041.02 -360.97C-1042.91 -361.586 -1044.95 -361.783 -1047.11 -361.562C-1049.01 -362.178 -1049.68 -363.323 -1049.14 -364.999C-1047.52 -363.545 -1045.62 -362.929 -1043.45 -363.151C-1041.28 -363.373 -1040.47 -362.646 -1041.02 -360.97ZM-678.713 -319.662C-680.609 -320.278 -682.167 -320.322 -683.387 -319.792C-685.283 -320.408 -685.349 -321.818 -683.584 -324.024C-681.688 -323.408 -680.064 -321.954 -678.713 -319.662ZM-47.5637 21.5626C-50.6798 21.4763 -52.7775 19.8685 -53.8569 16.7392C-51.013 17.6632 -48.9152 19.271 -47.5637 21.5626ZM-354.592 -155.998C-354.048 -157.674 -354.86 -158.401 -357.028 -158.179C-358.924 -158.795 -359.6 -159.941 -359.055 -161.616C-356.887 -161.838 -355.127 -160.803 -353.776 -158.512C-352.152 -157.058 -352.424 -156.22 -354.592 -155.998ZM-1452.4 -473.797C-1451.18 -474.327 -1449.96 -474.856 -1448.74 -475.386C-1447.25 -476.754 -1447.45 -477.745 -1449.34 -478.361C-1449.89 -476.686 -1450.77 -475.583 -1451.99 -475.053C-1452.26 -474.216 -1452.4 -473.797 -1452.4 -473.797ZM-257.928 -105.14C-259.279 -107.431 -258.533 -108.115 -255.689 -107.191C-252.573 -107.105 -251.761 -106.378 -253.254 -105.01L-257.928 -105.14ZM-1369.45 -496.859C-1367.01 -497.918 -1366.87 -498.337 -1369.04 -498.115C-1371.21 -497.894 -1373.24 -498.091 -1375.13 -498.707C-1374.73 -496.723 -1372.83 -496.107 -1369.45 -496.859ZM266.211 33.2093C266.887 34.355 267.361 34.509 267.633 33.6713C271.838 30.4065 272.11 29.5688 268.45 31.158C265.062 31.9095 264.315 32.5932 266.211 33.2093ZM291.427 23.3412C293.323 23.9573 294.407 23.8464 294.679 23.0086C294.003 21.8629 294.613 21.598 296.509 22.214C295.833 21.0683 295.496 20.4954 295.496 20.4954C294.548 20.1874 294.411 20.6062 295.087 21.752C292.788 19.1524 291.976 18.4256 292.652 19.5713C292.379 20.4091 291.971 21.6657 291.427 23.3412ZM-1490.44 -448.646C-1491.39 -448.954 -1491.52 -448.535 -1490.85 -447.389C-1491.12 -446.551 -1492.21 -446.441 -1494.1 -447.057C-1493.7 -445.073 -1492.41 -444.192 -1490.24 -444.414C-1489.02 -444.944 -1489.09 -446.354 -1490.44 -448.646ZM-1333.28 -492.053C-1330.16 -491.967 -1330.03 -492.386 -1332.87 -493.31C-1335.44 -495.072 -1336.53 -494.961 -1336.12 -492.978C-1336.39 -492.14 -1337 -491.875 -1337.95 -492.183C-1337 -491.875 -1336.06 -491.567 -1335.11 -491.259C-1334.84 -492.097 -1334.23 -492.361 -1333.28 -492.053ZM-1419.05 -489.357C-1416.61 -490.416 -1416.47 -490.835 -1418.64 -490.613C-1420.81 -490.391 -1422.84 -490.589 -1424.73 -491.205C-1424.33 -489.221 -1423.52 -488.494 -1422.3 -489.024C-1422.03 -489.862 -1420.94 -489.973 -1419.05 -489.357ZM278.615 28.9036C280.511 29.5196 281.867 28.571 282.684 26.0577C280.788 25.4417 279.431 26.3903 278.615 28.9036ZM-1488.4 -454.929C-1490.29 -455.545 -1490.91 -455.28 -1490.23 -454.134C-1490.5 -453.297 -1490.3 -452.305 -1489.62 -451.159C-1488.68 -450.851 -1487.73 -450.543 -1486.78 -450.235C-1486.78 -450.235 -1487.46 -451.381 -1488.81 -453.672L-1488.4 -454.929ZM-1497.37 -437.004C-1499.94 -438.765 -1501.5 -438.808 -1502.04 -437.133C-1499.2 -436.209 -1497.64 -436.166 -1497.37 -437.004ZM-942.902 -329.091C-943.306 -331.074 -942.696 -331.339 -941.072 -329.885C-939.579 -331.253 -939.106 -331.099 -939.65 -329.423C-940.194 -327.748 -941.278 -327.637 -942.902 -329.091ZM-585.695 -276.935C-589.486 -278.167 -591.246 -279.202 -590.974 -280.04C-588.13 -279.116 -586.37 -278.081 -585.695 -276.935ZM-1350.34 -497.598C-1347.9 -498.657 -1347.76 -499.076 -1349.93 -498.854C-1352.1 -498.633 -1354.13 -498.83 -1356.03 -499.446C-1355.63 -497.462 -1354.81 -496.735 -1353.59 -497.265C-1353.32 -498.103 -1352.24 -498.214 -1350.34 -497.598ZM-1031.06 -357.736C-1033.91 -358.66 -1035.67 -359.695 -1036.34 -360.841C-1033.5 -359.917 -1031.74 -358.882 -1031.06 -357.736ZM-732.128 -343.964C-734.971 -344.888 -736.257 -345.769 -735.985 -346.607C-733.141 -345.683 -731.855 -344.802 -732.128 -343.964ZM137.853 113.762C135.009 112.838 133.723 111.957 133.996 111.12C136.84 112.044 138.125 112.924 137.853 113.762ZM-1215.13 -400.871C-1216.08 -401.179 -1216.69 -400.914 -1216.96 -400.077C-1217.23 -399.239 -1217.57 -399.812 -1217.97 -401.795C-1217.7 -402.633 -1217.09 -402.898 -1216.14 -402.59C-1215.2 -402.282 -1214.86 -401.709 -1215.13 -400.871ZM-1479.85 -461.877C-1480.13 -461.04 -1478.84 -460.159 -1476 -459.235C-1475.72 -460.073 -1477.01 -460.953 -1479.85 -461.877ZM236.744 31.9707C236.472 32.8085 237.758 33.6894 240.602 34.6134C240.874 33.7757 239.588 32.8948 236.744 31.9707ZM286.344 24.4685C287.02 25.6142 287.494 25.7683 287.766 24.9305C288.038 24.0927 288.649 23.8279 289.596 24.1359C289.869 23.2981 289.531 22.7252 288.583 22.4172C287.635 22.1092 286.889 22.7929 286.344 24.4685ZM-1197.66 -396.583C-1198.33 -397.729 -1199.28 -398.037 -1200.5 -397.508C-1201.45 -397.816 -1202.26 -398.542 -1202.94 -399.688C-1203.21 -398.85 -1201.45 -397.816 -1197.66 -396.583ZM-1312.54 -497.819C-1312.81 -496.981 -1311.53 -496.1 -1308.68 -495.176C-1308.41 -496.014 -1309.7 -496.895 -1312.54 -497.819ZM-95.9957 64.177C-98.8396 63.2529 -100.125 62.372 -99.8532 61.5343C-97.0093 62.4583 -95.7235 63.3392 -95.9957 64.177ZM-141.961 -50.7883C-144.805 -51.7123 -146.091 -52.5932 -145.819 -53.431C-142.975 -52.5069 -141.689 -51.626 -141.961 -50.7883ZM-765.438 -357.566C-768.282 -358.49 -769.568 -359.371 -769.295 -360.209C-766.451 -359.285 -765.166 -358.404 -765.438 -357.566ZM-149.071 -53.0984C-151.915 -54.0224 -153.201 -54.9033 -152.929 -55.7411C-150.085 -54.817 -148.799 -53.9361 -149.071 -53.0984ZM-1497.37 -437.004C-1496.42 -436.696 -1495.67 -437.379 -1495.13 -439.055C-1496.08 -439.363 -1496.82 -438.679 -1497.37 -437.004ZM-179.129 -67.0328C-180.481 -69.3243 -181.292 -70.0512 -181.565 -69.2134C-179.669 -68.5974 -178.857 -67.8705 -179.129 -67.0328ZM-227.461 -92.462C-227.189 -93.2998 -227.663 -93.4538 -228.883 -92.924C-229.831 -93.2321 -230.643 -93.959 -231.319 -95.1047C-231.591 -94.267 -230.305 -93.3861 -227.461 -92.462ZM162.238 116.128C160.886 113.836 160.074 113.11 159.802 113.947C161.698 114.563 162.51 115.29 162.238 116.128ZM-1251.71 -404.42C-1254.55 -405.344 -1255.84 -406.225 -1255.56 -407.063C-1253.67 -406.446 -1252.38 -405.566 -1251.71 -404.42ZM-695.368 -326.463C-696.044 -327.609 -696.992 -327.917 -698.212 -327.387C-699.16 -327.695 -699.498 -328.268 -699.226 -329.106C-696.382 -328.182 -695.096 -327.301 -695.368 -326.463ZM-168.304 35.1253C-170.2 34.5093 -171.486 33.6284 -172.162 32.4826C-169.318 33.4066 -168.032 34.2875 -168.304 35.1253ZM-777.827 -362.981C-778.099 -362.143 -778.911 -362.87 -780.263 -365.162C-780.535 -364.324 -779.723 -363.597 -777.827 -362.981ZM-82.4503 -25.8948C-82.7225 -25.057 -83.5344 -25.7839 -84.8859 -28.0755C-85.1581 -27.2377 -84.3462 -26.5108 -82.4503 -25.8948ZM-216.902 -86.2526C-216.63 -87.0903 -217.104 -87.2443 -218.324 -86.7146C-219.272 -87.0226 -220.084 -87.7495 -220.76 -88.8953C-221.032 -88.0575 -219.746 -87.1766 -216.902 -86.2526ZM-1055.36 -418.425C-1056.04 -419.571 -1056.99 -419.879 -1058.21 -419.349C-1059.15 -419.657 -1059.49 -420.23 -1059.22 -421.068C-1056.38 -420.144 -1055.09 -419.263 -1055.36 -418.425ZM-1400.95 -491.814C-1399.6 -489.523 -1398.79 -488.796 -1398.52 -489.633C-1400.42 -490.25 -1401.23 -490.976 -1400.95 -491.814ZM-606.207 -286.379C-606.883 -287.524 -607.357 -287.679 -607.629 -286.841C-608.577 -287.149 -609.389 -287.876 -610.065 -289.021C-607.221 -288.097 -605.935 -287.216 -606.207 -286.379ZM-783.923 -363.572C-784.599 -364.718 -785.547 -365.026 -786.767 -364.496C-787.715 -364.805 -788.053 -365.377 -787.781 -366.215C-784.937 -365.291 -783.651 -364.41 -783.923 -363.572ZM-157.194 -57.1271C-159.09 -57.7432 -159.902 -58.4701 -159.63 -59.3078C-157.734 -58.6918 -156.922 -57.9649 -157.194 -57.1271ZM-570.87 -269.34C-572.766 -269.956 -573.577 -270.683 -573.305 -271.52C-571.409 -270.904 -570.597 -270.177 -570.87 -269.34ZM-1334.08 -499.261C-1334.35 -498.423 -1333.54 -497.696 -1331.64 -497.08C-1331.37 -497.918 -1332.18 -498.645 -1334.08 -499.261ZM-694.088 -228.796C-695.984 -229.412 -696.796 -230.139 -696.524 -230.977C-694.628 -230.361 -693.816 -229.634 -694.088 -228.796ZM-1383.47 -497.247C-1383.74 -496.409 -1382.93 -495.682 -1381.03 -495.066C-1380.76 -495.904 -1381.57 -496.631 -1383.47 -497.247ZM-864.089 -300.704C-865.985 -301.32 -866.797 -302.047 -866.525 -302.885C-864.629 -302.269 -863.817 -301.542 -864.089 -300.704ZM-540.812 -255.405C-540.539 -256.243 -541.013 -256.397 -542.234 -255.867C-543.181 -256.175 -543.519 -256.748 -543.247 -257.586C-543.519 -256.748 -542.707 -256.021 -540.812 -255.405ZM-464.251 -215.247C-466.147 -215.863 -466.959 -216.59 -466.687 -217.428C-464.791 -216.812 -463.979 -216.085 -464.251 -215.247ZM-527.409 -248.272C-529.305 -248.888 -530.116 -249.615 -529.844 -250.452C-527.948 -249.836 -527.136 -249.109 -527.409 -248.272ZM-827.527 -287.435C-829.423 -288.051 -830.234 -288.778 -829.962 -289.616C-828.066 -289 -827.254 -288.273 -827.527 -287.435ZM-86.0419 67.4112C-87.9379 66.7951 -88.7497 66.0682 -88.4775 65.2305C-86.5816 65.8465 -85.7697 66.5734 -86.0419 67.4112ZM-138.104 -48.1456C-140 -48.7616 -140.811 -49.4885 -140.539 -50.3262C-138.643 -49.7102 -137.831 -48.9833 -138.104 -48.1456ZM-401.094 -182.222C-402.99 -182.838 -403.802 -183.565 -403.53 -184.403C-401.634 -183.787 -400.822 -183.06 -401.094 -182.222ZM-1063.89 -421.197C-1065.79 -421.813 -1066.6 -422.54 -1066.33 -423.378C-1064.43 -422.762 -1063.62 -422.035 -1063.89 -421.197ZM-568.026 -268.416C-568.026 -268.416 -568.364 -268.988 -569.039 -270.134C-567.143 -269.518 -566.332 -268.791 -566.604 -267.954L-568.026 -268.416ZM-456.128 -211.218C-458.024 -211.834 -458.836 -212.561 -458.564 -213.399L-457.142 -212.937C-456.194 -212.629 -455.856 -212.056 -456.128 -211.218ZM217.231 33.9663C216.959 34.8041 217.297 35.3769 218.245 35.685L219.667 36.147C219.939 35.3092 219.127 34.5823 217.231 33.9663ZM-440.643 -99.2102C-440.643 -99.2102 -440.981 -99.783 -441.657 -100.929C-439.761 -100.313 -438.949 -99.5859 -439.221 -98.7481L-440.643 -99.2102ZM-1345.26 -498.725C-1345.53 -497.887 -1345.19 -497.314 -1344.25 -497.006L-1342.82 -496.544C-1342.55 -497.382 -1343.36 -498.109 -1345.26 -498.725ZM-811.546 -375.326C-811.546 -375.326 -811.884 -375.899 -812.559 -377.045C-810.663 -376.429 -809.852 -375.702 -810.124 -374.864L-811.546 -375.326ZM-193.954 -74.6283C-195.85 -75.2443 -196.662 -75.9712 -196.39 -76.8089L-194.968 -76.3469C-194.02 -76.0389 -193.682 -75.466 -193.954 -74.6283ZM-1102.29 -433.672C-1103.24 -433.98 -1103.71 -434.134 -1103.71 -434.134C-1104.38 -435.28 -1103.77 -435.544 -1101.88 -434.928L-1102.29 -433.672ZM-754.471 -352.613C-754.471 -352.613 -754.808 -353.186 -755.484 -354.332C-753.588 -353.716 -752.776 -352.989 -753.049 -352.151L-754.471 -352.613ZM-786.093 -269.804C-787.989 -270.421 -788.801 -271.147 -788.529 -271.985L-787.107 -271.523C-786.159 -271.215 -785.821 -270.642 -786.093 -269.804ZM-45.4106 77.8345C-45.6828 78.6722 -46.4946 77.9453 -47.8462 75.6538C-48.1184 76.4915 -47.3065 77.2184 -45.4106 77.8345ZM-702.069 -330.03C-703.421 -332.322 -704.233 -333.048 -704.505 -332.211C-702.609 -331.595 -701.797 -330.868 -702.069 -330.03ZM-167.753 -63.3366C-168.026 -62.4988 -168.837 -63.2257 -170.189 -65.5173C-170.461 -64.6795 -169.649 -63.9526 -167.753 -63.3366ZM-1150.11 -388.082C-1150.39 -387.244 -1151.2 -387.971 -1152.55 -390.263C-1152.82 -389.425 -1152.01 -388.698 -1150.11 -388.082ZM-1051.38 -362.948C-1052.73 -365.239 -1053.54 -365.966 -1053.81 -365.128C-1051.92 -364.512 -1051.11 -363.786 -1051.38 -362.948ZM-1426.17 -481.946C-1426.17 -481.946 -1425.22 -481.638 -1423.33 -481.022L-1426.17 -481.946ZM-1162.91 -392.24C-1161.96 -391.932 -1161.15 -391.205 -1160.48 -390.06C-1162.37 -390.676 -1163.18 -391.402 -1162.91 -392.24Z" fill="#202020"/>
</g>
<defs>
<clipPath id="clip0_580_3">
<rect width="364" height="138" fill="white"/>
</clipPath>
</defs>
</svg>
