<svg width="222" height="15" viewBox="0 0 222 15" fill="none" xmlns="http://www.w3.org/2000/svg">
<path d="M219.117 7.09091C218.791 7.19481 218.791 7.32468 219.117 7.48052H218.791C218.357 7.53247 218.249 7.50649 218.466 7.4026C218.683 7.24675 218.683 7.16883 218.466 7.16883C218.249 7.32468 218.249 7.45455 218.466 7.55844C218.791 7.66234 219.117 7.79221 219.442 7.94805C219.768 8.05195 220.039 8.20779 220.256 8.41558C220.473 8.57143 220.418 8.75325 220.093 8.96104C219.767 8.90909 219.713 8.96104 219.93 9.11688C220.147 9.22078 220.418 9.35065 220.744 9.50649C221.069 9.66234 221.34 9.81818 221.557 9.97403C221.883 10.0779 221.883 10.1299 221.557 10.1299C222.316 10.8052 222.099 11.039 220.906 10.8312C220.689 10.8312 220.527 10.8312 220.418 10.8312C220.418 10.7792 220.31 10.7273 220.093 10.6753C219.984 10.7792 219.659 10.8052 219.117 10.7532C218.574 10.6494 217.924 10.5455 217.164 10.4416C216.514 10.3377 215.863 10.2338 215.212 10.1299C214.67 10.026 214.344 10 214.236 10.0519C204.04 8.7013 193.574 7.63636 182.836 6.85714C172.207 6.07792 161.306 5.4026 150.134 4.83117C145.254 4.57143 140.156 4.38961 134.841 4.28571C129.635 4.18182 124.266 4.18182 118.734 4.28571L118.572 4.20779C118.789 4.20779 119.114 4.15584 119.548 4.05195C118.789 4.05195 118.3 4.1039 118.084 4.20779C117.867 4.20779 117.65 4.23377 117.433 4.28571C117.216 4.28571 117.053 4.28571 116.945 4.28571C117.053 4.28571 117.107 4.20779 117.107 4.05195C116.782 4.05195 116.511 4.1039 116.294 4.20779H116.457C116.023 4.31169 115.806 4.31169 115.806 4.20779C115.806 4.1039 115.535 4.1039 114.992 4.20779H115.318C115.101 4.25974 114.884 4.28571 114.667 4.28571L114.83 4.20779C114.613 4.20779 114.559 4.23377 114.667 4.28571C114.233 4.38961 114.07 4.33766 114.179 4.12987C114.07 4.12987 113.908 4.15584 113.691 4.20779C113.582 4.25974 113.365 4.23377 113.04 4.12987C113.04 4.02597 112.606 4.02597 111.738 4.12987C110.979 4.18182 110.654 4.15584 110.762 4.05195C103.929 4.1039 97.3672 4.25974 91.0763 4.51948C84.7855 4.77922 78.6031 5.14286 72.5292 5.61039C66.5637 6.02597 60.6525 6.54545 54.7955 7.16883C48.9385 7.74026 43.0815 8.36364 37.2245 9.03896C32.3437 9.76623 27.4086 10.5455 22.4193 11.3766C17.43 12.1558 12.8746 13.039 8.75298 14.026C8.75298 14.1299 8.53606 14.2338 8.10221 14.3377C7.66836 14.3896 7.50566 14.5195 7.61412 14.7273C7.3972 14.7273 6.90912 14.8052 6.14988 14.961C5.39064 15.0649 4.68563 14.961 4.03485 14.6494C4.14331 14.5455 4.19754 14.4675 4.19754 14.4156C4.30601 14.3117 4.52293 14.2857 4.84832 14.3377C4.6314 14.2338 4.68563 14.0779 5.01102 13.8701C4.68563 13.8701 4.52293 13.974 4.52293 14.1818C4.52293 14.3377 4.30601 14.3636 3.87216 14.2597C3.65523 14.1039 3.601 13.974 3.70946 13.8701C3.92639 13.7662 3.81792 13.7662 3.38407 13.8701C3.49253 13.7662 3.65523 13.6364 3.87216 13.4805C4.19754 13.2727 4.36024 13.2727 4.36024 13.4805C4.57716 13.2208 4.63139 12.961 4.52293 12.7013C4.41447 12.4416 4.52293 12.1818 4.84832 11.9221C4.84832 11.7143 4.36024 11.6104 3.38407 11.6104C3.38407 11.1948 3.76369 10.8312 4.52293 10.5195C4.19754 10.1039 3.81792 9.81818 3.38407 9.66234C2.95022 9.45455 2.62483 9.19481 2.40791 8.88312C2.19098 8.77922 2.24521 8.7013 2.5706 8.64935C3.00445 8.5974 3.11291 8.49351 2.89599 8.33766C3.22138 8.49351 3.601 8.46753 4.03485 8.25974C4.57716 8.05195 5.11948 8.02597 5.66179 8.18182C6.09564 7.97403 6.69219 7.84416 7.45143 7.79221C8.31913 7.68831 9.18684 7.58442 10.0545 7.48052C8.86145 7.32468 8.04798 7.16883 7.61412 7.01299C7.18027 6.85714 6.85488 6.75325 6.63796 6.7013C6.52949 6.8052 6.42103 6.83117 6.31257 6.77922C6.20411 6.67533 6.20411 6.5974 6.31257 6.54546C5.22794 6.38961 4.25177 6.15584 3.38407 5.84416C2.62483 5.48052 1.86559 5.24675 1.10635 5.14286C0.889426 4.98701 0.618269 4.85714 0.29288 4.75325C-0.0325084 4.5974 -0.0867397 4.41558 0.130186 4.20779C0.347112 4.31169 0.455575 4.46753 0.455575 4.67532C0.6725 4.57143 0.889426 4.49351 1.10635 4.44156C1.32328 4.38961 1.37751 4.25974 1.26905 4.05195C1.48597 4.1039 1.64867 4.15584 1.75713 4.20779C1.97405 4.25974 2.19098 4.31169 2.40791 4.36364C5.87872 4.1039 9.18684 3.84416 12.3323 3.58442C15.4777 3.27273 19.1112 3.06494 23.2328 2.96104C23.7751 2.80519 24.5343 2.72727 25.5105 2.72727C26.5951 2.72727 27.6255 2.7013 28.6017 2.64935C29.7948 2.54545 30.9336 2.44156 32.0183 2.33766C33.2114 2.23377 34.2418 2.15584 35.1095 2.1039C35.3264 2.1039 35.5975 2.1039 35.9229 2.1039C36.3568 2.05195 36.4652 2.07792 36.2483 2.18182C38.2007 1.92208 40.6411 1.76623 43.5696 1.71429C46.4981 1.61039 49.1012 1.45455 51.3789 1.24675C51.4874 1.24675 51.4874 1.27273 51.3789 1.32468C52.0297 1.32468 53.0601 1.27273 54.4701 1.16883C55.8801 1.01299 56.8563 1.01299 57.3986 1.16883C61.8456 0.753247 66.5095 0.51948 71.3903 0.467532C76.2711 0.415584 80.7723 0.285714 84.8939 0.0779222C89.0155 0.0259741 93.5167 0 98.3975 0C103.387 0 108.43 0.0259741 113.528 0.0779222C115.806 0.0779222 117.975 0.12987 120.036 0.233767C122.205 0.285714 124.374 0.25974 126.544 0.155844C128.062 0.103896 129.635 0.103896 131.262 0.155844C132.997 0.155844 134.733 0.103896 136.468 0C136.793 0.0519482 137.119 0.0779222 137.444 0.0779222C137.878 0.0259741 138.203 0.0519482 138.42 0.155844C142.867 0.0519482 147.477 0.0519482 152.249 0.155844C157.13 0.207793 161.957 0.363637 166.729 0.623377C167.488 0.51948 168.356 0.467532 169.332 0.467532C170.308 0.467532 171.068 0.545454 171.61 0.701299C173.237 0.753247 175.027 0.779221 176.979 0.779221C178.931 0.779221 180.884 0.831169 182.836 0.935064C184.029 1.03896 185.439 1.11688 187.066 1.16883C188.693 1.22078 190.103 1.35065 191.296 1.55844C191.838 1.45455 192.598 1.45455 193.574 1.55844C194.658 1.66234 195.743 1.71429 196.828 1.71429C197.045 1.71429 197.099 1.74026 196.99 1.79221C196.99 1.79221 196.99 1.81818 196.99 1.87013C199.16 1.87013 201.329 2.07792 203.498 2.49351C205.776 2.85714 207.782 3.22078 209.518 3.58442C209.952 3.68831 210.277 3.74026 210.494 3.74026C210.711 3.68831 210.874 3.68831 210.982 3.74026C211.09 3.84416 211.362 3.92208 211.795 3.97403C212.229 4.02597 212.555 4.15584 212.772 4.36364C212.989 4.20779 213.151 4.18182 213.26 4.28571C213.477 4.38961 213.802 4.44156 214.236 4.44156C214.127 4.54545 213.965 4.57143 213.748 4.51948C213.639 4.41558 213.477 4.36364 213.26 4.36364C213.368 4.57143 213.585 4.64935 213.91 4.5974C214.344 4.54545 214.67 4.51948 214.887 4.51948C214.887 4.62338 214.778 4.67532 214.561 4.67532C214.344 4.62338 214.236 4.62338 214.236 4.67532C214.344 4.77922 214.561 4.83117 214.887 4.83117C215.212 4.77922 215.537 4.75325 215.863 4.75325C215.537 4.8052 215.483 4.85714 215.7 4.90909C216.026 4.96104 215.971 4.98701 215.537 4.98701C215.754 5.03896 216.134 5.14286 216.676 5.2987C217.327 5.45455 217.924 5.63636 218.466 5.84416C219.117 6 219.605 6.20779 219.93 6.46753C220.256 6.72727 220.256 6.98701 219.93 7.24675C219.93 7.2987 219.659 7.37662 219.117 7.48052L219.279 7.4026C219.279 7.4026 219.225 7.35065 219.117 7.24675V7.09091ZM211.47 5.92208C211.687 5.81818 212.012 5.81818 212.446 5.92208C212.88 5.97403 213.26 5.94805 213.585 5.84416C210.657 5.48052 207.728 5.16883 204.8 4.90909C201.871 4.5974 199.376 4.38961 197.316 4.28571C196.556 4.23377 195.851 4.20779 195.201 4.20779C194.55 4.15584 193.791 4.07792 192.923 3.97403C190.211 3.76623 187.283 3.58442 184.137 3.42857C180.992 3.22078 177.847 3.06494 174.701 2.96104C174.593 2.85714 174.43 2.85714 174.213 2.96104C174.105 2.96104 174.159 2.98701 174.376 3.03896C177.63 3.35065 180.884 3.58442 184.137 3.74026C187.5 3.8961 190.754 4.07792 193.899 4.28571C197.153 4.44156 200.244 4.64935 203.173 4.90909C206.21 5.16883 208.975 5.50649 211.47 5.92208ZM217.978 5.53247C217.869 5.58442 217.761 5.58442 217.652 5.53247C217.544 5.42857 217.544 5.35065 217.652 5.2987C217.002 5.2987 216.676 5.24675 216.676 5.14286C216.785 5.19481 217.11 5.22078 217.652 5.22078C217.652 5.16883 217.436 5.14286 217.002 5.14286C217.436 5.03896 217.924 5.06494 218.466 5.22078C219.008 5.32468 219.279 5.50649 219.279 5.76623C219.171 5.76623 219.062 5.76623 218.954 5.76623C218.954 5.71429 218.846 5.68831 218.629 5.68831C218.846 5.58442 218.954 5.50649 218.954 5.45455C218.737 5.45455 218.574 5.50649 218.466 5.61039C218.466 5.66234 218.357 5.66234 218.141 5.61039C218.466 5.4026 218.303 5.2987 217.652 5.2987C217.869 5.4026 217.978 5.48052 217.978 5.53247ZM133.214 2.02597C133.973 2.02597 134.787 2.07792 135.655 2.18182C136.631 2.23377 137.444 2.20779 138.095 2.1039C137.553 2.05195 136.685 2.02597 135.492 2.02597C135.166 2.02597 134.733 2 134.19 1.94805C133.756 1.8961 133.431 1.92208 133.214 2.02597ZM130.611 3.97403C131.045 4.07792 131.479 4.1039 131.913 4.05195C132.346 4 132.889 4.02597 133.54 4.12987C133.54 3.92208 133.431 3.87013 133.214 3.97403C133.106 4.02597 132.943 4 132.726 3.8961C132.401 3.94805 131.913 3.97403 131.262 3.97403C130.719 3.97403 130.503 3.97403 130.611 3.97403ZM101.326 3.50649C101.543 3.50649 101.76 3.53247 101.977 3.58442C102.194 3.58442 102.302 3.53247 102.302 3.42857H101.001C100.784 3.42857 100.73 3.45455 100.838 3.50649C99.8618 3.45455 99.3737 3.45455 99.3737 3.50649C99.3737 3.55844 99.8618 3.58442 100.838 3.58442C100.946 3.58442 101.001 3.58442 101.001 3.58442C101.001 3.53247 101.109 3.50649 101.326 3.50649ZM96.1198 3.66234C96.5537 3.66234 97.0418 3.66234 97.5841 3.66234C98.2349 3.66234 98.5602 3.61039 98.5602 3.50649C97.3672 3.50649 96.5537 3.55844 96.1198 3.66234ZM81.8027 4.20779C82.562 4.25974 83.2127 4.20779 83.7551 4.05195C83.1043 4.05195 82.4535 4.1039 81.8027 4.20779ZM107.997 0.467532C107.671 0.467532 107.237 0.441558 106.695 0.38961C106.261 0.337662 105.936 0.363636 105.719 0.467532C106.153 0.415584 106.586 0.441558 107.02 0.545454C107.454 0.597403 107.78 0.571429 107.997 0.467532ZM62.2794 5.53247C62.4963 5.53247 62.6048 5.50649 62.6048 5.45455C62.2794 5.4026 61.7371 5.42857 60.9779 5.53247C60.2186 5.63636 60.0559 5.66234 60.4898 5.61039C60.9236 5.66234 61.249 5.66234 61.4659 5.61039C61.6829 5.55844 61.954 5.53247 62.2794 5.53247ZM169.332 4.90909C169.224 5.06494 169.387 5.16883 169.82 5.22078C170.363 5.22078 170.634 5.16883 170.634 5.06493C170.308 4.96104 170.092 4.93507 169.983 4.98701C169.875 5.03896 169.658 5.01299 169.332 4.90909ZM123.452 4.05195C123.669 4 123.995 4.02597 124.429 4.12987C124.971 4.18182 125.242 4.12987 125.242 3.97403C124.808 4.02597 124.483 4.02597 124.266 3.97403C124.157 3.92208 123.886 3.94805 123.452 4.05195ZM213.91 6.38961C214.236 6.33766 214.561 6.33766 214.887 6.38961C215.212 6.38961 215.483 6.33766 215.7 6.23377C215.266 6.12987 214.67 6.18182 213.91 6.38961ZM166.404 4.90909C166.621 4.90909 166.946 4.93507 167.38 4.98701C167.814 5.03896 168.085 5.01299 168.193 4.90909C167.976 4.90909 167.651 4.88312 167.217 4.83117C166.892 4.77922 166.621 4.8052 166.404 4.90909ZM50.7281 6.62338C50.8366 6.51948 51.0535 6.49351 51.3789 6.54546C51.7043 6.54546 51.9212 6.49351 52.0297 6.38961C51.7043 6.33766 51.3247 6.33766 50.8908 6.38961C50.5654 6.44156 50.5112 6.51948 50.7281 6.62338ZM84.4058 4.12987C84.6228 4.07792 85.0024 4.07792 85.5447 4.12987C86.087 4.12987 86.2497 4.07792 86.0328 3.97403C85.8159 3.97403 85.4362 3.97403 84.8939 3.97403C84.4601 3.97403 84.2974 4.02597 84.4058 4.12987ZM106.532 3.42857C106.749 3.37662 107.02 3.37662 107.346 3.42857C107.78 3.48052 108.051 3.45455 108.159 3.35065C107.942 3.4026 107.617 3.4026 107.183 3.35065C106.858 3.2987 106.641 3.32467 106.532 3.42857ZM89.4494 3.8961C89.6663 3.84416 90.0459 3.84416 90.5882 3.8961C91.239 3.8961 91.4559 3.84416 91.239 3.74026C90.9136 3.74026 90.4798 3.76623 89.9374 3.81818C89.5036 3.81818 89.3409 3.84416 89.4494 3.8961ZM70.5768 4.90909C71.4445 4.90909 71.9868 4.85714 72.2038 4.75325C71.4445 4.75325 70.9022 4.8052 70.5768 4.90909ZM77.5727 4.44156C77.8981 4.44156 78.2235 4.44156 78.5488 4.44156C78.8742 4.44156 79.1454 4.38961 79.3623 4.28571C78.82 4.28571 78.2235 4.33766 77.5727 4.44156ZM104.743 3.35065C104.743 3.45455 104.96 3.50649 105.393 3.50649C105.936 3.50649 106.261 3.48052 106.37 3.42857C106.153 3.32467 105.881 3.2987 105.556 3.35065C105.339 3.4026 105.068 3.4026 104.743 3.35065ZM75.9457 4.5974C76.488 4.64935 76.5423 4.62338 76.1084 4.51948C75.783 4.41558 75.5661 4.44156 75.4577 4.5974C74.8069 4.54545 74.6442 4.57143 74.9696 4.67532C75.295 4.72727 75.6203 4.7013 75.9457 4.5974ZM163.963 2.64935C164.18 2.5974 164.397 2.5974 164.614 2.64935C164.94 2.7013 165.156 2.67532 165.265 2.57143C165.048 2.62338 164.777 2.62338 164.451 2.57143C164.126 2.51948 163.963 2.54545 163.963 2.64935ZM62.9302 5.45455C63.6894 5.45455 64.1233 5.4026 64.2317 5.2987C63.581 5.2987 63.1471 5.35065 62.9302 5.45455ZM68.9499 4.98701C69.7091 5.09091 70.143 5.03896 70.2514 4.83117L68.9499 4.98701ZM164.777 4.90909C164.994 4.85714 165.211 4.85714 165.428 4.90909C165.645 4.96104 165.753 4.90909 165.753 4.75325C165.211 4.75325 164.885 4.8052 164.777 4.90909ZM125.405 4.05195C125.622 4 125.839 4 126.056 4.05195C126.381 4.1039 126.544 4.07792 126.544 3.97403C126.327 4.02597 126.11 4.02597 125.893 3.97403C125.676 3.92208 125.513 3.94805 125.405 4.05195ZM217.327 4.67532C217.11 4.77922 216.893 4.8052 216.676 4.75325C216.568 4.64935 216.405 4.5974 216.188 4.5974C216.297 4.49351 216.459 4.49351 216.676 4.5974C216.893 4.64935 217.11 4.67532 217.327 4.67532ZM55.9343 6.15585C56.0428 6.05195 56.2055 6.02597 56.4224 6.07792C56.7478 6.07792 57.019 6.02597 57.2359 5.92208C57.019 5.92208 56.6936 5.94805 56.2597 6C55.8259 6 55.7174 6.05195 55.9343 6.15585ZM110.762 0.38961C110.545 0.441558 110.274 0.441558 109.949 0.38961C109.732 0.337662 109.569 0.363636 109.461 0.467532C109.678 0.467532 109.895 0.493506 110.112 0.545454C110.437 0.545454 110.654 0.493506 110.762 0.38961ZM109.461 1.63636C109.678 1.58442 109.895 1.58442 110.112 1.63636C110.328 1.68831 110.437 1.66234 110.437 1.55844C110.22 1.61039 110.003 1.61039 109.786 1.55844C109.569 1.50649 109.461 1.53247 109.461 1.63636ZM91.7271 3.81818C91.944 3.76623 92.1609 3.76623 92.3779 3.81818C92.5948 3.87013 92.7575 3.84416 92.8659 3.74026C92.649 3.74026 92.3779 3.74026 92.0525 3.74026C91.8355 3.68831 91.7271 3.71429 91.7271 3.81818ZM148.019 4.20779C148.128 4.20779 148.29 4.23377 148.507 4.28571C148.833 4.33766 148.995 4.31169 148.995 4.20779C148.779 4.20779 148.562 4.18182 148.345 4.12987C148.128 4.07792 148.019 4.1039 148.019 4.20779ZM83.7551 0.701299C83.972 0.701299 84.1889 0.727273 84.4058 0.779221C84.6228 0.831169 84.7312 0.805195 84.7312 0.701299C84.5143 0.701299 84.2974 0.675325 84.0804 0.623377C83.8635 0.571429 83.7551 0.597403 83.7551 0.701299ZM176.328 5.45455C176.545 5.45455 176.762 5.48052 176.979 5.53247C177.196 5.58442 177.304 5.55844 177.304 5.45455C177.087 5.45455 176.87 5.42857 176.654 5.37662C176.437 5.32468 176.328 5.35065 176.328 5.45455ZM3.05868 5.45455C3.27561 5.35065 3.22138 5.27273 2.89599 5.22078C2.5706 5.16883 2.46214 5.19481 2.5706 5.2987C2.67906 5.35065 2.7333 5.4026 2.7333 5.45455H3.05868ZM4.36024 12.6234C4.36024 12.6753 4.30601 12.7013 4.19754 12.7013C4.19754 12.7013 4.19754 12.7532 4.19754 12.8571C4.08908 12.8052 3.98062 12.7792 3.87216 12.7792V12.5455C4.08908 12.5455 4.19754 12.5714 4.19754 12.6234C4.19754 12.6234 4.25177 12.6234 4.36024 12.6234ZM66.9975 5.14286C66.3468 5.03896 66.0214 5.09091 66.0214 5.2987L66.9975 5.14286ZM219.768 6C219.551 6 219.496 5.97403 219.605 5.92208C219.713 5.81818 219.659 5.74026 219.442 5.68831C219.551 5.58442 219.659 5.61039 219.768 5.76623C219.984 5.87013 219.984 5.94805 219.768 6ZM161.848 2.49351C162.065 2.44156 162.282 2.44156 162.499 2.49351C162.825 2.54546 162.987 2.51948 162.987 2.41558C162.77 2.46753 162.553 2.46753 162.336 2.41558C162.119 2.36364 161.957 2.38961 161.848 2.49351ZM80.6639 4.28571C80.8808 4.23377 81.0977 4.23377 81.3146 4.28571C81.5316 4.33766 81.64 4.31169 81.64 4.20779C81.4231 4.25974 81.2062 4.25974 80.9893 4.20779C80.7723 4.15584 80.6639 4.18182 80.6639 4.28571ZM85.5447 0.701299C85.7616 0.649351 85.9786 0.649351 86.1955 0.701299C86.4124 0.753247 86.5209 0.727273 86.5209 0.623377C86.3039 0.675325 86.087 0.675325 85.8701 0.623377C85.6532 0.571429 85.5447 0.597403 85.5447 0.701299ZM95.469 3.58442C94.9267 3.58442 94.6556 3.61039 94.6556 3.66234C94.764 3.66234 94.9267 3.66234 95.1437 3.66234C95.4691 3.66234 95.7402 3.66234 95.9571 3.66234C96.1741 3.66234 96.1198 3.66234 95.7944 3.66234C95.5775 3.66234 95.469 3.63636 95.469 3.58442ZM79.6877 4.44156C79.7962 4.33766 79.9046 4.31169 80.0131 4.36364C80.23 4.36364 80.3385 4.33766 80.3385 4.28571C80.1216 4.23377 79.9046 4.23377 79.6877 4.28571C79.4708 4.28571 79.4708 4.33766 79.6877 4.44156ZM58.0494 5.92208C58.1578 5.81818 58.2663 5.79221 58.3748 5.84416C58.5917 5.8961 58.7001 5.87013 58.7001 5.76623C58.4832 5.71429 58.2663 5.71429 58.0494 5.76623C57.8324 5.81818 57.8324 5.87013 58.0494 5.92208ZM137.281 3.97403C137.173 3.92208 137.065 3.8961 136.956 3.8961V4.12987H137.281V3.97403ZM220.256 6C220.039 5.8961 220.039 5.87013 220.256 5.92208C220.581 5.97403 220.635 6.05195 220.418 6.15585C220.31 6.25974 220.256 6.20779 220.256 6ZM137.77 4.05195C137.77 4.05195 137.878 4.05195 138.095 4.05195C137.986 3.94805 137.824 3.92208 137.607 3.97403C137.39 3.97403 137.39 4.02597 137.607 4.12987C137.607 4.07792 137.661 4.05195 137.77 4.05195ZM78.8742 2.02597C79.3081 2.02597 79.525 2 79.525 1.94805C79.0912 1.94805 78.8742 1.97403 78.8742 2.02597ZM101.001 0.38961C100.675 0.38961 100.458 0.415584 100.35 0.467532C100.784 0.467532 101.001 0.441558 101.001 0.38961ZM213.91 4.05195C213.91 4.1039 213.694 4.12987 213.26 4.12987C213.368 4.07792 213.585 4.05195 213.91 4.05195ZM73.668 4.67532C73.9934 4.67532 74.1561 4.64935 74.1561 4.5974C73.8307 4.5974 73.668 4.62338 73.668 4.67532ZM179.094 5.68831C179.202 5.63636 179.257 5.63636 179.257 5.68831C179.365 5.68831 179.419 5.63636 179.419 5.53247C179.311 5.58442 179.202 5.61039 179.094 5.61039C179.094 5.55844 179.094 5.58442 179.094 5.68831ZM88.7986 1.63636C88.4732 1.63636 88.3105 1.66234 88.3105 1.71429C88.6359 1.71429 88.7986 1.68831 88.7986 1.63636ZM111.25 0.545454C111.684 0.545454 111.901 0.51948 111.901 0.467532C111.576 0.467532 111.359 0.493506 111.25 0.545454ZM67.811 5.06493C68.1364 5.06493 68.3533 5.03896 68.4618 4.98701C68.1364 4.98701 67.9195 5.01299 67.811 5.06493ZM136.143 4.05195C136.143 4.1039 136.36 4.07792 136.793 3.97403C136.685 4.02597 136.468 4.05195 136.143 4.05195ZM167.868 2.72727C167.543 2.72727 167.38 2.75325 167.38 2.80519C167.705 2.80519 167.868 2.77922 167.868 2.72727ZM159.896 4.67532C160.221 4.67532 160.384 4.64935 160.384 4.5974C160.059 4.5974 159.896 4.62338 159.896 4.67532ZM172.912 2.88312C173.237 2.88312 173.4 2.85714 173.4 2.80519C173.074 2.80519 172.912 2.83117 172.912 2.88312ZM53.0058 3.58442C53.3312 3.58442 53.4939 3.55844 53.4939 3.50649C53.1685 3.50649 53.0058 3.53247 53.0058 3.58442ZM121.5 4.12987C121.826 4.12987 121.988 4.1039 121.988 4.05195C121.663 4.05195 121.5 4.07792 121.5 4.12987ZM122.802 4.05195C123.127 4.05195 123.29 4.02597 123.29 3.97403C122.964 3.97403 122.802 4 122.802 4.05195ZM31.3675 5.2987C31.476 5.24675 31.5302 5.24675 31.5302 5.2987C31.6387 5.2987 31.7471 5.27273 31.8556 5.22078C31.5302 5.22078 31.3675 5.24675 31.3675 5.2987ZM91.4017 0.623377C91.5102 0.571429 91.6186 0.571429 91.7271 0.623377C91.8355 0.623377 91.8898 0.597403 91.8898 0.545454C91.5644 0.545454 91.4017 0.571429 91.4017 0.623377ZM101.489 0.467532C101.272 0.467532 101.163 0.493506 101.163 0.545454C101.38 0.441558 101.489 0.415584 101.489 0.467532ZM102.465 3.50649C102.682 3.4026 102.79 3.37662 102.79 3.42857C102.573 3.42857 102.465 3.45455 102.465 3.50649ZM109.298 3.42857C109.407 3.37662 109.515 3.37662 109.623 3.42857C109.732 3.42857 109.786 3.4026 109.786 3.35065C109.461 3.35065 109.298 3.37662 109.298 3.42857ZM74.3188 2.25974C74.5357 2.15584 74.6442 2.12987 74.6442 2.18182C74.4273 2.18182 74.3188 2.20779 74.3188 2.25974ZM212.934 3.97403C212.934 3.92208 212.826 3.94805 212.609 4.05195C212.609 4 212.717 3.97403 212.934 3.97403ZM79.3623 0.779221C79.0369 0.779221 78.8742 0.805195 78.8742 0.857143C79.0912 0.857143 79.2539 0.831169 79.3623 0.779221ZM98.3975 0.467532C98.1806 0.467532 98.0722 0.493506 98.0722 0.545454C98.0722 0.493506 98.1264 0.493506 98.2349 0.545454C98.3433 0.545454 98.3975 0.51948 98.3975 0.467532ZM77.0846 0.857143C77.0846 0.909091 77.1931 0.883117 77.41 0.779221C77.41 0.831169 77.3015 0.857143 77.0846 0.857143ZM165.428 2.64935C165.428 2.7013 165.536 2.67532 165.753 2.57143C165.753 2.62338 165.645 2.64935 165.428 2.64935ZM38.6887 7.79221C38.9057 7.79221 39.0141 7.76623 39.0141 7.71429C38.7972 7.71429 38.6887 7.74026 38.6887 7.79221ZM64.5571 5.2987C64.7741 5.2987 64.8825 5.27273 64.8825 5.22078C64.6656 5.22078 64.5571 5.24675 64.5571 5.2987ZM163.15 4.75325C163.367 4.75325 163.475 4.72727 163.475 4.67532C163.258 4.67532 163.15 4.7013 163.15 4.75325ZM216.026 4.36364C216.026 4.41558 215.917 4.44156 215.7 4.44156C215.7 4.38961 215.809 4.36364 216.026 4.36364ZM163.638 4.75325C163.855 4.75325 163.963 4.72727 163.963 4.67532C163.746 4.67532 163.638 4.7013 163.638 4.75325ZM132.401 1.94805C132.184 1.94805 132.075 1.97403 132.075 2.02597C132.292 2.02597 132.401 2 132.401 1.94805ZM93.1913 3.74026C93.4083 3.74026 93.5167 3.71429 93.5167 3.66234C93.2998 3.66234 93.1913 3.68831 93.1913 3.74026ZM122.314 4.12987C122.531 4.12987 122.639 4.1039 122.639 4.05195C122.422 4.05195 122.314 4.07792 122.314 4.12987ZM5.3364 12.9351C5.55333 12.9351 5.66179 12.9091 5.66179 12.8571C5.44487 12.8571 5.3364 12.8831 5.3364 12.9351ZM34.7841 8.25974C35.001 8.25974 35.1095 8.23377 35.1095 8.18182C34.8925 8.18182 34.7841 8.20779 34.7841 8.25974ZM177.467 5.53247C177.684 5.53247 177.792 5.50649 177.792 5.45455C177.575 5.45455 177.467 5.48052 177.467 5.53247ZM143.789 4.20779C144.006 4.20779 144.115 4.18182 144.115 4.12987C143.898 4.12987 143.789 4.15584 143.789 4.20779ZM55.1209 6.07792C55.1209 6.02597 55.1751 6.02597 55.2836 6.07792C55.392 6.07792 55.4462 6.05195 55.4462 6C55.4462 6.05195 55.3378 6.07792 55.1209 6.07792ZM39.8276 7.63636C40.0445 7.63636 40.153 7.61039 40.153 7.55844C39.9361 7.55844 39.8276 7.58442 39.8276 7.63636ZM134.516 4.05195C134.733 4.05195 134.841 4.02597 134.841 3.97403C134.624 3.97403 134.516 4 134.516 4.05195ZM110.274 3.42857C110.274 3.42857 110.328 3.4026 110.437 3.35065C110.22 3.35065 110.112 3.37662 110.112 3.42857H110.274ZM215.537 4.28571C215.537 4.33766 215.483 4.36364 215.375 4.36364H215.212C215.212 4.31169 215.321 4.28571 215.537 4.28571ZM219.93 5.37662C219.93 5.42857 219.822 5.45455 219.605 5.45455C219.605 5.45455 219.659 5.42857 219.768 5.37662H219.93ZM39.6649 4.5974C39.6649 4.5974 39.7191 4.57143 39.8276 4.51948C39.6107 4.51948 39.5022 4.54545 39.5022 4.5974H39.6649ZM58.8628 5.76623C59.0798 5.76623 59.1882 5.74026 59.1882 5.68831H59.0255C58.9171 5.68831 58.8628 5.71429 58.8628 5.76623ZM168.844 4.98701C168.844 4.98701 168.898 4.96104 169.007 4.90909C168.79 4.90909 168.681 4.93507 168.681 4.98701H168.844ZM176.003 5.45455C176.003 5.45455 176.057 5.42857 176.165 5.37662C175.949 5.37662 175.84 5.4026 175.84 5.45455H176.003ZM116.457 4.20779C116.674 4.20779 116.836 4.23377 116.945 4.28571C116.836 4.28571 116.728 4.28571 116.619 4.28571C116.619 4.23377 116.565 4.20779 116.457 4.20779Z" fill="#404040"/>
</svg>
