<svg width="38" height="24" viewBox="0 0 38 24" fill="none" xmlns="http://www.w3.org/2000/svg">
<rect x="1" y="1" width="36" height="22" rx="2" stroke="white" stroke-width="2"/>
<g clip-path="url(#clip0_531_847)">
<path fill-rule="evenodd" clip-rule="evenodd" d="M2 2H40V3.53908H2V2ZM2 5.07812H40V6.61721H2V5.07812ZM2 8.15233H40V9.69529H2V8.15233ZM2 11.2305H40V12.7695H2V11.2305ZM2 14.3086H40V15.8477H2V14.3086ZM2 17.3828H40V18.9219H2V17.3828ZM2 20.4609H40V22H2V20.4609Z" fill="#BD3D44"/>
<path fill-rule="evenodd" clip-rule="evenodd" d="M2 3.53909H40V5.07813H2V3.53909ZM2 6.61718H40V8.15234H2V6.61718ZM2 9.69142H40V11.2305H2V9.69142ZM2 12.7695H40V14.3086H2V12.7695ZM2 15.8477H40V17.3867H2V15.8477ZM2 18.9219H40V20.461H2V18.9219Z" fill="white"/>
<path fill-rule="evenodd" clip-rule="evenodd" d="M2 2H17.1992V12.7695H2V2Z" fill="#192F5D"/>
<path fill-rule="evenodd" clip-rule="evenodd" d="M3.2656 2.46097L3.40623 2.88668H3.85156L3.49215 3.14843L3.6289 3.57809L3.2656 3.31247L2.90623 3.57418L3.04294 3.14843L2.67969 2.88668H3.13281L3.2656 2.46097ZM5.80077 2.46097L5.93748 2.88668H6.38669L6.0234 3.14843L6.16015 3.57809L5.80077 3.31247L5.43748 3.57418L5.57419 3.14843L5.21481 2.88668H5.66015L5.80077 2.46097ZM8.33202 2.46097L8.47264 2.88672H8.91406L8.55469 3.14847L8.69135 3.57813L8.3281 3.31251L7.96873 3.57422L8.10544 3.14847L7.74214 2.88672H8.19139L8.33202 2.46097ZM10.8672 2.46097L11.0039 2.88672H11.4531L11.0898 3.14847L11.2304 3.57813L10.8671 3.31251L10.5039 3.57422L10.6445 3.14847L10.2812 2.88672H10.7266L10.8672 2.46097ZM13.3984 2.46097L13.5391 2.88672H13.9844L13.625 3.14847L13.7617 3.57813L13.3984 3.31251L13.039 3.57422L13.1758 3.14847L12.8164 2.88672H13.2617L13.3984 2.46097ZM15.9336 2.46097L16.0703 2.88672H16.5195L16.1562 3.14847L16.2969 3.57813L15.9336 3.31251L15.5703 3.57422L15.7109 3.14847L15.3476 2.88672H15.7969L15.9336 2.46097ZM4.53515 3.53901L4.67185 3.96484H5.12106L4.75777 4.22651L4.8906 4.65234L4.53902 4.39059L4.17577 4.6523L4.30465 4.22655L3.9531 3.9648H4.39844L4.53515 3.53901ZM7.0664 3.53901L7.20702 3.96484H7.65231L7.28902 4.22651L7.42969 4.65234L7.06635 4.39059L6.7031 4.6523L6.84373 4.22655L6.48044 3.9648H6.92965L7.0664 3.53901ZM9.60156 3.53901L9.73823 3.96484H10.1875L9.82419 4.22651L9.96089 4.65234L9.60152 4.39059L9.23827 4.6523L9.37498 4.22659L9.0156 3.96484H9.46094L9.60156 3.53901ZM12.1328 3.53901L12.2734 3.96484H12.7187L12.3554 4.22651L12.4961 4.65234L12.1328 4.39059L11.7734 4.6523L11.9101 4.22655L11.5469 3.9648H12L12.1328 3.53901ZM14.6679 3.53901L14.8046 3.96484H15.2539L14.8906 4.22651L15.0273 4.65234L14.6679 4.39059L14.3046 4.6523L14.4414 4.22655L14.082 3.9648H14.5273L14.6679 3.53901ZM3.2656 4.61334L3.40623 5.04693H3.85156L3.49215 5.30863L3.6289 5.73443L3.2656 5.4688L2.90623 5.73443L3.04294 5.30472L2.67969 5.04305H3.13281L3.2656 4.61334ZM5.80077 4.61334L5.93748 5.04293H6.38669L6.0234 5.30464L6.16015 5.73047L5.80077 5.4648L5.43748 5.73043L5.57419 5.30076L5.21481 5.03905H5.66015L5.80077 4.61334ZM8.33202 4.61334L8.47264 5.04301H8.91406L8.55469 5.30472L8.69135 5.73055L8.3281 5.46488L7.96873 5.73051L8.10544 5.30084L7.74214 5.03914H8.19139L8.33202 4.61334ZM10.8672 4.61334L11.0039 5.04301H11.4531L11.0898 5.30472L11.2304 5.73055L10.8671 5.46488L10.5039 5.73051L10.6445 5.30084L10.2812 5.03914H10.7266L10.8672 4.61334ZM13.3984 4.61334L13.5391 5.04301H13.9844L13.625 5.30468L13.7617 5.73051L13.3984 5.46484L13.039 5.73047L13.1758 5.3008L12.8164 5.03909H13.2617L13.3984 4.61334ZM15.9336 4.61334L16.0703 5.04301H16.5195L16.1562 5.30472L16.2969 5.73055L15.9336 5.46488L15.5703 5.73051L15.7109 5.30084L15.3476 5.03914H15.7969L15.9336 4.61334ZM4.53515 5.69143L4.67185 6.11722H5.12106L4.75777 6.37889L4.89452 6.80859L4.53515 6.54297L4.17185 6.80468L4.30856 6.37893L3.94919 6.11722H4.39456L4.53515 5.69143ZM7.0664 5.69143L7.20702 6.11722H7.65231L7.28902 6.37889L7.42969 6.80859L7.06635 6.54297L6.7031 6.80468L6.84373 6.37893L6.48044 6.11722H6.92965L7.0664 5.69143ZM9.60156 5.69143L9.73823 6.11722H10.1875L9.82419 6.37889L9.96089 6.80859L9.60152 6.54297L9.23827 6.80468L9.37498 6.37893L9.0156 6.11722H9.46094L9.60156 5.69143ZM12.1328 5.69143L12.2734 6.11722H12.7187L12.3594 6.37889L12.4961 6.80859L12.1328 6.54297L11.7734 6.80468L11.9101 6.37893L11.5469 6.11722H12L12.1328 5.69143ZM14.6679 5.69143L14.8046 6.11722H15.2539L14.8906 6.37889L15.0273 6.80859L14.6679 6.54297L14.3046 6.80468L14.4414 6.37893L14.082 6.11722H14.5273L14.6679 5.69143ZM3.2656 6.76955L3.40623 7.19534H3.85156L3.49215 7.45701L3.6289 7.88672L3.2656 7.62109L2.90623 7.8828L3.04294 7.45705L2.67969 7.19534H3.13281L3.2656 6.76955ZM5.80077 6.76955L5.93748 7.19534H6.38669L6.0234 7.45701L6.16015 7.88284L5.80077 7.62109L5.43748 7.8828L5.57419 7.45705L5.21481 7.19534H5.66015L5.80077 6.76955ZM8.33202 6.76955L8.47264 7.19534H8.91406L8.55469 7.45701L8.69135 7.88672L8.3281 7.62109L7.96873 7.8828L8.10544 7.45705L7.74214 7.19534H8.19139L8.33202 6.76955ZM10.8672 6.76955L11.0039 7.19534H11.4531L11.0898 7.45701L11.2304 7.88672L10.8671 7.62109L10.5039 7.8828L10.6445 7.45705L10.2812 7.19534H10.7266L10.8672 6.76955ZM13.3984 6.76955L13.5391 7.19534H13.9844L13.625 7.45701L13.7617 7.88672L13.3984 7.62109L13.039 7.8828L13.1758 7.45705L12.8164 7.19534H13.2617L13.3984 6.76955ZM15.9336 6.76955L16.0703 7.19534H16.5195L16.1562 7.45701L16.2969 7.88672L15.9336 7.62109L15.5703 7.8828L15.7109 7.45705L15.3476 7.19534H15.7969L15.9336 6.76955ZM4.53515 7.84768L4.67185 8.27347H5.12106L4.75777 8.53514L4.89452 8.96097L4.53515 8.69534L4.17185 8.96097L4.30856 8.53126L3.94919 8.26955H4.39456L4.53515 7.84768ZM7.0664 7.84768L7.20702 8.27347H7.65231L7.28902 8.53514L7.42969 8.96097L7.06635 8.69534L6.7031 8.96097L6.84373 8.53126L6.48044 8.26955H6.92965L7.0664 7.84768ZM9.60156 7.84768L9.73823 8.27347H10.1875L9.82419 8.53514L9.96089 8.96097L9.60152 8.69534L9.23827 8.96097L9.37498 8.53126L9.0156 8.26955H9.46094L9.60156 7.84768ZM12.1328 7.84768L12.2734 8.27347H12.7187L12.3594 8.53514L12.4961 8.96097L12.1328 8.69534L11.7734 8.96097L11.9101 8.53126L11.5469 8.26955H12L12.1328 7.84768ZM14.6679 7.84768L14.8046 8.27347H15.2539L14.8906 8.53514L15.0273 8.96097L14.6679 8.69534L14.3046 8.96097L14.4414 8.53126L14.082 8.26955H14.5273L14.6679 7.84768ZM3.2656 8.92189L3.40623 9.35159H3.85156L3.49215 9.61326L3.6289 10.0352L3.2656 9.77347L2.90623 10.0351L3.04294 9.60939L2.67969 9.34768H3.13281L3.2656 8.92189ZM5.80077 8.92189L5.93748 9.35159H6.38669L6.0234 9.61326L6.16406 10.0352L5.80073 9.77347L5.43748 10.0351L5.5781 9.60939L5.21481 9.34768H5.66015L5.80077 8.92189ZM8.33202 8.92189L8.47264 9.35159H8.91406L8.55469 9.61326L8.69135 10.0352L8.3281 9.77347L7.96873 10.0351L8.10544 9.60939L7.74214 9.34768H8.19139L8.33202 8.92189ZM10.8672 8.92189L11.0039 9.35159H11.4531L11.0898 9.61326L11.2304 10.0352L10.8671 9.77347L10.5039 10.0351L10.6445 9.60939L10.2812 9.34768H10.7266L10.8672 8.92189ZM13.3984 8.92189L13.5391 9.35159H13.9844L13.625 9.61326L13.7617 10.0352L13.3984 9.77347L13.039 10.0351L13.1758 9.60939L12.8164 9.34768H13.2617L13.3984 8.92189ZM15.9336 8.92189L16.0703 9.35159H16.5195L16.1562 9.61326L16.2969 10.0352L15.9336 9.77347L15.5703 10.0351L15.7109 9.60939L15.3476 9.34768H15.7969L15.9336 8.92189ZM4.53515 10L4.67185 10.4258H5.12106L4.75777 10.6875L4.89452 11.1172L4.53515 10.8516L4.17185 11.1133L4.30856 10.6875L3.94919 10.4258H4.39456L4.53515 10ZM7.0664 10L7.20702 10.4258H7.65231L7.28902 10.6875L7.42969 11.1172L7.06635 10.8516L6.7031 11.1133L6.84373 10.6875L6.48044 10.4258H6.92965L7.0664 10ZM9.60156 10L9.73823 10.4258H10.1875L9.82419 10.6875L9.96089 11.1172L9.60152 10.8516L9.23827 11.1133L9.37498 10.6875L9.0156 10.4258H9.46094L9.60156 10ZM12.1328 10L12.2734 10.4258H12.7187L12.3594 10.6875L12.4961 11.1172L12.1328 10.8516L11.7734 11.1133L11.9101 10.6875L11.5469 10.4258H12L12.1328 10ZM14.6679 10L14.8046 10.4258H15.2539L14.8906 10.6875L15.0273 11.1172L14.6679 10.8516L14.3046 11.1133L14.4414 10.6875L14.082 10.4258H14.5273L14.6679 10ZM3.2656 11.0781L3.40623 11.5039H3.85156L3.49215 11.7656L3.6289 12.1914L3.2656 11.9297L2.90623 12.1914L3.04294 11.7617L2.67969 11.5H3.13281L3.2656 11.0781ZM5.80077 11.0781L5.93748 11.5039H6.38669L6.0234 11.7656L6.16406 12.1914L5.80073 11.9297L5.43748 12.1914L5.5781 11.7617L5.21481 11.5H5.66015L5.80077 11.0781ZM8.33202 11.0781L8.47264 11.5039H8.91406L8.56248 11.7656L8.69919 12.1914L8.33589 11.9297L7.97652 12.1914L8.11327 11.7617L7.74998 11.5H8.19919L8.33202 11.0781ZM10.8672 11.0781L11.0039 11.5039H11.4531L11.0898 11.7656L11.2304 12.1914L10.8671 11.9297L10.5039 12.1914L10.6445 11.7617L10.2812 11.5H10.7266L10.8672 11.0781ZM13.3984 11.0781L13.5391 11.5039H13.9844L13.625 11.7656L13.7617 12.1914L13.3984 11.9297L13.039 12.1914L13.1758 11.7617L12.8164 11.5H13.2617L13.3984 11.0781ZM15.9336 11.0781L16.0703 11.5039H16.5195L16.1562 11.7656L16.2969 12.1914L15.9336 11.9297L15.5703 12.1914L15.7109 11.7617L15.3476 11.5H15.7969L15.9336 11.0781Z" fill="white"/>
</g>
<defs>
<clipPath id="clip0_531_847">
<rect x="2" y="2" width="34" height="20" rx="1" fill="white"/>
</clipPath>
</defs>
</svg>
