<svg width="48" height="48" viewBox="0 0 48 48" fill="none" xmlns="http://www.w3.org/2000/svg">
<path d="M46.7764 21.8917L26.1079 1.22399C24.9184 0.0337362 22.9879 0.0337362 21.7965 1.22399L17.505 5.51624L22.9493 10.9605C24.2149 10.5334 25.6654 10.8199 26.6738 11.8282C27.6874 12.843 27.9716 14.3059 27.534 15.5756L32.781 20.823C34.0504 20.3854 35.5155 20.6681 36.5288 21.6836C37.9463 23.1 37.9463 25.3961 36.5288 26.8132C36.1919 27.1503 35.792 27.4176 35.3517 27.6C34.9115 27.7824 34.4397 27.8763 33.9632 27.8763C33.4867 27.8763 33.0149 27.7824 32.5747 27.6C32.1344 27.4176 31.7345 27.1503 31.3976 26.8132C30.8915 26.3068 30.5465 25.662 30.4061 24.96C30.2656 24.2579 30.336 23.53 30.6083 22.8679L25.7153 17.9749L25.7145 30.8527C26.0695 31.0276 26.3936 31.2591 26.6741 31.5382C28.0909 32.9546 28.0909 35.25 26.6741 36.6694C25.257 38.0857 22.9601 38.0857 21.5445 36.6694C20.1278 35.2504 20.1278 32.955 21.5445 31.5382C21.8839 31.1983 22.2877 30.9293 22.7321 30.747V17.7499C22.2873 17.5681 21.8835 17.2989 21.5445 16.9582C20.4713 15.8857 20.2129 14.3107 20.7634 12.9922L15.396 7.62486L1.22401 21.7961C0.652249 22.368 0.331055 23.1437 0.331055 23.9524C0.331055 24.7611 0.652249 25.5367 1.22401 26.1086L21.8929 46.7764C23.0831 47.9666 25.0129 47.9666 26.205 46.7764L46.7768 26.2046C47.3484 25.6325 47.6695 24.8568 47.6694 24.0481C47.6693 23.2394 47.3481 22.4637 46.7764 21.8917Z" fill="#B6B6B6"/>
</svg>
