<svg width="28" height="29" viewBox="0 0 28 29" fill="none" xmlns="http://www.w3.org/2000/svg">
<path d="M19.8333 2.83325H8.16668C4.94502 2.83325 2.33334 5.44492 2.33334 8.66659V20.3333C2.33334 23.5549 4.94502 26.1666 8.16668 26.1666H19.8333C23.055 26.1666 25.6667 23.5549 25.6667 20.3333V8.66659C25.6667 5.44492 23.055 2.83325 19.8333 2.83325Z" stroke="white" stroke-width="2" stroke-linecap="round" stroke-linejoin="round"/>
<path d="M18.6667 13.7651C18.8107 14.7361 18.6448 15.7277 18.1927 16.599C17.7407 17.4702 17.0254 18.1768 16.1486 18.6181C15.2718 19.0594 14.2782 19.213 13.3091 19.057C12.34 18.9011 11.4447 18.4435 10.7507 17.7495C10.0566 17.0554 9.59904 16.1601 9.44309 15.191C9.28715 14.2219 9.44076 13.2283 9.88206 12.3515C10.3234 11.4748 11.0299 10.7595 11.9012 10.3074C12.7724 9.85531 13.7641 9.68946 14.735 9.83344C15.7254 9.98031 16.6423 10.4418 17.3503 11.1498C18.0583 11.8578 18.5198 12.7747 18.6667 13.7651Z" stroke="white" stroke-width="2" stroke-linecap="round" stroke-linejoin="round"/>
<path d="M20.4167 8.08325H20.4283" stroke="white" stroke-width="2" stroke-linecap="round" stroke-linejoin="round"/>
</svg>
