<svg width="29" height="29" viewBox="0 0 29 29" fill="none" xmlns="http://www.w3.org/2000/svg">
<path d="M19.4058 9.83325C21.2623 9.83325 23.0428 10.5708 24.3556 11.8835C25.6683 13.1963 26.4058 14.9767 26.4058 16.8333V24.9999H21.7391V16.8333C21.7391 16.2144 21.4933 15.6209 21.0557 15.1833C20.6181 14.7458 20.0246 14.4999 19.4058 14.4999C18.787 14.4999 18.1935 14.7458 17.7559 15.1833C17.3183 15.6209 17.0725 16.2144 17.0725 16.8333V24.9999H12.4058V16.8333C12.4058 14.9767 13.1433 13.1963 14.4561 11.8835C15.7688 10.5708 17.5493 9.83325 19.4058 9.83325Z" stroke="white" stroke-width="2" stroke-linecap="round" stroke-linejoin="round"/>
<path d="M7.73913 11H3.07247V25H7.73913V11Z" stroke="white" stroke-width="2" stroke-linecap="round" stroke-linejoin="round"/>
<path d="M5.4058 7.49992C6.69447 7.49992 7.73913 6.45525 7.73913 5.16659C7.73913 3.87792 6.69447 2.83325 5.4058 2.83325C4.11714 2.83325 3.07247 3.87792 3.07247 5.16659C3.07247 6.45525 4.11714 7.49992 5.4058 7.49992Z" stroke="white" stroke-width="2" stroke-linecap="round" stroke-linejoin="round"/>
</svg>
