<svg width="26" height="6" viewBox="0 0 26 6" fill="none" xmlns="http://www.w3.org/2000/svg">
<path d="M25.1753 2.86364C25.1387 2.89827 25.1387 2.94156 25.1753 2.99351H25.1387C25.0898 3.01082 25.0776 3.00216 25.102 2.96753C25.1264 2.91558 25.1264 2.88961 25.102 2.88961C25.0776 2.94156 25.0776 2.98485 25.102 3.01948C25.1387 3.05411 25.1753 3.0974 25.2119 3.14935C25.2486 3.18398 25.2791 3.23593 25.3036 3.30519C25.328 3.35714 25.3219 3.41775 25.2852 3.48701C25.2486 3.4697 25.2425 3.48701 25.2669 3.53896C25.2913 3.57359 25.3219 3.61688 25.3585 3.66883C25.3952 3.72078 25.4257 3.77273 25.4501 3.82468C25.4868 3.85931 25.4868 3.87662 25.4501 3.87662C25.5356 4.10173 25.5112 4.17965 25.3768 4.11039C25.3524 4.11039 25.3341 4.11039 25.3219 4.11039C25.3219 4.09307 25.3097 4.07576 25.2852 4.05844C25.273 4.09307 25.2364 4.10173 25.1753 4.08442C25.1142 4.04978 25.0409 4.01515 24.9554 3.98052C24.8822 3.94589 24.8089 3.91126 24.7356 3.87662C24.6745 3.84199 24.6379 3.83333 24.6257 3.85065C23.4775 3.40043 22.2988 3.04545 21.0896 2.78571C19.8926 2.52597 18.6651 2.30087 17.407 2.11039C16.8574 2.02381 16.2833 1.9632 15.6848 1.92857C15.0985 1.89394 14.4939 1.89394 13.871 1.92857L13.8527 1.9026C13.8771 1.9026 13.9137 1.88528 13.9626 1.85065C13.8771 1.85065 13.8221 1.86797 13.7977 1.9026C13.7733 1.9026 13.7488 1.91126 13.7244 1.92857C13.7 1.92857 13.6817 1.92857 13.6694 1.92857C13.6817 1.92857 13.6878 1.9026 13.6878 1.85065C13.6511 1.85065 13.6206 1.86797 13.5962 1.9026H13.6145C13.5656 1.93723 13.5412 1.93723 13.5412 1.9026C13.5412 1.86797 13.5107 1.86797 13.4496 1.9026H13.4862C13.4618 1.91991 13.4374 1.92857 13.4129 1.92857L13.4313 1.9026C13.4068 1.9026 13.4007 1.91126 13.4129 1.92857C13.3641 1.9632 13.3458 1.94589 13.358 1.87662C13.3458 1.87662 13.3274 1.88528 13.303 1.9026C13.2908 1.91991 13.2664 1.91126 13.2297 1.87662C13.2297 1.84199 13.1809 1.84199 13.0832 1.87662C12.9977 1.89394 12.961 1.88528 12.9732 1.85065C12.2037 1.86797 11.4648 1.91991 10.7563 2.00649C10.0479 2.09307 9.35169 2.21429 8.66769 2.37013C7.99591 2.50866 7.33023 2.68182 6.67066 2.88961C6.01109 3.08009 5.35151 3.28788 4.69194 3.51299C4.1423 3.75541 3.58655 4.01515 3.02469 4.29221C2.46284 4.55195 1.94984 4.84632 1.48569 5.17532C1.48569 5.20996 1.46126 5.24459 1.41241 5.27922C1.36355 5.29654 1.34523 5.33983 1.35744 5.40909C1.33301 5.40909 1.27805 5.43507 1.19255 5.48701C1.10705 5.52165 1.02766 5.48701 0.954371 5.38312C0.966586 5.34848 0.972693 5.32251 0.972693 5.30519C0.984907 5.27056 1.00934 5.26191 1.04598 5.27922C1.02155 5.24459 1.02766 5.19264 1.0643 5.12338C1.02766 5.12338 1.00934 5.15801 1.00934 5.22727C1.00934 5.27922 0.984907 5.28788 0.93605 5.25325C0.911621 5.2013 0.905514 5.15801 0.917729 5.12338C0.942157 5.08874 0.929943 5.08874 0.881086 5.12338C0.8933 5.08874 0.911621 5.04545 0.93605 4.99351C0.972693 4.92424 0.991014 4.92424 0.991014 4.99351C1.01544 4.90693 1.02155 4.82035 1.00934 4.73377C0.997121 4.64719 1.00934 4.56061 1.04598 4.47403C1.04598 4.40476 0.991014 4.37013 0.881086 4.37013C0.881086 4.2316 0.923836 4.11039 1.00934 4.00649C0.972693 3.86797 0.929943 3.77273 0.881086 3.72078C0.832229 3.65152 0.795586 3.56494 0.771157 3.46104C0.746729 3.42641 0.752836 3.40043 0.789479 3.38312C0.838336 3.3658 0.85055 3.33117 0.826121 3.27922C0.862764 3.33117 0.905514 3.32251 0.954371 3.25325C1.01544 3.18398 1.07651 3.17532 1.13759 3.22727C1.18644 3.15801 1.25362 3.11472 1.33912 3.0974C1.43684 3.06277 1.53455 3.02814 1.63226 2.99351C1.49791 2.94156 1.4063 2.88961 1.35744 2.83766C1.30859 2.78571 1.27194 2.75108 1.24751 2.73377C1.2353 2.7684 1.22309 2.77706 1.21087 2.75974C1.19866 2.72511 1.19866 2.69913 1.21087 2.68182C1.08873 2.62987 0.9788 2.55195 0.881086 2.44805C0.795586 2.32684 0.710086 2.24892 0.624586 2.21429C0.600157 2.16234 0.569621 2.11905 0.532979 2.08442C0.496336 2.03247 0.490229 1.97186 0.514657 1.9026C0.539086 1.93723 0.5513 1.98918 0.5513 2.05844C0.575729 2.02381 0.600157 1.99784 0.624586 1.98052C0.649014 1.9632 0.655121 1.91991 0.642907 1.85065C0.667336 1.86797 0.685657 1.88528 0.697871 1.9026C0.7223 1.91991 0.746729 1.93723 0.771157 1.95455C1.16201 1.86797 1.53455 1.78139 1.88876 1.69481C2.24298 1.59091 2.65216 1.52165 3.1163 1.48701C3.17737 1.43506 3.26287 1.40909 3.3728 1.40909C3.49494 1.40909 3.61098 1.40043 3.72091 1.38312C3.85526 1.34848 3.98351 1.31385 4.10566 1.27922C4.24001 1.24459 4.35605 1.21861 4.45376 1.2013C4.47819 1.2013 4.50873 1.2013 4.54537 1.2013C4.59423 1.18398 4.60644 1.19264 4.58201 1.22727C4.80187 1.14069 5.07669 1.08874 5.40648 1.07143C5.73626 1.0368 6.02941 0.984848 6.28591 0.915584C6.29812 0.915584 6.29812 0.924242 6.28591 0.941559C6.35919 0.941559 6.47523 0.924242 6.63402 0.88961C6.7928 0.837662 6.90273 0.837662 6.9638 0.88961C7.46459 0.751082 7.9898 0.67316 8.53944 0.655844C9.08909 0.638528 9.59598 0.595238 10.0601 0.525974C10.5243 0.508658 11.0312 0.5 11.5808 0.5C12.1427 0.5 12.7106 0.508658 13.2847 0.525974C13.5412 0.525974 13.7855 0.54329 14.0176 0.577922C14.2618 0.595238 14.5061 0.58658 14.7504 0.551948C14.9214 0.534632 15.0985 0.534632 15.2817 0.551948C15.4772 0.551948 15.6726 0.534632 15.868 0.5C15.9047 0.517316 15.9413 0.525974 15.9779 0.525974C16.0268 0.508658 16.0634 0.517316 16.0879 0.551948C16.5887 0.517316 17.1078 0.517316 17.6452 0.551948C18.1948 0.569264 18.7384 0.621212 19.2758 0.707792C19.3613 0.67316 19.459 0.655844 19.5689 0.655844C19.6789 0.655844 19.7644 0.681818 19.8254 0.733766C20.0087 0.751082 20.2102 0.75974 20.4301 0.75974C20.6499 0.75974 20.8698 0.777056 21.0896 0.811688C21.224 0.84632 21.3828 0.872294 21.566 0.88961C21.7492 0.906926 21.908 0.950216 22.0423 1.01948C22.1034 0.984849 22.1889 0.984849 22.2988 1.01948C22.421 1.05411 22.5431 1.07143 22.6653 1.07143C22.6897 1.07143 22.6958 1.08009 22.6836 1.0974C22.6836 1.0974 22.6836 1.10606 22.6836 1.12338C22.9279 1.12338 23.1722 1.19264 23.4164 1.33117C23.6729 1.45238 23.8989 1.57359 24.0943 1.69481C24.1432 1.72944 24.1798 1.74675 24.2043 1.74675C24.2287 1.72944 24.247 1.72944 24.2592 1.74675C24.2714 1.78139 24.302 1.80736 24.3508 1.82468C24.3997 1.84199 24.4363 1.88528 24.4608 1.95455C24.4852 1.9026 24.5035 1.89394 24.5157 1.92857C24.5402 1.9632 24.5768 1.98052 24.6257 1.98052C24.6134 2.01515 24.5951 2.02381 24.5707 2.00649C24.5585 1.97186 24.5402 1.95455 24.5157 1.95455C24.5279 2.02381 24.5524 2.04978 24.589 2.03247C24.6379 2.01515 24.6745 2.00649 24.6989 2.00649C24.6989 2.04113 24.6867 2.05844 24.6623 2.05844C24.6379 2.04113 24.6257 2.04113 24.6257 2.05844C24.6379 2.09307 24.6623 2.11039 24.6989 2.11039C24.7356 2.09307 24.7722 2.08442 24.8089 2.08442C24.7722 2.10173 24.7661 2.11905 24.7906 2.13636C24.8272 2.15368 24.8211 2.16234 24.7722 2.16234C24.7967 2.17965 24.8394 2.21429 24.9005 2.26623C24.9738 2.31818 25.0409 2.37879 25.102 2.44805C25.1753 2.5 25.2303 2.56926 25.2669 2.65584C25.3036 2.74242 25.3036 2.829 25.2669 2.91558C25.2669 2.9329 25.2364 2.95887 25.1753 2.99351L25.1936 2.96753C25.1936 2.96753 25.1875 2.95022 25.1753 2.91558V2.86364ZM24.3142 2.47403C24.3386 2.43939 24.3753 2.43939 24.4241 2.47403C24.473 2.49134 24.5157 2.48268 24.5524 2.44805C24.2226 2.32684 23.8928 2.22294 23.563 2.13636C23.2332 2.03247 22.9523 1.9632 22.7202 1.92857C22.6347 1.91126 22.5553 1.9026 22.482 1.9026C22.4088 1.88528 22.3233 1.85931 22.2256 1.82468C21.9202 1.75541 21.5904 1.69481 21.2362 1.64286C20.882 1.57359 20.5278 1.52165 20.1736 1.48701C20.1613 1.45238 20.143 1.45238 20.1186 1.48701C20.1064 1.48701 20.1125 1.49567 20.1369 1.51299C20.5033 1.61688 20.8698 1.69481 21.2362 1.74675C21.6148 1.7987 21.9813 1.85931 22.3355 1.92857C22.7019 1.98052 23.05 2.04978 23.3798 2.13636C23.7218 2.22294 24.0333 2.3355 24.3142 2.47403ZM25.0471 2.34416C25.0348 2.36147 25.0226 2.36147 25.0104 2.34416C24.9982 2.30952 24.9982 2.28355 25.0104 2.26623C24.9371 2.26623 24.9005 2.24892 24.9005 2.21429C24.9127 2.2316 24.9493 2.24026 25.0104 2.24026C25.0104 2.22294 24.986 2.21429 24.9371 2.21429C24.986 2.17965 25.0409 2.18831 25.102 2.24026C25.1631 2.27489 25.1936 2.3355 25.1936 2.42208C25.1814 2.42208 25.1692 2.42208 25.157 2.42208C25.157 2.40476 25.1448 2.3961 25.1203 2.3961C25.1448 2.36147 25.157 2.3355 25.157 2.31818C25.1326 2.31818 25.1142 2.3355 25.102 2.37013C25.102 2.38745 25.0898 2.38745 25.0654 2.37013C25.102 2.30087 25.0837 2.26623 25.0104 2.26623C25.0348 2.30087 25.0471 2.32684 25.0471 2.34416ZM15.5016 1.17532C15.5871 1.17532 15.6787 1.19264 15.7764 1.22727C15.8863 1.24459 15.9779 1.23593 16.0512 1.2013C15.9902 1.18398 15.8924 1.17532 15.7581 1.17532C15.7214 1.17532 15.6726 1.16667 15.6115 1.14935C15.5627 1.13203 15.526 1.14069 15.5016 1.17532ZM15.2084 1.82468C15.2573 1.85931 15.3062 1.86797 15.355 1.85065C15.4039 1.83333 15.4649 1.84199 15.5382 1.87662C15.5382 1.80736 15.526 1.79004 15.5016 1.82468C15.4894 1.84199 15.4711 1.83333 15.4466 1.7987C15.41 1.81602 15.355 1.82468 15.2817 1.82468C15.2207 1.82468 15.1962 1.82468 15.2084 1.82468ZM11.9106 1.66883C11.935 1.66883 11.9594 1.67749 11.9839 1.69481C12.0083 1.69481 12.0205 1.67749 12.0205 1.64286H11.8739C11.8495 1.64286 11.8434 1.65152 11.8556 1.66883C11.7457 1.65152 11.6907 1.65152 11.6907 1.66883C11.6907 1.68615 11.7457 1.69481 11.8556 1.69481C11.8678 1.69481 11.8739 1.69481 11.8739 1.69481C11.8739 1.67749 11.8862 1.66883 11.9106 1.66883ZM11.3243 1.72078C11.3732 1.72078 11.4281 1.72078 11.4892 1.72078C11.5625 1.72078 11.5991 1.70346 11.5991 1.66883C11.4648 1.66883 11.3732 1.68615 11.3243 1.72078ZM9.71202 1.9026C9.79752 1.91991 9.8708 1.9026 9.93187 1.85065C9.85859 1.85065 9.7853 1.86797 9.71202 1.9026ZM12.6618 0.655844C12.6251 0.655844 12.5763 0.647186 12.5152 0.62987C12.4663 0.612554 12.4297 0.621212 12.4053 0.655844C12.4541 0.638528 12.503 0.647186 12.5518 0.681818C12.6007 0.699134 12.6373 0.690476 12.6618 0.655844ZM7.51344 2.34416C7.53787 2.34416 7.55009 2.3355 7.55009 2.31818C7.51344 2.30087 7.45237 2.30952 7.36687 2.34416C7.28137 2.37879 7.26305 2.38745 7.31191 2.37013C7.36076 2.38745 7.39741 2.38745 7.42184 2.37013C7.44627 2.35281 7.4768 2.34416 7.51344 2.34416ZM19.5689 2.13636C19.5567 2.18831 19.5751 2.22294 19.6239 2.24026C19.685 2.24026 19.7155 2.22294 19.7155 2.18831C19.6789 2.15368 19.6544 2.14502 19.6422 2.16234C19.63 2.17965 19.6056 2.171 19.5689 2.13636ZM14.4023 1.85065C14.4267 1.83333 14.4634 1.84199 14.5122 1.87662C14.5733 1.89394 14.6038 1.87662 14.6038 1.82468C14.555 1.84199 14.5183 1.84199 14.4939 1.82468C14.4817 1.80736 14.4512 1.81602 14.4023 1.85065ZM24.589 2.62987C24.6257 2.61255 24.6623 2.61255 24.6989 2.62987C24.7356 2.62987 24.7661 2.61255 24.7906 2.57792C24.7417 2.54329 24.6745 2.56061 24.589 2.62987ZM19.2392 2.13636C19.2636 2.13636 19.3002 2.14502 19.3491 2.16234C19.3979 2.17965 19.4285 2.171 19.4407 2.13636C19.4163 2.13636 19.3796 2.12771 19.3308 2.11039C19.2941 2.09307 19.2636 2.10173 19.2392 2.13636ZM6.21262 2.70779C6.22484 2.67316 6.24926 2.6645 6.28591 2.68182C6.32255 2.68182 6.34698 2.6645 6.35919 2.62987C6.32255 2.61255 6.2798 2.61255 6.23094 2.62987C6.1943 2.64719 6.18819 2.67316 6.21262 2.70779ZM10.0052 1.87662C10.0296 1.85931 10.0723 1.85931 10.1334 1.87662C10.1945 1.87662 10.2128 1.85931 10.1884 1.82468C10.1639 1.82468 10.1212 1.82468 10.0601 1.82468C10.0113 1.82468 9.99294 1.84199 10.0052 1.87662ZM12.4969 1.64286C12.5213 1.62554 12.5518 1.62554 12.5885 1.64286C12.6373 1.66017 12.6679 1.65152 12.6801 1.61688C12.6557 1.6342 12.619 1.6342 12.5702 1.61688C12.5335 1.59957 12.5091 1.60822 12.4969 1.64286ZM10.5731 1.7987C10.5976 1.78139 10.6403 1.78139 10.7014 1.7987C10.7747 1.7987 10.7991 1.78139 10.7747 1.74675C10.738 1.74675 10.6892 1.75541 10.6281 1.77273C10.5792 1.77273 10.5609 1.78139 10.5731 1.7987ZM8.44784 2.13636C8.54555 2.13636 8.60662 2.11905 8.63105 2.08442C8.54555 2.08442 8.48448 2.10173 8.44784 2.13636ZM9.23566 1.98052C9.2723 1.98052 9.30894 1.98052 9.34559 1.98052C9.38223 1.98052 9.41277 1.9632 9.43719 1.92857C9.37612 1.92857 9.30894 1.94589 9.23566 1.98052ZM12.2953 1.61688C12.2953 1.65152 12.3198 1.66883 12.3686 1.66883C12.4297 1.66883 12.4663 1.66017 12.4786 1.64286C12.4541 1.60822 12.4236 1.59957 12.3869 1.61688C12.3625 1.6342 12.332 1.6342 12.2953 1.61688ZM9.05244 2.03247C9.11351 2.04978 9.11962 2.04113 9.07077 2.00649C9.03412 1.97186 9.00969 1.98052 8.99748 2.03247C8.92419 2.01515 8.90587 2.02381 8.94252 2.05844C8.97916 2.07576 9.0158 2.0671 9.05244 2.03247ZM18.9643 1.38312C18.9888 1.3658 19.0132 1.3658 19.0376 1.38312C19.0743 1.40043 19.0987 1.39177 19.1109 1.35714C19.0865 1.37446 19.0559 1.37446 19.0193 1.35714C18.9827 1.33983 18.9643 1.34848 18.9643 1.38312ZM7.58673 2.31818C7.67223 2.31818 7.72109 2.30087 7.7333 2.26623C7.66002 2.26623 7.61116 2.28355 7.58673 2.31818ZM8.26462 2.16234C8.35012 2.19697 8.39898 2.17965 8.41119 2.11039L8.26462 2.16234ZM19.0559 2.13636C19.0804 2.11905 19.1048 2.11905 19.1292 2.13636C19.1537 2.15368 19.1659 2.13636 19.1659 2.08442C19.1048 2.08442 19.0682 2.10173 19.0559 2.13636ZM14.6222 1.85065C14.6466 1.83333 14.671 1.83333 14.6954 1.85065C14.7321 1.86797 14.7504 1.85931 14.7504 1.82468C14.726 1.84199 14.7016 1.84199 14.6771 1.82468C14.6527 1.80736 14.6344 1.81602 14.6222 1.85065ZM24.9738 2.05844C24.9493 2.09307 24.9249 2.10173 24.9005 2.08442C24.8883 2.04978 24.8699 2.03247 24.8455 2.03247C24.8577 1.99784 24.8761 1.99784 24.9005 2.03247C24.9249 2.04978 24.9493 2.05844 24.9738 2.05844ZM6.79891 2.55195C6.81112 2.51732 6.82944 2.50866 6.85387 2.52597C6.89051 2.52597 6.92105 2.50866 6.94548 2.47403C6.92105 2.47403 6.88441 2.48268 6.83555 2.5C6.78669 2.5 6.77448 2.51732 6.79891 2.55195ZM12.9732 0.62987C12.9488 0.647186 12.9183 0.647186 12.8816 0.62987C12.8572 0.612554 12.8389 0.621212 12.8267 0.655844C12.8511 0.655844 12.8755 0.664502 12.8999 0.681818C12.9366 0.681818 12.961 0.664502 12.9732 0.62987ZM12.8267 1.04545C12.8511 1.02814 12.8755 1.02814 12.8999 1.04545C12.9244 1.06277 12.9366 1.05411 12.9366 1.01948C12.9122 1.0368 12.8877 1.0368 12.8633 1.01948C12.8389 1.00216 12.8267 1.01082 12.8267 1.04545ZM10.8296 1.77273C10.8541 1.75541 10.8785 1.75541 10.9029 1.77273C10.9273 1.79004 10.9457 1.78139 10.9579 1.74675C10.9334 1.74675 10.9029 1.74675 10.8663 1.74675C10.8418 1.72944 10.8296 1.7381 10.8296 1.77273ZM17.1688 1.9026C17.1811 1.9026 17.1994 1.91126 17.2238 1.92857C17.2604 1.94589 17.2788 1.93723 17.2788 1.9026C17.2543 1.9026 17.2299 1.89394 17.2055 1.87662C17.1811 1.85931 17.1688 1.86797 17.1688 1.9026ZM9.93187 0.733766C9.9563 0.733766 9.98073 0.742424 10.0052 0.75974C10.0296 0.777056 10.0418 0.768398 10.0418 0.733766C10.0174 0.733766 9.99294 0.725108 9.96852 0.707792C9.94409 0.690476 9.93187 0.699134 9.93187 0.733766ZM20.3568 2.31818C20.3812 2.31818 20.4056 2.32684 20.4301 2.34416C20.4545 2.36147 20.4667 2.35281 20.4667 2.31818C20.4423 2.31818 20.4178 2.30952 20.3934 2.29221C20.369 2.27489 20.3568 2.28355 20.3568 2.31818ZM0.844443 2.31818C0.868872 2.28355 0.862764 2.25758 0.826121 2.24026C0.789479 2.22294 0.777264 2.2316 0.789479 2.26623C0.801693 2.28355 0.8078 2.30087 0.8078 2.31818H0.844443ZM0.991014 4.70779C0.991014 4.72511 0.984907 4.73377 0.972693 4.73377C0.972693 4.73377 0.972693 4.75108 0.972693 4.78571C0.960479 4.7684 0.948264 4.75974 0.93605 4.75974V4.68182C0.960479 4.68182 0.972693 4.69048 0.972693 4.70779C0.972693 4.70779 0.9788 4.70779 0.991014 4.70779ZM8.04477 2.21429C7.97148 2.17965 7.93484 2.19697 7.93484 2.26623L8.04477 2.21429ZM25.2486 2.5C25.2242 2.5 25.2181 2.49134 25.2303 2.47403C25.2425 2.43939 25.2364 2.41342 25.2119 2.3961C25.2242 2.36147 25.2364 2.37013 25.2486 2.42208C25.273 2.45671 25.273 2.48268 25.2486 2.5ZM18.7262 1.33117C18.7506 1.31385 18.775 1.31385 18.7994 1.33117C18.8361 1.34848 18.8544 1.33983 18.8544 1.30519C18.83 1.32251 18.8056 1.32251 18.7811 1.30519C18.7567 1.28788 18.7384 1.29654 18.7262 1.33117ZM9.58377 1.92857C9.60819 1.91126 9.63262 1.91126 9.65705 1.92857C9.68148 1.94589 9.69369 1.93723 9.69369 1.9026C9.66927 1.91991 9.64484 1.91991 9.62041 1.9026C9.59598 1.88528 9.58377 1.89394 9.58377 1.92857ZM10.1334 0.733766C10.1578 0.71645 10.1823 0.71645 10.2067 0.733766C10.2311 0.751082 10.2433 0.742424 10.2433 0.707792C10.2189 0.725108 10.1945 0.725108 10.1701 0.707792C10.1456 0.690476 10.1334 0.699134 10.1334 0.733766ZM11.251 1.69481C11.1899 1.69481 11.1594 1.70346 11.1594 1.72078C11.1716 1.72078 11.1899 1.72078 11.2144 1.72078C11.251 1.72078 11.2816 1.72078 11.306 1.72078C11.3304 1.72078 11.3243 1.72078 11.2877 1.72078C11.2632 1.72078 11.251 1.71212 11.251 1.69481ZM9.47384 1.98052C9.48605 1.94589 9.49827 1.93723 9.51048 1.95455C9.53491 1.95455 9.54712 1.94589 9.54712 1.92857C9.52269 1.91126 9.49827 1.91126 9.47384 1.92857C9.44941 1.92857 9.44941 1.94589 9.47384 1.98052ZM7.03709 2.47403C7.0493 2.43939 7.06152 2.43074 7.07373 2.44805C7.09816 2.46537 7.11037 2.45671 7.11037 2.42208C7.08594 2.40476 7.06151 2.40476 7.03709 2.42208C7.01266 2.43939 7.01266 2.45671 7.03709 2.47403ZM15.9596 1.82468C15.9474 1.80736 15.9352 1.7987 15.923 1.7987V1.87662H15.9596V1.82468ZM25.3036 2.5C25.2791 2.46537 25.2791 2.45671 25.3036 2.47403C25.3402 2.49134 25.3463 2.51732 25.3219 2.55195C25.3097 2.58658 25.3036 2.56926 25.3036 2.5ZM16.0146 1.85065C16.0146 1.85065 16.0268 1.85065 16.0512 1.85065C16.039 1.81602 16.0207 1.80736 15.9963 1.82468C15.9718 1.82468 15.9718 1.84199 15.9963 1.87662C15.9963 1.85931 16.0024 1.85065 16.0146 1.85065ZM9.38223 1.17532C9.43109 1.17532 9.45551 1.16667 9.45551 1.14935C9.40666 1.14935 9.38223 1.15801 9.38223 1.17532ZM11.8739 0.62987C11.8373 0.62987 11.8129 0.638528 11.8007 0.655844C11.8495 0.655844 11.8739 0.647186 11.8739 0.62987ZM24.589 1.85065C24.589 1.86797 24.5646 1.87662 24.5157 1.87662C24.5279 1.85931 24.5524 1.85065 24.589 1.85065ZM8.79594 2.05844C8.83259 2.05844 8.85091 2.04978 8.85091 2.03247C8.81427 2.03247 8.79594 2.04113 8.79594 2.05844ZM20.6682 2.3961C20.6804 2.37879 20.6866 2.37879 20.6866 2.3961C20.6988 2.3961 20.7049 2.37879 20.7049 2.34416C20.6927 2.36147 20.6804 2.37013 20.6682 2.37013C20.6682 2.35281 20.6682 2.36147 20.6682 2.3961ZM10.4998 1.04545C10.4632 1.04545 10.4449 1.05411 10.4449 1.07143C10.4815 1.07143 10.4998 1.06277 10.4998 1.04545ZM13.0282 0.681818C13.0771 0.681818 13.1015 0.67316 13.1015 0.655844C13.0648 0.655844 13.0404 0.664502 13.0282 0.681818ZM8.13637 2.18831C8.17302 2.18831 8.19744 2.17965 8.20966 2.16234C8.17302 2.16234 8.14859 2.171 8.13637 2.18831ZM15.8314 1.85065C15.8314 1.86797 15.8558 1.85931 15.9047 1.82468C15.8924 1.84199 15.868 1.85065 15.8314 1.85065ZM19.4041 1.40909C19.3674 1.40909 19.3491 1.41775 19.3491 1.43506C19.3857 1.43506 19.4041 1.42641 19.4041 1.40909ZM18.5063 2.05844C18.5429 2.05844 18.5613 2.04978 18.5613 2.03247C18.5246 2.03247 18.5063 2.04113 18.5063 2.05844ZM19.972 1.46104C20.0087 1.46104 20.027 1.45238 20.027 1.43506C19.9903 1.43506 19.972 1.44372 19.972 1.46104ZM6.46912 1.69481C6.50576 1.69481 6.52409 1.68615 6.52409 1.66883C6.48744 1.66883 6.46912 1.67749 6.46912 1.69481ZM14.1824 1.87662C14.2191 1.87662 14.2374 1.86797 14.2374 1.85065C14.2008 1.85065 14.1824 1.85931 14.1824 1.87662ZM14.329 1.85065C14.3657 1.85065 14.384 1.84199 14.384 1.82468C14.3473 1.82468 14.329 1.83333 14.329 1.85065ZM4.03237 2.26623C4.04459 2.24892 4.05069 2.24892 4.05069 2.26623C4.06291 2.26623 4.07512 2.25758 4.08734 2.24026C4.05069 2.24026 4.03237 2.24892 4.03237 2.26623ZM10.793 0.707792C10.8052 0.690476 10.8174 0.690476 10.8296 0.707792C10.8418 0.707792 10.8479 0.699134 10.8479 0.681818C10.8113 0.681818 10.793 0.690476 10.793 0.707792ZM11.9289 0.655844C11.9045 0.655844 11.8923 0.664502 11.8923 0.681818C11.9167 0.647186 11.9289 0.638528 11.9289 0.655844ZM12.0388 1.66883C12.0633 1.6342 12.0755 1.62554 12.0755 1.64286C12.0511 1.64286 12.0388 1.65152 12.0388 1.66883ZM12.8083 1.64286C12.8206 1.62554 12.8328 1.62554 12.845 1.64286C12.8572 1.64286 12.8633 1.6342 12.8633 1.61688C12.8267 1.61688 12.8083 1.62554 12.8083 1.64286ZM8.86923 1.25325C8.89366 1.21861 8.90587 1.20996 8.90587 1.22727C8.88144 1.22727 8.86923 1.23593 8.86923 1.25325ZM24.4791 1.82468C24.4791 1.80736 24.4669 1.81602 24.4424 1.85065C24.4424 1.83333 24.4547 1.82468 24.4791 1.82468ZM9.43719 0.75974C9.40055 0.75974 9.38223 0.768398 9.38223 0.785714C9.40666 0.785714 9.42498 0.777056 9.43719 0.75974ZM11.5808 0.655844C11.5564 0.655844 11.5442 0.664502 11.5442 0.681818C11.5442 0.664502 11.5503 0.664502 11.5625 0.681818C11.5747 0.681818 11.5808 0.67316 11.5808 0.655844ZM9.18069 0.785714C9.18069 0.80303 9.19291 0.794372 9.21734 0.75974C9.21734 0.777056 9.20512 0.785714 9.18069 0.785714ZM19.1292 1.38312C19.1292 1.40043 19.1414 1.39177 19.1659 1.35714C19.1659 1.37446 19.1537 1.38312 19.1292 1.38312ZM4.85684 3.0974C4.88126 3.0974 4.89348 3.08874 4.89348 3.07143C4.86905 3.07143 4.85684 3.08009 4.85684 3.0974ZM7.76994 2.26623C7.79437 2.26623 7.80659 2.25758 7.80659 2.24026C7.78216 2.24026 7.76994 2.24892 7.76994 2.26623ZM18.8727 2.08442C18.8972 2.08442 18.9094 2.07576 18.9094 2.05844C18.8849 2.05844 18.8727 2.0671 18.8727 2.08442ZM24.8272 1.95455C24.8272 1.97186 24.815 1.98052 24.7906 1.98052C24.7906 1.9632 24.8028 1.95455 24.8272 1.95455ZM18.9277 2.08442C18.9521 2.08442 18.9643 2.07576 18.9643 2.05844C18.9399 2.05844 18.9277 2.0671 18.9277 2.08442ZM15.41 1.14935C15.3856 1.14935 15.3733 1.15801 15.3733 1.17532C15.3978 1.17532 15.41 1.16667 15.41 1.14935ZM10.9945 1.74675C11.0189 1.74675 11.0312 1.7381 11.0312 1.72078C11.0067 1.72078 10.9945 1.72944 10.9945 1.74675ZM14.2741 1.87662C14.2985 1.87662 14.3107 1.86797 14.3107 1.85065C14.2863 1.85065 14.2741 1.85931 14.2741 1.87662ZM1.10094 4.81169C1.12537 4.81169 1.13759 4.80303 1.13759 4.78571C1.11316 4.78571 1.10094 4.79437 1.10094 4.81169ZM4.41712 3.25325C4.44155 3.25325 4.45376 3.24459 4.45376 3.22727C4.42934 3.22727 4.41712 3.23593 4.41712 3.25325ZM20.485 2.34416C20.5094 2.34416 20.5217 2.3355 20.5217 2.31818C20.4972 2.31818 20.485 2.32684 20.485 2.34416ZM16.6925 1.9026C16.7169 1.9026 16.7291 1.89394 16.7291 1.87662C16.7047 1.87662 16.6925 1.88528 16.6925 1.9026ZM6.7073 2.52597C6.7073 2.50866 6.71341 2.50866 6.72562 2.52597C6.73784 2.52597 6.74394 2.51732 6.74394 2.5C6.74394 2.51732 6.73173 2.52597 6.7073 2.52597ZM4.98509 3.04545C5.00951 3.04545 5.02173 3.0368 5.02173 3.01948C4.9973 3.01948 4.98509 3.02814 4.98509 3.04545ZM15.6482 1.85065C15.6726 1.85065 15.6848 1.84199 15.6848 1.82468C15.6604 1.82468 15.6482 1.83333 15.6482 1.85065ZM12.9183 1.64286C12.9183 1.64286 12.9244 1.6342 12.9366 1.61688C12.9122 1.61688 12.8999 1.62554 12.8999 1.64286H12.9183ZM24.7722 1.92857C24.7722 1.94589 24.7661 1.95455 24.7539 1.95455H24.7356C24.7356 1.93723 24.7478 1.92857 24.7722 1.92857ZM25.2669 2.29221C25.2669 2.30952 25.2547 2.31818 25.2303 2.31818C25.2303 2.31818 25.2364 2.30952 25.2486 2.29221H25.2669ZM4.96676 2.03247C4.96676 2.03247 4.97287 2.02381 4.98509 2.00649C4.96066 2.00649 4.94844 2.01515 4.94844 2.03247H4.96676ZM7.12869 2.42208C7.15312 2.42208 7.16534 2.41342 7.16534 2.3961H7.14702C7.1348 2.3961 7.12869 2.40476 7.12869 2.42208ZM19.514 2.16234C19.514 2.16234 19.5201 2.15368 19.5323 2.13636C19.5079 2.13636 19.4957 2.14502 19.4957 2.16234H19.514ZM20.3201 2.31818C20.3201 2.31818 20.3262 2.30952 20.3384 2.29221C20.314 2.29221 20.3018 2.30087 20.3018 2.31818H20.3201ZM13.6145 1.9026C13.6389 1.9026 13.6572 1.91126 13.6694 1.92857C13.6572 1.92857 13.645 1.92857 13.6328 1.92857C13.6328 1.91126 13.6267 1.9026 13.6145 1.9026Z" fill="black"/>
</svg>
