<svg width="18" height="4" viewBox="0 0 18 4" fill="none" xmlns="http://www.w3.org/2000/svg">
<path d="M17.7695 1.78571C17.8207 1.75 17.8655 1.76786 17.9039 1.83929C17.9552 1.89286 17.9296 1.89286 17.8271 1.83929C17.8527 1.875 17.8655 1.91071 17.8655 1.94643C17.8655 1.98214 17.8527 2.00893 17.8271 2.02679C17.8143 2.02679 17.7951 2.00893 17.7695 1.97321C17.7951 2.02679 17.8143 2.08036 17.8271 2.13393C17.8399 2.16964 17.8271 2.21429 17.7887 2.26786C17.7631 2.23214 17.7375 2.21429 17.7118 2.21429C17.699 2.19643 17.6542 2.17857 17.5774 2.16071C17.5774 2.17857 17.5966 2.19643 17.635 2.21429C17.6734 2.21429 17.6734 2.22321 17.635 2.24107C17.5838 2.22321 17.5261 2.17857 17.4621 2.10714C17.3981 2.01786 17.3212 1.98214 17.2316 2C17.27 2.07143 17.3212 2.125 17.3853 2.16071C17.4621 2.19643 17.4877 2.29464 17.4621 2.45536C17.5518 2.49107 17.6158 2.53571 17.6542 2.58929C17.7054 2.625 17.7503 2.65179 17.7887 2.66964C17.7631 2.75893 17.7567 2.82143 17.7695 2.85714C17.7823 2.89286 17.7759 2.95536 17.7503 3.04464C17.7503 3.11607 17.7375 3.125 17.7118 3.07143C17.6862 3.01786 17.667 2.97321 17.6542 2.9375C17.5518 2.90179 17.4621 2.86607 17.3853 2.83036C17.3212 2.77679 17.238 2.73214 17.1355 2.69643C17.1355 2.75 17.1035 2.80357 17.0395 2.85714C16.9755 2.89286 16.9562 2.96429 16.9819 3.07143C16.9562 3.10714 16.937 3.10714 16.9242 3.07143C16.9114 3.03571 16.8922 3.00893 16.8666 2.99107C16.8282 3.08036 16.7898 3.17857 16.7513 3.28571C16.7129 3.39286 16.6681 3.46429 16.6169 3.5C16.5784 3.48214 16.5464 3.46429 16.5208 3.44643C16.508 3.41071 16.476 3.40179 16.4248 3.41964C16.412 3.36607 16.3863 3.3125 16.3479 3.25893C15.746 2.91964 15.0929 2.64286 14.3885 2.42857C13.6841 2.21429 12.9605 2.04464 12.2177 1.91964C11.4877 1.79464 10.7513 1.70536 10.0085 1.65179C9.26574 1.59821 8.54856 1.57143 7.85699 1.57143C6.55069 1.55357 5.30203 1.60714 4.11099 1.73214C2.91996 1.85714 1.6905 2.00893 0.422625 2.1875C0.358591 2.1875 0.294557 2.19643 0.230523 2.21429C0.179296 2.21429 0.121665 2.22321 0.0576307 2.24107C0.0704376 2.16964 0.115261 2.13393 0.192102 2.13393C0.192102 2.09821 0.172892 2.08929 0.134472 2.10714C0.108858 2.10714 0.0832444 2.09821 0.0576307 2.08036C0.0576307 2.00893 0.0576307 1.96429 0.0576307 1.94643C0.0576307 1.91071 0.0512273 1.84821 0.0384204 1.75893L0.960512 1.625C0.870865 1.60714 0.781217 1.60714 0.691569 1.625C0.614728 1.64286 0.531483 1.66071 0.441836 1.67857C0.364995 1.67857 0.288154 1.66964 0.211313 1.65179C0.134472 1.63393 0.0640342 1.58036 0 1.49107C0.589114 1.33036 1.18463 1.21429 1.78655 1.14286C2.40128 1.05357 3.01601 0.982143 3.63074 0.928571C4.77054 0.839286 5.95518 0.741071 7.18463 0.633928C8.42689 0.526786 9.63714 0.491071 10.8154 0.526786C11.2636 0.491071 11.6798 0.491071 12.064 0.526786C12.461 0.544643 12.8453 0.544643 13.2166 0.526786C13.857 0.580357 14.4909 0.651786 15.1185 0.741072C15.7588 0.830357 16.3543 0.892857 16.905 0.928571C16.9306 0.946429 16.9498 0.973214 16.9626 1.00893C16.9755 1.04464 17.0075 1.07143 17.0587 1.08929C17.0459 1.125 17.0331 1.13393 17.0203 1.11607C17.0203 1.09821 17.0075 1.09821 16.9819 1.11607C17.0075 1.1875 17.0395 1.21429 17.0779 1.19643C17.1163 1.17857 17.1419 1.19643 17.1547 1.25C17.1547 1.28571 17.1483 1.28571 17.1355 1.25C17.1355 1.21429 17.1227 1.20536 17.0971 1.22321C17.0715 1.25893 17.1035 1.30357 17.1932 1.35714C17.2828 1.41071 17.3148 1.44643 17.2892 1.46429C17.3661 1.46429 17.4173 1.49107 17.4429 1.54464C17.4813 1.58036 17.5454 1.59821 17.635 1.59821C17.6094 1.65179 17.6158 1.6875 17.6542 1.70536C17.6926 1.72321 17.7311 1.75 17.7695 1.78571ZM16.54 1.8125C16.6041 1.84821 16.6937 1.89286 16.809 1.94643C16.937 1.98214 17.0267 1.98214 17.0779 1.94643C16.7449 1.82143 16.4376 1.72321 16.1558 1.65179C15.8741 1.58036 15.5859 1.52679 15.2914 1.49107C15.1889 1.45536 15.08 1.4375 14.9648 1.4375C14.8495 1.41964 14.7407 1.39286 14.6382 1.35714C14.92 1.46429 15.2273 1.54464 15.5603 1.59821C15.9061 1.65179 16.2327 1.72321 16.54 1.8125ZM12.9861 1.8125C13.0886 1.84821 13.127 1.85714 13.1014 1.83929C13.0886 1.80357 13.0438 1.78571 12.9669 1.78571C12.8645 1.75 12.7748 1.73214 12.698 1.73214C12.6211 1.73214 12.5507 1.71429 12.4867 1.67857C12.4482 1.67857 12.3842 1.66964 12.2946 1.65179C12.2049 1.63393 12.1665 1.64286 12.1793 1.67857C12.2433 1.69643 12.301 1.70536 12.3522 1.70536C12.4162 1.70536 12.4803 1.70536 12.5443 1.70536C12.6083 1.75893 12.6788 1.78571 12.7556 1.78571C12.8453 1.76786 12.9221 1.77679 12.9861 1.8125ZM2.17076 1.4375C2.28602 1.41964 2.40128 1.41071 2.51654 1.41071C2.64461 1.39286 2.75987 1.36607 2.86233 1.33036C2.75987 1.34821 2.64461 1.36607 2.51654 1.38393C2.38847 1.38393 2.27321 1.40179 2.17076 1.4375ZM12.2753 0.660714C12.2497 0.642857 12.2049 0.633928 12.1409 0.633928C12.0768 0.633928 12.0832 0.651786 12.1601 0.6875C12.2753 0.6875 12.365 0.696429 12.429 0.714286C12.4546 0.714286 12.4995 0.714286 12.5635 0.714286C12.6275 0.714286 12.6275 0.696429 12.5635 0.660714C12.5635 0.678571 12.5507 0.6875 12.5251 0.6875C12.461 0.669643 12.3778 0.660714 12.2753 0.660714ZM8.33725 0.6875C8.36286 0.669643 8.37567 0.651786 8.37567 0.633928C8.37567 0.616071 8.36286 0.625 8.33725 0.660714C8.2476 0.660714 8.17716 0.651786 8.12593 0.633928C8.11313 0.633928 8.10032 0.642857 8.08751 0.660714C8.08751 0.678571 8.08111 0.678571 8.0683 0.660714C8.00427 0.642857 7.97866 0.651786 7.99146 0.6875C8.00427 0.705357 8.03629 0.714286 8.08751 0.714286C8.10032 0.714286 8.10672 0.705357 8.10672 0.6875C8.10672 0.669643 8.11953 0.669643 8.14514 0.6875H8.33725ZM9.16329 1.4375C9.20171 1.40179 9.26574 1.40179 9.35539 1.4375C9.44504 1.47321 9.50907 1.47321 9.54749 1.4375C9.48346 1.4375 9.40021 1.41964 9.29776 1.38393C9.20811 1.34821 9.16329 1.36607 9.16329 1.4375ZM1.86339 1.46429C1.85059 1.46429 1.86339 1.46429 1.90181 1.46429C1.95304 1.46429 1.99787 1.46429 2.03629 1.46429C2.08751 1.44643 2.11313 1.4375 2.11313 1.4375C2.12593 1.41964 2.08751 1.41071 1.99787 1.41071C1.98506 1.44643 1.95945 1.45536 1.92102 1.4375C1.8826 1.41964 1.86339 1.42857 1.86339 1.46429ZM11.7183 0.660714C11.7695 0.660714 11.8271 0.669643 11.8911 0.6875C11.9552 0.705357 12.0064 0.696429 12.0448 0.660714C11.9808 0.660714 11.9168 0.651786 11.8527 0.633928C11.7887 0.616071 11.7439 0.625 11.7183 0.660714ZM10.7193 0.901786C10.6937 0.919643 10.6617 0.928571 10.6233 0.928571C10.5848 0.928571 10.5528 0.946429 10.5272 0.982143C10.5656 0.964286 10.6041 0.964286 10.6425 0.982143C10.6809 1 10.7129 0.991071 10.7385 0.955357C10.6873 0.955357 10.6617 0.946429 10.6617 0.928571C10.7001 0.928571 10.7193 0.919643 10.7193 0.901786ZM10.8538 1.51786C10.9306 1.51786 11.0075 1.53571 11.0843 1.57143C11.174 1.58929 11.2508 1.58036 11.3148 1.54464C11.238 1.54464 11.1547 1.53571 11.0651 1.51786C10.9883 1.48214 10.9178 1.48214 10.8538 1.51786ZM6.72359 0.741072C6.78762 0.758928 6.85806 0.767857 6.9349 0.767857C7.01174 0.767857 7.05016 0.75 7.05016 0.714286C6.98613 0.714286 6.9285 0.714286 6.87727 0.714286C6.82604 0.714286 6.77481 0.723214 6.72359 0.741072ZM5.05229 1.46429C5.01387 1.5 5.00107 1.51786 5.01387 1.51786C5.02668 1.51786 5.05229 1.51786 5.09072 1.51786C5.14194 1.51786 5.18677 1.51786 5.22519 1.51786C5.27641 1.5 5.31483 1.48214 5.34045 1.46429C5.27641 1.46429 5.22519 1.47321 5.18677 1.49107C5.16115 1.50893 5.11633 1.5 5.05229 1.46429ZM5.45571 1.49107C5.50694 1.49107 5.56457 1.49107 5.6286 1.49107C5.70544 1.49107 5.73746 1.47321 5.72465 1.4375C5.59659 1.4375 5.50694 1.45536 5.45571 1.49107ZM1.1334 1.59821C1.17182 1.58036 1.24226 1.57143 1.34472 1.57143C1.34472 1.53571 1.29989 1.52679 1.21025 1.54464C1.1334 1.54464 1.10779 1.5625 1.1334 1.59821ZM11.0075 0.955357C10.9819 0.919643 10.9306 0.910714 10.8538 0.928571C10.7898 0.928571 10.7641 0.9375 10.7769 0.955357C10.8154 0.9375 10.8538 0.946429 10.8922 0.982143C10.9306 1 10.9691 0.991071 11.0075 0.955357ZM14.2348 1.33036C14.2732 1.33036 14.318 1.33929 14.3693 1.35714C14.4333 1.375 14.4781 1.36607 14.5037 1.33036C14.4525 1.33036 14.4013 1.32143 14.3501 1.30357C14.2988 1.28571 14.2604 1.29464 14.2348 1.33036ZM8.89434 1.38393C8.8047 1.38393 8.77268 1.39286 8.79829 1.41071C8.82391 1.41071 8.86233 1.41964 8.91355 1.4375C8.97759 1.4375 9.02882 1.4375 9.06724 1.4375C9.11846 1.4375 9.12487 1.42857 9.08645 1.41071C9.03522 1.39286 8.98399 1.38393 8.93276 1.38393C8.89434 1.38393 8.88154 1.38393 8.89434 1.38393ZM10.143 0.633928C10.0918 0.633928 10.0406 0.625 9.98933 0.607143C9.9381 0.589285 9.89968 0.598214 9.87407 0.633928C9.91249 0.633928 9.95731 0.642857 10.0085 0.660714C10.0726 0.678571 10.1174 0.669643 10.143 0.633928ZM3.47705 1.27679C3.50267 1.25893 3.54109 1.25893 3.59232 1.27679C3.64354 1.29464 3.68196 1.28571 3.70758 1.25C3.68196 1.26786 3.64354 1.26786 3.59232 1.25C3.54109 1.23214 3.50267 1.24107 3.47705 1.27679ZM1.42156 1.54464C1.45998 1.52679 1.51121 1.51786 1.57524 1.51786C1.65208 1.51786 1.6905 1.5 1.6905 1.46429C1.63927 1.48214 1.58805 1.49107 1.53682 1.49107C1.48559 1.49107 1.44717 1.50893 1.42156 1.54464ZM2.91996 1.35714C2.95838 1.33929 3.0032 1.33929 3.05443 1.35714C3.10566 1.35714 3.13767 1.33036 3.15048 1.27679C3.12487 1.3125 3.08645 1.33036 3.03522 1.33036C2.98399 1.3125 2.94557 1.32143 2.91996 1.35714ZM10.6041 1.49107C10.6297 1.49107 10.6681 1.5 10.7193 1.51786C10.7705 1.53571 10.809 1.52679 10.8346 1.49107C10.7962 1.49107 10.7513 1.48214 10.7001 1.46429C10.6617 1.44643 10.6297 1.45536 10.6041 1.49107ZM13.5048 1.94643C13.5816 1.94643 13.6521 1.95536 13.7161 1.97321C13.793 1.97321 13.7481 1.95536 13.5816 1.91964C13.5816 1.88393 13.5752 1.86607 13.5624 1.86607C13.5624 1.91964 13.5496 1.92857 13.524 1.89286C13.4984 1.83929 13.492 1.85714 13.5048 1.94643ZM17.6542 1.57143C17.6542 1.55357 17.6286 1.54464 17.5774 1.54464C17.6286 1.50893 17.6862 1.51786 17.7503 1.57143C17.8143 1.60714 17.7823 1.60714 17.6542 1.57143ZM11.1804 1.00893C11.1804 0.991071 11.1804 0.982143 11.1804 0.982143C11.1932 0.964286 11.1996 0.946429 11.1996 0.928571C11.1612 0.928571 11.1355 0.9375 11.1227 0.955357C11.1099 0.973214 11.0843 0.964286 11.0459 0.928571C11.0203 0.982143 11.0267 1.00893 11.0651 1.00893C11.1163 0.991071 11.1548 0.991071 11.1804 1.00893ZM3.16969 1.33036C3.23372 1.33036 3.27855 1.3125 3.30416 1.27679C3.27855 1.27679 3.24653 1.26786 3.20811 1.25C3.1825 1.23214 3.16969 1.25893 3.16969 1.33036ZM11.1419 0.633928C11.1163 0.651786 11.0779 0.651786 11.0267 0.633928C10.9755 0.598214 10.9434 0.598214 10.9306 0.633928C10.9562 0.633928 10.9883 0.642857 11.0267 0.660714C11.0779 0.678571 11.1163 0.669643 11.1419 0.633928ZM9.02882 0.633928C9.0032 0.633928 8.96478 0.633928 8.91355 0.633928C8.86233 0.633928 8.85592 0.651786 8.89434 0.6875C8.89434 0.669643 8.90075 0.660714 8.91355 0.660714C8.93917 0.678571 8.97759 0.6875 9.02882 0.6875C9.09285 0.6875 9.09285 0.669643 9.02882 0.633928ZM11.4877 1.57143C11.5133 1.57143 11.5454 1.58036 11.5838 1.59821C11.635 1.61607 11.667 1.60714 11.6798 1.57143C11.6542 1.58929 11.6158 1.58929 11.5646 1.57143C11.5261 1.53571 11.5005 1.53571 11.4877 1.57143ZM13.1974 0.741072C13.2231 0.741072 13.2551 0.75 13.2935 0.767857C13.3447 0.785714 13.3767 0.776786 13.3895 0.741072C13.3639 0.741072 13.3255 0.732143 13.2743 0.714286C13.2359 0.696429 13.2102 0.705357 13.1974 0.741072ZM6.07044 1.4375C6.17289 1.47321 6.24973 1.46429 6.30096 1.41071C6.23693 1.42857 6.1921 1.42857 6.16649 1.41071C6.14088 1.39286 6.10886 1.40179 6.07044 1.4375ZM10.2775 0.633928C10.3031 0.633928 10.3351 0.642857 10.3735 0.660714C10.412 0.678571 10.4376 0.669643 10.4504 0.633928C10.4248 0.633928 10.3927 0.625 10.3543 0.607143C10.3159 0.589285 10.2903 0.598214 10.2775 0.633928ZM9.52828 0.633928C9.50267 0.633928 9.47065 0.625 9.43223 0.607143C9.39381 0.589285 9.3682 0.598214 9.35539 0.633928C9.381 0.633928 9.41302 0.642857 9.45144 0.660714C9.48986 0.678571 9.51548 0.669643 9.52828 0.633928ZM9.10566 0.660714C9.13127 0.642857 9.16329 0.642857 9.20171 0.660714C9.24013 0.678571 9.26574 0.669643 9.27855 0.633928C9.25294 0.651786 9.22092 0.651786 9.1825 0.633928C9.14408 0.616071 9.11846 0.625 9.10566 0.660714ZM7.3191 0.714286C7.34472 0.714286 7.37673 0.723214 7.41516 0.741072C7.45358 0.758928 7.47919 0.75 7.492 0.714286C7.46638 0.714286 7.43437 0.705357 7.39595 0.6875C7.35752 0.669643 7.33191 0.678571 7.3191 0.714286ZM13.8506 1.27679C13.8762 1.25893 13.9082 1.25893 13.9466 1.27679C13.9851 1.29464 14.0107 1.28571 14.0235 1.25C13.9979 1.26786 13.9658 1.26786 13.9274 1.25C13.889 1.23214 13.8634 1.24107 13.8506 1.27679ZM15.0993 2.29464C15.0736 2.33036 15.08 2.35714 15.1185 2.375C15.1697 2.39286 15.1953 2.38393 15.1953 2.34821C15.1441 2.3125 15.1121 2.29464 15.0993 2.29464ZM11.4109 0.633928C11.3853 0.633928 11.3533 0.625 11.3148 0.607143C11.2764 0.589285 11.2572 0.598214 11.2572 0.633928C11.2828 0.633928 11.3084 0.642857 11.334 0.660714C11.3725 0.678571 11.3981 0.669643 11.4109 0.633928ZM16.7513 3.04464C16.7513 3.00893 16.7193 2.97321 16.6553 2.9375C16.6553 2.97321 16.6873 3.00893 16.7513 3.04464ZM9.91249 1.46429C9.9381 1.44643 9.97012 1.44643 10.0085 1.46429C10.047 1.48214 10.0662 1.47321 10.0662 1.4375C10.0406 1.45536 10.0085 1.45536 9.97012 1.4375C9.9445 1.41964 9.92529 1.42857 9.91249 1.46429ZM0.979723 1.59821C1.00534 1.58036 1.03095 1.58036 1.05656 1.59821C1.09498 1.61607 1.10779 1.59821 1.09498 1.54464C1.03095 1.54464 0.992529 1.5625 0.979723 1.59821ZM7.54963 0.714286C7.57524 0.696429 7.60085 0.696429 7.62647 0.714286C7.66489 0.732143 7.6841 0.723214 7.6841 0.6875C7.65848 0.705357 7.63287 0.705357 7.60726 0.6875C7.58164 0.669643 7.56243 0.678571 7.54963 0.714286ZM7.81857 1.41071C7.84418 1.39286 7.8698 1.39286 7.89541 1.41071C7.93383 1.42857 7.95304 1.41964 7.95304 1.38393C7.92743 1.40179 7.90181 1.40179 7.8762 1.38393C7.85059 1.36607 7.83138 1.375 7.81857 1.41071ZM6.22412 0.794643C6.24973 0.776785 6.27535 0.776785 6.30096 0.794643C6.32657 0.8125 6.34578 0.803571 6.35859 0.767857C6.33298 0.785714 6.30096 0.785714 6.26254 0.767857C6.23693 0.75 6.22412 0.758929 6.22412 0.794643ZM13.2166 1.83929C13.2295 1.85714 13.2487 1.875 13.2743 1.89286C13.3127 1.91071 13.3319 1.90179 13.3319 1.86607C13.2679 1.83036 13.2295 1.82143 13.2166 1.83929ZM8.02988 1.38393C8.0555 1.38393 8.08111 1.39286 8.10672 1.41071C8.13234 1.42857 8.15155 1.41964 8.16435 1.38393C8.13874 1.38393 8.10672 1.375 8.0683 1.35714C8.04269 1.33929 8.02988 1.34821 8.02988 1.38393ZM13.3511 1.89286C13.3767 1.875 13.4023 1.875 13.428 1.89286C13.4536 1.91071 13.4664 1.90179 13.4664 1.86607C13.4408 1.88393 13.4152 1.88393 13.3895 1.86607C13.3639 1.84821 13.3511 1.85714 13.3511 1.89286ZM10.7962 0.633928C10.7705 0.633928 10.7385 0.633928 10.7001 0.633928C10.6745 0.616071 10.6617 0.625 10.6617 0.660714C10.6873 0.642857 10.7129 0.642857 10.7385 0.660714C10.7769 0.678571 10.7962 0.669643 10.7962 0.633928ZM8.6254 0.660714C8.65101 0.660714 8.67663 0.669643 8.70224 0.6875C8.74066 0.6875 8.75987 0.669643 8.75987 0.633928C8.73426 0.651786 8.70224 0.651786 8.66382 0.633928C8.63821 0.616071 8.6254 0.625 8.6254 0.660714ZM3.82284 1.22321C3.7588 1.22321 3.73959 1.23214 3.76521 1.25C3.79082 1.26786 3.82284 1.27679 3.86126 1.27679C3.91249 1.25893 3.89968 1.24107 3.82284 1.22321ZM14.6958 2.16071H14.6574C14.6446 2.17857 14.6382 2.20536 14.6382 2.24107H14.6958V2.16071ZM9.77802 1.4375C9.80363 1.4375 9.82924 1.44643 9.85486 1.46429C9.88047 1.48214 9.89328 1.47321 9.89328 1.4375C9.86766 1.4375 9.84205 1.42857 9.81644 1.41071C9.79082 1.39286 9.77802 1.40179 9.77802 1.4375ZM11.699 1.59821C11.7247 1.59821 11.7503 1.60714 11.7759 1.625C11.8015 1.64286 11.8143 1.63393 11.8143 1.59821C11.7887 1.59821 11.7631 1.58929 11.7375 1.57143C11.7118 1.55357 11.699 1.5625 11.699 1.59821ZM3.97652 1.00893C3.95091 1.00893 3.92529 1 3.89968 0.982143C3.87407 0.964286 3.86126 0.973214 3.86126 1.00893C3.88687 1.00893 3.91249 1.01786 3.9381 1.03571C3.96371 1.05357 3.97652 1.04464 3.97652 1.00893ZM17.2124 1.97321C17.174 1.97321 17.1547 1.97321 17.1547 1.97321C17.1676 1.99107 17.174 2.00893 17.174 2.02679C17.174 2.04464 17.1868 2.05357 17.2124 2.05357V1.97321ZM12.6788 1.03571C12.6531 1.03571 12.6275 1.03571 12.6019 1.03571C12.5763 1.01786 12.5635 1.02679 12.5635 1.0625C12.5891 1.04464 12.6147 1.04464 12.6403 1.0625C12.666 1.08036 12.6788 1.07143 12.6788 1.03571ZM6.47385 0.767857C6.46105 0.767857 6.44184 0.758928 6.41622 0.741072C6.39061 0.723214 6.3778 0.732143 6.3778 0.767857C6.39061 0.767857 6.40982 0.776785 6.43543 0.794643C6.46105 0.8125 6.47385 0.803571 6.47385 0.767857ZM15.2529 2.34821H15.2145C15.2145 2.36607 15.2081 2.38393 15.1953 2.40179H15.2529V2.34821ZM12.7748 0.714286C12.762 0.696429 12.7428 0.696429 12.7172 0.714286C12.7044 0.714286 12.7108 0.723214 12.7364 0.741072C12.762 0.758928 12.7812 0.75 12.794 0.714286C12.8068 0.660714 12.8004 0.660714 12.7748 0.714286ZM2.2476 1.8125C2.27321 1.8125 2.28602 1.82143 2.28602 1.83929C2.28602 1.85714 2.29242 1.84821 2.30523 1.8125C2.30523 1.79464 2.29883 1.78571 2.28602 1.78571C2.27321 1.76786 2.26041 1.77679 2.2476 1.8125ZM3.40021 1.30357C3.43863 1.30357 3.45784 1.28571 3.45784 1.25C3.41942 1.25 3.40021 1.26786 3.40021 1.30357ZM9.75881 0.633928H9.81644C9.85486 0.633928 9.85486 0.633928 9.81644 0.633928C9.79082 0.633928 9.75881 0.633928 9.72039 0.633928C9.69477 0.633928 9.67556 0.633928 9.66275 0.633928C9.66275 0.633928 9.69477 0.633928 9.75881 0.633928ZM10.2006 0.982143C10.2519 0.982143 10.2775 0.973214 10.2775 0.955357C10.2263 0.955357 10.2006 0.964286 10.2006 0.982143ZM10.6425 0.607143C10.6041 0.607143 10.5784 0.616071 10.5656 0.633928C10.6169 0.633928 10.6425 0.625 10.6425 0.607143ZM11.3917 1.57143C11.4429 1.57143 11.4685 1.5625 11.4685 1.54464C11.4301 1.54464 11.4045 1.55357 11.3917 1.57143ZM11.8335 1.625C11.8463 1.625 11.8527 1.63393 11.8527 1.65179C11.8655 1.66964 11.8719 1.66071 11.8719 1.625C11.8719 1.55357 11.8591 1.55357 11.8335 1.625ZM7.6841 1.49107C7.73533 1.49107 7.76094 1.48214 7.76094 1.46429C7.72252 1.46429 7.69691 1.47321 7.6841 1.49107ZM4.57204 1.16964C4.57204 1.16964 4.59765 1.16964 4.64888 1.16964C4.64888 1.16964 4.62327 1.16964 4.57204 1.16964ZM7.8762 0.6875C7.83778 0.6875 7.81857 0.696429 7.81857 0.714286C7.85699 0.714286 7.8762 0.705357 7.8762 0.6875ZM4.3031 1.22321C4.34152 1.22321 4.36073 1.21429 4.36073 1.19643C4.32231 1.19643 4.3031 1.20536 4.3031 1.22321ZM4.37994 1.19643C4.41836 1.19643 4.44397 1.1875 4.45678 1.16964C4.41836 1.16964 4.39274 1.17857 4.37994 1.19643ZM13.8122 2C13.8506 2 13.8698 1.99107 13.8698 1.97321C13.8314 1.97321 13.8122 1.98214 13.8122 2ZM5.80149 0.821428C5.83991 0.821428 5.85913 0.8125 5.85913 0.794643C5.8207 0.794643 5.80149 0.803571 5.80149 0.821428ZM10.508 1.49107C10.5464 1.49107 10.572 1.48214 10.5848 1.46429C10.5336 1.46429 10.508 1.47321 10.508 1.49107ZM5.68623 0.821428C5.68623 0.821428 5.71185 0.821428 5.76307 0.821428C5.76307 0.821428 5.73746 0.821428 5.68623 0.821428ZM3.32337 1.30357C3.36179 1.30357 3.381 1.29464 3.381 1.27679C3.34258 1.27679 3.32337 1.28571 3.32337 1.30357ZM10.0854 1.49107C10.1366 1.45536 10.1622 1.44643 10.1622 1.46429C10.111 1.46429 10.0854 1.47321 10.0854 1.49107ZM14.8495 0.901786C14.8111 0.901786 14.7919 0.910714 14.7919 0.928571C14.8303 0.928571 14.8495 0.919643 14.8495 0.901786ZM13.2743 1.11607C13.3127 1.11607 13.3319 1.10714 13.3319 1.08929C13.2935 1.08929 13.2743 1.09821 13.2743 1.11607ZM4.74493 1.16964C4.78335 1.16964 4.80256 1.16071 4.80256 1.14286C4.76414 1.14286 4.74493 1.15179 4.74493 1.16964ZM4.32231 1.57143C4.32231 1.57143 4.34152 1.57143 4.37994 1.57143C4.37994 1.57143 4.36073 1.57143 4.32231 1.57143ZM15.5219 2.50893C15.5347 2.49107 15.5475 2.49107 15.5603 2.50893C15.5731 2.50893 15.5795 2.5 15.5795 2.48214C15.5411 2.48214 15.5219 2.49107 15.5219 2.50893ZM6.10886 0.794643C6.08324 0.794643 6.07044 0.803571 6.07044 0.821428C6.09605 0.785714 6.10886 0.776785 6.10886 0.794643ZM7.10779 1.41071C7.1334 1.375 7.14621 1.36607 7.14621 1.38393C7.1206 1.38393 7.10779 1.39286 7.10779 1.41071ZM4.20704 0.982143C4.20704 0.964286 4.21345 0.964286 4.22625 0.982143C4.23906 0.982143 4.25187 0.973214 4.26467 0.955357C4.26467 0.973214 4.24546 0.982143 4.20704 0.982143ZM4.95624 1.16964C4.98186 1.13393 4.99466 1.125 4.99466 1.14286C4.96905 1.14286 4.95624 1.15179 4.95624 1.16964ZM17.9424 1.70536C17.9552 1.6875 17.9744 1.67857 18 1.67857C18 1.69643 17.9808 1.70536 17.9424 1.70536ZM6.35859 1.41071C6.38421 1.41071 6.40342 1.40179 6.41622 1.38393C6.3778 1.38393 6.35859 1.39286 6.35859 1.41071ZM13.6969 0.767857C13.6713 0.767857 13.6521 0.776785 13.6393 0.794643C13.6777 0.794643 13.6969 0.785714 13.6969 0.767857ZM13.4472 0.767857C13.4728 0.767857 13.492 0.758928 13.5048 0.741072C13.4664 0.741072 13.4472 0.75 13.4472 0.767857ZM17.7695 1.78571L17.8271 1.83929C17.8143 1.83929 17.8015 1.83929 17.7887 1.83929C17.7887 1.82143 17.7823 1.8125 17.7695 1.8125V1.78571ZM1.4984 1.91964C1.53682 1.91964 1.55603 1.91071 1.55603 1.89286C1.53042 1.89286 1.51121 1.90179 1.4984 1.91964ZM15.0224 0.928571C14.9968 0.928571 14.9776 0.9375 14.9648 0.955357C15.0032 0.955357 15.0224 0.946429 15.0224 0.928571ZM10.9114 0.607143C10.873 0.607143 10.8538 0.616071 10.8538 0.633928C10.8794 0.633928 10.8986 0.625 10.9114 0.607143ZM15.1569 1.35714C15.1185 1.35714 15.0993 1.36607 15.0993 1.38393C15.1249 1.38393 15.1441 1.375 15.1569 1.35714ZM0.422625 1.46429C0.422625 1.48214 0.435432 1.47321 0.461046 1.4375C0.461046 1.45536 0.448239 1.46429 0.422625 1.46429ZM14.1772 2.08036C14.1772 2.09821 14.19 2.08929 14.2156 2.05357C14.2156 2.07143 14.2028 2.08036 14.1772 2.08036ZM14.7343 2.24107C14.7599 2.24107 14.7727 2.23214 14.7727 2.21429C14.7471 2.21429 14.7343 2.22321 14.7343 2.24107ZM9.64354 1.4375C9.66916 1.4375 9.68196 1.42857 9.68196 1.41071C9.65635 1.41071 9.64354 1.41964 9.64354 1.4375ZM4.59125 1.54464C4.61686 1.54464 4.62967 1.53571 4.62967 1.51786C4.60406 1.51786 4.59125 1.52679 4.59125 1.54464ZM7.47279 1.49107C7.4984 1.49107 7.51121 1.48214 7.51121 1.46429C7.48559 1.46429 7.47279 1.47321 7.47279 1.49107ZM14.5229 2.1875C14.5486 2.1875 14.5614 2.17857 14.5614 2.16071C14.5358 2.16071 14.5229 2.16964 14.5229 2.1875ZM4.66809 1.625C4.6937 1.625 4.70651 1.61607 4.70651 1.59821C4.6809 1.59821 4.66809 1.60714 4.66809 1.625ZM0.134472 1.54464C0.160085 1.54464 0.172892 1.53571 0.172892 1.51786C0.147279 1.51786 0.134472 1.52679 0.134472 1.54464ZM4.45678 1.57143C4.48239 1.57143 4.4952 1.5625 4.4952 1.54464C4.46958 1.54464 4.45678 1.55357 4.45678 1.57143ZM17.9039 1.73214C17.9039 1.76786 17.8975 1.78571 17.8847 1.78571C17.8847 1.75 17.8911 1.73214 17.9039 1.73214ZM13.2743 1.14286C13.2487 1.14286 13.2359 1.15179 13.2359 1.16964C13.2615 1.16964 13.2743 1.16071 13.2743 1.14286ZM14.0235 2.05357C14.0491 2.05357 14.0619 2.04464 14.0619 2.02679C14.0363 2.02679 14.0235 2.03571 14.0235 2.05357ZM3.64995 1.03571C3.62433 1.03571 3.61153 1.04464 3.61153 1.0625C3.63714 1.0625 3.64995 1.05357 3.64995 1.03571ZM10.1238 0.928571C10.1494 0.928571 10.1622 0.919643 10.1622 0.901786C10.1366 0.901786 10.1238 0.910714 10.1238 0.928571ZM11.4301 0.660714C11.4557 0.660714 11.4685 0.651786 11.4685 0.633928C11.4429 0.633928 11.4301 0.642857 11.4301 0.660714ZM4.47599 1.19643C4.5016 1.19643 4.51441 1.1875 4.51441 1.16964C4.48879 1.16964 4.47599 1.17857 4.47599 1.19643ZM1.34472 1.25C1.33191 1.26786 1.32551 1.27679 1.32551 1.27679H1.3063C1.3063 1.29464 1.3191 1.28571 1.34472 1.25ZM3.86126 1.625C3.88687 1.625 3.89968 1.61607 3.89968 1.59821C3.87407 1.59821 3.86126 1.60714 3.86126 1.625ZM9.70117 1.4375C9.72679 1.4375 9.7396 1.42857 9.7396 1.41071H9.72039C9.70758 1.41071 9.70117 1.41964 9.70117 1.4375ZM14.5614 1.33036C14.5358 1.33036 14.5229 1.33929 14.5229 1.35714H14.5422C14.5422 1.35714 14.5486 1.34821 14.5614 1.33036ZM9.70117 0.928571C9.68837 0.928571 9.68196 0.9375 9.68196 0.955357C9.70758 0.955357 9.72039 0.946429 9.72039 0.928571H9.70117ZM4.39915 0.955357C4.37353 0.955357 4.36073 0.964286 4.36073 0.982143H4.37994C4.37994 0.982143 4.38634 0.973214 4.39915 0.955357ZM3.30416 1.08929C3.30416 1.08929 3.31057 1.08036 3.32337 1.0625C3.29776 1.0625 3.28495 1.07143 3.28495 1.08929H3.30416ZM11.334 1.57143C11.3597 1.57143 11.3725 1.5625 11.3725 1.54464H11.3533C11.3404 1.54464 11.334 1.55357 11.334 1.57143ZM11.4301 0.928571C11.4301 0.946429 11.4173 0.955357 11.3917 0.955357C11.3917 0.973214 11.4045 0.964286 11.4301 0.928571ZM5.35966 1.49107C5.35966 1.50893 5.37247 1.5 5.39808 1.46429C5.39808 1.48214 5.38527 1.49107 5.35966 1.49107ZM14.0427 1.27679C14.0427 1.29464 14.0555 1.28571 14.0811 1.25C14.0811 1.26786 14.0683 1.27679 14.0427 1.27679ZM4.76414 1.54464C4.78975 1.50893 4.80256 1.5 4.80256 1.51786C4.77695 1.51786 4.76414 1.52679 4.76414 1.54464ZM14.2348 2.10714C14.2604 2.07143 14.2732 2.0625 14.2732 2.08036H14.254C14.2412 2.08036 14.2348 2.08929 14.2348 2.10714ZM17.3661 1.4375C17.3661 1.41964 17.3533 1.42857 17.3276 1.46429C17.3276 1.44643 17.3404 1.4375 17.3661 1.4375ZM17.5005 1.46429C17.4749 1.5 17.4621 1.50893 17.4621 1.49107C17.4877 1.49107 17.5005 1.48214 17.5005 1.46429ZM17.5582 1.51786C17.5582 1.5 17.5454 1.50893 17.5197 1.54464C17.5197 1.54464 17.5261 1.53571 17.539 1.51786H17.5582Z" fill="black"/>
</svg>
