<svg width="129" height="128" viewBox="0 0 129 128" fill="none" xmlns="http://www.w3.org/2000/svg">
<path fill-rule="evenodd" clip-rule="evenodd" d="M88.5379 42.812C90.1429 47.455 91.2989 52.195 91.6789 57.108C92.1509 63.203 91.9349 69.255 90.6499 75.25C90.6149 75.415 90.5409 75.57 90.4859 75.73C90.0829 75.731 89.6719 75.681 89.2779 75.742C85.9489 76.265 82.6229 76.807 79.2969 77.346C75.8589 77.903 72.4159 78.438 68.9839 79.033C67.7679 79.243 66.2629 78.992 65.7719 80.674C65.7579 80.72 65.6179 80.728 65.5369 80.754L65.7029 70.703L65.5339 46.451L67.1359 46.176C69.7559 45.747 72.3759 45.312 74.9979 44.895C78.1269 44.398 81.2589 43.915 84.3899 43.43C85.7709 43.215 87.1539 43.018 88.5379 42.812Z" fill="#E4E4E4"/>
<path fill-rule="evenodd" clip-rule="evenodd" d="M62.229 110.054C60.539 108.601 58.79 107.212 57.17 105.684C48.453 97.4619 42.077 87.7849 38.937 76.1179C38.072 72.9069 37.495 69.6439 37.31 66.3259C37.18 64.0039 36.992 61.6609 37.156 59.3509C37.593 53.2069 38.481 47.1219 40.283 41.2039L40.382 41.0659C40.557 41.2989 40.809 41.5049 40.898 41.7679C42.657 46.9479 44.403 52.1319 46.14 57.3189C51.598 73.6189 57.049 89.9229 62.516 106.219C62.623 106.537 62.9 106.798 63.099 107.085L62.229 110.054Z" fill="#E1E1E1"/>
<path fill-rule="evenodd" clip-rule="evenodd" d="M88.538 42.8121C87.154 43.0181 85.77 43.2151 84.389 43.4281C81.258 43.9131 78.126 44.3961 74.997 44.8931C72.375 45.3101 69.755 45.7451 67.135 46.1741L65.533 46.4491L65.521 45.4041C65.468 44.5451 65.377 43.6871 65.367 42.8281C65.298 37.3501 65.255 31.8721 65.187 26.3941C65.145 22.9651 65.082 19.5371 65.012 16.1091C64.969 13.9791 64.923 11.8481 64.827 9.72109C64.775 8.57809 64.591 7.44109 64.516 6.29809C64.474 5.64109 64.532 4.97909 64.545 4.31909C65.362 5.90209 66.161 7.49709 67.001 9.06809C68.328 11.5521 70.442 13.3821 72.345 15.3791C79.868 23.2711 85.209 32.4471 88.538 42.8121Z" fill="#F1F1F1"/>
<path fill-rule="evenodd" clip-rule="evenodd" d="M65.5359 80.753C65.6169 80.727 65.7579 80.719 65.7709 80.673C66.2619 78.991 67.7669 79.242 68.9829 79.032C72.4149 78.438 75.8579 77.902 79.2959 77.345C82.6219 76.806 85.9479 76.264 89.2769 75.741C89.6709 75.679 90.0819 75.73 90.4849 75.729C89.8629 77.949 89.3729 80.217 88.5839 82.376C87.6879 84.825 86.6039 87.215 85.4529 89.558C83.7298 93.0527 81.5972 96.33 79.0999 99.321C77.1809 101.629 75.0419 103.762 72.8979 105.869C71.7129 107.034 70.3159 107.983 69.0159 109.03L68.6789 108.8L67.4649 107.762L66.2089 105.009C65.351 101.798 64.883 98.4944 64.8149 95.171L64.8379 94.61L65.0089 92.184C65.0659 91.356 65.1419 90.529 65.1769 89.699C65.3059 86.717 65.4179 83.735 65.5359 80.753Z" fill="#E0E0E0"/>
<path fill-rule="evenodd" clip-rule="evenodd" d="M65.5361 80.7531C65.4181 83.7351 65.3061 86.7171 65.1791 89.7001C65.1441 90.5301 65.0681 91.3571 65.0111 92.1851L64.2461 92.4741C62.5471 87.4721 60.8471 82.5231 59.1841 77.5611C56.4341 69.3521 53.7171 61.1301 50.9711 52.9191C48.7532 46.2916 46.5198 39.6692 44.2711 33.0521C44.1661 32.7421 43.8641 32.5001 43.6541 32.2261L48.5501 23.2241C48.7181 23.5161 48.9401 23.7891 49.0461 24.1031C51.3136 30.8052 53.5696 37.5112 55.8141 44.2211C58.7301 52.9511 61.6281 61.6881 64.5421 70.4191C64.6581 70.7681 64.85 71.0901 65.0331 71.4811L65.7031 70.7011L65.5361 80.7531Z" fill="#F3F3F3"/>
<path fill-rule="evenodd" clip-rule="evenodd" d="M43.6551 32.2271C43.8651 32.5011 44.1661 32.7431 44.2721 33.0531C46.5208 39.6702 48.7542 46.2925 50.9721 52.92C53.7181 61.131 56.4351 69.353 59.1851 77.562C60.8471 82.523 62.5471 87.473 64.2471 92.475L65.0121 92.186L64.8411 94.612L64.6861 95.171C64.4201 97.827 64.1961 100.489 63.8721 103.139C63.7091 104.467 63.3631 105.771 63.1001 107.086C62.9021 106.799 62.6241 106.538 62.5171 106.22C57.0501 89.923 51.5991 73.62 46.1411 57.32C44.4047 52.1327 42.6573 46.949 40.8991 41.7691C40.8101 41.5061 40.5591 41.3001 40.3831 41.0671L43.6551 32.2271Z" fill="#EDEDED"/>
<path fill-rule="evenodd" clip-rule="evenodd" d="M65.7021 70.702L65.0321 71.482C64.8491 71.091 64.6571 70.768 64.5411 70.42C61.6281 61.689 58.7291 52.952 55.8131 44.222C53.5686 37.5121 51.3126 30.8061 49.0451 24.104C48.9401 23.79 48.7181 23.516 48.5491 23.225L54.6041 15.26C54.7951 15.515 55.0671 15.742 55.1661 16.029C56.8471 20.95 58.5131 25.877 60.1691 30.807C61.7161 35.411 63.2401 40.022 64.8051 44.62C64.9101 44.928 65.2751 45.146 65.5191 45.406L65.5311 46.451C65.5891 54.533 65.6461 62.618 65.7021 70.702Z" fill="#F8F8F8"/>
<path fill-rule="evenodd" clip-rule="evenodd" d="M65.521 45.404C65.277 45.144 64.912 44.926 64.807 44.618C63.242 40.02 61.718 35.409 60.171 30.805C58.515 25.875 56.849 20.949 55.168 16.027C55.069 15.74 54.797 15.513 54.606 15.258C56.575 13.33 58.483 11.333 60.531 9.49396C62.352 7.85996 63.816 6.10796 63.883 3.52596C63.886 3.41896 63.942 3.31196 64.028 3.01196L64.547 4.31796C64.534 4.97896 64.475 5.63996 64.518 6.29696C64.593 7.43996 64.777 8.57696 64.829 9.71996C64.925 11.847 64.971 13.978 65.014 16.108C65.083 19.536 65.146 22.964 65.189 26.393C65.256 31.871 65.3 37.349 65.369 42.827C65.377 43.688 65.467 44.545 65.521 45.404Z" fill="white"/>
<path fill-rule="evenodd" clip-rule="evenodd" d="M63.098 107.085C63.361 105.77 63.707 104.465 63.87 103.138C64.195 100.489 64.418 97.8259 64.684 95.1699L64.75 95.1599L64.816 95.1709C64.8841 98.4943 65.3521 101.797 66.21 105.009C66.034 105.241 65.785 105.448 65.692 105.71C64.965 107.76 64.28 109.826 63.549 111.876C63.449 112.156 63.171 112.374 62.975 112.62L62.228 110.054L63.098 107.085Z" fill="#DCDCDC"/>
<path fill-rule="evenodd" clip-rule="evenodd" d="M62.9761 112.621C63.1721 112.375 63.4511 112.157 63.5501 111.877C64.2811 109.827 64.9671 107.762 65.6931 105.711C65.7861 105.449 66.0341 105.242 66.2111 105.01L67.4661 107.764C67.2181 108.116 66.8761 108.433 66.7381 108.825L64.3341 115.884C64.2351 116.167 63.8971 116.367 63.6711 116.606L62.9761 112.621Z" fill="#D6D6D6"/>
<path fill-rule="evenodd" clip-rule="evenodd" d="M63.6709 116.605C63.8979 116.367 64.2349 116.166 64.3339 115.883L66.7379 108.824C66.8749 108.433 67.2179 108.115 67.4659 107.763L68.6809 108.8C68.0939 109.38 67.7679 110.05 67.9639 110.897L67.5949 112.105C67.4269 112.312 67.1839 112.492 67.1009 112.729C66.2619 115.132 65.4609 117.548 64.6159 119.951C64.5089 120.256 64.2119 120.495 64.0019 120.763C63.8929 119.376 63.7819 117.992 63.6709 116.605Z" fill="#EDEDED"/>
<path fill-rule="evenodd" clip-rule="evenodd" d="M64.003 120.763C64.212 120.494 64.509 120.255 64.617 119.951C65.462 117.549 66.263 115.133 67.102 112.729C67.185 112.493 67.427 112.312 67.596 112.105L67.087 117.65C66.951 117.807 66.754 117.944 66.689 118.127C66.114 119.741 65.572 121.367 64.995 122.981C64.876 123.314 64.648 123.608 64.47 123.919C64.312 123.712 64.029 123.512 64.016 123.296C63.965 122.455 64 121.608 64.003 120.763Z" fill="white"/>
<path fill-rule="evenodd" clip-rule="evenodd" d="M64.469 123.919C64.647 123.607 64.875 123.313 64.994 122.981C65.572 121.368 66.113 119.742 66.688 118.127C66.753 117.944 66.951 117.808 67.086 117.65L67.098 121.29L65.88 124.414L64.469 123.919Z" fill="white"/>
<path fill-rule="evenodd" clip-rule="evenodd" d="M65.8799 124.415L67.0979 121.291L67.3489 124.987L65.8799 124.415Z" fill="white"/>
<path fill-rule="evenodd" clip-rule="evenodd" d="M67.9639 110.898C67.7679 110.051 68.0929 109.38 68.6809 108.801L69.0179 109.031L67.9639 110.898Z" fill="white" fill-opacity="0.8"/>
<path fill-rule="evenodd" clip-rule="evenodd" d="M64.8161 95.1721L64.7501 95.1611L64.6841 95.1711L64.8391 94.6121L64.8161 95.1721Z" fill="#4FAA41"/>
</svg>
