<svg width="129" height="128" viewBox="0 0 129 128" fill="none" xmlns="http://www.w3.org/2000/svg">
<path d="M76.457 122.307C68.225 122.307 65.617 115.788 64.55 113.122C62.988 109.215 62.651 94.0531 62.999 81.6191C63.0041 81.4094 63.0507 81.2028 63.1361 81.0112C63.2215 80.8196 63.3439 80.6468 63.4963 80.5027C63.6488 80.3587 63.8282 80.2462 64.0243 80.1718C64.2204 80.0973 64.4293 80.0624 64.639 80.0691C64.8484 80.0748 65.0547 80.1217 65.2459 80.2072C65.4372 80.2927 65.6098 80.415 65.7537 80.5673C65.8977 80.7195 66.0102 80.8986 66.0849 81.0944C66.1596 81.2901 66.195 81.4987 66.189 81.7081C65.788 96.0491 66.357 109.045 67.513 111.937C69.317 116.446 72.053 120.39 79.788 118.733C87.131 117.158 89.881 114.374 91.106 107.273C92.046 101.824 93.905 86.3221 94.134 83.2631C94.1493 83.0541 94.2057 82.8501 94.3 82.6629C94.3943 82.4757 94.5246 82.3089 94.6834 82.1722C94.8423 82.0354 95.0266 81.9314 95.2257 81.866C95.4249 81.8006 95.635 81.7751 95.844 81.7911C96.2658 81.8231 96.6577 82.0211 96.9336 82.3417C97.2096 82.6623 97.3471 83.0792 97.316 83.5011C97.077 86.6861 95.227 102.158 94.251 107.816C92.805 116.203 89.066 120.007 80.457 121.853C78.994 122.166 77.665 122.306 76.457 122.307ZM31.821 90.4661C31.1014 90.4636 30.387 90.3455 29.705 90.1161C24.358 88.3321 19.265 79.6241 14.567 64.2311C10.991 52.5141 8.72496 40.2841 8.52596 36.3091C7.93696 24.5251 10.971 16.1881 17.546 11.5311C30.553 2.3151 52.434 11.0911 53.359 11.4691C53.7508 11.6292 54.063 11.9383 54.227 12.3286C54.3909 12.7188 54.393 13.1582 54.233 13.5501C54.0729 13.942 53.7637 14.2542 53.3735 14.4181C52.9832 14.582 52.5438 14.5842 52.152 14.4241C51.941 14.3381 30.959 5.9321 19.384 14.1391C13.762 18.1251 11.181 25.5311 11.712 36.1501C11.879 39.4991 13.996 51.4351 17.618 63.2991C21.812 77.0411 26.585 85.7121 30.714 87.0891C31.362 87.3051 33.334 87.9621 36.153 84.5721C39.4404 80.6239 42.8511 76.78 46.38 73.0461C46.6752 72.7516 47.0741 72.5843 47.4911 72.5802C47.9081 72.576 48.3102 72.7352 48.6113 73.0238C48.9124 73.3124 49.0886 73.7073 49.1022 74.1241C49.1158 74.541 48.9657 74.9466 48.684 75.2541C48.636 75.3041 43.837 80.3211 38.607 86.6131C36.13 89.5921 33.756 90.4661 31.821 90.4661ZM101.25 77.0211C100.961 77.0207 100.677 76.9417 100.429 76.7925C100.181 76.6434 99.9786 76.4296 99.8428 76.1742C99.707 75.9188 99.6432 75.6313 99.6582 75.3424C99.6732 75.0535 99.7665 74.7741 99.928 74.5341C114.791 52.4791 120.008 25.8301 115.54 20.1201C109.916 12.9341 101.975 9.1811 91.936 8.9641C84.503 8.8041 78.595 10.7021 77.629 11.0331L77.386 11.1321C76.415 11.4371 75.67 10.9051 75.389 10.2831C75.2287 9.92673 75.2045 9.52405 75.3207 9.15102C75.4369 8.77798 75.6857 8.46037 76.02 8.2581C76.066 8.2311 76.212 8.1691 76.449 8.0821C78.09 7.4811 84.088 5.6811 91.517 5.7661C102.625 5.8841 111.801 10.1671 118.051 18.1541C121.008 21.9331 121.015 30.6391 118.07 42.0411C115.068 53.6661 109.419 66.1591 102.573 76.3181C102.267 76.7751 101.763 77.0211 101.25 77.0211ZM102.01 87.2311C99.472 87.2311 97.197 86.8731 95.835 86.0571C94.435 85.2181 94.168 84.0781 94.133 83.4731C93.751 76.7631 97.453 75.5951 99.341 75.0621C99.078 74.6641 98.704 74.1961 98.317 73.7131C97.216 72.3371 95.708 70.4531 94.546 67.6351C94.364 67.1951 93.794 66.1721 93.134 64.9871C89.555 58.5691 82.108 45.2141 86.892 38.3751C89.106 35.2101 93.515 33.9641 100.011 34.6591C98.1 28.8371 89 10.6251 67.407 10.2711C60.913 10.1631 55.587 12.1601 51.585 16.2011C42.625 25.2501 42.949 41.6231 42.954 41.7871C42.9595 41.9966 42.9237 42.205 42.8486 42.4007C42.7736 42.5963 42.6607 42.7752 42.5165 42.9272C42.3723 43.0792 42.1995 43.2014 42.0081 43.2866C41.8167 43.3719 41.6104 43.4186 41.401 43.4241C41.1915 43.4296 40.983 43.3938 40.7874 43.3188C40.5918 43.2437 40.4128 43.1308 40.2608 42.9866C40.1088 42.8424 39.9867 42.6697 39.9014 42.4783C39.8162 42.2869 39.7695 42.0806 39.764 41.8711C39.744 41.1441 39.41 23.9621 49.318 13.9551C53.955 9.2721 60.059 6.9601 67.46 7.0811C81.274 7.3081 90.166 14.3311 95.192 20.1821C100.671 26.5591 103.357 33.5931 103.578 35.9411C103.743 37.6871 102.49 38.0361 102.237 38.0881L101.661 38.1011C95.286 37.0801 91.196 37.7891 89.505 40.2051C85.866 45.4061 92.911 58.0391 95.919 63.4341C96.687 64.8101 97.241 65.8051 97.495 66.4191C98.483 68.8151 99.772 70.4251 100.807 71.7191C101.718 72.8571 102.507 73.8441 102.789 75.0021C102.92 75.2321 104.779 77.9821 115.81 75.7051C118.575 75.1351 120.233 75.6221 120.74 77.1551C121.737 80.1701 116.143 83.6871 113.046 85.1251C110.271 86.4151 105.842 87.2311 102.01 87.2311ZM97.314 83.2101C97.664 83.5631 99.415 84.1721 103.041 84.0161C106.265 83.8781 109.665 83.1771 111.705 82.2301C114.314 81.0181 116.056 79.6631 116.958 78.7381L116.458 78.8301C109.405 80.2861 104.416 80.0921 101.63 78.2531C101.443 78.1294 101.263 77.9955 101.09 77.8521C100.788 77.9711 100.509 78.0491 100.31 78.1051C98.73 78.5481 97.096 79.0071 97.314 83.2101ZM51.752 92.1251C50 92.1251 48.156 91.8861 46.273 91.4151C44.322 90.9271 41.033 89.4581 41.083 87.0451C41.14 84.3381 45.077 83.5261 46.559 83.2211C51.913 82.1181 52.262 81.6761 53.935 79.5511C54.423 78.9321 55.03 78.1611 55.858 77.2371C57.087 75.8611 58.43 75.1641 59.85 75.1641C60.839 75.1641 61.65 75.4991 62.186 75.7221C63.894 76.4301 65.319 78.1421 65.905 80.1891C66.434 82.0361 66.181 83.8141 65.195 85.1951C61.958 89.7281 57.309 92.1251 51.752 92.1251ZM44.53 87.1821C45.011 87.5541 45.975 88.0511 47.048 88.3191C48.679 88.7271 50.261 88.9341 51.753 88.9341C56.299 88.9341 59.949 87.0521 62.6 83.3401C63.153 82.5661 62.987 81.5831 62.839 81.0661C62.529 79.9831 61.759 78.9981 60.966 78.6691C60.536 78.4911 60.179 78.3551 59.851 78.3551C59.675 78.3551 59.139 78.3551 58.237 79.3641C57.6145 80.0641 57.0162 80.7852 56.443 81.5261C54.359 84.1721 53.404 85.0701 47.204 86.3471C45.691 86.6571 44.915 86.9731 44.53 87.1821ZM56.799 79.8221C56.4181 79.8215 56.0499 79.6847 55.7611 79.4364C55.4722 79.188 55.2817 78.8446 55.224 78.4681C55.1843 78.2032 55.1576 77.9366 55.144 77.6691C51.08 77.5931 47.159 75.8491 44.182 72.7431C40.418 68.8161 38.705 63.3751 39.483 57.8161C40.328 51.7791 40.012 46.4501 39.842 43.5871C39.795 42.7911 39.761 42.2161 39.763 41.8181C39.766 41.3131 39.776 39.9741 44.252 37.7051C45.844 36.8981 49.036 35.4901 52.523 35.1291C58.3 34.5321 62.108 37.1051 63.248 42.3751C66.325 56.6031 63.492 62.8961 61.423 67.4921C61.038 68.3481 60.674 69.1561 60.383 69.9391L60.126 70.6291C59.033 73.5601 58.088 76.0921 58.378 77.9831C58.4098 78.1902 58.4005 78.4016 58.3507 78.6051C58.3008 78.8086 58.2113 79.0003 58.0873 79.1692C57.9634 79.3381 57.8073 79.481 57.6281 79.5896C57.4489 79.6982 57.2501 79.7704 57.043 79.8021L56.799 79.8221ZM42.964 42.2601L43.026 43.3991C43.202 46.3731 43.53 51.9071 42.642 58.2591C42.001 62.8441 43.401 67.3191 46.485 70.5351C48.922 73.0771 52.129 74.4801 55.425 74.4801H55.493C55.862 72.9251 56.475 71.2831 57.135 69.5141L57.39 68.8281C57.719 67.9441 58.104 67.0881 58.512 66.1821C60.503 61.7581 62.982 56.2511 60.127 43.0501C59.562 40.4351 58.191 38.9221 55.938 38.4231C51.31 37.4011 44.413 40.8821 42.964 42.2601ZM52.594 41.5831C52.514 42.1471 53.627 43.6531 55.079 43.8541C56.528 44.0571 57.768 42.8791 57.847 42.3151C57.926 41.7511 56.814 41.1291 55.362 40.9271C53.911 40.7251 52.671 41.0191 52.594 41.5831ZM55.412 44.4091L55.005 44.3811C54.105 44.2561 53.195 43.6891 52.572 42.8631C52.353 42.5731 51.996 42.0111 52.067 41.5091C52.168 40.7731 53.066 40.3321 54.467 40.3321C54.78 40.3321 55.106 40.3551 55.434 40.4011C56.2 40.5071 56.911 40.7281 57.436 41.0211C58.346 41.5291 58.413 42.0961 58.372 42.3891C58.26 43.2021 56.967 44.4091 55.412 44.4091ZM53.123 41.6771C53.168 42.0251 54.03 43.1731 55.152 43.3281L55.413 43.3461C56.449 43.3461 57.223 42.5311 57.314 42.2641C57.218 42.0821 56.552 41.6301 55.289 41.4541C55.017 41.4151 54.7427 41.3954 54.468 41.3951C53.656 41.3951 53.225 41.5781 53.123 41.6771ZM96.728 40.4321C96.807 40.9961 95.695 42.5021 94.244 42.7041C92.794 42.9061 91.553 41.7291 91.473 41.1651C91.397 40.6011 92.509 39.9781 93.959 39.7771C95.409 39.5741 96.648 39.8691 96.728 40.4321ZM93.909 42.9921C92.513 42.9921 91.308 41.9061 91.209 41.2011C91.094 40.3551 92.487 39.7121 93.921 39.5131C94.237 39.4691 94.55 39.4471 94.851 39.4471C96.089 39.4471 96.909 39.8101 96.991 40.3961C97.044 40.7751 96.753 41.3601 96.252 41.8881C95.921 42.2351 95.226 42.8361 94.279 42.9671L93.909 42.9921ZM94.852 39.9791C94.576 39.9791 94.288 40.0001 93.996 40.0401C92.555 40.2411 91.695 40.8191 91.737 41.1291C91.785 41.4701 92.705 42.4611 93.91 42.4611L94.207 42.4401C94.994 42.3311 95.585 41.8171 95.867 41.5211C96.31 41.0561 96.486 40.6181 96.465 40.4691C96.437 40.2711 95.905 39.9791 94.852 39.9791ZM98.817 72.8221C98.5279 72.8223 98.2442 72.7438 97.9963 72.5951C97.7483 72.4465 97.5455 72.2332 97.4095 71.9781C97.2735 71.723 97.2094 71.4357 97.2241 71.147C97.2388 70.8583 97.3317 70.579 97.493 70.3391C100.891 65.2641 100.269 60.0891 99.668 55.0841C99.411 52.9521 99.147 50.7471 99.215 48.6311C99.285 46.4541 99.562 44.6581 99.829 42.9211C100.146 40.8631 100.446 38.9191 100.322 36.6111C100.311 36.4019 100.341 36.1925 100.41 35.9949C100.48 35.7973 100.588 35.6154 100.728 35.4595C100.868 35.3036 101.037 35.1768 101.226 35.0863C101.415 34.9958 101.62 34.9434 101.829 34.9321C102.038 34.9208 102.248 34.9508 102.445 35.0204C102.643 35.0901 102.825 35.1979 102.981 35.3379C103.136 35.4778 103.263 35.6471 103.354 35.836C103.444 36.025 103.497 36.2299 103.508 36.4391C103.65 39.0771 103.311 41.2771 102.983 43.4061C102.73 45.0491 102.468 46.7481 102.405 48.7331C102.344 50.6071 102.583 52.5971 102.836 54.7031C103.476 60.0251 104.201 66.0571 100.145 72.1141C99.9989 72.3322 99.8013 72.511 99.5696 72.6345C99.338 72.7579 99.0795 72.8224 98.817 72.8221Z" fill="white"/>
</svg>
