<svg width="55" height="58" viewBox="0 0 55 58" fill="none" xmlns="http://www.w3.org/2000/svg">
<path d="M32.926 57.3031C28.9734 57.3031 27.7212 54.1404 27.2088 52.8471C26.4588 50.9516 26.297 43.5959 26.4641 37.5637C26.4666 37.462 26.489 37.3618 26.53 37.2688C26.571 37.1759 26.6297 37.092 26.7029 37.0221C26.7761 36.9522 26.8623 36.8977 26.9565 36.8616C27.0506 36.8255 27.1509 36.8085 27.2516 36.8118C27.3521 36.8145 27.4512 36.8373 27.543 36.8788C27.6349 36.9202 27.7177 36.9796 27.7868 37.0534C27.856 37.1273 27.91 37.2142 27.9458 37.3092C27.9817 37.4041 27.9987 37.5053 27.9958 37.6069C27.8033 44.5643 28.0765 50.8691 28.6315 52.2722C29.4977 54.4597 30.8114 56.3731 34.5253 55.5692C38.0511 54.8051 39.3715 53.4545 39.9596 50.0095C40.411 47.366 41.3036 39.8453 41.4135 38.3613C41.4209 38.2599 41.448 38.1609 41.4932 38.0701C41.5385 37.9793 41.6011 37.8984 41.6774 37.832C41.7536 37.7657 41.8421 37.7152 41.9377 37.6835C42.0334 37.6518 42.1342 37.6394 42.2346 37.6472C42.4371 37.6627 42.6253 37.7587 42.7578 37.9143C42.8903 38.0698 42.9563 38.2721 42.9414 38.4768C42.8266 40.0219 41.9383 47.528 41.4697 50.2729C40.7754 54.3418 38.9801 56.1872 34.8465 57.0828C34.1441 57.2347 33.506 57.3026 32.926 57.3031ZM11.4941 41.8558C11.1486 41.8546 10.8056 41.7972 10.4781 41.686C7.91074 40.8205 5.46535 36.5959 3.20961 29.1281C1.4926 23.4438 0.404589 17.5105 0.30904 15.5821C0.0262328 9.8652 1.483 5.82059 4.63997 3.5613C10.8853 -0.90974 21.3914 3.34784 21.8355 3.53122C22.0237 3.60887 22.1736 3.75886 22.2523 3.94819C22.331 4.13753 22.332 4.35069 22.2552 4.5408C22.1783 4.7309 22.0299 4.88237 21.8425 4.96189C21.6551 5.04141 21.4441 5.04246 21.256 4.96481C21.1547 4.92309 11.0802 0.845008 5.52248 4.82654C2.82309 6.76031 1.58383 10.3532 1.83879 15.5049C1.91898 17.1297 2.93545 22.9203 4.67454 28.676C6.68828 35.3428 8.98003 39.5494 10.9626 40.2174C11.2737 40.3222 12.2205 40.641 13.5741 38.9963C15.1525 37.0809 16.7902 35.2161 18.4846 33.4046C18.6263 33.2617 18.8178 33.1806 19.0181 33.1786C19.2183 33.1766 19.4114 33.2538 19.5559 33.3938C19.7005 33.5338 19.7851 33.7254 19.7916 33.9276C19.7981 34.1299 19.7261 34.3266 19.5908 34.4758C19.5678 34.5001 17.2635 36.934 14.7524 39.9865C13.563 41.4317 12.4232 41.8558 11.4941 41.8558ZM44.8303 35.3331C44.6914 35.3329 44.5551 35.2945 44.4361 35.2222C44.3171 35.1498 44.2198 35.0461 44.1546 34.9222C44.0894 34.7983 44.0588 34.6588 44.066 34.5186C44.0732 34.3785 44.118 34.2429 44.1955 34.1265C51.3319 23.4268 53.8369 10.4983 51.6916 7.72816C48.9912 4.24195 45.1784 2.42122 40.3582 2.31595C36.7892 2.23833 33.9525 3.15912 33.4887 3.3197L33.372 3.36773C32.9058 3.5157 32.5481 3.2576 32.4132 2.95585C32.3362 2.78296 32.3246 2.58761 32.3804 2.40663C32.4362 2.22566 32.5556 2.07157 32.7161 1.97344C32.7382 1.96034 32.8083 1.93026 32.9221 1.88806C33.71 1.59649 36.59 0.723238 40.157 0.764475C45.4905 0.821721 49.8963 2.89957 52.8972 6.77438C54.317 8.60772 54.3204 12.8313 52.9063 18.3629C51.4649 24.0026 48.7526 30.0635 45.4655 34.992C45.3186 35.2137 45.0766 35.3331 44.8303 35.3331ZM45.1952 40.2863C43.9766 40.2863 42.8842 40.1126 42.2303 39.7168C41.5581 39.3097 41.4299 38.7567 41.413 38.4632C41.2296 35.2079 43.0071 34.6412 43.9137 34.3827C43.7874 34.1896 43.6078 33.9625 43.422 33.7282C42.8933 33.0607 42.1693 32.1467 41.6113 30.7795C41.524 30.5661 41.2503 30.0698 40.9334 29.4949C39.2149 26.3813 35.6393 19.9022 37.9363 16.5844C38.9993 15.0489 41.1163 14.4444 44.2354 14.7816C43.3178 11.9571 38.9484 3.12177 28.5806 2.95003C25.4625 2.89763 22.9053 3.86645 20.9837 5.8269C16.6816 10.2169 16.8372 18.1601 16.8396 18.2397C16.8422 18.3413 16.825 18.4424 16.789 18.5373C16.7529 18.6322 16.6988 18.719 16.6295 18.7928C16.5603 18.8665 16.4773 18.9258 16.3854 18.9671C16.2935 19.0085 16.1945 19.0312 16.0939 19.0338C15.9933 19.0365 15.8932 19.0191 15.7993 18.9827C15.7054 18.9463 15.6195 18.8916 15.5465 18.8216C15.4735 18.7516 15.4148 18.6678 15.3739 18.575C15.333 18.4821 15.3105 18.382 15.3079 18.2804C15.2983 17.9277 15.1379 9.59206 19.8952 4.73728C22.1217 2.46537 25.0525 1.34373 28.6061 1.40243C35.2388 1.51256 39.5083 4.91969 41.9215 7.75824C44.5523 10.852 45.8419 14.2644 45.948 15.4035C46.0273 16.2506 45.4256 16.4199 45.3042 16.4451L45.0276 16.4514C41.9667 15.9561 40.0029 16.3001 39.1909 17.4722C37.4437 19.9954 40.8263 26.1241 42.2706 28.7415C42.6393 29.409 42.9053 29.8917 43.0273 30.1896C43.5017 31.352 44.1206 32.1331 44.6176 32.7609C45.055 33.3129 45.4338 33.7918 45.5692 34.3536C45.6321 34.4651 46.5247 35.7993 51.8212 34.6946C53.1488 34.4181 53.9449 34.6543 54.1883 35.3981C54.667 36.8608 51.9811 38.567 50.4941 39.2646C49.1617 39.8905 47.0351 40.2863 45.1952 40.2863ZM42.9404 38.3356C43.1085 38.5068 43.9492 38.8023 45.6902 38.7266C47.2382 38.6597 48.8707 38.3196 49.8502 37.8601C51.1029 37.2722 51.9393 36.6148 52.3724 36.166L52.1323 36.2107C48.7459 36.917 46.3504 36.8229 45.0127 35.9307C44.9228 35.8707 44.8363 35.8058 44.7534 35.7362C44.6084 35.7939 44.4745 35.8318 44.3789 35.8589C43.6203 36.0739 42.8357 36.2965 42.9404 38.3356ZM21.0639 42.6606C20.2227 42.6606 19.3373 42.5446 18.4332 42.3161C17.4964 42.0794 15.9172 41.3667 15.9412 40.1961C15.9686 38.8828 17.8589 38.4889 18.5705 38.3409C21.1412 37.8058 21.3088 37.5914 22.1121 36.5605C22.3464 36.2602 22.6378 35.8861 23.0354 35.4378C23.6255 34.7703 24.2703 34.4322 24.9521 34.4322C25.427 34.4322 25.8164 34.5947 26.0738 34.7029C26.8939 35.0463 27.5781 35.8769 27.8594 36.87C28.1134 37.766 27.992 38.6286 27.5185 39.2986C25.9643 41.4977 23.7321 42.6606 21.0639 42.6606ZM17.5963 40.2626C17.8272 40.443 18.2901 40.6841 18.8053 40.8142C19.5884 41.0121 20.348 41.1125 21.0644 41.1125C23.2471 41.1125 24.9997 40.1995 26.2725 38.3986C26.5381 38.0232 26.4584 37.5463 26.3873 37.2954C26.2385 36.77 25.8687 36.2922 25.488 36.1326C25.2815 36.0462 25.1101 35.9802 24.9526 35.9802C24.8681 35.9802 24.6108 35.9802 24.1777 36.4697C23.8788 36.8093 23.5915 37.1592 23.3163 37.5186C22.3157 38.8023 21.8571 39.2379 18.8802 39.8575C18.1537 40.0079 17.7811 40.1612 17.5963 40.2626ZM23.4872 36.6919C23.3043 36.6916 23.1276 36.6253 22.9889 36.5048C22.8502 36.3843 22.7587 36.2177 22.731 36.0351C22.7119 35.9066 22.6991 35.7772 22.6926 35.6474C20.7412 35.6106 18.8586 34.7645 17.4292 33.2576C15.6219 31.3525 14.7994 28.7128 15.173 26.016C15.5787 23.0872 15.427 20.5019 15.3453 19.1129C15.3228 18.7267 15.3065 18.4478 15.3074 18.2547C15.3089 18.0097 15.3137 17.3601 17.4628 16.2593C18.2272 15.8678 19.7598 15.1847 21.4341 15.0096C24.2079 14.72 26.0363 15.9682 26.5837 18.5249C28.0611 25.4275 26.7008 28.4805 25.7074 30.7102C25.5226 31.1254 25.3478 31.5174 25.2081 31.8973L25.0847 32.232C24.5599 33.654 24.1061 34.8824 24.2454 35.7998C24.2607 35.9002 24.2562 36.0028 24.2323 36.1015C24.2083 36.2002 24.1654 36.2932 24.1058 36.3752C24.0463 36.4571 23.9714 36.5264 23.8853 36.5791C23.7993 36.6318 23.7038 36.6668 23.6044 36.6822L23.4872 36.6919ZM16.8444 18.4691L16.8741 19.0217C16.9586 20.4645 17.1161 23.1493 16.6898 26.2309C16.382 28.4552 17.0542 30.6262 18.535 32.1864C19.7051 33.4197 21.2449 34.1003 22.8275 34.1003H22.8601C23.0373 33.3459 23.3316 32.5493 23.6485 31.6911L23.771 31.3583C23.9289 30.9294 24.1138 30.5142 24.3097 30.0746C25.2657 27.9284 26.456 25.2567 25.0851 18.8524C24.8139 17.5838 24.1556 16.8497 23.0738 16.6077C20.8517 16.1118 17.5401 17.8006 16.8444 18.4691ZM21.4682 18.1407C21.4298 18.4143 21.9642 19.1449 22.6614 19.2424C23.3571 19.3409 23.9525 18.7694 23.9904 18.4958C24.0283 18.2222 23.4944 17.9204 22.7972 17.8224C22.1005 17.7244 21.5052 17.8671 21.4682 18.1407ZM22.8212 19.5117L22.6258 19.4981C22.1937 19.4375 21.7568 19.1624 21.4576 18.7617C21.3525 18.621 21.1811 18.3483 21.2152 18.1048C21.2636 17.7477 21.6948 17.5338 22.3675 17.5338C22.5178 17.5338 22.6743 17.5449 22.8318 17.5673C23.1996 17.6187 23.541 17.7259 23.7931 17.868C24.23 18.1145 24.2622 18.3896 24.2425 18.5317C24.1887 18.9261 23.5679 19.5117 22.8212 19.5117ZM21.7222 18.1863C21.7438 18.3551 22.1577 18.9121 22.6964 18.9873L22.8217 18.996C23.3192 18.996 23.6908 18.6006 23.7345 18.4711C23.6884 18.3828 23.3686 18.1635 22.7622 18.0781C22.6316 18.0592 22.4999 18.0496 22.368 18.0495C21.9781 18.0495 21.7712 18.1383 21.7222 18.1863ZM42.659 17.5823C42.697 17.8559 42.163 18.5865 41.4663 18.6845C40.7701 18.7825 40.1743 18.2115 40.1359 17.9379C40.0994 17.6643 40.6333 17.3621 41.3295 17.2645C42.0257 17.1661 42.6206 17.3092 42.659 17.5823ZM41.3055 18.8243C40.6352 18.8243 40.0566 18.2974 40.0091 17.9554C39.9539 17.5449 40.6227 17.233 41.3113 17.1365C41.463 17.1151 41.6133 17.1044 41.7578 17.1044C42.3522 17.1044 42.7459 17.2805 42.7853 17.5648C42.8108 17.7487 42.671 18.0325 42.4305 18.2887C42.2716 18.457 41.9379 18.7486 41.4832 18.8121L41.3055 18.8243ZM41.7583 17.3625C41.6258 17.3625 41.4875 17.3727 41.3473 17.3921C40.6554 17.4896 40.2424 17.7701 40.2626 17.9204C40.2857 18.0859 40.7274 18.5667 41.306 18.5667L41.4486 18.5565C41.8265 18.5036 42.1102 18.2542 42.2456 18.1106C42.4583 17.885 42.5428 17.6725 42.5327 17.6003C42.5193 17.5042 42.2639 17.3625 41.7583 17.3625ZM43.6621 33.296C43.5233 33.296 43.387 33.258 43.268 33.1859C43.149 33.1137 43.0516 33.0103 42.9863 32.8865C42.921 32.7627 42.8902 32.6234 42.8973 32.4833C42.9043 32.3433 42.9489 32.2078 43.0263 32.0914C44.6579 29.6293 44.3592 27.1187 44.0707 24.6906C43.9473 23.6562 43.8205 22.5865 43.8532 21.56C43.8868 20.5038 44.0198 19.6325 44.148 18.7898C44.3002 17.7914 44.4442 16.8483 44.3847 15.7286C44.3793 15.6271 44.3937 15.5255 44.4271 15.4297C44.4605 15.3338 44.5123 15.2455 44.5795 15.1699C44.6467 15.0943 44.728 15.0327 44.8187 14.9888C44.9094 14.9449 45.0078 14.9195 45.1083 14.914C45.2087 14.9086 45.3092 14.9231 45.4041 14.9569C45.499 14.9907 45.5863 15.043 45.6612 15.1109C45.7361 15.1788 45.797 15.2609 45.8404 15.3526C45.8839 15.4442 45.909 15.5437 45.9144 15.6451C45.9826 16.9249 45.8198 17.9922 45.6624 19.0251C45.5409 19.8222 45.4151 20.6464 45.3848 21.6094C45.3555 22.5186 45.4703 23.484 45.5918 24.5057C45.8991 27.0876 46.2472 30.014 44.2997 32.9525C44.2296 33.0583 44.1347 33.145 44.0235 33.2049C43.9122 33.2648 43.7881 33.2961 43.6621 33.296Z" fill="#858585"/>
</svg>
