<svg width="143" height="10" viewBox="0 0 143 10" fill="none" xmlns="http://www.w3.org/2000/svg">
<path d="M141.143 4.72727C140.933 4.79654 140.933 4.88312 141.143 4.98701H140.933C140.654 5.02165 140.584 5.00433 140.724 4.93507C140.863 4.83117 140.863 4.77922 140.724 4.77922C140.584 4.88312 140.584 4.9697 140.724 5.03896C140.933 5.10823 141.143 5.19481 141.352 5.2987C141.562 5.36797 141.737 5.47186 141.876 5.61039C142.016 5.71429 141.981 5.8355 141.772 5.97403C141.562 5.93939 141.527 5.97403 141.667 6.07792C141.806 6.14719 141.981 6.23377 142.191 6.33766C142.4 6.44156 142.575 6.54545 142.715 6.64935C142.924 6.71862 142.924 6.75325 142.715 6.75325C143.204 7.20346 143.064 7.35931 142.296 7.22078C142.156 7.22078 142.051 7.22078 141.981 7.22078C141.981 7.18615 141.911 7.15152 141.772 7.11688C141.702 7.18615 141.492 7.20346 141.143 7.16883C140.793 7.09957 140.374 7.0303 139.885 6.96104C139.466 6.89178 139.047 6.82251 138.628 6.75325C138.278 6.68398 138.069 6.66667 137.999 6.7013C131.431 5.80087 124.689 5.09091 117.773 4.57143C110.926 4.05195 103.904 3.60173 96.7081 3.22078C93.5642 3.04762 90.2805 2.92641 86.8571 2.85714C83.5035 2.78788 80.0452 2.78788 76.482 2.85714L76.3772 2.8052C76.5169 2.8052 76.7265 2.77056 77.006 2.7013C76.5169 2.7013 76.2026 2.73593 76.0628 2.8052C75.9231 2.8052 75.7833 2.82251 75.6436 2.85714C75.5039 2.85714 75.3991 2.85714 75.3292 2.85714C75.3991 2.85714 75.434 2.8052 75.434 2.7013C75.2244 2.7013 75.0498 2.73593 74.91 2.8052H75.0148C74.7354 2.87446 74.5956 2.87446 74.5956 2.8052C74.5956 2.73593 74.421 2.73593 74.0716 2.8052H74.2812C74.1415 2.83983 74.0018 2.85714 73.862 2.85714L73.9668 2.8052C73.8271 2.8052 73.7922 2.82251 73.862 2.85714C73.5826 2.92641 73.4778 2.89177 73.5476 2.75325C73.4778 2.75325 73.373 2.77056 73.2333 2.8052C73.1634 2.83983 73.0237 2.82251 72.8141 2.75325C72.8141 2.68398 72.5346 2.68398 71.9757 2.75325C71.4866 2.78788 71.277 2.77056 71.3469 2.7013C66.9453 2.73593 62.7185 2.83983 58.6663 3.01299C54.614 3.18615 50.6317 3.42857 46.7192 3.74026C42.8766 4.01732 39.0689 4.36364 35.2962 4.77922C31.5234 5.16017 27.7507 5.57576 23.9779 6.02597C20.834 6.51082 17.6551 7.0303 14.4412 7.58442C11.2274 8.1039 8.29306 8.69264 5.63816 9.35065C5.63816 9.41991 5.49843 9.48918 5.21897 9.55844C4.93951 9.59307 4.83471 9.67965 4.90457 9.81818C4.76484 9.81818 4.45045 9.87013 3.96139 9.97403C3.47233 10.0433 3.0182 9.97403 2.599 9.76623C2.66887 9.69697 2.7038 9.64502 2.7038 9.61039C2.77367 9.54113 2.9134 9.52381 3.123 9.55844C2.98327 9.48918 3.0182 9.38528 3.2278 9.24675C3.0182 9.24675 2.9134 9.31602 2.9134 9.45455C2.9134 9.55844 2.77367 9.57576 2.49421 9.50649C2.35447 9.4026 2.31954 9.31602 2.38941 9.24675C2.52914 9.17749 2.45927 9.17749 2.17981 9.24675C2.24968 9.17749 2.35447 9.09091 2.49421 8.98701C2.7038 8.84848 2.8086 8.84848 2.8086 8.98701C2.94833 8.81385 2.98327 8.64069 2.9134 8.46753C2.84354 8.29437 2.9134 8.12121 3.123 7.94805C3.123 7.80952 2.8086 7.74026 2.17981 7.74026C2.17981 7.4632 2.42434 7.22078 2.9134 7.01299C2.7038 6.73593 2.45927 6.54545 2.17981 6.44156C1.90035 6.30303 1.69075 6.12987 1.55102 5.92208C1.41129 5.85281 1.44622 5.80087 1.65582 5.76623C1.93528 5.7316 2.00515 5.66234 1.86541 5.55844C2.07501 5.66234 2.31954 5.64502 2.599 5.50649C2.94833 5.36797 3.29766 5.35065 3.64699 5.45455C3.92645 5.31602 4.31072 5.22944 4.79978 5.19481C5.3587 5.12554 5.91763 5.05628 6.47655 4.98701C5.70803 4.88312 5.18404 4.77922 4.90457 4.67532C4.62511 4.57143 4.41551 4.50216 4.27578 4.46753C4.20592 4.5368 4.13605 4.55411 4.06618 4.51948C3.99632 4.45022 3.99632 4.39827 4.06618 4.36364C3.36753 4.25974 2.73874 4.1039 2.17981 3.8961C1.69075 3.65368 1.20169 3.49784 0.71263 3.42857C0.572899 3.32468 0.398235 3.2381 0.188637 3.16883C-0.0209598 3.06494 -0.0558926 2.94372 0.0838389 2.8052C0.22357 2.87446 0.293436 2.97836 0.293436 3.11688C0.433168 3.04762 0.572899 2.99567 0.71263 2.96104C0.852362 2.92641 0.887295 2.83983 0.817429 2.7013C0.95716 2.73593 1.06196 2.77056 1.13182 2.8052C1.27156 2.83983 1.41129 2.87446 1.55102 2.90909C3.78672 2.73593 5.91763 2.56277 7.94373 2.38961C9.96984 2.18182 12.3103 2.04329 14.9652 1.97403C15.3146 1.87013 15.8036 1.81818 16.4324 1.81818C17.1311 1.81818 17.7948 1.80087 18.4236 1.76623C19.1921 1.69697 19.9257 1.62771 20.6244 1.55844C21.3929 1.48918 22.0566 1.43723 22.6155 1.4026C22.7553 1.4026 22.9299 1.4026 23.1395 1.4026C23.419 1.36797 23.4889 1.38528 23.3491 1.45455C24.6067 1.28139 26.1787 1.17749 28.0651 1.14286C29.9514 1.07359 31.6282 0.969697 33.0954 0.831169C33.1653 0.831169 33.1653 0.848485 33.0954 0.883117C33.5146 0.883117 34.1783 0.848485 35.0866 0.779221C35.9948 0.675324 36.6236 0.675324 36.9729 0.779221C39.8374 0.502164 42.8417 0.34632 45.9856 0.311688C49.1296 0.277056 52.029 0.190476 54.6839 0.0519482C57.3388 0.0173161 60.2382 0 63.3822 0C66.596 0 69.8448 0.0173161 73.1284 0.0519482C74.5956 0.0519482 75.993 0.0865803 77.3204 0.155844C78.7177 0.190476 80.115 0.17316 81.5123 0.103896C82.4905 0.0692642 83.5035 0.0692642 84.5515 0.103896C85.6693 0.103896 86.7872 0.0692642 87.9051 0C88.1147 0.0346321 88.3242 0.0519482 88.5338 0.0519482C88.8133 0.0173161 89.0229 0.0346321 89.1626 0.103896C92.0271 0.0346321 94.9964 0.0346321 98.0705 0.103896C101.214 0.138528 104.324 0.242424 107.398 0.415584C107.887 0.34632 108.446 0.311688 109.074 0.311688C109.703 0.311688 110.192 0.363636 110.542 0.467533C111.59 0.502165 112.742 0.519481 114 0.519481C115.257 0.519481 116.515 0.554113 117.773 0.623376C118.541 0.692641 119.449 0.744589 120.497 0.779221C121.545 0.813853 122.454 0.900433 123.222 1.03896C123.572 0.969697 124.061 0.969697 124.689 1.03896C125.388 1.10823 126.087 1.14286 126.785 1.14286C126.925 1.14286 126.96 1.16017 126.89 1.19481C126.89 1.19481 126.89 1.21212 126.89 1.24675C128.287 1.24675 129.685 1.38528 131.082 1.66234C132.549 1.90476 133.842 2.14719 134.96 2.38961C135.239 2.45887 135.449 2.49351 135.588 2.49351C135.728 2.45887 135.833 2.45887 135.903 2.49351C135.973 2.56277 136.147 2.61472 136.427 2.64935C136.706 2.68398 136.916 2.77056 137.056 2.90909C137.195 2.8052 137.3 2.78788 137.37 2.85714C137.51 2.92641 137.719 2.96104 137.999 2.96104C137.929 3.0303 137.824 3.04762 137.684 3.01299C137.615 2.94372 137.51 2.90909 137.37 2.90909C137.44 3.04762 137.58 3.09957 137.789 3.06493C138.069 3.0303 138.278 3.01299 138.418 3.01299C138.418 3.08225 138.348 3.11688 138.208 3.11688C138.069 3.08225 137.999 3.08225 137.999 3.11688C138.069 3.18615 138.208 3.22078 138.418 3.22078C138.628 3.18615 138.837 3.16883 139.047 3.16883C138.837 3.20346 138.802 3.2381 138.942 3.27273C139.152 3.30736 139.117 3.32468 138.837 3.32468C138.977 3.35931 139.221 3.42857 139.571 3.53247C139.99 3.63636 140.374 3.75758 140.724 3.8961C141.143 4 141.457 4.13853 141.667 4.31169C141.876 4.48485 141.876 4.65801 141.667 4.83117C141.667 4.8658 141.492 4.91775 141.143 4.98701L141.248 4.93507C141.248 4.93507 141.213 4.90043 141.143 4.83117V4.72727ZM136.217 3.94805C136.357 3.87879 136.567 3.87879 136.846 3.94805C137.125 3.98268 137.37 3.96537 137.58 3.8961C135.693 3.65368 133.807 3.44589 131.92 3.27273C130.034 3.06493 128.427 2.92641 127.1 2.85714C126.611 2.82251 126.157 2.8052 125.737 2.8052C125.318 2.77056 124.829 2.71861 124.27 2.64935C122.524 2.51082 120.637 2.38961 118.611 2.28571C116.585 2.14719 114.559 2.04329 112.533 1.97403C112.463 1.90476 112.358 1.90476 112.218 1.97403C112.148 1.97403 112.183 1.99134 112.323 2.02597C114.419 2.23377 116.515 2.38961 118.611 2.49351C120.777 2.5974 122.873 2.71861 124.899 2.85714C126.995 2.96104 128.986 3.09957 130.872 3.27273C132.829 3.44589 134.61 3.671 136.217 3.94805ZM140.409 3.68831C140.339 3.72294 140.269 3.72294 140.2 3.68831C140.13 3.61905 140.13 3.5671 140.2 3.53247C139.78 3.53247 139.571 3.49784 139.571 3.42857C139.641 3.4632 139.85 3.48052 140.2 3.48052C140.2 3.44589 140.06 3.42857 139.78 3.42857C140.06 3.35931 140.374 3.37662 140.724 3.48052C141.073 3.54978 141.248 3.671 141.248 3.84416C141.178 3.84416 141.108 3.84416 141.038 3.84416C141.038 3.80952 140.968 3.79221 140.828 3.79221C140.968 3.72294 141.038 3.671 141.038 3.63636C140.898 3.63636 140.793 3.671 140.724 3.74026C140.724 3.77489 140.654 3.77489 140.514 3.74026C140.724 3.60173 140.619 3.53247 140.2 3.53247C140.339 3.60173 140.409 3.65368 140.409 3.68831ZM85.8091 1.35065C86.2981 1.35065 86.8221 1.38528 87.3811 1.45455C88.0099 1.48918 88.5338 1.47186 88.953 1.4026C88.6037 1.36797 88.0448 1.35065 87.2763 1.35065C87.0667 1.35065 86.7872 1.33333 86.4379 1.2987C86.1584 1.26407 85.9488 1.28139 85.8091 1.35065ZM84.1323 2.64935C84.4118 2.71861 84.6912 2.73593 84.9707 2.7013C85.2502 2.66667 85.5995 2.68398 86.0187 2.75325C86.0187 2.61472 85.9488 2.58009 85.8091 2.64935C85.7392 2.68398 85.6344 2.66667 85.4947 2.5974C85.2851 2.63203 84.9707 2.64935 84.5515 2.64935C84.2022 2.64935 84.0624 2.64935 84.1323 2.64935ZM65.2686 2.33766C65.4083 2.33766 65.548 2.35498 65.6878 2.38961C65.8275 2.38961 65.8974 2.35498 65.8974 2.28571H65.059C64.9192 2.28571 64.8843 2.30303 64.9542 2.33766C64.3254 2.30303 64.011 2.30303 64.011 2.33766C64.011 2.37229 64.3254 2.38961 64.9542 2.38961C65.024 2.38961 65.059 2.38961 65.059 2.38961C65.059 2.35498 65.1288 2.33766 65.2686 2.33766ZM61.915 2.44156C62.1945 2.44156 62.5089 2.44156 62.8582 2.44156C63.2774 2.44156 63.487 2.40693 63.487 2.33766C62.7185 2.33766 62.1945 2.37229 61.915 2.44156ZM52.6927 2.8052C53.1818 2.83983 53.601 2.8052 53.9503 2.7013C53.5311 2.7013 53.1119 2.73593 52.6927 2.8052ZM69.5653 0.311688C69.3557 0.311688 69.0762 0.294372 68.7269 0.25974C68.4474 0.225108 68.2379 0.242424 68.0981 0.311688C68.3776 0.277056 68.6571 0.294372 68.9365 0.363636C69.216 0.398268 69.4256 0.380952 69.5653 0.311688ZM40.1169 3.68831C40.2566 3.68831 40.3265 3.671 40.3265 3.63636C40.1169 3.60173 39.7676 3.61905 39.2785 3.68831C38.7895 3.75758 38.6847 3.77489 38.9641 3.74026C39.2436 3.77489 39.4532 3.77489 39.5929 3.74026C39.7326 3.70563 39.9073 3.68831 40.1169 3.68831ZM109.074 3.27273C109.005 3.37662 109.109 3.44589 109.389 3.48052C109.738 3.48052 109.913 3.44589 109.913 3.37662C109.703 3.30736 109.563 3.29004 109.494 3.32468C109.424 3.35931 109.284 3.34199 109.074 3.27273ZM79.5212 2.7013C79.6609 2.66667 79.8705 2.68398 80.15 2.75325C80.4993 2.78788 80.674 2.75325 80.674 2.64935C80.3945 2.68398 80.1849 2.68398 80.0452 2.64935C79.9753 2.61472 79.8006 2.63203 79.5212 2.7013ZM137.789 4.25974C137.999 4.22511 138.208 4.22511 138.418 4.25974C138.628 4.25974 138.802 4.22511 138.942 4.15584C138.663 4.08658 138.278 4.12121 137.789 4.25974ZM107.188 3.27273C107.328 3.27273 107.537 3.29004 107.817 3.32468C108.096 3.35931 108.271 3.34199 108.341 3.27273C108.201 3.27273 107.991 3.25541 107.712 3.22078C107.502 3.18615 107.328 3.20346 107.188 3.27273ZM32.6762 4.41558C32.7461 4.34632 32.8858 4.329 33.0954 4.36364C33.305 4.36364 33.4447 4.329 33.5146 4.25974C33.305 4.22511 33.0605 4.22511 32.781 4.25974C32.5714 4.29437 32.5365 4.34632 32.6762 4.41558ZM54.3695 2.75325C54.5092 2.71861 54.7538 2.71861 55.1031 2.75325C55.4524 2.75325 55.5572 2.71861 55.4175 2.64935C55.2778 2.64935 55.0332 2.64935 54.6839 2.64935C54.4044 2.64935 54.2996 2.68398 54.3695 2.75325ZM68.6221 2.28571C68.7618 2.25108 68.9365 2.25108 69.1461 2.28571C69.4256 2.32035 69.6002 2.30303 69.6701 2.23377C69.5304 2.2684 69.3208 2.2684 69.0413 2.23377C68.8317 2.19913 68.692 2.21645 68.6221 2.28571ZM57.6183 2.5974C57.758 2.56277 58.0025 2.56277 58.3519 2.5974C58.771 2.5974 58.9108 2.56277 58.771 2.49351C58.5615 2.49351 58.282 2.51082 57.9327 2.54545C57.6532 2.54545 57.5484 2.56277 57.6183 2.5974ZM45.4616 3.27273C46.0206 3.27273 46.3699 3.2381 46.5096 3.16883C46.0206 3.16883 45.6712 3.20346 45.4616 3.27273ZM49.968 2.96104C50.1776 2.96104 50.3872 2.96104 50.5968 2.96104C50.8064 2.96104 50.981 2.92641 51.1208 2.85714C50.7714 2.85714 50.3872 2.89178 49.968 2.96104ZM67.4693 2.23377C67.4693 2.30303 67.6091 2.33766 67.8885 2.33766C68.2379 2.33766 68.4474 2.32035 68.5173 2.28571C68.3776 2.21645 68.2029 2.19913 67.9933 2.23377C67.8536 2.2684 67.6789 2.2684 67.4693 2.23377ZM48.92 3.06493C49.2693 3.09957 49.3042 3.08225 49.0248 3.01299C48.8152 2.94372 48.6755 2.96104 48.6056 3.06493C48.1864 3.0303 48.0816 3.04762 48.2912 3.11688C48.5008 3.15152 48.7104 3.1342 48.92 3.06493ZM105.616 1.76623C105.756 1.7316 105.895 1.7316 106.035 1.76623C106.245 1.80087 106.385 1.78355 106.454 1.71429C106.315 1.74892 106.14 1.74892 105.93 1.71429C105.721 1.67965 105.616 1.69697 105.616 1.76623ZM40.5361 3.63636C41.0252 3.63636 41.3046 3.60173 41.3745 3.53247C40.9553 3.53247 40.6758 3.5671 40.5361 3.63636ZM44.4136 3.32468C44.9027 3.39394 45.1822 3.35931 45.252 3.22078L44.4136 3.32468ZM106.14 3.27273C106.28 3.2381 106.419 3.2381 106.559 3.27273C106.699 3.30736 106.769 3.27273 106.769 3.16883C106.419 3.16883 106.21 3.20346 106.14 3.27273ZM80.7787 2.7013C80.9185 2.66667 81.0582 2.66667 81.1979 2.7013C81.4075 2.73593 81.5123 2.71861 81.5123 2.64935C81.3726 2.68398 81.2329 2.68398 81.0931 2.64935C80.9534 2.61472 80.8486 2.63203 80.7787 2.7013ZM139.99 3.11688C139.85 3.18615 139.71 3.20346 139.571 3.16883C139.501 3.09957 139.396 3.06493 139.256 3.06493C139.326 2.99567 139.431 2.99567 139.571 3.06493C139.71 3.09957 139.85 3.11688 139.99 3.11688ZM36.0298 4.1039C36.0996 4.03463 36.2044 4.01732 36.3442 4.05195C36.5537 4.05195 36.7284 4.01732 36.8681 3.94805C36.7284 3.94805 36.5188 3.96537 36.2394 4C35.9599 4 35.89 4.03463 36.0298 4.1039ZM71.3469 0.25974C71.2071 0.294372 71.0325 0.294372 70.8229 0.25974C70.6832 0.225108 70.5784 0.242424 70.5085 0.311688C70.6482 0.311688 70.7879 0.329004 70.9277 0.363636C71.1373 0.363636 71.277 0.329004 71.3469 0.25974ZM70.5085 1.09091C70.6482 1.05628 70.7879 1.05628 70.9277 1.09091C71.0674 1.12554 71.1373 1.10823 71.1373 1.03896C70.9976 1.07359 70.8578 1.07359 70.7181 1.03896C70.5784 1.00433 70.5085 1.02165 70.5085 1.09091ZM59.0854 2.54545C59.2252 2.51082 59.3649 2.51082 59.5046 2.54545C59.6444 2.58009 59.7492 2.56277 59.819 2.49351C59.6793 2.49351 59.5046 2.49351 59.295 2.49351C59.1553 2.45887 59.0854 2.47619 59.0854 2.54545ZM95.3458 2.8052C95.4156 2.8052 95.5204 2.82251 95.6601 2.85714C95.8698 2.89178 95.9745 2.87446 95.9745 2.8052C95.8348 2.8052 95.6951 2.78788 95.5554 2.75325C95.4156 2.71861 95.3458 2.73593 95.3458 2.8052ZM53.9503 0.467533C54.09 0.467533 54.2298 0.484849 54.3695 0.519481C54.5092 0.554113 54.5791 0.536797 54.5791 0.467533C54.4394 0.467533 54.2996 0.450217 54.1599 0.415584C54.0202 0.380952 53.9503 0.398268 53.9503 0.467533ZM113.581 3.63636C113.72 3.63636 113.86 3.65368 114 3.68831C114.14 3.72294 114.209 3.70563 114.209 3.63636C114.07 3.63636 113.93 3.61905 113.79 3.58442C113.651 3.54978 113.581 3.5671 113.581 3.63636ZM1.97021 3.63636C2.10995 3.5671 2.07501 3.51515 1.86541 3.48052C1.65582 3.44589 1.58595 3.4632 1.65582 3.53247C1.72568 3.5671 1.76062 3.60173 1.76062 3.63636H1.97021ZM2.8086 8.41558C2.8086 8.45022 2.77367 8.46753 2.7038 8.46753C2.7038 8.46753 2.7038 8.50216 2.7038 8.57143C2.63394 8.5368 2.56407 8.51948 2.49421 8.51948V8.36364C2.63394 8.36364 2.7038 8.38095 2.7038 8.41558C2.7038 8.41558 2.73874 8.41558 2.8086 8.41558ZM43.1561 3.42857C42.7369 3.35931 42.5273 3.39394 42.5273 3.53247L43.1561 3.42857ZM141.562 4C141.422 4 141.387 3.98268 141.457 3.94805C141.527 3.87879 141.492 3.82684 141.352 3.79221C141.422 3.72294 141.492 3.74026 141.562 3.84416C141.702 3.91342 141.702 3.96537 141.562 4ZM104.254 1.66234C104.393 1.62771 104.533 1.62771 104.673 1.66234C104.882 1.69697 104.987 1.67965 104.987 1.61039C104.847 1.64502 104.708 1.64502 104.568 1.61039C104.428 1.57576 104.324 1.59307 104.254 1.66234ZM51.9591 2.85714C52.0989 2.82251 52.2386 2.82251 52.3783 2.85714C52.5181 2.89178 52.5879 2.87446 52.5879 2.8052C52.4482 2.83983 52.3085 2.83983 52.1687 2.8052C52.029 2.77056 51.9591 2.78788 51.9591 2.85714ZM55.1031 0.467533C55.2428 0.432901 55.3826 0.432901 55.5223 0.467533C55.662 0.502165 55.7319 0.484849 55.7319 0.415584C55.5922 0.450217 55.4524 0.450217 55.3127 0.415584C55.173 0.380952 55.1031 0.398268 55.1031 0.467533ZM61.4958 2.38961C61.1465 2.38961 60.9718 2.40693 60.9718 2.44156C61.0417 2.44156 61.1465 2.44156 61.2862 2.44156C61.4958 2.44156 61.6705 2.44156 61.8102 2.44156C61.9499 2.44156 61.915 2.44156 61.7054 2.44156C61.5657 2.44156 61.4958 2.42424 61.4958 2.38961ZM51.3303 2.96104C51.4002 2.89178 51.4701 2.87446 51.5399 2.90909C51.6797 2.90909 51.7495 2.89178 51.7495 2.85714C51.6098 2.82251 51.4701 2.82251 51.3303 2.85714C51.1906 2.85714 51.1906 2.89178 51.3303 2.96104ZM37.3921 3.94805C37.462 3.87879 37.5319 3.86147 37.6017 3.8961C37.7415 3.93074 37.8113 3.91342 37.8113 3.84416C37.6716 3.80952 37.5319 3.80952 37.3921 3.84416C37.2524 3.87879 37.2524 3.91342 37.3921 3.94805ZM88.429 2.64935C88.3592 2.61472 88.2893 2.5974 88.2195 2.5974V2.75325H88.429V2.64935ZM141.876 4C141.737 3.93074 141.737 3.91342 141.876 3.94805C142.086 3.98268 142.121 4.03463 141.981 4.1039C141.911 4.17316 141.876 4.13853 141.876 4ZM88.7434 2.7013C88.7434 2.7013 88.8133 2.7013 88.953 2.7013C88.8832 2.63203 88.7784 2.61472 88.6386 2.64935C88.4989 2.64935 88.4989 2.68398 88.6386 2.75325C88.6386 2.71861 88.6736 2.7013 88.7434 2.7013ZM50.8064 1.35065C51.0858 1.35065 51.2255 1.33333 51.2255 1.2987C50.9461 1.2987 50.8064 1.31602 50.8064 1.35065ZM65.059 0.25974C64.8494 0.25974 64.7096 0.277056 64.6398 0.311688C64.9192 0.311688 65.059 0.294372 65.059 0.25974ZM137.789 2.7013C137.789 2.73593 137.649 2.75325 137.37 2.75325C137.44 2.71861 137.58 2.7013 137.789 2.7013ZM47.4528 3.11688C47.6624 3.11688 47.7672 3.09957 47.7672 3.06493C47.5576 3.06493 47.4528 3.08225 47.4528 3.11688ZM115.362 3.79221C115.432 3.75758 115.467 3.75758 115.467 3.79221C115.537 3.79221 115.572 3.75758 115.572 3.68831C115.502 3.72294 115.432 3.74026 115.362 3.74026C115.362 3.70563 115.362 3.72294 115.362 3.79221ZM57.1991 1.09091C56.9895 1.09091 56.8847 1.10822 56.8847 1.14286C57.0943 1.14286 57.1991 1.12554 57.1991 1.09091ZM71.6613 0.363636C71.9407 0.363636 72.0805 0.34632 72.0805 0.311688C71.8709 0.311688 71.7311 0.329004 71.6613 0.363636ZM43.6801 3.37662C43.8896 3.37662 44.0294 3.35931 44.0992 3.32468C43.8896 3.32468 43.7499 3.34199 43.6801 3.37662ZM87.6955 2.7013C87.6955 2.73593 87.8352 2.71861 88.1147 2.64935C88.0448 2.68398 87.9051 2.7013 87.6955 2.7013ZM108.131 1.81818C107.922 1.81818 107.817 1.8355 107.817 1.87013C108.026 1.87013 108.131 1.85281 108.131 1.81818ZM102.996 3.11688C103.206 3.11688 103.31 3.09957 103.31 3.06493C103.101 3.06493 102.996 3.08225 102.996 3.11688ZM111.38 1.92208C111.59 1.92208 111.694 1.90476 111.694 1.87013C111.485 1.87013 111.38 1.88745 111.38 1.92208ZM34.1434 2.38961C34.353 2.38961 34.4578 2.37229 34.4578 2.33766C34.2482 2.33766 34.1434 2.35498 34.1434 2.38961ZM78.2636 2.75325C78.4732 2.75325 78.578 2.73593 78.578 2.7013C78.3684 2.7013 78.2636 2.71861 78.2636 2.75325ZM79.102 2.7013C79.3116 2.7013 79.4164 2.68398 79.4164 2.64935C79.2068 2.64935 79.102 2.66667 79.102 2.7013ZM20.2052 3.53247C20.275 3.49784 20.31 3.49784 20.31 3.53247C20.3798 3.53247 20.4497 3.51515 20.5196 3.48052C20.31 3.48052 20.2052 3.49784 20.2052 3.53247ZM58.8758 0.415584C58.9457 0.380952 59.0156 0.380952 59.0854 0.415584C59.1553 0.415584 59.1902 0.398268 59.1902 0.363636C58.9806 0.363636 58.8758 0.380952 58.8758 0.415584ZM65.3734 0.311688C65.2336 0.311688 65.1638 0.329004 65.1638 0.363636C65.3035 0.294372 65.3734 0.277056 65.3734 0.311688ZM66.0022 2.33766C66.1419 2.2684 66.2117 2.25108 66.2117 2.28571C66.072 2.28571 66.0022 2.30303 66.0022 2.33766ZM70.4037 2.28571C70.4736 2.25108 70.5434 2.25108 70.6133 2.28571C70.6832 2.28571 70.7181 2.2684 70.7181 2.23377C70.5085 2.23377 70.4037 2.25108 70.4037 2.28571ZM47.872 1.50649C48.0117 1.43723 48.0816 1.41991 48.0816 1.45455C47.9419 1.45455 47.872 1.47186 47.872 1.50649ZM137.16 2.64935C137.16 2.61472 137.091 2.63203 136.951 2.7013C136.951 2.66667 137.021 2.64935 137.16 2.64935ZM51.1208 0.519481C50.9112 0.519481 50.8064 0.536797 50.8064 0.571429C50.9461 0.571429 51.0509 0.554113 51.1208 0.519481ZM63.3822 0.311688C63.2425 0.311688 63.1726 0.329004 63.1726 0.363636C63.1726 0.329004 63.2075 0.329004 63.2774 0.363636C63.3473 0.363636 63.3822 0.34632 63.3822 0.311688ZM49.6536 0.571429C49.6536 0.606061 49.7234 0.588744 49.8632 0.519481C49.8632 0.554113 49.7933 0.571429 49.6536 0.571429ZM106.559 1.76623C106.559 1.80087 106.629 1.78355 106.769 1.71429C106.769 1.74892 106.699 1.76623 106.559 1.76623ZM24.9211 5.19481C25.0608 5.19481 25.1307 5.17749 25.1307 5.14286C24.991 5.14286 24.9211 5.16017 24.9211 5.19481ZM41.5841 3.53247C41.7238 3.53247 41.7937 3.51515 41.7937 3.48052C41.6539 3.48052 41.5841 3.49784 41.5841 3.53247ZM105.092 3.16883C105.232 3.16883 105.302 3.15152 105.302 3.11688C105.162 3.11688 105.092 3.1342 105.092 3.16883ZM139.152 2.90909C139.152 2.94372 139.082 2.96104 138.942 2.96104C138.942 2.92641 139.012 2.90909 139.152 2.90909ZM105.406 3.16883C105.546 3.16883 105.616 3.15152 105.616 3.11688C105.476 3.11688 105.406 3.1342 105.406 3.16883ZM85.2851 1.2987C85.1454 1.2987 85.0755 1.31602 85.0755 1.35065C85.2152 1.35065 85.2851 1.33333 85.2851 1.2987ZM60.0286 2.49351C60.1684 2.49351 60.2382 2.47619 60.2382 2.44156C60.0985 2.44156 60.0286 2.45887 60.0286 2.49351ZM78.7876 2.75325C78.9273 2.75325 78.9972 2.73593 78.9972 2.7013C78.8574 2.7013 78.7876 2.71861 78.7876 2.75325ZM3.43739 8.62338C3.57713 8.62338 3.64699 8.60606 3.64699 8.57143C3.50726 8.57143 3.43739 8.58875 3.43739 8.62338ZM22.4059 5.50649C22.5457 5.50649 22.6155 5.48918 22.6155 5.45455C22.4758 5.45455 22.4059 5.47186 22.4059 5.50649ZM114.314 3.68831C114.454 3.68831 114.524 3.671 114.524 3.63636C114.384 3.63636 114.314 3.65368 114.314 3.68831ZM92.621 2.8052C92.7607 2.8052 92.8306 2.78788 92.8306 2.75325C92.6909 2.75325 92.621 2.77056 92.621 2.8052ZM35.5058 4.05195C35.5058 4.01732 35.5407 4.01732 35.6106 4.05195C35.6804 4.05195 35.7154 4.03463 35.7154 4C35.7154 4.03463 35.6455 4.05195 35.5058 4.05195ZM25.6547 5.09091C25.7944 5.09091 25.8643 5.07359 25.8643 5.03896C25.7246 5.03896 25.6547 5.05628 25.6547 5.09091ZM86.6475 2.7013C86.7872 2.7013 86.8571 2.68398 86.8571 2.64935C86.7173 2.64935 86.6475 2.66667 86.6475 2.7013ZM71.0325 2.28571C71.0325 2.28571 71.0674 2.2684 71.1373 2.23377C70.9976 2.23377 70.9277 2.25108 70.9277 2.28571H71.0325ZM138.837 2.85714C138.837 2.89178 138.802 2.90909 138.732 2.90909H138.628C138.628 2.87446 138.697 2.85714 138.837 2.85714ZM141.667 3.58442C141.667 3.61905 141.597 3.63636 141.457 3.63636C141.457 3.63636 141.492 3.61905 141.562 3.58442H141.667ZM25.5499 3.06493C25.5499 3.06493 25.5848 3.04762 25.6547 3.01299C25.515 3.01299 25.4451 3.0303 25.4451 3.06493H25.5499ZM37.9161 3.84416C38.0559 3.84416 38.1257 3.82684 38.1257 3.79221H38.0209C37.9511 3.79221 37.9161 3.80952 37.9161 3.84416ZM108.76 3.32468C108.76 3.32468 108.795 3.30736 108.865 3.27273C108.725 3.27273 108.655 3.29004 108.655 3.32468H108.76ZM113.371 3.63636C113.371 3.63636 113.406 3.61905 113.476 3.58442C113.336 3.58442 113.266 3.60173 113.266 3.63636H113.371ZM75.0148 2.8052C75.1546 2.8052 75.2594 2.82251 75.3292 2.85714C75.2594 2.85714 75.1895 2.85714 75.1196 2.85714C75.1196 2.82251 75.0847 2.8052 75.0148 2.8052Z" fill="#404040"/>
</svg>
