<svg width="38" height="39" viewBox="0 0 38 39" fill="none" xmlns="http://www.w3.org/2000/svg">
<path d="M20.059 13.667C12.7955 13.667 5.97036 16.1254 6.24969 17.3101C6.27533 17.4189 6.82176 17.4793 6.82176 17.3101C7.90514 15.5897 13.3379 13.7568 20.4591 13.7568C35.521 13.7568 41.6168 19.9643 32.6771 23.9054C26.6015 26.5838 11.5568 26.1164 4.98274 23.6526C0.640098 22.0252 -0.154935 18.5491 4.29162 16.6081C4.52537 16.5061 4.49715 16.2275 4.02616 16.3967C-0.875566 18.2141 1.29863 22.0946 5.45597 23.6526C12.03 26.1164 26.2014 26.494 32.277 23.8156C41.2168 19.8745 35.1209 13.667 20.059 13.667Z" stroke="#858585" stroke-linecap="round" stroke-linejoin="round"/>
<path d="M14.1942 15.5587C10.5624 21.8491 9.27887 28.989 10.4446 29.3395C10.5516 29.3717 10.8771 28.9286 10.7306 28.844C9.78239 27.0456 10.9114 21.4243 14.472 15.2571C22.0029 2.21314 30.4268 0.0377382 29.3699 9.75028C28.6517 16.3512 20.7245 29.1465 15.3039 33.608C11.7231 36.5551 8.31521 35.5055 8.85758 30.6842C8.88609 30.4308 8.63074 30.3159 8.54174 30.8084C7.66483 35.9621 12.1125 36.0195 15.5405 33.1981C20.9611 28.7367 28.3738 16.6527 29.0921 10.0519C30.149 0.339317 21.7251 2.51472 14.1942 15.5587Z" stroke="#858585" stroke-linecap="round" stroke-linejoin="round"/>
<path d="M12.9 21.5834C16.5318 27.8738 22.0734 32.5554 22.9598 31.7211C23.0411 31.6445 22.8202 31.1411 22.6737 31.2257C20.6421 31.1476 16.3384 27.3592 12.7778 21.1921C5.24684 8.14811 7.57481 -0.234861 15.4577 5.53666C20.8151 9.45914 27.9326 22.7219 29.086 29.6471C29.8479 34.2216 27.235 36.6482 23.3309 33.7678C23.1256 33.6164 22.8985 33.7801 23.2805 34.1035C27.3053 37.4398 29.5788 33.6166 28.8494 29.2372C27.696 22.3121 20.9374 9.85052 15.58 5.92805C7.69708 0.156523 5.36911 8.5395 12.9 21.5834Z" stroke="#858585" stroke-linecap="round" stroke-linejoin="round"/>
<path d="M21.7493 19.7434C21.7493 20.535 21.6051 21.3388 21.0954 21.8665C20.5621 22.4186 19.9915 22.5732 19.1632 22.5732C17.801 22.5732 17.36 22.2424 16.7479 21.6965C16.1359 21.1506 15.8833 20.0011 15.8833 19.7434C15.8833 18.5607 16.2517 18.3218 16.6322 17.7593C17.0126 17.1969 17.9897 16.821 18.8163 16.8104C19.6429 16.7999 21.0325 17.5277 21.4461 18.2556C21.8596 18.9835 21.7493 19.0438 21.7493 19.7434Z" fill="#858585"/>
</svg>
