<svg width="69" height="68" viewBox="0 0 69 68" fill="none" xmlns="http://www.w3.org/2000/svg">
<path fill-rule="evenodd" clip-rule="evenodd" d="M1.14758 29.8329C1.14758 30.2063 1.25755 30.4528 1.31918 30.6924C1.7208 32.2506 2.58408 33.5877 3.60833 34.8075C5.06715 36.5457 6.85374 37.9451 8.6839 39.261C10.2713 40.4021 11.8911 41.5177 13.4848 42.6503C13.7584 42.8448 14.0171 43.0684 14.3141 43.307C14.0586 43.4451 13.8461 43.5667 13.6251 43.6788C11.5218 44.7456 9.4983 45.9414 7.63308 47.3902C6.50896 48.2635 5.42202 49.1916 4.65436 50.4045C3.41921 52.3552 2.98199 54.4335 3.90265 56.6525C4.17146 57.3006 4.58158 57.8606 5.16011 58.2744C5.34765 58.4083 5.55802 58.5411 5.77743 58.5932C6.33949 58.7254 6.91218 58.812 7.48115 58.9167L9.09243 58.9156C10.8742 58.7568 12.4961 58.1464 13.9619 57.1349C16.2526 55.5539 17.7959 53.4342 18.4594 50.7137C18.9418 48.7363 18.9615 46.7569 18.393 44.7886C18.3386 44.6063 18.2759 44.4265 18.205 44.2499C18.1359 44.073 18.0546 43.9009 17.959 43.6804L21.6119 41.5799L21.6666 41.6266C21.6002 41.8439 21.5295 42.0607 21.4695 42.2801C21.0355 43.8653 20.747 45.4782 20.8506 47.1235C20.9611 48.8766 21.4504 50.5176 22.4767 51.9823C23.3066 53.167 25.2839 53.2111 26.1657 52.0221C26.4786 51.5998 26.782 51.1583 27.0099 50.6871C27.6054 49.4573 28.1569 48.2056 28.7258 46.9625L28.8252 46.7351C28.7843 47.3237 28.7365 47.8407 28.7147 48.3581C28.6807 49.1661 28.728 49.9694 29.0042 50.7381C29.2406 51.3958 29.6428 51.8872 30.3961 51.9738C30.9114 52.0327 31.3221 51.7969 31.7008 51.4978C32.2876 51.0341 32.774 50.4559 33.1304 49.7983C34.1403 47.9437 35.1773 46.1003 36.0927 44.1989C37.0829 42.1425 37.9489 40.026 38.8685 37.9344L39.0204 37.5636C39.2377 38.4173 39.3891 39.2535 39.668 40.0451C39.9921 40.9636 40.3931 41.8604 40.8298 42.7322C41.0365 43.1439 41.0126 43.4111 40.7262 43.7564C39.5277 45.2014 38.35 46.6639 37.1711 48.1249C36.9103 48.4473 36.6505 48.7757 36.4332 49.1279C36.3014 49.3503 36.2147 49.5965 36.1782 49.8525C36.1416 50.0881 36.1977 50.3288 36.3347 50.524C36.4717 50.7192 36.6789 50.8538 36.9129 50.8996C37.3853 51.0013 37.8696 51.0358 38.3516 51.0021C39.9968 50.881 41.4907 50.3035 42.8114 49.325C44.5225 48.0574 45.0719 46.3277 44.6575 44.2776C44.5454 43.7213 44.3472 43.1805 44.1544 42.6445C44.0678 42.4028 44.062 42.2333 44.2197 42.0081C45.5877 40.0547 46.7565 37.9822 47.8434 35.862C47.8864 35.7786 47.9305 35.6952 48.006 35.606C48.3582 37.4388 48.8884 39.2052 49.8382 40.808C49.3537 41.2749 48.874 41.6983 48.44 42.1648C47.4843 43.1922 46.6555 44.3078 46.2231 45.6684C46.0371 46.2549 45.8942 46.8509 45.9771 47.4773C46.1057 48.45 46.9026 49.0822 47.8593 48.8607C49.9068 48.3868 51.6742 47.422 52.9657 45.713C53.8348 44.5623 53.914 43.2788 53.5501 41.9342C53.4502 41.5687 53.3317 41.2091 53.2042 40.7899C53.7095 40.6332 54.2019 40.4451 54.7114 40.3288C57.3565 39.7253 59.9729 39.8305 62.5218 40.7857C64.0099 41.3435 65.2121 42.2769 65.925 43.7453C66.7957 45.5403 66.3144 47.2435 64.6224 48.3783C64.4646 48.484 64.284 48.5674 64.1533 48.6997C64.1114 48.7482 64.0801 48.8049 64.0614 48.8662C64.0426 48.9275 64.0368 48.992 64.0444 49.0556C64.0555 49.121 64.2282 49.2028 64.3276 49.2017C64.8838 49.1975 65.3348 48.9058 65.7678 48.6062C66.8526 47.8555 67.6441 46.8456 67.8147 45.5159L67.8481 45.416L67.8072 44.5501C67.7908 44.5002 67.8195 44.4507 67.8157 44.413C67.5852 42.4766 66.5508 40.9748 65.0463 39.7975C63.3038 38.4349 61.2463 37.8739 59.0703 37.7852C57.3055 37.7092 55.5429 37.9805 53.8826 38.5836C53.4061 38.7563 52.9338 38.9608 52.4546 39.1537C52.3904 39.0373 52.3213 38.9258 52.2645 38.8105C51.7725 37.8032 51.1765 36.8406 51.0447 35.6857C50.9512 34.8654 50.8365 34.0462 51.0314 33.235C51.219 32.4546 51.4633 31.6875 51.6934 30.9177C51.8118 30.5214 51.7284 30.2993 51.3502 30.1208C51.2184 30.0551 51.0777 30.0089 50.9326 29.9837C50.0029 29.8488 49.086 29.9258 48.1855 30.1877C47.8668 30.2807 47.6351 30.4592 47.5645 30.812C47.5241 31.0144 47.4418 31.2083 47.3844 31.408C47.1491 32.2384 46.9822 33.0847 46.6019 33.8757C45.6488 35.8599 44.5608 37.7692 43.4473 39.6647C43.3267 39.8693 43.1997 40.0701 43.0478 40.3182C42.6568 39.5 42.2398 38.7658 42.1133 37.9052C41.9704 36.932 41.8578 35.9603 42.1001 34.9945C42.2801 34.2741 42.5155 33.567 42.7322 32.8562C42.8348 32.5183 42.7875 32.3409 42.4815 32.1629C42.3269 32.0732 42.1521 31.9935 41.9779 31.9674C41.0246 31.8222 40.0506 31.9019 39.1336 32.2001C38.8451 32.2936 38.6937 32.4801 38.6055 32.7776C38.3462 33.6552 38.1252 34.5541 37.7613 35.3887C36.2876 38.7674 34.7715 42.1287 33.2569 45.4893C32.9408 46.1911 32.5705 46.8685 32.214 47.5517C32.1237 47.7248 31.992 47.8773 31.8793 48.0399C31.789 47.9331 31.754 47.8598 31.7545 47.7865C31.7571 47.3546 31.7056 46.9099 31.788 46.4923C32.0408 45.2295 32.3203 43.9721 32.6263 42.721C32.876 41.6872 33.1666 40.6629 33.4433 39.636C33.5363 39.2923 33.5379 38.9709 33.2909 38.6819C32.876 38.1979 32.009 38.0917 31.4947 38.4646L31.2673 38.5932L31.3114 38.2266C31.4198 37.4409 31.4416 36.6578 31.2259 35.8838C30.9571 34.9191 30.2686 34.3639 29.2677 34.3947C28.8013 34.4091 28.3115 34.4887 27.8795 34.6587C26.0632 35.3706 24.6665 36.6313 23.4776 38.148C23.3674 38.2888 23.2308 38.4068 23.0755 38.4954C21.5385 39.3476 19.9969 40.1891 18.4557 41.0337L16.7403 41.9735C16.2802 41.5347 15.8621 41.0794 15.3877 40.6932C13.939 39.5117 12.4669 38.3594 11.0081 37.1912C9.71505 36.1558 8.46236 35.0774 7.50399 33.7062C6.79105 32.6862 6.33152 31.5701 6.28743 30.3089C6.23165 28.7018 6.68746 27.2335 7.50558 25.8666C8.55215 24.1177 9.97961 22.7141 11.5489 21.4428C13.2091 20.0988 15.0047 18.9577 16.8657 17.9159C19.4693 16.4587 22.1474 15.1688 25.0188 14.3172C27.963 13.4438 30.9502 12.9439 34.0314 13.2924C35.2427 13.4295 36.4189 13.7068 37.4989 14.2991C38.326 14.7523 39.0045 15.3457 39.32 16.2733C39.6313 17.1859 39.6218 18.1108 39.4061 19.0379C38.9678 20.9153 37.9398 22.4628 36.6462 23.8457C34.5244 26.1125 31.9362 27.6558 29.0223 28.6753C27.3469 29.2622 25.6037 29.6341 23.8346 29.7819C22.3848 29.9035 20.9653 29.775 19.5926 29.2708C18.6836 28.9367 17.8921 28.4256 17.2556 27.684C17.1419 27.5512 16.9964 27.4072 16.7844 27.5315C16.5767 27.6537 16.54 27.8513 16.6096 28.0516C16.726 28.3842 16.8333 28.7305 17.0144 29.028C17.4697 29.7744 18.1338 30.3158 18.8648 30.7801C20.2689 31.6731 21.8382 31.9733 23.4654 32.0429C25.9346 32.1497 28.3439 31.781 30.7191 31.1185C34.1101 30.1729 37.0585 28.5026 39.4231 25.8676C41.3919 23.6736 42.7981 21.1974 43.0993 18.2075C43.2465 16.7482 43.0898 15.3186 42.4066 13.9873C41.6655 12.5449 40.4872 11.4723 39.0783 10.7334C37.0266 9.65759 34.8124 9.03125 32.5269 9.03125H30.2372C27.4694 9.03125 24.7935 9.82441 22.1925 10.7706C20.2237 11.4872 18.2931 12.333 16.4189 13.269C12.3373 15.3085 8.53621 17.7677 5.41405 21.1491C3.85855 22.8337 2.54158 24.6925 1.78402 26.8812C1.55537 27.5347 1.3584 28.1988 1.1938 28.8713M15.9833 48.0032C15.8064 50.3721 14.7327 52.2925 12.978 53.848C11.9909 54.7225 10.8588 55.3451 9.54027 55.564C9.06215 55.6431 8.57286 55.6623 8.10908 55.4641C7.44768 55.1815 7.29946 54.5944 7.28671 53.9692C7.26705 52.9725 7.61608 52.0715 8.09474 51.2141C8.71949 50.0963 9.63536 49.2442 10.6134 48.4484C12.154 47.1941 13.8253 46.1327 15.537 45.1308L15.6661 45.0776C15.9307 46.0551 16.0566 47.0204 15.9833 48.0032ZM29.3485 37.7081C29.2236 38.4646 29.0674 39.2217 28.8464 39.9548C28.0825 42.4926 27.1013 44.9517 26.0404 47.3779C25.8443 47.8268 25.559 48.2364 25.311 48.662C25.2688 48.7274 25.2182 48.787 25.1606 48.8394C24.8535 49.1427 24.5624 49.1268 24.4073 48.73C24.2267 48.2688 24.1156 47.7753 24.02 47.2871C23.9557 46.9593 23.9711 46.6151 23.951 46.2793C23.9717 43.8919 24.7 41.7223 25.9357 39.7024C26.4452 38.8694 26.9998 38.0758 27.8471 37.5487C28.1107 37.3849 28.3959 37.2586 28.6945 37.1737C29.146 37.0467 29.4234 37.2555 29.3485 37.7081ZM38.4668 49.3255L41.7441 45.4989C41.8806 46.92 39.4651 49.7569 38.4668 49.3255ZM48.9341 46.7505C48.7024 46.8833 48.4501 46.979 48.2126 47.1017C47.9953 47.2143 47.9236 47.1006 47.9172 46.9136C47.914 46.7842 47.9307 46.655 47.9666 46.5306C48.4092 44.9698 49.2236 43.6374 50.4354 42.5537L50.5204 42.5101C51.0968 44.1224 50.4306 45.8931 48.9341 46.7505Z" fill="#858585"/>
</svg>
