<svg width="51" height="8" viewBox="0 0 51 8" fill="none" xmlns="http://www.w3.org/2000/svg">
<path d="M47.7929 3.78947C48.1596 4.64516 49.9933 4.1562 50.2377 5.25637C49.6265 5.62309 49.0153 5.13413 48.4041 5.37861C48.1596 6.60102 47.9152 6.72326 47.6707 7.94567C41.9254 8.06791 34.9576 7.94567 29.9457 7.94567C21.2666 7.82343 11.3651 7.94567 1.58579 7.33447C1.58579 7.08998 1.58579 6.8455 1.34131 6.8455C1.46355 6.72326 1.83027 6.60102 2.07475 6.8455C1.95251 6.72326 1.95251 6.47878 2.31924 6.35654C2.31924 6.11205 1.70803 6.35654 1.46355 6.2343C1.34131 5.01188 1.34131 5.01188 0.974584 3.91172C2.07475 4.03396 2.8082 3.78947 3.41941 3.30051C17.7216 2.93378 33.7352 1.58914 47.1817 3.91172C41.1919 1.95586 34.2242 2.0781 29.2123 1.95586C26.4007 1.83361 24.2004 2.0781 20.8999 2.20034C14.5433 2.20034 9.28698 2.81155 1.95251 2.81155C1.34131 2.0781 0.974584 2.0781 0.118896 1.95586C6.71992 0.855688 12.7097 0.488965 20.4109 0.366722C20.7776 0.366722 20.0442 0 20.6554 0.12224C22.978 0.488965 28.2343 0.12224 32.1461 0.366722C33.124 0.488965 34.4686 0.855687 35.0798 0.366722C35.9355 0.488965 35.8133 0.733444 36.669 0.855687C37.2802 0.855687 36.5467 0.366722 37.2802 0.611205C38.0136 0.611205 36.9135 0.733444 37.4024 0.977927C37.7691 0.855687 38.5026 1.22241 38.3804 0.733444C38.8693 0.733444 38.3804 1.10017 38.6248 1.10017C42.5366 1.58914 46.2038 1.71137 49.2598 2.93378C49.1376 3.30051 49.2598 3.66723 49.5043 3.78947C49.0153 3.91172 48.7709 3.91172 47.7929 3.78947ZM45.3481 1.71137C44.8591 1.58914 45.5926 1.10017 45.5926 1.46689V1.58914C45.4703 1.46689 45.3481 1.46689 45.3481 1.71137ZM42.0476 0.611205C41.9254 0.733444 41.8031 0.733444 41.5586 0.733444C41.5586 0.488965 41.8031 0.611205 42.0476 0.611205ZM42.5366 0.977927C42.5366 1.10017 42.2921 1.10017 42.1698 1.10017C42.1698 0.977927 42.4143 0.977927 42.5366 0.977927ZM5.61975 6.35654C5.74199 6.35654 5.98647 6.35654 5.98647 6.2343C5.86423 6.2343 5.61975 6.2343 5.61975 6.35654ZM41.6809 1.22241C41.6809 1.10017 41.9254 1.10017 42.0476 1.10017C42.0476 1.22241 41.8031 1.22241 41.6809 1.22241ZM46.5705 7.08998C46.6928 7.08998 46.9372 7.08998 46.9372 6.96774C46.815 6.96774 46.5705 6.96774 46.5705 7.08998ZM47.1817 7.08998C47.304 7.08998 47.5484 7.08998 47.5484 6.96774C47.4262 6.96774 47.1817 6.96774 47.1817 7.08998ZM38.0136 0.611205C38.0136 0.733444 37.7691 0.611205 37.6469 0.733444C37.6469 0.611205 37.8914 0.611205 38.0136 0.611205ZM45.8371 1.10017C45.8371 1.22241 45.7148 1.22241 45.5926 1.22241C45.5926 1.10017 45.7148 1.10017 45.8371 1.10017ZM36.5467 0.12224C36.5467 0.244483 36.4245 0.244483 36.3023 0.244483C36.3023 0.12224 36.4245 0.12224 36.5467 0.12224ZM4.03061 6.35654C4.15285 6.35654 4.27509 6.35654 4.27509 6.2343C4.15285 6.2343 4.03061 6.2343 4.03061 6.35654ZM26.034 0C26.034 0.12224 25.9118 0.12224 25.7895 0.12224C25.7895 0 25.9118 0 26.034 0ZM47.6707 1.83361C47.6707 1.95586 47.5484 1.95586 47.4262 1.95586C47.4262 1.83361 47.5484 1.83361 47.6707 1.83361ZM4.8863 6.35654C4.8863 6.35654 5.13078 6.35654 5.13078 6.2343C5.00854 6.2343 4.8863 6.2343 4.8863 6.35654ZM33.9797 0C33.9797 0.12224 33.7352 0.12224 33.7352 0.12224C33.7352 0 33.8574 0 33.9797 0ZM22.489 6.47878C22.489 6.47878 22.7335 6.47878 22.7335 6.35654C22.6113 6.35654 22.489 6.35654 22.489 6.47878ZM39.725 0.733444C39.725 0.855687 39.6028 0.855687 39.4805 0.855687C39.4805 0.733444 39.725 0.733444 39.725 0.733444ZM38.5026 0.244483C38.5026 0.366722 38.3804 0.366722 38.2581 0.366722C38.2581 0.244483 38.3804 0.366722 38.5026 0.244483Z" fill="white"/>
</svg>
