<svg width="332" height="185" viewBox="0 0 332 185" fill="none" xmlns="http://www.w3.org/2000/svg">
<path d="M4.90261 23C37.4093 24.8221 69.9242 27.0787 102.466 28.2111C130.944 29.2021 159.569 28.2846 188.014 29.731C234.54 32.0967 95.953 44.3849 50.4272 54.2665C49.6609 54.4328 31.5995 57.3459 31.1028 59.3328C30.8209 60.4601 33.4182 59.5332 34.5768 59.6223C42.4101 60.2249 50.2134 61.2817 58.0267 62.0831C99.1949 66.3055 140.483 69.7069 181.79 72.2158C217.094 74.36 252.456 74.3896 287.748 76.4136C292.224 76.6703 305.503 77.6528 301.066 78.2954C293.581 79.3794 276.926 80.5221 271.97 80.9009C223.873 84.5771 175.825 88.2527 127.87 93.5667C99.0147 96.7641 70.9692 100.137 42.4658 105.219C30.2685 107.394 16.505 109.829 5.19211 115.641C-0.0757179 118.348 5.48221 119.116 8.01478 119.477C53.0167 125.906 98.2549 128.782 143.575 132.433C190.809 136.237 237.886 138.869 283.985 150.527C299.15 154.362 314.049 158.932 329.292 162.396" stroke="#D1D1D1" stroke-width="5" stroke-linecap="round"/>
<path d="M4.90261 3C37.4093 4.82212 69.9242 7.07869 102.466 8.21108C130.944 9.20208 159.569 8.28462 188.014 9.73098C234.54 12.0967 95.953 24.3849 50.4272 34.2665C49.6609 34.4328 31.5995 37.3459 31.1028 39.3328C30.8209 40.4601 33.4182 39.5332 34.5768 39.6223C42.4101 40.2249 50.2134 41.2817 58.0267 42.0831C99.1949 46.3055 140.483 49.7069 181.79 52.2158C217.094 54.36 252.456 54.3896 287.748 56.4136C292.224 56.6703 305.503 57.6528 301.066 58.2954C293.581 59.3794 276.926 60.5221 271.97 60.9009C223.873 64.5771 175.825 68.2527 127.87 73.5667C99.0147 76.7641 70.9692 80.1373 42.4658 85.2193C30.2685 87.394 16.505 89.8293 5.19211 95.6414C-0.0757179 98.3478 5.48221 99.1156 8.01478 99.4774C53.0167 105.906 98.2549 108.782 143.575 112.433C190.809 116.237 237.886 118.869 283.985 130.527C299.15 134.362 314.049 138.932 329.292 142.396" stroke="#D1D1D1" stroke-width="5" stroke-linecap="round"/>
<path d="M4.90261 43C37.4093 44.8221 69.9242 47.0787 102.466 48.2111C130.944 49.2021 159.569 48.2846 188.014 49.731C234.54 52.0967 95.953 64.3849 50.4272 74.2665C49.6609 74.4328 31.5995 77.3459 31.1028 79.3328C30.8209 80.4601 33.4182 79.5332 34.5768 79.6223C42.4101 80.2249 50.2134 81.2817 58.0267 82.0831C99.1949 86.3055 140.483 89.7069 181.79 92.2158C217.094 94.36 252.456 94.3896 287.748 96.4136C292.224 96.6703 305.503 97.6528 301.066 98.2954C293.581 99.3794 276.926 100.522 271.97 100.901C223.873 104.577 175.825 108.253 127.87 113.567C99.0147 116.764 70.9692 120.137 42.4658 125.219C30.2685 127.394 16.505 129.829 5.19211 135.641C-0.0757179 138.348 5.48221 139.116 8.01478 139.477C53.0167 145.906 98.2549 148.782 143.575 152.433C190.809 156.237 237.886 158.869 283.985 170.527C299.15 174.362 314.049 178.932 329.292 182.396" stroke="#D1D1D1" stroke-width="5" stroke-linecap="round"/>
</svg>
