<svg width="175" height="14" viewBox="0 0 175 14" fill="none" xmlns="http://www.w3.org/2000/svg">
<path d="M0.56881 3.52684C0.0632084 3.52684 -0.0210561 3.48879 0.316015 3.4127C0.653076 3.33661 0.568799 3.29856 0.0631972 3.29856C0.231738 3.22247 0.400279 3.18442 0.56881 3.18442C0.737341 3.22247 0.821605 3.27954 0.821605 3.35563C1.32721 3.27954 1.32721 3.20344 0.821605 3.12735C0.147473 3.08931 0.31599 3.07028 1.32718 3.07028C0.990122 2.99419 0.653076 2.95614 0.316015 2.95614C-0.0210561 2.95614 -0.0210561 2.89907 0.316015 2.78493C0.484546 2.78493 0.56881 2.84201 0.56881 2.95614C1.0744 2.95614 1.32718 2.91809 1.32718 2.842C1.15865 2.76591 1.24294 2.70884 1.58001 2.67079C1.24294 2.67079 1.15865 2.61372 1.32718 2.49958C1.49572 2.38545 1.41147 2.36642 1.0744 2.44251C0.737339 2.25229 0.653074 2.024 0.821605 1.75768C0.821605 1.5294 1.07441 1.32014 1.58001 1.12991C1.91707 0.977725 2.50693 0.882604 3.34959 0.844558C4.19225 0.806513 5.11918 0.920658 6.13038 1.18698C5.28771 1.18698 4.52932 1.24405 3.8552 1.35819C3.01253 1.51037 2.92825 1.71963 3.60238 1.98595C3.93945 1.90986 4.44505 1.73865 5.11919 1.47233C5.79332 1.20601 6.55172 1.11089 7.39439 1.18698C7.73145 1.14893 7.98424 1.05381 8.15277 0.901628C8.15277 0.787491 8.23702 0.69237 8.40556 0.616279C8.74263 0.578233 8.99544 0.578233 9.16397 0.616279C9.16397 0.69237 9.33249 0.73042 9.66956 0.73042C10.1752 0.12169 11.2706 -0.106601 12.9559 0.0455814C13.1245 0.121673 13.293 0.197768 13.4615 0.27386C13.6301 0.349951 13.8829 0.426049 14.2199 0.50214C14.7255 0.654323 15.3997 0.749444 16.2423 0.78749C16.9165 0.863581 17.5063 0.996749 18.0119 1.18698C24.5847 1.75766 32.0844 2.23327 40.511 2.61372C48.7691 2.99418 56.5027 9.25158 64.5923 9.32767C64.9293 9.32767 66.0944 9.32767 66.0944 9.32767C66.8455 10.7557 69.3689 11.8578 69.5375 11.8578C87.4019 11.972 101.014 3.4127 117.867 3.18442C134.552 2.99419 150.057 2.46151 164.382 1.58647C165.899 1.47233 167.248 1.32014 168.427 1.12991C169.438 0.939679 170.702 0.844558 172.219 0.844558C172.556 0.920649 172.641 0.977722 172.472 1.01577C172.303 1.05381 172.472 1.09186 172.978 1.12991C172.641 1.28209 172.219 1.37721 171.714 1.41526C171.208 1.49135 170.787 1.56744 170.45 1.64354C170.787 1.71963 171.124 1.7006 171.461 1.58647C171.798 1.51037 172.219 1.49135 172.725 1.5294C172.051 1.79572 172.135 1.94791 172.978 1.98595C172.978 2.17618 172.725 2.2713 172.219 2.2713C172.388 2.38544 172.641 2.48056 172.978 2.55665C173.146 2.67079 173.399 2.78494 173.736 2.89907C173.062 3.05125 172.303 3.1654 171.461 3.24149C170.618 3.35563 169.775 3.46978 168.933 3.58391C168.933 3.66 169.186 3.67903 169.691 3.64098C170.197 3.60294 170.618 3.60294 170.955 3.64098C170.955 3.75512 171.124 3.81219 171.461 3.81219C170.787 4.19265 169.691 4.43996 168.174 4.5541C166.489 4.70628 164.804 4.85848 163.118 5.01066C164.972 5.01066 166.573 4.91554 167.922 4.72531C169.27 4.53508 170.787 4.30679 172.472 4.04047C173.146 4.11656 173.652 4.15461 173.989 4.15461C174.157 4.19266 174.494 4.23071 175 4.26875C172.472 4.76334 169.523 5.16285 166.152 5.46722C162.613 5.77158 158.989 6.0189 155.282 6.20913C151.405 6.4374 147.529 6.62764 143.653 6.77982C139.608 6.93201 135.732 7.10322 132.024 7.29345C132.193 7.14127 132.024 7.12224 131.519 7.23638C130.844 7.35052 130.255 7.35052 129.749 7.23638C129.58 7.23638 129.496 7.23638 129.496 7.23638C129.496 7.27443 129.58 7.29345 129.749 7.29345C119.3 7.67391 107.756 7.99732 95.1156 8.26364C82.3071 8.568 70.0885 8.6441 58.4597 8.49192C54.415 8.49192 50.8758 8.37777 47.8422 8.1495C47.6736 8.1495 47.6736 8.16852 47.8422 8.20657C43.7974 8.13048 40.0054 7.95926 36.4662 7.69294C32.7585 7.46467 28.9665 7.23638 25.0903 7.0081C24.9218 6.93201 24.7532 6.89396 24.5847 6.89396C24.2476 6.93201 24.2476 6.91298 24.5847 6.83689C24.2476 6.83689 24.0791 6.85592 24.0791 6.89396C23.9106 6.93201 23.6578 6.93201 23.3207 6.89396C23.3207 6.77983 22.6466 6.66568 21.2983 6.55154C19.95 6.47545 18.8546 6.41838 18.0119 6.38033C18.0119 6.38033 18.1805 6.34229 18.5175 6.2662C18.349 6.1901 18.2647 6.1901 18.2647 6.2662C18.0962 6.34229 17.8434 6.36131 17.5063 6.32327C17.5063 6.28522 17.5906 6.24717 17.7591 6.20913C17.7591 6.20913 17.7591 6.17108 17.7591 6.09499C17.5906 6.13303 17.5063 6.17108 17.5063 6.20913C17.3378 6.24717 17.085 6.2662 16.7479 6.2662C17.085 6.11401 16.8322 6.01889 15.9895 5.98085C14.9783 5.98085 14.3042 5.96182 13.9671 5.92378C13.9671 5.99987 14.1357 6.03792 14.4727 6.03792C13.7986 6.11401 13.4615 6.05693 13.4615 5.86671C13.4615 5.90475 13.2088 5.92378 12.7031 5.92378C12.7031 5.88573 12.9559 5.86671 13.4615 5.86671C13.4615 5.79062 13.5458 5.73354 13.7143 5.6955C12.8717 5.80963 12.3661 5.88573 12.1976 5.92378C11.8605 5.92378 11.7762 5.90475 11.9447 5.86671C12.1133 5.82866 12.1976 5.79061 12.1976 5.75257C11.692 5.82866 11.2706 5.82866 10.9336 5.75257C10.5965 5.71452 10.765 5.6955 11.4392 5.6955C10.765 5.65745 10.428 5.6194 10.428 5.58136C10.428 5.58136 10.2594 5.60038 9.92237 5.63843C9.5853 5.4482 9.66955 5.39113 10.1752 5.46722C10.6808 5.54331 10.9336 5.52429 10.9336 5.41015C10.428 5.3721 10.0066 5.31503 9.66956 5.23894C9.16396 5.20089 8.5741 5.16285 7.89997 5.1248C8.0685 5.20089 8.3213 5.23894 8.65837 5.23894C8.8269 5.23894 8.99544 5.25796 9.16397 5.29601C9.50105 5.3721 9.50105 5.42917 9.16397 5.46722C8.82691 5.50526 8.91117 5.54331 9.41676 5.58136C8.91117 5.69549 8.74264 5.67647 8.91117 5.52429C9.0797 5.41015 8.99543 5.3721 8.65837 5.41015C8.3213 5.3721 8.23702 5.35308 8.40556 5.35308C8.40556 5.39113 8.40556 5.4482 8.40556 5.52429C8.23702 5.4482 7.98423 5.41015 7.64717 5.41015C7.3101 5.44819 7.22585 5.42917 7.39439 5.35308C7.73145 5.39113 7.8157 5.33405 7.64717 5.18187C7.3101 5.06773 6.97303 4.97261 6.63597 4.89652C6.29891 4.85847 6.13038 4.85847 6.13038 4.89652C5.96184 4.97261 5.70904 5.01066 5.37198 5.01066C5.87758 5.1248 6.21465 5.18187 6.38318 5.18187C6.21465 5.25796 5.87758 5.25796 5.37198 5.18187C4.86638 5.10578 4.86638 5.16285 5.37198 5.35308C5.20345 5.42917 4.95066 5.42917 4.61359 5.35308C4.27652 5.27699 4.02373 5.20089 3.8552 5.1248C3.8552 5.04871 4.02373 5.04871 4.36079 5.1248C4.52932 5.23894 4.78212 5.23894 5.11919 5.1248C5.11919 5.04871 5.03491 5.02968 4.86637 5.06773C4.52931 5.10577 4.27652 5.08675 4.10798 5.01066C4.61358 4.89652 4.95065 4.8775 5.11919 4.95359C4.78212 4.8775 4.52932 4.83945 4.36079 4.83945C4.02373 4.8775 3.51813 4.8775 2.844 4.83945C3.18106 4.68727 3.34959 4.59215 3.34959 4.5541C3.01253 4.63019 2.844 4.64922 2.844 4.61117C2.67546 4.57312 2.42266 4.59215 2.0856 4.66824C2.75973 4.51606 2.75973 4.45898 2.0856 4.49703C1.41147 4.53508 1.15865 4.45898 1.32718 4.26875C2.33839 4.19266 2.844 4.28778 2.844 4.5541C3.18106 4.5541 3.34959 4.53508 3.34959 4.49703C3.34959 4.45898 3.51813 4.43996 3.8552 4.43996C3.51813 4.36387 3.09679 4.28777 2.59119 4.21168C2.0856 4.13559 1.66425 4.11657 1.32718 4.15461C0.990122 4.2307 0.990122 4.19265 1.32718 4.04047C1.49572 3.92634 1.74854 3.92634 2.0856 4.04047C1.74854 3.88829 1.49572 3.73609 1.32718 3.58391C1.15865 3.43173 0.905871 3.41271 0.56881 3.52684ZM13.4615 4.38289C12.6189 4.42094 12.6189 4.45898 13.4615 4.49703C14.1357 4.53508 14.1357 4.59215 13.4615 4.66824C16.1581 5.08674 19.1917 5.35308 22.5623 5.46722C25.933 5.58136 29.3879 5.7716 32.927 6.03792C36.8033 6.1901 40.4267 6.30424 43.7974 6.38033C46.9995 6.45643 50.623 6.53252 54.6678 6.60861C61.2405 6.6847 67.9818 14.0379 76.4085 13.9998C84.6666 13.9618 92.9246 6.49447 99.6659 6.2662C92.082 6.41838 84.3295 11.1058 76.4085 11.1438C68.4874 11.1819 60.7349 6.53252 53.151 6.38033C45.567 6.22815 38.4044 5.98084 31.6631 5.63843C24.9218 5.33406 18.9389 4.93455 13.7143 4.43996C13.7143 4.43996 13.6301 4.42094 13.4615 4.38289ZM5.87757 4.83945C5.03491 4.64922 4.36079 4.53508 3.8552 4.49703C4.02373 4.57312 4.02373 4.63019 3.8552 4.66824C3.51813 4.70629 3.51813 4.74434 3.8552 4.78238C3.8552 4.70629 3.93945 4.68727 4.10798 4.72531C4.44505 4.64922 4.78212 4.66824 5.11919 4.78238C5.28772 4.93456 5.54051 4.95359 5.87757 4.83945ZM143.653 3.35563C144.159 3.27954 144.327 3.24149 144.159 3.24149C143.99 3.24149 143.653 3.24149 143.147 3.24149C142.642 3.24149 142.136 3.26052 141.631 3.29856C141.125 3.33661 140.956 3.37466 141.125 3.4127C142.136 3.33661 142.979 3.31759 143.653 3.35563ZM101.436 6.32327C102.278 6.32327 102.784 6.30424 102.952 6.2662C102.952 6.2662 102.868 6.24717 102.7 6.20913C102.362 6.20913 101.941 6.20913 101.436 6.20913C100.93 6.20913 100.593 6.24717 100.424 6.32327C100.761 6.39936 100.93 6.41838 100.93 6.38033C100.93 6.34229 101.098 6.32327 101.436 6.32327ZM132.277 3.52684C132.108 3.60293 131.687 3.62196 131.013 3.58391C130.339 3.54587 130.002 3.58391 130.002 3.69805H131.519C131.856 3.69805 132.193 3.67903 132.53 3.64098C132.698 3.60294 132.614 3.56489 132.277 3.52684ZM0.821605 3.75512C0.316003 3.79317 0.147474 3.83122 0.316015 3.86926C0.316015 3.94535 0.400279 4.02145 0.56881 4.09754C0.0632084 4.02145 -0.105333 3.94535 0.0631972 3.86926C0.0631972 3.79317 0.147474 3.71707 0.316015 3.64098C0.653076 3.60294 0.821605 3.60294 0.821605 3.64098C0.821605 3.71707 0.990122 3.77414 1.32718 3.81219C1.32718 3.88828 1.24293 3.90731 1.0744 3.86926C0.905869 3.83122 0.821605 3.79317 0.821605 3.75512ZM16.2423 6.4374C16.4109 6.36131 16.7479 6.34229 17.2535 6.38033C17.7591 6.45643 18.1805 6.5135 18.5175 6.55154C18.5175 6.58959 18.2647 6.58959 17.7591 6.55154C17.085 6.55154 16.5794 6.5135 16.2423 6.4374ZM149.215 3.07028C147.866 3.07028 146.939 3.10833 146.434 3.18442C147.951 3.18442 148.877 3.14637 149.215 3.07028ZM154.523 2.842C154.186 2.842 153.596 2.842 152.754 2.842C151.911 2.88005 151.658 2.9181 151.995 2.95614C152.332 2.95614 152.922 2.93712 153.765 2.89907C154.439 2.89907 154.692 2.88005 154.523 2.842ZM156.546 5.58136C156.209 5.58136 155.787 5.60038 155.282 5.63843C154.776 5.67647 154.692 5.73355 155.029 5.80964C155.366 5.6955 155.703 5.65745 156.04 5.6955C156.209 5.73354 156.377 5.69549 156.546 5.58136ZM121.407 3.81219C121.407 3.88828 120.985 3.90731 120.143 3.86926C119.131 3.83122 118.963 3.86926 119.637 3.9834C119.637 3.90731 120.143 3.86926 121.154 3.86926C121.997 3.90731 122.081 3.88828 121.407 3.81219ZM109.272 6.09499C108.935 6.13303 108.177 6.15206 106.997 6.15206C105.649 6.1901 105.228 6.20913 105.733 6.20913C106.407 6.17108 107.166 6.17108 108.008 6.20913C108.682 6.24717 109.104 6.20912 109.272 6.09499ZM7.14157 5.06773C7.31011 5.21991 7.22585 5.27699 6.88877 5.23894C6.38318 5.20089 6.13038 5.1248 6.13038 5.01066C6.29891 5.04871 6.63598 5.06773 7.14157 5.06773ZM9.16397 5.75257C9.50105 5.82866 9.41677 5.84768 8.91117 5.80964C8.40557 5.77159 8.0685 5.73354 7.89997 5.6955C7.5629 5.61941 7.64718 5.60038 8.15277 5.63843C8.65837 5.67647 8.99544 5.71452 9.16397 5.75257ZM123.429 3.75512C123.092 3.79317 122.755 3.79317 122.418 3.75512C122.081 3.75512 121.997 3.81219 122.165 3.92633C122.839 3.92633 123.261 3.86926 123.429 3.75512ZM89.8068 4.38289C89.9753 4.23071 89.8068 4.17364 89.3012 4.21168C88.7956 4.28777 88.4585 4.34484 88.29 4.38289C88.7956 4.34484 89.0484 4.32582 89.0484 4.32582C89.0484 4.32582 89.3012 4.34484 89.8068 4.38289ZM111.547 6.03792C111.21 6.07596 110.873 6.07596 110.536 6.03792C110.199 6.03792 110.031 6.07596 110.031 6.15206C110.368 6.11401 110.705 6.09499 111.042 6.09499C111.379 6.13303 111.547 6.11401 111.547 6.03792ZM117.615 3.86926V3.9834H118.626V3.86926H117.615ZM12.1976 6.15206C12.3661 6.07596 12.6189 6.05694 12.9559 6.09499C13.1245 6.17108 13.3773 6.20913 13.7143 6.20913C13.5458 6.24717 13.0402 6.22815 12.1976 6.15206ZM16.4951 6.15206C16.3266 6.26619 16.1581 6.28522 15.9895 6.20913C15.6525 6.17108 15.6525 6.11401 15.9895 6.03792C16.1581 6.03792 16.2423 6.05694 16.2423 6.09499C16.2423 6.13303 16.3266 6.15206 16.4951 6.15206ZM13.9671 6.20913C14.1357 6.24717 14.3885 6.2662 14.7255 6.2662C14.8941 6.2662 14.9783 6.30424 14.9783 6.38033C14.6413 6.34229 14.3885 6.32327 14.2199 6.32327C13.8829 6.32327 13.7986 6.28522 13.9671 6.20913ZM116.098 3.9834C115.929 3.9834 115.677 3.96438 115.339 3.92633C114.834 3.92633 114.665 3.96438 114.834 4.04047C115.002 4.00243 115.255 4.00243 115.592 4.04047C115.929 4.07852 116.098 4.05949 116.098 3.9834ZM94.61 4.21168C93.9358 4.21168 93.683 4.24973 93.8516 4.32582H94.3572C94.3572 4.28778 94.4414 4.26875 94.61 4.26875C94.61 4.26875 94.61 4.24973 94.61 4.21168ZM93.5988 4.26875C93.2617 4.3068 93.0089 4.3068 92.8404 4.26875C92.6718 4.26875 92.5876 4.3068 92.5876 4.38289C92.9246 4.34484 93.1774 4.32582 93.346 4.32582C93.5145 4.36387 93.5988 4.34484 93.5988 4.26875ZM12.1976 5.58136C11.8605 5.65745 11.9448 5.6955 12.4504 5.6955C12.956 5.6955 13.1245 5.67647 12.9559 5.63843L12.1976 5.58136ZM150.731 5.92378C151.405 5.92378 151.743 5.90475 151.743 5.86671C151.237 5.86671 150.9 5.88573 150.731 5.92378ZM20.2871 6.72275C20.2871 6.68471 20.6242 6.66568 21.2983 6.66568C21.2983 6.70373 20.9612 6.72275 20.2871 6.72275ZM127.979 3.69805C127.305 3.69805 126.968 3.71708 126.968 3.75512C127.474 3.75512 127.811 3.7361 127.979 3.69805ZM108.008 7.46466C108.177 7.42661 108.345 7.40759 108.514 7.40759C108.682 7.44564 108.767 7.42661 108.767 7.35052C108.598 7.38857 108.43 7.38857 108.261 7.35052C108.093 7.35052 108.008 7.38857 108.008 7.46466ZM118.12 5.92378C118.626 5.92378 118.879 5.90475 118.879 5.86671C118.373 5.86671 118.12 5.88573 118.12 5.92378ZM11.9447 5.46722C11.7762 5.50526 11.6919 5.50526 11.6919 5.46722C11.5234 5.42917 11.4392 5.42917 11.4392 5.46722C11.4392 5.54331 11.5234 5.58136 11.6919 5.58136C11.8605 5.58136 11.9447 5.54331 11.9447 5.46722ZM113.57 5.98085C113.064 5.98085 112.727 5.99987 112.559 6.03792C113.233 6.03792 113.57 6.01889 113.57 5.98085ZM157.304 2.67079C156.798 2.67079 156.546 2.68982 156.546 2.72786C157.051 2.72786 157.304 2.70884 157.304 2.67079ZM87.2788 4.26875C86.7732 4.26875 86.5204 4.28778 86.5204 4.32582C87.026 4.32582 87.2788 4.3068 87.2788 4.26875ZM127.474 5.63843C126.968 5.63843 126.715 5.65745 126.715 5.6955C127.221 5.6955 127.474 5.67647 127.474 5.63843ZM159.579 2.49958C159.242 2.57567 159.074 2.61372 159.074 2.61372C159.242 2.57568 159.411 2.55665 159.579 2.55665C159.579 2.5947 159.579 2.57567 159.579 2.49958ZM25.3431 2.67079C25.1746 2.70884 25.0903 2.70884 25.0903 2.67079C24.9218 2.67079 24.8375 2.70884 24.8375 2.78493C25.1746 2.70884 25.3431 2.67079 25.3431 2.67079ZM100.677 4.15461C100.34 4.2307 100.172 4.26875 100.172 4.26875C100.34 4.23071 100.509 4.21168 100.677 4.21168C100.677 4.24973 100.677 4.2307 100.677 4.15461ZM159.074 5.46722C159.242 5.42917 159.411 5.41015 159.579 5.41015C159.579 5.44819 159.579 5.42917 159.579 5.35308C159.242 5.42917 159.074 5.46722 159.074 5.46722ZM101.436 4.15461C101.098 4.15461 100.93 4.19266 100.93 4.26875L101.436 4.15461ZM139.861 6.38033C139.524 6.38033 139.355 6.41838 139.355 6.49448L139.861 6.38033ZM117.867 5.86671C117.699 5.90475 117.615 5.90475 117.615 5.86671C117.446 5.86671 117.362 5.90476 117.362 5.98085C117.362 5.9428 117.446 5.92378 117.615 5.92378C117.783 5.92378 117.867 5.90475 117.867 5.86671ZM133.288 6.60861C133.288 6.64666 133.204 6.66568 133.035 6.66568C132.867 6.66568 132.783 6.68471 132.783 6.72275C132.951 6.68471 133.12 6.66568 133.288 6.66568C133.288 6.70373 133.288 6.6847 133.288 6.60861ZM131.771 5.75257C131.771 5.71452 132.024 5.6955 132.53 5.6955C132.53 5.73354 132.446 5.73354 132.277 5.6955C132.108 5.6955 131.94 5.71452 131.771 5.75257ZM99.9187 4.21168C99.9187 4.24973 99.8345 4.24973 99.6659 4.21168C99.4974 4.21168 99.3289 4.23071 99.1604 4.26875C99.1604 4.23071 99.4132 4.21168 99.9187 4.21168ZM19.5287 6.66568C19.5287 6.62764 19.6972 6.60861 20.0343 6.60861C20.0343 6.64666 19.8658 6.66568 19.5287 6.66568ZM105.228 4.15461C104.89 4.15461 104.722 4.17364 104.722 4.21168C105.059 4.21168 105.228 4.19266 105.228 4.15461ZM122.165 6.03792C122.502 6.03792 122.671 6.01889 122.671 5.98085C122.334 5.98085 122.165 5.99987 122.165 6.03792ZM161.854 5.23894C161.517 5.23894 161.349 5.25796 161.349 5.29601C161.686 5.29601 161.854 5.27699 161.854 5.23894ZM151.995 5.86671C152.332 5.86671 152.501 5.84768 152.501 5.80964C152.164 5.80964 151.995 5.82866 151.995 5.86671ZM151.237 2.95614C150.9 2.95614 150.731 2.97517 150.731 3.01321C151.068 3.01321 151.237 2.99419 151.237 2.95614ZM124.187 6.95103C123.85 6.95103 123.682 6.97006 123.682 7.0081C124.019 7.0081 124.187 6.98908 124.187 6.95103ZM133.541 5.52429C133.878 5.52429 134.047 5.50526 134.047 5.46722C133.71 5.46722 133.541 5.48624 133.541 5.52429ZM15.2311 6.38033C15.2311 6.34229 15.3997 6.32327 15.7367 6.32327C15.7367 6.36131 15.5682 6.38033 15.2311 6.38033ZM148.203 6.09499C148.54 6.09499 148.709 6.07596 148.709 6.03792H148.456C148.456 6.03792 148.372 6.05694 148.203 6.09499ZM147.192 6.15206C147.361 6.15206 147.445 6.13303 147.445 6.09499C147.108 6.09499 146.939 6.11401 146.939 6.15206H147.192ZM149.973 5.98085C149.973 5.9428 149.804 5.96182 149.467 6.03792C149.467 5.99987 149.636 5.98085 149.973 5.98085ZM11.4392 6.09499C11.7762 6.01889 11.9447 5.99987 11.9447 6.03792C11.6077 6.03792 11.4392 6.05694 11.4392 6.09499Z" fill="#404040"/>
</svg>
