<svg width="29" height="29" viewBox="0 0 29 29" fill="none" xmlns="http://www.w3.org/2000/svg">
<g clip-path="url(#clip0_518_226)">
<path d="M26.8433 4.00001C25.7261 4.78807 24.4891 5.39081 23.18 5.78501C22.4774 4.97711 21.5436 4.40449 20.5049 4.14459C19.4662 3.8847 18.3728 3.95007 17.3724 4.33188C16.3721 4.71368 15.5132 5.39348 14.9118 6.27935C14.3105 7.16522 13.9957 8.2144 14.01 9.28501V10.4517C11.9598 10.5048 9.92817 10.0501 8.09619 9.12803C6.26422 8.20594 4.68872 6.84509 3.51001 5.16668C3.51001 5.16668 -1.15665 15.6667 9.34335 20.3333C6.94063 21.9643 4.07836 22.7821 1.17668 22.6667C11.6767 28.5 24.51 22.6667 24.51 9.25001C24.5089 8.92504 24.4777 8.60087 24.4167 8.28168C25.6074 7.10742 26.4476 5.62484 26.8433 4.00001Z" stroke="white" stroke-width="2" stroke-linecap="round" stroke-linejoin="round"/>
</g>
<defs>
<clipPath id="clip0_518_226">
<rect width="28" height="28" fill="white" transform="translate(0.0100098 0.5)"/>
</clipPath>
</defs>
</svg>
