<svg width="78" height="56" viewBox="0 0 78 56" fill="none" xmlns="http://www.w3.org/2000/svg">
<rect y="0.333252" width="78.0001" height="55" rx="3" fill="white"/>
<path d="M74 4.33325H4V51.3333H74V4.33325Z" fill="#ED5565"/>
<path d="M4 9.75635H74ZM74 16.9871H4ZM4 24.2179H74ZM74 31.4487H4ZM4 38.6794H74ZM74 45.9102H4Z" fill="black"/>
<path d="M4 9.75635H74M74 16.9871H4M4 24.2179H74M74 31.4487H4M4 38.6794H74M74 45.9102H4" stroke="#F5F7FA" stroke-width="3.20094"/>
<path d="M39.72 4.33325H4V29.848H39.72V4.33325Z" fill="#4758A9"/>
<path d="M6.97669 5.41785L7.82672 8.03396L5.60132 6.41711H8.35207L6.12666 8.03396L6.97669 5.41785Z" fill="white"/>
<path d="M6.97669 10.4794L7.82672 13.0955L5.60132 11.4787H8.35207L6.12666 13.0955L6.97669 10.4794Z" fill="white"/>
<path d="M6.97669 15.5409L7.82672 18.157L5.60132 16.5402H8.35207L6.12666 18.157L6.97669 15.5409Z" fill="white"/>
<path d="M6.97669 20.6025L7.82672 23.2186L5.60132 21.6017H8.35207L6.12666 23.2186L6.97669 20.6025Z" fill="white"/>
<path d="M6.97669 25.664L7.82672 28.2801L5.60132 26.6633H8.35207L6.12666 28.2801L6.97669 25.664Z" fill="white"/>
<path d="M9.95326 7.94864L10.8033 10.5648L8.57788 8.94791H11.3286L9.10323 10.5648L9.95326 7.94864Z" fill="white"/>
<path d="M9.95326 13.0102L10.8033 15.6263L8.57788 14.0095H11.3286L9.10323 15.6263L9.95326 13.0102Z" fill="white"/>
<path d="M9.95326 18.0717L10.8033 20.6878L8.57788 19.071H11.3286L9.10323 20.6878L9.95326 18.0717Z" fill="white"/>
<path d="M9.95326 23.1333L10.8033 25.7494L8.57788 24.1325H11.3286L9.10323 25.7494L9.95326 23.1333Z" fill="white"/>
<path d="M12.9301 5.41785L13.7801 8.03396L11.5547 6.41711H14.3054L12.08 8.03396L12.9301 5.41785Z" fill="white"/>
<path d="M12.9301 10.4794L13.7801 13.0955L11.5547 11.4787H14.3054L12.08 13.0955L12.9301 10.4794Z" fill="white"/>
<path d="M12.9301 15.5409L13.7801 18.157L11.5547 16.5402H14.3054L12.08 18.157L12.9301 15.5409Z" fill="white"/>
<path d="M12.9301 20.6025L13.7801 23.2186L11.5547 21.6017H14.3054L12.08 23.2186L12.9301 20.6025Z" fill="white"/>
<path d="M12.9301 25.664L13.7801 28.2801L11.5547 26.6633H14.3054L12.08 28.2801L12.9301 25.664Z" fill="white"/>
<path d="M15.9066 7.94864L16.7567 10.5648L14.5312 8.94791H17.282L15.0566 10.5648L15.9066 7.94864Z" fill="white"/>
<path d="M15.9066 13.0102L16.7567 15.6263L14.5312 14.0095H17.282L15.0566 15.6263L15.9066 13.0102Z" fill="white"/>
<path d="M15.9066 18.0717L16.7567 20.6878L14.5312 19.071H17.282L15.0566 20.6878L15.9066 18.0717Z" fill="white"/>
<path d="M15.9066 23.1333L16.7567 25.7494L14.5312 24.1325H17.282L15.0566 25.7494L15.9066 23.1333Z" fill="white"/>
<path d="M18.8834 5.41785L19.7335 8.03396L17.5081 6.41711H20.2588L18.0334 8.03396L18.8834 5.41785Z" fill="white"/>
<path d="M18.8834 10.4794L19.7335 13.0955L17.5081 11.4787H20.2588L18.0334 13.0955L18.8834 10.4794Z" fill="white"/>
<path d="M18.8834 15.5409L19.7335 18.157L17.5081 16.5402H20.2588L18.0334 18.157L18.8834 15.5409Z" fill="white"/>
<path d="M18.8834 20.6025L19.7335 23.2186L17.5081 21.6017H20.2588L18.0334 23.2186L18.8834 20.6025Z" fill="white"/>
<path d="M18.8834 25.664L19.7335 28.2801L17.5081 26.6633H20.2588L18.0334 28.2801L18.8834 25.664Z" fill="white"/>
<path d="M21.8601 7.94864L22.7101 10.5648L20.4847 8.94791H23.2355L21.0101 10.5648L21.8601 7.94864Z" fill="white"/>
<path d="M21.8601 13.0102L22.7101 15.6263L20.4847 14.0095H23.2355L21.0101 15.6263L21.8601 13.0102Z" fill="white"/>
<path d="M21.8601 18.0717L22.7101 20.6878L20.4847 19.071H23.2355L21.0101 20.6878L21.8601 18.0717Z" fill="white"/>
<path d="M21.8601 23.1333L22.7101 25.7494L20.4847 24.1325H23.2355L21.0101 25.7494L21.8601 23.1333Z" fill="white"/>
<path d="M24.8368 5.41785L25.6868 8.03396L23.4614 6.41711H26.2122L23.9868 8.03396L24.8368 5.41785Z" fill="white"/>
<path d="M24.8368 10.4794L25.6868 13.0955L23.4614 11.4787H26.2122L23.9868 13.0955L24.8368 10.4794Z" fill="white"/>
<path d="M24.8368 15.5409L25.6868 18.157L23.4614 16.5402H26.2122L23.9868 18.157L24.8368 15.5409Z" fill="white"/>
<path d="M24.8368 20.6025L25.6868 23.2186L23.4614 21.6017H26.2122L23.9868 23.2186L24.8368 20.6025Z" fill="white"/>
<path d="M24.8368 25.664L25.6868 28.2801L23.4614 26.6633H26.2122L23.9868 28.2801L24.8368 25.664Z" fill="white"/>
<path d="M27.8135 7.94864L28.6635 10.5648L26.4381 8.94791H29.1889L26.9635 10.5648L27.8135 7.94864Z" fill="white"/>
<path d="M27.8135 13.0102L28.6635 15.6263L26.4381 14.0095H29.1889L26.9635 15.6263L27.8135 13.0102Z" fill="white"/>
<path d="M27.8135 18.0717L28.6635 20.6878L26.4381 19.071H29.1889L26.9635 20.6878L27.8135 18.0717Z" fill="white"/>
<path d="M27.8135 23.1333L28.6635 25.7494L26.4381 24.1325H29.1889L26.9635 25.7494L27.8135 23.1333Z" fill="white"/>
<path d="M30.79 5.41785L31.6401 8.03396L29.4147 6.41711H32.1654L29.94 8.03396L30.79 5.41785Z" fill="white"/>
<path d="M30.79 10.4794L31.6401 13.0955L29.4147 11.4787H32.1654L29.94 13.0955L30.79 10.4794Z" fill="white"/>
<path d="M30.79 15.5409L31.6401 18.157L29.4147 16.5402H32.1654L29.94 18.157L30.79 15.5409Z" fill="white"/>
<path d="M30.79 20.6025L31.6401 23.2186L29.4147 21.6017H32.1654L29.94 23.2186L30.79 20.6025Z" fill="white"/>
<path d="M30.79 25.664L31.6401 28.2801L29.4147 26.6633H32.1654L29.94 28.2801L30.79 25.664Z" fill="white"/>
<path d="M33.7667 7.94864L34.6168 10.5648L32.3914 8.94791H35.1421L32.9167 10.5648L33.7667 7.94864Z" fill="white"/>
<path d="M33.7667 13.0102L34.6168 15.6263L32.3914 14.0095H35.1421L32.9167 15.6263L33.7667 13.0102Z" fill="white"/>
<path d="M33.7667 18.0717L34.6168 20.6878L32.3914 19.071H35.1421L32.9167 20.6878L33.7667 18.0717Z" fill="white"/>
<path d="M33.7667 23.1333L34.6168 25.7494L32.3914 24.1325H35.1421L32.9167 25.7494L33.7667 23.1333Z" fill="white"/>
<path d="M36.7433 5.41785L37.5933 8.03396L35.3679 6.41711H38.1187L35.8933 8.03396L36.7433 5.41785Z" fill="white"/>
<path d="M36.7433 10.4794L37.5933 13.0955L35.3679 11.4787H38.1187L35.8933 13.0955L36.7433 10.4794Z" fill="white"/>
<path d="M36.7433 15.5409L37.5933 18.157L35.3679 16.5402H38.1187L35.8933 18.157L36.7433 15.5409Z" fill="white"/>
<path d="M36.7433 20.6025L37.5933 23.2186L35.3679 21.6017H38.1187L35.8933 23.2186L36.7433 20.6025Z" fill="white"/>
<path d="M36.7433 25.664L37.5933 28.2801L35.3679 26.6633H38.1187L35.8933 28.2801L36.7433 25.664Z" fill="white"/>
</svg>
