<svg width="48" height="38" viewBox="0 0 48 38" fill="none" xmlns="http://www.w3.org/2000/svg">
<path d="M10.2357 0.925797C10.0246 0.592828 10.264 0.157961 10.6582 0.158102L18.105 0.160773C18.2733 0.160834 18.4303 0.245537 18.5227 0.386162L23.5946 8.10332C23.7923 8.40412 24.2335 8.40377 24.4307 8.10266L29.4837 0.387542C29.5761 0.246519 29.7333 0.161533 29.9019 0.161493L37.3446 0.159711C37.738 0.159617 37.9774 0.592881 37.768 0.925899L24.4778 22.0581C24.2822 22.3692 23.829 22.37 23.6323 22.0596L10.2357 0.925797Z" fill="#636363"/>
<path d="M2.29284 3.27239C1.44518 1.94588 2.39138 0.20541 3.96556 0.195508L8.63297 0.166151C9.3225 0.161814 9.96563 0.512978 10.3348 1.09538L22.3518 20.0541C23.1388 21.2957 24.9514 21.2925 25.734 20.0482L37.6536 1.09679C38.0201 0.514209 38.6603 0.160951 39.3485 0.161604L44.0216 0.16604C45.5985 0.167537 46.5535 1.90818 45.7076 3.23895L25.7299 34.6668C24.9453 35.9012 23.1444 35.9033 22.3568 34.6708L2.29284 3.27239Z" fill="#858585"/>
</svg>
