<svg width="177" height="10" viewBox="0 0 177 10" fill="none" xmlns="http://www.w3.org/2000/svg">
<path d="M176.425 5.88366C176.936 5.88366 177.021 5.92806 176.68 6.01687C176.339 6.10568 176.425 6.15009 176.936 6.15009C176.766 6.2389 176.595 6.2833 176.425 6.2833C176.254 6.2389 176.169 6.17229 176.169 6.08348C175.658 6.17229 175.658 6.2611 176.169 6.34991C176.851 6.39432 176.68 6.41652 175.658 6.41652C175.999 6.50533 176.339 6.54973 176.68 6.54973C177.021 6.54973 177.021 6.61634 176.68 6.74956C176.51 6.74956 176.425 6.68295 176.425 6.54973C175.913 6.54973 175.658 6.59414 175.658 6.68295C175.828 6.77176 175.743 6.83837 175.402 6.88277C175.743 6.88277 175.828 6.94938 175.658 7.08259C175.487 7.21581 175.572 7.23801 175.913 7.1492C176.254 7.37123 176.339 7.63766 176.169 7.94849C176.169 8.21492 175.913 8.45915 175.402 8.68117C175.061 8.85879 174.464 8.9698 173.612 9.01421C172.76 9.05861 171.822 8.9254 170.8 8.61456C171.652 8.61456 172.419 8.54796 173.101 8.41474C173.953 8.23712 174.038 7.99289 173.356 7.68206C173.016 7.77087 172.504 7.97069 171.822 8.28153C171.14 8.59236 170.373 8.70337 169.521 8.61456C169.18 8.65897 168.925 8.76998 168.754 8.9476C168.754 9.08082 168.669 9.19183 168.498 9.28064C168.157 9.32504 167.902 9.32504 167.731 9.28064C167.731 9.19183 167.561 9.14742 167.22 9.14742C166.709 9.8579 165.601 10.1243 163.896 9.94671C163.726 9.8579 163.555 9.76909 163.385 9.68028C163.214 9.59147 162.958 9.50266 162.618 9.41385C162.106 9.23623 161.424 9.12522 160.572 9.08082C159.89 8.99201 159.294 8.83659 158.782 8.61456C152.134 7.94849 144.549 7.39343 136.026 6.94938C127.674 6.50533 119.406 6.2389 111.224 6.15009C110.883 6.15009 110.713 6.15009 110.713 6.15009C110.713 6.10568 110.628 6.08348 110.457 6.08348C92.3886 5.95027 74.8313 6.01687 57.7855 6.2833C40.9101 6.50533 25.2279 7.127 10.7389 8.14831C9.20477 8.28153 7.8411 8.45915 6.64789 8.68117C5.62513 8.9032 4.3467 9.01421 2.81257 9.01421C2.47165 8.9254 2.38642 8.85879 2.55688 8.81439C2.72734 8.76998 2.55688 8.72558 2.0455 8.68117C2.38642 8.50355 2.81257 8.39254 3.32394 8.34813C3.83532 8.25932 4.26147 8.17051 4.60238 8.0817C4.26147 7.99289 3.92055 8.0151 3.57963 8.14831C3.23871 8.23712 2.81257 8.25932 2.30119 8.21492C2.98303 7.90409 2.8978 7.72646 2.0455 7.68206C2.0455 7.46003 2.30119 7.34902 2.81257 7.34902C2.64211 7.21581 2.38642 7.1048 2.0455 7.01599C1.87504 6.88277 1.61936 6.74956 1.27844 6.61634C1.96027 6.43872 2.72734 6.30551 3.57963 6.2167C4.43192 6.08348 5.28422 5.95027 6.13651 5.81705C6.13651 5.72824 5.88082 5.70604 5.36945 5.75044C4.85807 5.79485 4.43192 5.79485 4.09101 5.75044C4.09101 5.61723 3.92055 5.55062 3.57963 5.55062C4.26147 5.10657 5.36945 4.81794 6.90357 4.68472C8.60816 4.5071 10.3127 4.32948 12.0173 4.15187C10.1423 4.15187 8.52293 4.26288 7.15926 4.4849C5.79559 4.70693 4.26147 4.97336 2.55688 5.28419C1.87505 5.19538 1.36367 5.15098 1.02275 5.15098C0.852293 5.10657 0.511376 5.06217 0 5.01776C2.55688 4.4405 5.53991 3.97425 8.94908 3.61901C12.5287 3.26377 16.1936 2.97513 19.9437 2.75311C23.8642 2.48668 27.7848 2.26465 31.7053 2.08703C35.7963 1.90941 39.7169 1.70959 43.467 1.48757C43.2965 1.66519 43.467 1.68739 43.9783 1.55417C44.6602 1.42096 45.2568 1.42096 45.7681 1.55417C45.9386 1.55417 46.0238 1.55417 46.0238 1.55417C46.0238 1.50977 45.9386 1.48757 45.7681 1.48757C56.3366 1.04352 68.013 0.666074 80.7974 0.35524C93.7523 -2.3159e-07 106.111 -0.08881 117.872 0.0888102C121.963 0.0888102 125.543 0.222025 128.611 0.488455C128.782 0.488455 128.782 0.466252 128.611 0.421847C132.702 0.510657 136.537 0.71048 140.117 1.02131C143.867 1.28774 147.702 1.55417 151.623 1.8206C151.793 1.90941 151.964 1.95382 152.134 1.95382C152.475 1.90941 152.475 1.93162 152.134 2.02043C152.475 2.02043 152.646 1.99822 152.646 1.95382C152.816 1.90941 153.072 1.90941 153.413 1.95382C153.413 2.08703 154.095 2.22025 155.458 2.35346C156.822 2.44227 157.93 2.50888 158.782 2.55329C158.782 2.55329 158.612 2.59769 158.271 2.6865C158.441 2.77531 158.527 2.77531 158.527 2.6865C158.697 2.59769 158.953 2.57549 159.294 2.61989C159.294 2.6643 159.208 2.7087 159.038 2.75311C159.038 2.75311 159.038 2.79751 159.038 2.88632C159.208 2.84192 159.294 2.79751 159.294 2.75311C159.464 2.7087 159.72 2.6865 160.061 2.6865C159.72 2.86412 159.975 2.97513 160.828 3.01954C161.85 3.01954 162.532 3.04174 162.873 3.08615C162.873 2.99734 162.703 2.95293 162.362 2.95293C163.044 2.86412 163.385 2.93073 163.385 3.15275C163.385 3.10835 163.64 3.08615 164.152 3.08615C164.152 3.13055 163.896 3.15275 163.385 3.15275C163.385 3.24156 163.299 3.30817 163.129 3.35258C163.981 3.21936 164.493 3.13055 164.663 3.08615C165.004 3.08615 165.089 3.10835 164.919 3.15275C164.748 3.19716 164.663 3.24156 164.663 3.28597C165.174 3.19716 165.601 3.19716 165.941 3.28597C166.282 3.33037 166.112 3.35258 165.43 3.35258C166.112 3.39698 166.453 3.44139 166.453 3.48579C166.453 3.48579 166.623 3.46359 166.964 3.41918C167.305 3.64121 167.22 3.70781 166.709 3.61901C166.197 3.5302 165.941 3.5524 165.941 3.68561C166.453 3.73002 166.879 3.79662 167.22 3.88543C167.731 3.92984 168.328 3.97425 169.01 4.01865C168.839 3.92984 168.584 3.88543 168.243 3.88543C168.072 3.88543 167.902 3.86323 167.731 3.81883C167.39 3.73002 167.39 3.66341 167.731 3.61901C168.072 3.5746 167.987 3.5302 167.476 3.48579C167.987 3.35258 168.157 3.37478 167.987 3.5524C167.817 3.68561 167.902 3.73002 168.243 3.68561C168.584 3.73002 168.669 3.75222 168.498 3.75222C168.498 3.70781 168.498 3.64121 168.498 3.5524C168.669 3.64121 168.925 3.68561 169.265 3.68561C169.606 3.64121 169.692 3.66341 169.521 3.75222C169.18 3.70781 169.095 3.77442 169.265 3.95204C169.606 4.08526 169.947 4.19627 170.288 4.28508C170.629 4.32948 170.8 4.32948 170.8 4.28508C170.97 4.19627 171.226 4.15187 171.567 4.15187C171.055 4.01865 170.714 3.95204 170.544 3.95204C170.714 3.86323 171.055 3.86323 171.567 3.95204C172.078 4.04085 172.078 3.97425 171.567 3.75222C171.737 3.66341 171.993 3.66341 172.334 3.75222C172.675 3.84103 172.93 3.92984 173.101 4.01865C173.101 4.10746 172.93 4.10746 172.589 4.01865C172.419 3.88543 172.163 3.88543 171.822 4.01865C171.822 4.10746 171.908 4.12966 172.078 4.08526C172.419 4.04085 172.675 4.06306 172.845 4.15187C172.334 4.28508 171.993 4.30728 171.822 4.21847C172.163 4.30728 172.419 4.35169 172.589 4.35169C172.93 4.30728 173.442 4.30728 174.124 4.35169C173.783 4.52931 173.612 4.64032 173.612 4.68472C173.953 4.59591 174.124 4.57371 174.124 4.61812C174.294 4.66252 174.55 4.64032 174.891 4.55151C174.209 4.72913 174.209 4.79574 174.891 4.75133C175.572 4.70693 175.828 4.79574 175.658 5.01776C174.635 5.10657 174.124 4.99556 174.124 4.68472C173.783 4.68472 173.612 4.70693 173.612 4.75133C173.612 4.79574 173.442 4.81794 173.101 4.81794C173.442 4.90675 173.868 4.99556 174.379 5.08437C174.891 5.17318 175.317 5.19538 175.658 5.15098C175.999 5.06217 175.999 5.10657 175.658 5.28419C175.487 5.41741 175.231 5.41741 174.891 5.28419C175.231 5.46181 175.487 5.63943 175.658 5.81705C175.828 5.99467 176.084 6.01687 176.425 5.88366ZM163.385 4.88455C164.237 4.84014 164.237 4.79574 163.385 4.75133C162.703 4.70693 162.703 4.64032 163.385 4.55151C160.657 4.06305 157.589 3.75222 154.18 3.61901C150.771 3.48579 147.276 3.26377 143.697 2.95293C139.776 2.77531 136.111 2.6421 132.702 2.55329C129.463 2.46448 125.798 2.37567 121.707 2.28686C115.06 2.19805 107.474 2.17584 98.9512 2.22025C90.5988 2.26465 83.0134 2.42007 76.195 2.6865C83.8657 2.50888 91.7067 2.39787 99.7183 2.35346C107.73 2.30906 115.571 2.37567 123.242 2.55329C130.912 2.73091 138.157 3.01954 144.975 3.41918C151.793 3.77442 157.845 4.24067 163.129 4.81794C163.129 4.81794 163.214 4.84014 163.385 4.88455ZM171.055 4.35169C171.908 4.57371 172.589 4.70693 173.101 4.75133C172.93 4.66252 172.93 4.59591 173.101 4.55151C173.442 4.5071 173.442 4.4627 173.101 4.41829C173.101 4.5071 173.016 4.52931 172.845 4.4849C172.504 4.57371 172.163 4.55151 171.822 4.41829C171.652 4.24067 171.396 4.21847 171.055 4.35169ZM31.7053 6.08348C31.1939 6.17229 31.0235 6.2167 31.1939 6.2167C31.3644 6.2167 31.7053 6.2167 32.2167 6.2167C32.7281 6.2167 33.2394 6.19449 33.7508 6.15009C34.2622 6.10568 34.4326 6.06128 34.2622 6.01687C33.2394 6.10568 32.3871 6.12789 31.7053 6.08348ZM74.4052 2.61989C73.5529 2.61989 73.0415 2.6421 72.8711 2.6865C72.8711 2.6865 72.9563 2.7087 73.1268 2.75311C73.4677 2.75311 73.8938 2.75311 74.4052 2.75311C74.9166 2.75311 75.2575 2.7087 75.428 2.61989C75.087 2.53108 74.9166 2.50888 74.9166 2.55329C74.9166 2.59769 74.7461 2.61989 74.4052 2.61989ZM43.2113 5.88366C43.3817 5.79485 43.8079 5.77265 44.4897 5.81705C45.1715 5.86146 45.5125 5.81705 45.5125 5.68384H43.9783C43.6374 5.68384 43.2965 5.70604 42.9556 5.75044C42.7851 5.79485 42.8704 5.83925 43.2113 5.88366ZM176.169 5.61723C176.68 5.57282 176.851 5.52842 176.68 5.48401C176.68 5.3952 176.595 5.30639 176.425 5.21758C176.936 5.30639 177.107 5.3952 176.936 5.48401C176.936 5.57282 176.851 5.66163 176.68 5.75044C176.339 5.79485 176.169 5.79485 176.169 5.75044C176.169 5.66163 175.999 5.59503 175.658 5.55062C175.658 5.46181 175.743 5.43961 175.913 5.48401C176.084 5.52842 176.169 5.57282 176.169 5.61723ZM160.572 2.48668C160.402 2.57549 160.061 2.59769 159.549 2.55329C159.038 2.46448 158.612 2.39787 158.271 2.35346C158.271 2.30906 158.527 2.30906 159.038 2.35346C159.72 2.35346 160.231 2.39787 160.572 2.48668ZM26.0802 6.41652C27.4438 6.41652 28.3814 6.37211 28.8927 6.2833C27.3586 6.2833 26.4211 6.32771 26.0802 6.41652ZM20.7107 6.68295C21.0516 6.68295 21.6482 6.68295 22.5005 6.68295C23.3528 6.63854 23.6085 6.59414 23.2676 6.54973C22.9267 6.54973 22.3301 6.57194 21.4778 6.61634C20.796 6.61634 20.5403 6.63854 20.7107 6.68295ZM18.6652 3.48579C19.0061 3.48579 19.4323 3.46359 19.9437 3.41918C20.455 3.37478 20.5403 3.30817 20.1993 3.21936C19.8584 3.35258 19.5175 3.39698 19.1766 3.35258C19.0061 3.30817 18.8357 3.35258 18.6652 3.48579ZM54.2058 5.55062C54.2058 5.46181 54.632 5.43961 55.4843 5.48401C56.507 5.52842 56.6775 5.48401 55.9957 5.3508C55.9957 5.43961 55.4843 5.48401 54.4615 5.48401C53.6092 5.43961 53.524 5.46181 54.2058 5.55062ZM66.4789 2.88632C66.8198 2.84192 67.5869 2.81972 68.7801 2.81972C70.1437 2.77531 70.5699 2.75311 70.0585 2.75311C69.3767 2.79751 68.6096 2.79751 67.7573 2.75311C67.0755 2.7087 66.6493 2.75311 66.4789 2.88632ZM169.777 4.08526C169.606 3.90764 169.692 3.84103 170.033 3.88543C170.544 3.92984 170.8 4.01865 170.8 4.15187C170.629 4.10746 170.288 4.08526 169.777 4.08526ZM167.731 3.28597C167.39 3.19716 167.476 3.17496 167.987 3.21936C168.498 3.26376 168.839 3.30817 169.01 3.35258C169.351 3.44139 169.265 3.46359 168.754 3.41918C168.243 3.37478 167.902 3.33037 167.731 3.28597ZM52.1603 5.61723C52.5013 5.57282 52.8422 5.57282 53.1831 5.61723C53.524 5.61723 53.6092 5.55062 53.4388 5.41741C52.757 5.41741 52.3308 5.48401 52.1603 5.61723ZM86.1668 4.88455C85.9964 5.06217 86.1668 5.12877 86.6782 5.08437C87.1896 4.99556 87.5305 4.92895 87.701 4.88455C87.1896 4.92895 86.9339 4.95115 86.9339 4.95115C86.9339 4.95115 86.6782 4.92895 86.1668 4.88455ZM64.1777 2.95293C64.5186 2.90853 64.8595 2.90853 65.2004 2.95293C65.5414 2.95293 65.7118 2.90853 65.7118 2.81972C65.3709 2.86412 65.03 2.88632 64.6891 2.88632C64.3481 2.84192 64.1777 2.86412 64.1777 2.95293ZM58.0412 5.48401V5.3508H57.0184V5.48401H58.0412ZM164.663 2.81972C164.493 2.90853 164.237 2.93073 163.896 2.88632C163.726 2.79751 163.47 2.75311 163.129 2.75311C163.299 2.7087 163.811 2.73091 164.663 2.81972ZM160.316 2.81972C160.487 2.6865 160.657 2.6643 160.828 2.75311C161.169 2.79751 161.169 2.86412 160.828 2.95293C160.657 2.95293 160.572 2.93073 160.572 2.88632C160.572 2.84192 160.487 2.81972 160.316 2.81972ZM162.873 2.75311C162.703 2.7087 162.447 2.6865 162.106 2.6865C161.936 2.6865 161.85 2.6421 161.85 2.55329C162.191 2.59769 162.447 2.61989 162.618 2.61989C162.958 2.61989 163.044 2.6643 162.873 2.75311ZM59.5753 5.3508C59.7458 5.3508 60.0014 5.373 60.3424 5.41741C60.8537 5.41741 61.0242 5.373 60.8537 5.28419C60.6833 5.3286 60.4276 5.3286 60.0867 5.28419C59.7458 5.23979 59.5753 5.26199 59.5753 5.3508ZM81.3088 5.08437C81.9906 5.08437 82.2463 5.03996 82.0758 4.95115H81.5645C81.5645 4.99556 81.4792 5.01776 81.3088 5.01776C81.3088 5.01776 81.3088 5.03996 81.3088 5.08437ZM82.3315 5.01776C82.6724 4.97336 82.9281 4.97336 83.0986 5.01776C83.269 5.01776 83.3543 4.97336 83.3543 4.88455C83.0134 4.92895 82.7577 4.95115 82.5872 4.95115C82.4168 4.90675 82.3315 4.92895 82.3315 5.01776ZM164.663 3.48579C165.004 3.39698 164.919 3.35258 164.407 3.35258C163.896 3.35258 163.726 3.37478 163.896 3.41918L164.663 3.48579ZM24.546 3.08615C23.8642 3.08615 23.5233 3.10835 23.5233 3.15275C24.0347 3.15275 24.3756 3.13055 24.546 3.08615ZM156.481 2.15364C156.481 2.19805 156.14 2.22025 155.458 2.22025C155.458 2.17584 155.799 2.15364 156.481 2.15364ZM47.558 5.68384C48.2398 5.68384 48.5807 5.66163 48.5807 5.61723C48.0693 5.61723 47.7284 5.63943 47.558 5.68384ZM67.7573 1.28774C67.5869 1.33215 67.4164 1.35435 67.2459 1.35435C67.0755 1.30995 66.9903 1.33215 66.9903 1.42096C67.1607 1.37655 67.3312 1.37655 67.5016 1.42096C67.6721 1.42096 67.7573 1.37655 67.7573 1.28774ZM57.5298 3.08615C57.0184 3.08615 56.7627 3.10835 56.7627 3.15275C57.2741 3.15275 57.5298 3.13055 57.5298 3.08615ZM164.919 3.61901C165.089 3.5746 165.174 3.5746 165.174 3.61901C165.345 3.66341 165.43 3.66341 165.43 3.61901C165.43 3.5302 165.345 3.48579 165.174 3.48579C165.004 3.48579 164.919 3.5302 164.919 3.61901ZM62.1322 3.01954C62.6436 3.01954 62.9845 2.99734 63.1549 2.95293C62.4731 2.95293 62.1322 2.97513 62.1322 3.01954ZM17.8982 6.88277C18.4095 6.88277 18.6652 6.86057 18.6652 6.81616C18.1538 6.81616 17.8982 6.83837 17.8982 6.88277ZM88.7237 5.01776C89.2351 5.01776 89.4908 4.99556 89.4908 4.95115C88.9794 4.95115 88.7237 4.97336 88.7237 5.01776ZM48.0693 3.41918C48.5807 3.41918 48.8364 3.39698 48.8364 3.35258C48.325 3.35258 48.0693 3.37478 48.0693 3.41918ZM15.597 7.08259C15.9379 6.99378 16.1083 6.94938 16.1083 6.94938C15.9379 6.99378 15.7674 7.01599 15.597 7.01599C15.597 6.97158 15.597 6.99378 15.597 7.08259ZM151.367 6.88277C151.538 6.83837 151.623 6.83837 151.623 6.88277C151.793 6.88277 151.879 6.83837 151.879 6.74956C151.538 6.83837 151.367 6.88277 151.367 6.88277ZM75.1723 5.15098C75.5132 5.06217 75.6836 5.01776 75.6836 5.01776C75.5132 5.06217 75.3427 5.08437 75.1723 5.08437C75.1723 5.03996 75.1723 5.06217 75.1723 5.15098ZM16.1083 3.61901C15.9379 3.66341 15.7674 3.68561 15.597 3.68561C15.597 3.64121 15.597 3.66341 15.597 3.75222C15.9379 3.66341 16.1083 3.61901 16.1083 3.61901ZM74.4052 5.15098C74.7461 5.15098 74.9166 5.10657 74.9166 5.01776L74.4052 5.15098ZM35.5406 2.55329C35.8815 2.55329 36.052 2.50888 36.052 2.42007L35.5406 2.55329ZM57.7855 3.15275C57.9559 3.10835 58.0412 3.10835 58.0412 3.15275C58.2116 3.15275 58.2969 3.10835 58.2969 3.01954C58.2969 3.06394 58.2116 3.08615 58.0412 3.08615C57.8707 3.08615 57.7855 3.10835 57.7855 3.15275ZM42.1885 2.28686C42.1885 2.24245 42.2737 2.22025 42.4442 2.22025C42.6147 2.22025 42.6999 2.19805 42.6999 2.15364C42.5294 2.19805 42.359 2.22025 42.1885 2.22025C42.1885 2.17584 42.1885 2.19805 42.1885 2.28686ZM43.7226 3.28597C43.7226 3.33037 43.467 3.35258 42.9556 3.35258C42.9556 3.30817 43.0408 3.30817 43.2113 3.35258C43.3817 3.35258 43.5522 3.33037 43.7226 3.28597ZM75.9393 5.08437C75.9393 5.03996 76.0246 5.03996 76.195 5.08437C76.3655 5.08437 76.5359 5.06217 76.7064 5.01776C76.7064 5.06217 76.4507 5.08437 75.9393 5.08437ZM157.248 2.22025C157.248 2.26465 157.078 2.28686 156.737 2.28686C156.737 2.24245 156.907 2.22025 157.248 2.22025ZM70.5699 5.15098C70.9108 5.15098 71.0813 5.12877 71.0813 5.08437C70.7403 5.08437 70.5699 5.10657 70.5699 5.15098ZM53.4388 2.95293C53.0979 2.95293 52.9274 2.97513 52.9274 3.01954C53.2683 3.01954 53.4388 2.99734 53.4388 2.95293ZM13.2958 3.88543C13.6367 3.88543 13.8071 3.86323 13.8071 3.81883C13.4662 3.81883 13.2958 3.84103 13.2958 3.88543ZM23.2676 3.15275C22.9267 3.15275 22.7562 3.17496 22.7562 3.21936C23.0971 3.21936 23.2676 3.19716 23.2676 3.15275ZM24.0347 6.54973C24.3756 6.54973 24.546 6.52753 24.546 6.48313C24.2051 6.48313 24.0347 6.50533 24.0347 6.54973ZM51.3933 1.88721C51.7342 1.88721 51.9047 1.86501 51.9047 1.8206C51.5637 1.8206 51.3933 1.84281 51.3933 1.88721ZM41.9328 3.5524C41.5919 3.5524 41.4215 3.5746 41.4215 3.61901C41.7624 3.61901 41.9328 3.5968 41.9328 3.5524ZM161.595 2.55329C161.595 2.59769 161.424 2.61989 161.083 2.61989C161.083 2.57549 161.254 2.55329 161.595 2.55329ZM27.1029 2.88632C26.762 2.88632 26.5915 2.90853 26.5915 2.95293H26.8472C26.8472 2.95293 26.9325 2.93073 27.1029 2.88632ZM28.1257 2.81972C27.9552 2.81972 27.87 2.84192 27.87 2.88632C28.2109 2.88632 28.3814 2.86412 28.3814 2.81972H28.1257ZM25.3131 3.01954C25.3131 3.06394 25.4836 3.04174 25.8245 2.95293C25.8245 2.99734 25.654 3.01954 25.3131 3.01954ZM165.43 2.88632C165.089 2.97513 164.919 2.99734 164.919 2.95293C165.26 2.95293 165.43 2.93073 165.43 2.88632Z" fill="#404040"/>
</svg>
