<svg width="28" height="30" viewBox="0 0 28 30" fill="none" xmlns="http://www.w3.org/2000/svg">
<path d="M11.2315 26.4806L11.1386 26.086L10.7971 25.8674L5.95841 22.7706L5.6021 22.5426L5.19031 22.6395L2.66979 23.2325L1.18932 20.2716L2.89242 18.2588L3.12903 17.9792V17.6129V12.5806V12.2701L2.95307 12.0141L1.18203 9.43805L2.5787 7.02561L5.08653 7.91073L5.56345 8.07905L5.98166 7.79467L10.8204 4.50435L11.1536 4.27775L11.2366 3.88343L11.837 1.03169L15.2385 1.16252L15.8581 4.26063L15.9449 4.69441L16.3242 4.92201L21.1629 7.82523L21.5767 8.07351L22.0285 7.90407L24.3915 7.01798L25.977 9.33528L24.0959 11.0716L23.7742 11.3686V11.8065V17.6129V18.0271L24.0671 18.32L26.0736 20.3265L24.6023 23.2691L21.0821 22.629L20.6611 22.5525L20.3151 22.8042L16.057 25.9009L15.7568 26.1193L15.6717 26.4806L15.079 29H13.3548H11.8243L11.2315 26.4806Z" stroke="#202020" stroke-width="2"/>
<circle cx="13.5484" cy="15.0968" r="4.80645" stroke="#202020" stroke-width="2"/>
</svg>
