<svg width="185" height="18" viewBox="0 0 185 18" fill="none" xmlns="http://www.w3.org/2000/svg">
<path d="M184.716 4.67841C185.095 5.07489 185.095 5.55066 184.716 6.10573C184.527 6.66079 184.622 7.13656 185 7.53304C184.433 7.53304 184.055 7.81057 183.866 8.36564C183.676 8.84141 183.487 9.27753 183.298 9.67401C181.407 11.6564 178.76 13.0837 175.357 13.9559C172.143 14.7489 168.267 15.304 163.729 15.6211C163.35 15.5419 162.878 15.5419 162.311 15.6211C161.932 15.6211 161.743 15.5419 161.743 15.3833C155.126 16.3348 148.319 16.8106 141.323 16.8106C134.516 16.8106 127.331 16.4934 119.768 15.859C111.07 15.1454 102.184 14.4714 93.1078 13.837C84.2211 13.1233 75.2398 12.6079 66.164 12.2907C57.2773 11.9736 48.4852 11.9339 39.7876 12.1718C31.279 12.3304 23.0541 12.9251 15.1128 13.9559C14.9237 14.2731 14.9237 14.511 15.1128 14.6696C15.3019 14.8282 15.3019 15.1057 15.1128 15.5022C14.3565 15.2643 13.6947 15.1454 13.1275 15.1454C12.5602 15.1454 12.0875 14.9471 11.7094 14.5507C10.5749 14.7093 9.34589 14.9075 8.02234 15.1454C6.69879 15.304 6.22609 15.7401 6.60425 16.4537C6.22609 16.3744 5.94247 16.2952 5.75339 16.2159C5.75339 16.1366 5.56432 16.0969 5.18616 16.0969C4.808 16.8106 4.3353 17.4449 3.76807 18C2.44452 18 1.40458 17.9604 0.64827 17.8811C0.270113 17.4846 0.0810339 17.1278 0.0810339 16.8106C0.0810339 16.4141 0.0810339 16.0176 0.0810339 15.6211C0.459191 15.5419 0.64827 15.3833 0.64827 15.1454C0.64827 14.9075 0.837349 14.9075 1.21551 15.1454C0.64827 14.5903 0.55373 14.0352 0.931888 13.4802C1.49912 12.8458 1.40458 12.2907 0.64827 11.815C1.02643 11.4978 1.40458 11.2203 1.78274 10.9824C2.34998 10.7445 2.82267 10.5066 3.20083 10.2687C1.87728 9.95154 0.931888 9.63436 0.364651 9.31718C-0.202584 9 -0.108045 8.40529 0.64827 7.53304C0.837348 7.61233 0.931888 7.73128 0.931888 7.88987C1.31004 7.81057 1.31004 7.73128 0.931888 7.65198C0.742809 7.57269 0.742809 7.45374 0.931888 7.29515C8.11688 5.07489 17.2872 3.2511 28.4428 1.82379C39.7876 0.31718 51.9831 -0.237886 65.0296 0.158591C65.4077 0 66.3531 -0.0396477 67.8657 0.0396477C69.5674 0.0396477 70.4183 0.118942 70.4183 0.277532C81.1958 0.436122 91.406 1.03084 101.049 2.06167C110.692 3.01322 120.43 4.04405 130.262 5.15418C133.287 5.39207 136.407 5.6696 139.621 5.98678C143.025 6.22467 146.333 6.46256 149.548 6.70044C152.951 6.85903 156.165 6.97797 159.191 7.05727C162.216 7.05727 165.147 6.89868 167.983 6.5815C168.928 6.42291 169.874 6.22467 170.819 5.98678C171.954 5.7489 172.899 5.62996 173.655 5.62996C174.033 5.31278 174.79 5.11454 175.924 5.03524C175.357 5.03524 175.452 4.9163 176.208 4.67841C176.964 4.36123 177.531 4.12335 177.91 3.96476C177.531 4.04405 177.531 3.84581 177.91 3.37004C178.477 2.81498 178.949 2.61674 179.328 2.77533C179.895 2.77533 180.084 2.89427 179.895 3.13216C179.706 3.29075 179.706 3.44934 179.895 3.60793C180.084 3.37004 180.273 3.3304 180.462 3.48899C180.84 3.56828 181.124 3.68722 181.313 3.84582C181.502 4.0044 181.691 4.12335 181.88 4.20264C182.069 4.28194 182.164 4.163 182.164 3.84582C182.731 4.0837 183.582 4.36123 184.716 4.67841ZM7.17148 7.77092C10.9531 6.42291 15.3964 5.43172 20.5015 4.79736C25.7957 4.163 30.9009 3.48899 35.8169 2.77533C34.6824 2.93392 33.3589 3.09251 31.8463 3.2511C30.5227 3.3304 29.3882 3.40969 28.4428 3.48899C28.2538 3.48899 27.592 3.60793 26.4575 3.84582C25.5121 4.0044 24.7558 4.0044 24.1886 3.84582C23.9995 4.24229 23.2432 4.44053 21.9196 4.44053C20.5961 4.36123 20.3125 4.40088 21.0688 4.55947C18.6107 4.79736 16.3418 5.11454 14.2619 5.51101C12.3711 5.90749 10.4804 6.34361 8.58958 6.81938C8.58958 6.74009 8.68411 6.70044 8.87319 6.70044C9.06227 6.70044 8.96773 6.66079 8.58958 6.5815C7.64418 6.74009 7.4551 6.97797 8.02234 7.29515C6.69879 7.13656 5.46978 7.45374 4.3353 8.2467C3.38991 8.96035 3.38991 9.55507 4.3353 10.0308C4.71346 9.47577 4.99708 9.0793 5.18616 8.84141C5.56432 8.52423 6.22609 8.1674 7.17148 7.77092ZM167.983 13.7181C173.088 13.2423 176.964 12.2511 179.611 10.7445C178.855 10.6652 178.288 10.7445 177.91 10.9824C176.586 11.3789 174.79 11.815 172.521 12.2907C170.441 12.6872 168.928 13.163 167.983 13.7181ZM159.191 8.2467C159.569 8.64317 160.325 8.76211 161.46 8.60352C162.783 8.44493 164.012 8.40529 165.147 8.48458C166.281 8.40529 167.321 8.32599 168.267 8.2467C169.401 8.08811 170.63 7.96916 171.954 7.88987C172.332 7.65198 172.804 7.49339 173.372 7.4141C173.939 7.3348 174.506 7.21586 175.073 7.05727C175.073 6.81938 175.168 6.66079 175.357 6.5815C174.79 6.5815 174.412 6.66079 174.222 6.81938C174.033 6.97797 173.844 7.09692 173.655 7.17621C172.899 7.17621 171.67 7.29515 169.968 7.53304C168.267 7.77092 167.227 8.00881 166.848 8.2467C165.525 8.08811 164.296 8.12775 163.161 8.36564C162.027 8.52423 160.703 8.48458 159.191 8.2467ZM109.558 7.53304C111.448 7.69163 113.528 7.92952 115.797 8.2467C118.066 8.56388 120.241 8.72247 122.32 8.72247C121.942 8.72247 121.753 8.64317 121.753 8.48458C121.942 8.48458 121.942 8.44493 121.753 8.36564C121.753 8.52423 121.564 8.60352 121.186 8.60352C117.593 7.96916 114.379 7.65198 111.543 7.65198C108.896 7.57269 106.532 7.21586 104.452 6.5815C104.452 6.97797 104.263 7.01762 103.885 6.70044C104.074 7.09692 104.736 7.29515 105.871 7.29515C107.194 7.29515 108.423 7.37445 109.558 7.53304ZM97.9293 6.5815C98.8746 6.5022 100.009 6.62115 101.333 6.93833C102.656 7.17621 103.223 7.09692 103.034 6.70044C102.656 6.85903 101.805 6.81938 100.482 6.5815C99.1583 6.34361 98.3074 6.34361 97.9293 6.5815ZM153.518 8.12775C153.707 8.36564 154.464 8.52423 155.787 8.60352C157.3 8.60352 158.245 8.56388 158.624 8.48458C157.678 8.32599 156.827 8.28634 156.071 8.36564C155.315 8.36564 154.464 8.28634 153.518 8.12775ZM123.171 8.72247C122.982 8.96035 123.455 9.11894 124.589 9.19824C125.724 9.19824 126.386 9.19824 126.575 9.19824C126.197 9.03965 125.629 8.96035 124.873 8.96035C124.117 8.96035 123.549 8.88106 123.171 8.72247ZM39.2203 2.65639C40.3548 2.65639 40.922 2.53744 40.922 2.29956C40.3548 2.29956 39.7876 2.4185 39.2203 2.65639ZM179.895 4.9163C179.706 4.75771 179.611 4.59912 179.611 4.44053C179.8 4.28194 179.706 4.24229 179.328 4.32159C178.949 4.55947 179.139 4.75771 179.895 4.9163ZM94.2422 6.22467C94.6204 6.22467 94.9985 6.26432 95.3767 6.34361C95.7548 6.42291 95.9439 6.38326 95.9439 6.22467C95.5658 6.22467 95.1876 6.18502 94.8095 6.10573C94.4313 6.02643 94.2422 6.06608 94.2422 6.22467ZM41.2056 2.4185C41.5838 2.4978 41.7729 2.4978 41.7729 2.4185C41.7729 2.25991 41.962 2.14097 42.3401 2.06167C41.5838 2.06167 41.2056 2.18062 41.2056 2.4185ZM149.831 7.88987H149.264C149.264 7.96916 149.17 8.04846 148.981 8.12775C149.17 8.20705 149.453 8.2467 149.831 8.2467V7.88987ZM37.8022 2.77533C38.3695 2.61674 38.2749 2.4978 37.5186 2.4185C37.5186 2.57709 37.4241 2.69604 37.235 2.77533H37.8022ZM98.4965 12.1718C98.4965 12.0132 98.591 12.0132 98.7801 12.1718C99.1583 12.3304 99.3473 12.2907 99.3473 12.0529C99.1583 11.9736 98.8747 11.9339 98.4965 11.9339C98.1183 11.9339 98.1183 12.0132 98.4965 12.1718ZM128.56 14.7885C128.938 14.8678 129.316 14.7885 129.694 14.5507C129.316 14.5507 128.938 14.63 128.56 14.7885ZM92.5405 11.815C93.1077 11.815 93.3914 11.7753 93.3914 11.696C92.8241 11.696 92.5405 11.7357 92.5405 11.815ZM6.60425 7.4141C6.98241 7.4141 7.17148 7.49339 7.17148 7.65198C6.79333 7.65198 6.60425 7.57269 6.60425 7.4141ZM44.6091 2.06167C45.1763 2.06167 45.4599 2.02203 45.4599 1.94273C44.8927 1.94273 44.6091 1.98238 44.6091 2.06167ZM63.3279 1.5859C63.8951 1.5859 64.1787 1.54626 64.1787 1.46696C63.6115 1.46696 63.3279 1.50661 63.3279 1.5859ZM150.399 8.2467C150.966 8.2467 151.249 8.20705 151.249 8.12775C150.682 8.12775 150.399 8.1674 150.399 8.2467ZM36.1005 2.89427C36.6678 2.89427 36.9514 2.85463 36.9514 2.77533C36.3841 2.77533 36.1005 2.81498 36.1005 2.89427ZM83.4647 11.1013C84.032 11.1013 84.3156 11.0617 84.3156 10.9824C83.7483 10.9824 83.4647 11.022 83.4647 11.1013ZM89.9879 5.98678C90.5552 5.98678 90.8388 5.94714 90.8388 5.86784C90.4606 5.86784 90.177 5.90749 89.9879 5.98678ZM78.3596 10.8634C78.7378 10.8634 79.0214 10.8238 79.2105 10.7445C78.6432 10.7445 78.3596 10.7841 78.3596 10.8634ZM145.861 7.88987C146.239 7.88987 146.522 7.85022 146.712 7.77092C146.144 7.77092 145.861 7.81057 145.861 7.88987ZM134.8 15.1454C135.367 15.1454 135.65 15.1057 135.65 15.0264C135.272 15.0264 134.989 15.0661 134.8 15.1454ZM135.083 6.93833C135.083 6.85903 135.178 6.85903 135.367 6.93833C135.556 6.93833 135.745 6.89868 135.934 6.81938C135.745 6.89868 135.461 6.93833 135.083 6.93833ZM107.856 13.0044C107.856 12.9251 107.95 12.9251 108.14 13.0044C108.329 13.0044 108.518 12.9648 108.707 12.8855C108.707 12.9648 108.423 13.0044 107.856 13.0044ZM88.8535 5.86784C89.2316 5.86784 89.4207 5.82819 89.4207 5.7489C89.0426 5.7489 88.8535 5.78855 88.8535 5.86784ZM119.768 13.9559C119.768 13.9559 119.862 13.9163 120.051 13.837C119.673 13.837 119.484 13.8767 119.484 13.9559H119.768ZM133.665 15.0264C133.665 15.1057 133.854 15.0661 134.232 14.9075C134.232 14.9868 134.043 15.0264 133.665 15.0264ZM67.8657 10.3877C68.2439 10.2291 68.433 10.1894 68.433 10.2687H68.1494C67.9603 10.2687 67.8657 10.3084 67.8657 10.3877ZM42.3401 2.29956C42.5292 2.37885 42.6237 2.37885 42.6237 2.29956H42.3401ZM152.1 8.36564H151.817C152.006 8.36564 152.1 8.36564 152.1 8.36564Z" fill="#202020"/>
</svg>
