<svg width="29" height="29" viewBox="0 0 29 29" fill="none" xmlns="http://www.w3.org/2000/svg">
<path fill-rule="evenodd" clip-rule="evenodd" d="M14.3745 0.5C6.44776 0.5 0.0200195 6.92631 0.0200195 14.8544C0.0200195 21.1968 4.133 26.5773 9.83646 28.4756C10.5536 28.6087 10.817 28.1642 10.817 27.785C10.817 27.4427 10.8037 26.312 10.7975 25.1125C6.80408 25.9809 5.96142 23.4189 5.96142 23.4189C5.30845 21.7597 4.36762 21.3185 4.36762 21.3185C3.065 20.4276 4.46579 20.4462 4.46579 20.4462C5.90698 20.5472 6.66621 21.9254 6.66621 21.9254C7.94648 24.1194 10.0242 23.4852 10.8434 23.1187C10.9722 22.1909 11.3442 21.5574 11.7547 21.199C8.56641 20.8365 5.21455 19.6054 5.21455 14.1052C5.21455 12.538 5.77553 11.2575 6.69378 10.252C6.54451 9.89072 6.05317 8.43074 6.8326 6.45352C6.8326 6.45352 8.03776 6.06773 10.7809 7.92491C11.9261 7.60662 13.1543 7.44665 14.3745 7.44118C15.5939 7.44665 16.8228 7.60615 17.9702 7.92443C20.71 6.06725 21.9137 6.45305 21.9137 6.45305C22.695 8.43003 22.2037 9.89024 22.0547 10.2515C22.975 11.257 23.532 12.5375 23.532 14.1047C23.532 19.618 20.1739 20.8317 16.9775 21.1873C17.4927 21.6328 17.9514 22.5066 17.9514 23.8456C17.9514 25.7662 17.9348 27.312 17.9348 27.7848C17.9348 28.1668 18.1934 28.6144 18.9208 28.4734C24.6209 26.5732 28.7291 21.1945 28.7291 14.8544C28.7289 6.92679 22.3019 0.5 14.3745 0.5Z" fill="white"/>
</svg>
