<svg width="516" height="506" viewBox="0 0 516 506" fill="none" xmlns="http://www.w3.org/2000/svg">
<path d="M470.015 364.007C451.105 364.007 433.337 370.407 434.064 373.491C434.13 373.774 435.553 373.932 435.553 373.491C438.374 369.012 452.517 364.24 471.057 364.24C510.269 364.24 526.139 380.401 502.865 390.661C487.048 397.634 447.88 396.417 430.765 390.003C419.46 385.766 417.39 376.717 428.966 371.664C429.575 371.398 429.501 370.673 428.275 371.113C415.514 375.845 421.174 385.947 431.997 390.003C449.112 396.417 486.006 397.401 501.824 390.427C525.097 380.167 509.227 364.007 470.015 364.007Z" stroke="#858585" stroke-width="3" stroke-linecap="round" stroke-linejoin="round"/>
<path d="M454.747 368.932C445.292 385.308 441.95 403.896 444.985 404.809C445.263 404.892 446.111 403.739 445.729 403.519C443.261 398.837 446.2 384.202 455.47 368.146C475.076 334.188 497.007 328.524 494.255 353.81C492.385 370.995 471.748 404.306 457.636 415.921C448.313 423.594 439.441 420.861 440.853 408.31C440.927 407.65 440.263 407.351 440.031 408.633C437.748 422.05 449.327 422.199 458.252 414.854C472.364 403.239 491.662 371.78 493.532 354.595C496.283 329.309 474.353 334.973 454.747 368.932Z" stroke="#858585" stroke-width="3" stroke-linecap="round" stroke-linejoin="round"/>
<path d="M451.377 384.616C460.832 400.993 475.259 413.181 477.567 411.009C477.779 410.81 477.204 409.499 476.822 409.719C471.533 409.516 460.329 399.653 451.059 383.597C431.453 349.639 437.513 327.814 458.036 342.84C471.983 353.052 490.513 387.58 493.516 405.609C495.5 417.519 488.697 423.836 478.533 416.337C477.999 415.943 477.407 416.369 478.402 417.211C488.88 425.897 494.799 415.944 492.9 404.542C489.897 386.513 472.302 354.071 458.354 343.859C437.832 328.833 431.771 350.658 451.377 384.616Z" stroke="#858585" stroke-width="3" stroke-linecap="round" stroke-linejoin="round"/>
<path d="M474.416 379.826C474.416 381.887 474.04 383.979 472.713 385.353C471.325 386.791 469.839 387.193 467.683 387.193C464.137 387.193 462.989 386.332 461.395 384.911C459.802 383.489 459.144 380.497 459.144 379.826C459.144 376.747 460.103 376.125 461.094 374.661C462.084 373.196 464.628 372.218 466.78 372.19C468.932 372.163 472.55 374.058 473.626 375.953C474.703 377.848 474.416 378.004 474.416 379.826Z" fill="#202020"/>
<g clip-path="url(#clip0_591_2)">
<path d="M417.989 417.78C414.847 393.301 400.953 352.117 392.518 341.035C383.256 328.961 379.452 325.157 348.522 314.737C346.868 306.467 340.748 285.627 333.471 276.861C322.389 260.155 292.121 256.351 283.024 258.336C283.024 258.336 234.066 241.134 177.665 241.134C159.802 245.104 139.128 253.209 127.88 270.245C120.272 281.492 128.873 285.13 125.069 295.385C124.076 298.032 100.921 311.263 91.4928 319.203C87.1925 322.676 82.3959 331.442 79.0879 342.854C72.472 366.176 79.5841 398.428 71.3142 426.546C55.4359 480.797 23.1832 497.006 23.1832 497.006H450.573C450.242 496.84 424.771 469.384 417.989 417.78Z" fill="#404040"/>
<path d="M415.509 418.111C412.201 396.444 405.585 374.942 397.15 354.764C393.015 345.005 386.73 335.577 377.964 329.788C373.498 326.977 368.536 324.826 363.408 322.676C358.281 320.692 352.988 318.872 347.861 317.053C347.034 316.722 346.372 316.06 346.207 315.233C345.545 311.925 344.718 308.783 343.726 305.475C339.426 292.078 334.794 277.192 322.224 269.418C312.631 263.629 301.219 260.817 290.137 260.321C287.987 260.321 285.671 260.321 283.686 260.652H283.025C282.859 260.652 282.529 260.652 282.363 260.486C274.424 256.682 265.658 254.367 257.057 252.051C231.255 246.097 204.295 243.616 177.831 243.45C161.622 247.255 138.963 256.186 129.039 272.726C127.385 275.372 126.558 278.019 126.889 280.996C127.219 284.304 128.377 287.943 127.55 291.416C127.219 292.905 126.889 294.559 126.227 295.882C124.904 297.701 122.754 298.859 121.1 300.017C112.499 305.64 103.733 310.602 95.463 316.391C92.6512 318.376 90.0048 320.195 88.0201 323.007C82.2311 331.277 78.7577 341.201 77.2692 351.125C74.6228 371.303 77.2692 391.813 74.6228 411.991C71.6456 432.17 63.8719 451.687 52.9556 468.888C45.3473 480.466 36.085 491.217 24.3417 498.66L23.1839 494.029H450.573L448.754 498.164C443.792 492.54 439.822 486.421 436.184 479.97C424.937 461.115 418.321 439.778 415.509 418.111ZM420.471 417.45C422.29 431.508 425.764 445.402 431.056 458.634C436.349 471.7 442.965 484.436 452.227 495.187C453.551 496.675 452.393 499.487 450.408 499.322H23.0185C21.6953 499.322 20.5375 498.164 20.5375 496.841C20.5375 495.848 21.0337 495.021 21.8607 494.691C24.5071 493.202 27.1534 491.052 29.6344 488.902C51.3016 469.385 64.8643 440.44 69.33 411.661C73.1342 384.701 66.0221 355.591 78.0962 329.954C80.9079 323.999 84.3813 317.714 90.0048 313.91C100.26 306.302 111.507 300.678 121.596 293.235C121.761 293.235 121.761 293.07 121.761 293.07C121.596 293.235 121.431 293.566 121.431 293.732C122.423 291.416 122.754 289.431 122.423 286.785C121.927 283.477 121.1 279.011 122.258 275.538C122.754 273.553 123.746 271.734 124.739 270.245C136.647 252.382 157.653 244.443 177.666 239.977C183.29 240.142 189.079 239.15 194.702 239.15C202.476 239.15 210.415 240.308 218.189 241.3C240.517 244.774 262.019 250.728 284.017 255.525L282.529 255.359C287.656 254.367 292.452 254.863 297.414 255.525C329.171 260.321 339.922 274.215 348.523 303.821C349.515 307.129 350.342 310.437 351.169 313.91L349.515 311.925C365.393 317.549 383.256 322.676 393.346 337.397C396.984 341.862 399.631 347.155 401.946 352.448C410.382 373.619 416.998 394.955 420.471 417.45Z" fill="#202020"/>
<path d="M157.323 308.949C169.562 335.082 188.583 357.245 211.242 374.777C212.069 375.439 211.242 376.762 210.25 376.266C190.071 366.673 173.035 350.298 162.946 330.451C159.638 323.835 156.826 316.723 155.834 309.28C155.503 308.453 156.826 308.122 157.323 308.949Z" fill="#202020"/>
<path d="M351.004 314.407C351.5 342.028 340.253 370.311 318.751 388.174C318.255 388.671 317.594 388.505 317.097 388.009C316.601 387.513 316.767 386.851 317.263 386.355C322.059 381.724 326.856 376.927 330.495 371.304C338.103 360.387 342.734 347.486 344.884 334.42C345.877 327.969 346.538 321.023 346.042 314.572C345.877 311.43 350.839 311.099 351.004 314.407Z" fill="#202020"/>
<path d="M253.584 380.07C249.78 393.467 246.637 408.022 248.457 421.915C248.953 425.058 244.156 425.885 243.495 422.577C242.668 414.969 243.66 407.526 244.983 400.248C246.472 392.971 248.291 386.024 250.772 379.077C251.434 377.423 254.246 378.25 253.584 380.07Z" fill="#202020"/>
<path d="M306.181 377.589C311.639 389.332 315.443 401.571 318.42 413.976C318.751 415.3 317.924 416.623 316.601 416.954C315.278 417.284 313.954 416.457 313.624 415.134C311.97 405.872 309.819 396.609 306.842 387.513C305.85 384.535 304.857 381.558 303.7 378.581C303.038 377.092 305.354 375.935 306.181 377.589Z" fill="#202020"/>
<path d="M128.543 294.724C134.663 328.135 158.149 356.418 186.432 374.446C196.025 380.566 206.28 385.859 216.866 390.159C217.527 390.49 217.858 391.151 217.527 391.813C217.362 392.475 216.535 392.805 216.039 392.475C205.122 388.505 194.537 383.543 184.613 377.589C164.434 365.68 146.737 349.14 134.828 328.962C128.708 318.541 123.912 307.625 121.596 295.716C121.265 293.732 122.588 291.912 124.573 291.582C126.393 291.085 128.377 292.574 128.543 294.724Z" fill="#202020"/>
<path d="M243.659 425.554C239.028 425.058 235.72 420.758 236.713 416.127L238.532 407.361C239.194 403.887 242.502 401.406 245.975 401.902C249.448 402.233 252.26 405.21 252.26 408.849V417.781C252.426 422.412 248.456 426.051 243.659 425.554Z" fill="#202020"/>
<path d="M319.909 419.435C315.443 421.089 310.647 418.442 309.489 413.811L307.339 405.045C306.512 401.572 308.331 398.098 311.804 396.775C315.112 395.617 318.916 397.106 320.405 400.248L324.375 408.353C326.359 412.819 324.375 417.946 319.909 419.435Z" fill="#202020"/>
<path d="M104.395 496.841C104.395 496.841 102.906 459.957 97.944 450.033" stroke="#202020" stroke-width="5.1257" stroke-miterlimit="10" stroke-linecap="round" stroke-linejoin="round"/>
<path d="M396.323 414.473C396.323 414.473 405.585 466.408 401.946 496.841" stroke="#202020" stroke-width="5.1257" stroke-miterlimit="10" stroke-linecap="round" stroke-linejoin="round"/>
<path d="M369.694 464.423C369.694 464.423 345.215 468.062 323.713 467.069" stroke="#202020" stroke-width="5.1257" stroke-miterlimit="10" stroke-linecap="round" stroke-linejoin="round"/>
<path d="M180.312 288.77C177.996 282.154 177.004 275.373 177.5 268.426C177.5 267.764 177.996 267.433 178.658 267.433C179.154 267.433 179.65 267.93 179.65 268.426C180.147 274.711 181.966 281.162 184.943 286.62C186.432 289.928 181.47 292.078 180.312 288.77Z" fill="#202020"/>
<path d="M292.121 297.536C287.49 287.116 276.077 281.823 265.988 278.184C259.703 276.2 252.756 274.711 246.14 273.719C230.097 271.238 207.437 267.433 191.393 265.779C191.228 265.779 191.228 265.449 191.393 265.449C196.025 264.953 200.656 264.953 205.287 264.953C219.18 265.283 233.074 266.772 246.802 268.922C260.53 271.072 275.251 275.207 285.671 285.131C288.979 288.604 291.956 292.574 292.783 297.371C292.948 297.867 292.287 298.032 292.121 297.536Z" fill="#202020"/>
<path d="M302.541 340.043C299.067 357.079 276.573 367.334 238.697 351.952C199.332 336.074 182.296 298.197 177.996 286.95C201.317 243.285 185.108 213.017 185.108 213.017C238.862 208.386 285.835 271.237 285.835 271.237L293.113 302.332C293.775 304.979 295.098 307.294 297.083 308.948C300.556 315.068 304.691 329.127 302.541 340.043Z" fill="white"/>
<path d="M177.169 287.446C180.312 282.65 182.297 277.026 183.62 271.568C186.101 260.156 186.928 248.578 187.093 237V232.7C186.597 228.399 185.108 223.933 183.454 219.964C181.304 214.671 189.078 211.363 191.559 216.656C191.89 217.318 191.89 218.475 191.89 219.137C192.386 241.631 193.378 270.576 179.154 289.266C178.162 290.258 176.177 288.77 177.169 287.446Z" fill="#202020"/>
<path d="M287.655 270.907C290.136 272.395 290.963 274.38 291.294 276.365C292.286 280.335 291.955 284.635 292.948 288.77C293.775 292.739 296.256 296.544 296.917 300.679C297.744 304.979 300.225 314.076 301.218 318.542C301.548 319.534 300.887 320.692 299.729 320.857C299.068 321.023 298.571 320.857 298.075 320.526C295.925 318.707 294.933 316.888 293.609 314.572C291.459 310.602 289.971 306.964 288.647 302.498C287.49 298.528 287.986 294.228 286.993 290.093C286.166 286.123 283.851 282.319 283.024 278.184C282.528 276.2 282.362 274.049 283.851 271.568C284.843 270.576 286.497 270.245 287.655 270.907Z" fill="#202020"/>
<path d="M299.564 314.572C267.973 312.918 242.171 302.994 217.03 258.171C238.201 276.861 263.177 283.973 289.475 287.281L292.948 302.498C293.61 305.144 297.579 312.918 299.564 314.572Z" fill="#202020"/>
<path d="M298.242 308.452C303.865 319.038 307.173 332.27 303.7 344.013C301.053 352.283 293.445 358.402 285.175 360.718C265.989 365.845 243.826 357.741 226.79 348.644C205.784 336.901 190.236 317.218 180.313 295.716C179.651 294.062 181.967 292.739 182.959 294.393C186.432 301.34 190.402 308.121 194.868 314.241C199.333 320.526 204.461 326.315 210.25 331.442C227.12 346.659 249.945 356.087 272.77 356.087C296.257 355.425 305.188 343.02 299.73 320.195C298.903 316.557 297.58 312.752 295.761 309.61C294.768 308.287 297.249 306.798 298.242 308.452Z" fill="#202020"/>
<path d="M362.25 109.809C365.227 123.702 362.912 132.964 361.588 171.337C360.265 209.048 349.349 262.306 335.952 275.703C325.697 285.792 292.783 293.732 263.507 286.289C248.621 282.485 236.051 273.884 225.796 267.764C212.895 259.99 201.648 236.008 192.386 220.625C185.108 208.551 185.77 223.106 176.342 212.686C163.276 198.462 147.563 169.848 155.337 119.236C167.907 37.1986 232.908 27.6055 281.039 36.7024C329.501 45.7993 354.311 73.2555 362.25 109.809Z" fill="white"/>
<path d="M184.613 227.241C180.809 220.956 175.847 215.333 171.381 209.378C164.765 200.282 159.803 189.861 156.495 179.111C142.106 133.13 150.872 72.9247 194.371 45.7993C233.902 20.6588 310.647 29.7557 342.734 64.1586C354.808 76.5635 362.582 92.7725 365.89 109.643C366.055 110.636 366.551 112.455 366.717 113.447C366.882 114.274 367.378 115.267 367.213 116.259C366.882 119.898 366.221 123.537 365.89 127.175C363.409 149.173 364.07 171.668 361.259 193.666C358.778 216.821 355.47 239.977 348.523 262.306C346.373 269.087 342.238 275.207 336.78 279.673C324.54 289.927 308.496 293.401 293.114 294.062C262.35 295.551 231.09 284.635 213.227 258.667C212.565 257.675 213.889 256.517 214.715 257.509C229.601 273.553 249.78 283.808 271.282 286.123C295.099 288.935 330.991 286.785 341.411 261.314C353.485 225.257 359.77 187.05 360.432 149.173C360.432 139.911 359.935 130.649 359.935 121.221C359.935 120.063 360.101 117.417 360.101 116.259C360.101 116.094 360.101 116.259 360.101 116.259C360.101 116.424 360.101 116.424 360.101 116.259C358.778 112.951 358.281 109.312 357.289 106.004C353.65 92.2763 347.034 79.2098 337.607 68.7897C306.346 33.7252 236.714 24.9591 197.679 51.2575C166.75 71.7669 158.48 111.132 156.33 145.865C154.51 171.833 162.119 197.304 181.801 215.167L189.575 223.272C192.883 226.911 187.259 231.211 184.613 227.241Z" fill="#202020"/>
<path d="M296.299 224.549C290.535 222.643 277.754 219.382 273.588 225.233C273.588 225.233 281.633 229.393 293.662 231.61C295.54 231.941 297.816 229.634 297.816 229.634L297.701 232.468L307.106 234.808L308.761 232.369L308.97 235.204C308.97 235.204 316.357 237.114 317.976 236.369C320.145 235.333 323.911 228.308 306.213 226.792C302.854 226.554 299.492 225.567 296.299 224.549Z" fill="#202020"/>
<path d="M290.77 288.339C281.923 289.156 262.79 288.755 260.033 272.763C260.033 272.763 273.247 277.175 290.713 270.516C293.449 270.914 295.404 277.608 295.404 277.608L297.479 274.735L302.5 271.711L311.759 278.084L313.471 271.711C313.471 271.711 323.431 267.701 326.383 274.591C319.378 280.571 316.767 290.387 305.466 289.307C300.749 287.781 295.652 287.971 290.77 288.339Z" fill="#202020"/>
<path d="M204.13 174.645C204.13 174.645 199.003 149.835 174.855 152.812C154.015 155.458 146.737 205.409 194.041 219.302" fill="white"/>
<path d="M191.89 197.635C188.086 195.485 185.439 191.846 185.274 187.381C185.439 184.073 185.935 180.268 185.108 176.961C184.612 173.818 181.304 172.991 178.823 173.156C176.177 173.653 174.523 176.961 174.027 179.607C174.027 179.772 173.861 180.268 173.861 180.434C173.696 181.261 172.373 181.261 172.042 180.434C169.892 173.983 174.688 166.871 181.635 167.698C191.394 168.36 192.717 178.614 190.897 186.388C189.905 189.696 191.228 192.673 193.048 195.485L193.378 195.981C194.205 196.974 192.882 198.297 191.89 197.635Z" fill="#202020"/>
<path d="M324.21 157.112C326.691 168.856 331.322 179.772 337.111 190.027C342.238 202.597 329.007 214.506 317.263 214.009C315.94 214.009 315.775 212.19 316.933 211.859C324.375 209.544 331.157 204.582 332.315 196.973C332.811 194.658 332.149 192.673 330.991 190.688C325.533 180.434 322.225 168.69 323.052 157.112C323.052 156.285 324.21 156.285 324.21 157.112Z" fill="#202020"/>
<path d="M203.303 174.81C199.499 165.052 191.229 155.789 180.147 155.955C179.155 155.789 177.501 156.12 176.508 156.12C173.697 156.286 171.381 157.278 169.231 159.263C158.645 169.848 160.465 188.538 169.065 200.282C172.043 204.417 175.847 208.055 180.147 211.032C184.448 214.01 189.244 216.325 194.371 218.31C195.529 218.641 195.033 220.46 193.875 220.295C182.794 217.979 172.208 212.521 164.931 203.424C153.683 189.861 151.368 167.202 164.765 153.97C167.742 151.324 171.877 149.339 176.012 149.339C177.335 149.339 179.32 149.008 180.643 149.339C187.59 149.67 194.206 153.143 198.506 158.601C202.311 163.232 204.461 168.856 205.122 174.479C205.122 175.472 203.634 175.803 203.303 174.81Z" fill="#202020"/>
<path d="M381.079 94.9047C381.079 75.0305 367.856 58.4686 349.966 53.2634C350.899 49.3201 351.055 45.2191 350.121 40.9603C347.01 27.2376 334.876 17.6159 321.03 18.5623C315.585 18.8778 310.451 20.9283 306.251 24.0829C300.028 6.73237 290.85 0.738544 272.337 -0.365582C262.692 -0.838779 245.112 2.4736 239.823 20.9283C234.223 16.1963 226.289 13.8303 215.399 13.8303C196.419 13.8303 180.863 28.9726 179.929 48.0582C176.973 47.1118 173.706 46.6387 170.44 46.7964C157.838 47.585 147.571 57.9954 146.638 70.7717C146.326 75.0305 147.104 79.1315 148.66 82.9171C130.925 84.8099 117.079 100.11 117.079 118.565C117.079 132.445 124.858 144.59 136.37 150.584C132.17 152.319 126.102 160.679 125.013 167.777C123.147 179.922 128.436 190.491 135.903 194.592C135.125 197.115 134.814 200.112 135.748 203.109C137.148 208.314 141.348 212.415 146.482 213.519C149.593 214.15 152.549 213.835 155.194 212.731C157.683 218.094 160.794 221.406 163.283 223.457C172.929 231.501 192.686 230.712 187.396 216.674C187.396 216.516 187.396 216.516 187.396 216.359C148.504 201.216 155.505 157.209 174.484 154.685C194.397 152.162 200.62 170.143 201.709 174.56C223.022 160.679 192.686 110.678 223.955 95.8511C251.802 82.7594 281.049 102.634 316.83 107.523C330.053 109.416 342.498 96.1666 348.099 103.58C349.188 106.892 361.722 109.53 362.5 113C363.9 119.152 365.4 128.14 364 136.5C362.133 147.068 368.755 136.077 370 134.5C373.111 130.557 372.556 126.705 371 121.5C379.712 113.771 381.079 107.839 381.079 94.9047Z" fill="#202020"/>
<path d="M277.108 155.683C277.108 155.842 277.108 156.002 277.108 156.002L276.948 160.467C276.789 164.293 273.6 167.164 269.773 167.004C265.946 166.845 263.076 163.496 263.395 159.829L263.554 155.364C263.554 154.567 263.873 153.61 264.192 152.972L276.948 153.61C276.948 154.248 277.108 154.886 277.108 155.683Z" fill="#202020"/>
<path d="M343.758 159.191L343.599 163.337C343.44 166.845 340.41 169.555 336.902 169.396C333.394 169.236 330.683 166.207 330.843 162.699L331.002 158.553C331.002 157.756 331.162 156.958 331.481 156.321L343.44 156.799C343.599 157.596 343.758 158.394 343.758 159.191Z" fill="#202020"/>
<path d="M293.052 133.838C296.56 134.316 299.271 130.649 297.995 127.141C297.358 125.227 296.241 123.473 294.487 122.357C289.066 119.009 268.816 118.69 258.132 126.343C248.565 133.359 277.107 131.605 293.052 133.838Z" fill="#202020"/>
<path d="M337.221 135.592C334.351 135.592 332.597 131.924 334.032 128.895C334.829 127.3 335.945 125.865 337.54 125.068C342.483 122.676 355.717 124.111 361.617 132.243C366.879 139.419 350.456 135.432 337.221 135.592Z" fill="#202020"/>
<path d="M287.312 155.683L261.002 155.204C257.813 155.045 257.972 150.261 261.161 150.421L287.471 152.334C289.703 152.494 289.544 155.683 287.312 155.683Z" fill="#202020"/>
<path d="M350.456 158.393L331.003 158.712C327.814 158.712 327.654 154.088 330.843 153.929C331.003 153.929 331.003 153.929 331.162 153.929L350.616 156.002C352.051 156.161 351.891 158.234 350.456 158.393Z" fill="#202020"/>
<path d="M329.25 187.711C329.25 187.711 331.001 197.635 342.53 202.597C345.449 203.765 348.514 201.867 348.514 198.657C348.368 198.657 329.979 188.879 329.25 187.711Z" fill="#202020"/>
<path d="M239.059 187.711C239.059 187.711 244.458 199.97 260.658 202.889C276.857 205.954 291.597 194.278 298.456 174.723C298.456 174.723 292.911 192.819 270.728 196.176C248.837 199.824 239.059 187.711 239.059 187.711Z" fill="#202020"/>
<path d="M301.667 160.421C301.23 181.29 284.447 198.073 264.161 198.073C243.875 198.073 227.676 181.29 227.676 160.421C227.822 139.405 244.605 122.184 265.183 122.184C285.76 122.184 302.251 139.405 301.667 160.421Z" stroke="#202020" stroke-width="3" stroke-miterlimit="10" stroke-linecap="round" stroke-linejoin="round"/>
<path d="M321.661 155.604C323.996 136.778 336.255 122.038 350.703 122.038C366.318 122.038 378.285 139.259 377.41 160.275C376.534 181.144 363.399 197.927 348.076 197.927C342.384 197.927 337.276 195.738 333.044 191.798" stroke="#202020" stroke-width="3" stroke-miterlimit="10" stroke-linecap="round" stroke-linejoin="round"/>
<path d="M228.113 156.334H207.39" stroke="#202020" stroke-width="3" stroke-miterlimit="10" stroke-linecap="round" stroke-linejoin="round"/>
<path d="M301.813 156.334C301.813 156.334 319.18 149.621 321.369 156.334" stroke="#202020" stroke-width="3" stroke-miterlimit="10" stroke-linecap="round" stroke-linejoin="round"/>
<path d="M311.639 243.781C301.053 253.87 281.04 245.766 275.747 233.526C275.086 232.038 276.74 230.715 278.063 231.376C280.875 232.865 283.356 234.353 286.002 235.511C293.61 238.985 301.55 241.796 309.985 240.969C311.639 240.639 312.797 242.623 311.639 243.781Z" fill="#202020"/>
<path d="M476.542 139.414C576.938 332.765 400.458 550.925 190.071 497.667C95.6288 474.181 19.7109 392.308 3.99806 296.212C-13.865 200.612 29.304 97.8991 110.018 43.8138C220.67 -32.2695 373.995 -6.96355 453.22 101.869C453.717 102.365 453.551 103.192 452.89 103.688C452.393 104.184 451.566 104.019 451.07 103.357C440.154 89.2984 427.749 76.5627 414.186 65.1502C391.858 46.1294 365.725 31.2435 338.103 21.1542C197.514 -29.7885 43.1975 54.8955 12.4334 201.935C-22.3003 366.672 117.792 518.342 284.845 495.682C413.69 479.473 509.456 360.552 498.87 231.21C496.555 199.95 488.285 169.02 474.557 140.572C474.226 140.076 474.557 139.414 475.053 139.083C475.549 138.753 476.211 138.918 476.542 139.414Z" fill="#202020"/>
</g>
<defs>
<clipPath id="clip0_591_2">
<rect width="505.5" height="505.81" rx="252.75" fill="white"/>
</clipPath>
</defs>
</svg>
