<svg width="51" height="51" viewBox="0 0 51 51" fill="none" xmlns="http://www.w3.org/2000/svg">
<rect width="50" height="50" transform="translate(0.73291 0.578857)" fill="#202020"/>
<path d="M34.0662 16.9788C37.3814 16.9788 40.5609 18.2957 42.9051 20.6399C45.2493 22.9841 46.5662 26.1636 46.5662 29.4788V44.0621H38.2329V29.4788C38.2329 28.3737 37.7939 27.3139 37.0125 26.5325C36.2311 25.7511 35.1713 25.3121 34.0662 25.3121C32.9612 25.3121 31.9013 25.7511 31.1199 26.5325C30.3385 27.3139 29.8996 28.3737 29.8996 29.4788V44.0621H21.5662V29.4788C21.5662 26.1636 22.8832 22.9841 25.2274 20.6399C27.5716 18.2957 30.751 16.9788 34.0662 16.9788Z" stroke="white" stroke-width="3" stroke-linecap="round" stroke-linejoin="round"/>
<path d="M13.2329 19.3289H4.8996V44.3289H13.2329V19.3289Z" stroke="white" stroke-width="3" stroke-linecap="round" stroke-linejoin="round"/>
<path d="M9.06626 13.0789C11.3675 13.0789 13.2329 11.2135 13.2329 8.91227C13.2329 6.61109 11.3675 4.74561 9.06626 4.74561C6.76508 4.74561 4.8996 6.61109 4.8996 8.91227C4.8996 11.2135 6.76508 13.0789 9.06626 13.0789Z" stroke="white" stroke-width="3" stroke-linecap="round" stroke-linejoin="round"/>
</svg>
