<svg width="30" height="6" viewBox="0 0 30 6" fill="none" xmlns="http://www.w3.org/2000/svg">
<path d="M29.8521 3.59338C29.863 3.59338 29.8685 3.59873 29.8685 3.60945C29.8685 3.60945 29.863 3.60945 29.8521 3.60945C29.8521 3.62016 29.8521 3.62551 29.8521 3.62551C29.863 3.62551 29.8685 3.62016 29.8685 3.60945C29.8795 3.60945 29.8849 3.6148 29.8849 3.62551V3.67371C29.8959 3.67371 29.9069 3.66836 29.9178 3.65765C29.874 3.55053 29.8247 3.48626 29.7699 3.46484C29.8247 3.45413 29.8685 3.48091 29.9014 3.54518C29.9342 3.60945 29.9671 3.663 30 3.70585C30 3.74869 29.9945 3.78083 29.9836 3.80225C29.9836 3.82367 29.9836 3.84509 29.9836 3.86652C29.9836 3.89865 29.9836 3.93614 29.9836 3.97899C29.9836 4.01112 29.9781 4.07539 29.9671 4.17179C29.9562 4.15037 29.9452 4.13966 29.9342 4.13966C29.9342 4.15037 29.9288 4.14501 29.9178 4.12359C29.8959 4.1343 29.8849 4.16644 29.8849 4.21999C29.8849 4.28426 29.8685 4.32711 29.8356 4.34853C29.8575 4.36995 29.8685 4.35924 29.8685 4.31639C29.8795 4.27355 29.8959 4.24677 29.9178 4.23606C29.9397 4.26819 29.9342 4.29497 29.9014 4.31639C29.8795 4.34853 29.863 4.38066 29.8521 4.4128C29.8849 4.55204 29.8849 4.66451 29.8521 4.75021C29.8301 4.8359 29.7863 4.91088 29.7205 4.97514C29.6 5.0287 29.463 5.0769 29.3096 5.11975C29.1562 5.16259 29.0137 5.19473 28.8822 5.21615C28.674 5.34469 28.389 5.42502 28.0274 5.45715C27.6658 5.5 27.2931 5.51071 26.9096 5.48929C26.7342 5.46787 26.5589 5.43573 26.3836 5.39289C26.2082 5.36075 26.0603 5.29648 25.9397 5.20008C25.9397 5.16795 25.9562 5.15188 25.989 5.15188C25.9671 5.13046 25.9452 5.10368 25.9233 5.07155C25.9123 5.03941 25.9178 4.99657 25.9397 4.94301C25.9945 4.96443 26.0603 4.98586 26.137 5.00728C26.2137 5.0287 26.2959 5.0287 26.3836 5.00728C26.3507 4.98586 26.2849 4.96979 26.1863 4.95908C26.0877 4.94837 26.0274 4.91623 26.0055 4.86267C26.4548 4.8841 26.8493 4.85196 27.189 4.76627C27.5397 4.69129 27.8904 4.61096 28.2411 4.52527C28.1205 4.50384 28 4.51991 27.8795 4.57347C27.7589 4.63774 27.6329 4.66987 27.5014 4.66987C27.2274 4.72343 26.9863 4.77163 26.7781 4.81447C26.5699 4.85732 26.3069 4.86267 25.989 4.83054C26.3836 4.79841 26.7452 4.73949 27.074 4.6538C27.4027 4.57882 27.7151 4.49849 28.011 4.4128C27.8466 4.29497 27.6712 4.20393 27.4849 4.13966C27.2986 4.0861 27.1068 4.01648 26.9096 3.93079C26.0548 3.69514 25.2164 3.49698 24.3945 3.33631C23.5726 3.17563 22.7233 3.03639 21.8466 2.91856C21.3425 2.83287 20.8603 2.7686 20.4 2.72576C19.9507 2.6722 19.4411 2.61864 18.8712 2.56509C18.2466 2.50082 17.611 2.45262 16.9644 2.42048C16.3288 2.38835 15.7534 2.36693 15.2384 2.35622C13.5836 2.3455 11.9836 2.39906 10.4384 2.51689C8.89315 2.624 7.36438 2.82752 5.85206 3.12743C5.40274 3.21312 4.94795 3.30953 4.48767 3.41664C4.03836 3.52375 3.6 3.63622 3.1726 3.75405C2.9863 3.82903 2.78904 3.89865 2.58082 3.96292C2.38356 4.01648 2.1863 4.07539 1.98904 4.13966C1.78082 4.22535 1.57808 4.31104 1.38082 4.39673C1.19452 4.49313 1.05753 4.64845 0.969863 4.86267C0.915069 4.81983 0.854795 4.79841 0.789041 4.79841C0.767123 4.77698 0.756164 4.75556 0.756164 4.73414C0.756164 4.71272 0.767123 4.69665 0.789041 4.68594C0.668493 4.73949 0.553425 4.80912 0.443836 4.89481C0.334247 4.99121 0.252055 5.10904 0.19726 5.24828C0.109589 5.24828 0.0438356 5.24293 0 5.23222C0 5.1251 0.00547946 5.02334 0.0164384 4.92694C0.0273973 4.84125 0.0547946 4.75021 0.0986302 4.6538C0.0438357 4.56811 0.0273973 4.49313 0.0493152 4.42886C0.0821919 4.3646 0.120548 4.30033 0.164384 4.23606C0.208219 4.17179 0.252055 4.11288 0.295891 4.05932C0.339726 3.99505 0.350685 3.93079 0.328767 3.86652C0.372603 3.88794 0.40548 3.87723 0.427397 3.83438C0.449315 3.78083 0.471233 3.74334 0.493151 3.72191C0.482192 3.72191 0.471233 3.72727 0.460274 3.73798C0.460274 3.73798 0.454795 3.73798 0.443836 3.73798C0.454795 3.71656 0.482192 3.69514 0.526028 3.67371H0.476712C0.49863 3.65229 0.509589 3.64158 0.509589 3.64158L0.361644 3.77012C0.361644 3.78083 0.367123 3.78618 0.378082 3.78618H0.394521C0.394521 3.79689 0.372603 3.80225 0.328767 3.80225C0.317808 3.82367 0.328767 3.83438 0.361644 3.83438C0.350685 3.85581 0.334247 3.86652 0.312329 3.86652C0.30137 3.85581 0.284932 3.85581 0.263014 3.86652C0.284932 3.88794 0.290411 3.90401 0.279452 3.91472C0.268493 3.92543 0.273973 3.95756 0.295891 4.01112C0.273973 3.95756 0.252055 3.95221 0.230137 3.99505C0.219178 4.02719 0.19726 4.05397 0.164384 4.07539C0.120548 4.00041 0.0712329 3.97363 0.0164384 3.99505C0.00547946 3.97363 0.00547946 3.95756 0.0164384 3.94685C0.0273973 3.92543 0.0219179 3.92543 0 3.94685C0 3.92543 0 3.88794 0 3.83438C0.0109589 3.77012 0.0438357 3.74869 0.0986302 3.77012C0.0767124 3.73798 0.0767124 3.71656 0.0986302 3.70585C0.131507 3.69514 0.142466 3.67371 0.131507 3.64158C0.153425 3.64158 0.180822 3.62551 0.213699 3.59338C0.246575 3.55053 0.273973 3.51304 0.295891 3.48091C0.449315 3.3738 0.60274 3.27739 0.756164 3.1917C0.909589 3.10601 1.04658 3.02032 1.16712 2.93463C1.47397 2.8168 1.79178 2.69362 2.12055 2.56509C2.44932 2.43655 2.76712 2.31337 3.07397 2.19555C3.08493 2.19555 3.08493 2.2009 3.07397 2.21161C3.07397 2.22232 3.07945 2.23304 3.09041 2.24375C3.18904 2.19019 3.30959 2.14199 3.45206 2.09914C3.60548 2.0563 3.74247 2.02416 3.86301 2.00274C4.22466 1.85278 4.63562 1.7296 5.09589 1.6332C5.55616 1.52609 5.98904 1.40826 6.39452 1.27972C6.4274 1.31186 6.45479 1.31721 6.47671 1.29579C6.49863 1.26366 6.52055 1.26901 6.54247 1.31186C6.56438 1.31186 6.57534 1.29579 6.57534 1.26366C7.89041 1.0173 9.24932 0.824491 10.6521 0.685244C12.0548 0.535285 13.5178 0.476372 15.0411 0.508506C15.5123 0.519217 15.9671 0.535284 16.4055 0.556707C16.8438 0.567419 17.326 0.588841 17.8521 0.620976C18.0822 0.642398 18.3123 0.663821 18.5425 0.685244C18.7836 0.706666 18.9863 0.728089 19.1507 0.749512C19.1288 0.749512 19.1781 0.749512 19.2986 0.749512C19.4192 0.7388 19.5123 0.744156 19.5781 0.765579C19.6 0.765579 19.6055 0.765579 19.5945 0.765579C19.5945 0.765579 19.5945 0.77629 19.5945 0.797713H19.6438C20.7069 0.861981 21.726 0.97445 22.7014 1.13512C23.6767 1.29579 24.6082 1.47253 25.4959 1.66533L25.611 1.71353C25.7973 1.73496 25.9781 1.7778 26.1534 1.84207C26.3288 1.90634 26.5041 1.95454 26.6795 1.98667C26.7014 1.98667 26.7123 2.00274 26.7123 2.03488C27.063 2.10985 27.3644 2.21161 27.6164 2.34015C27.8685 2.45797 28.126 2.55973 28.389 2.64542C28.3671 2.65613 28.3342 2.65078 28.2904 2.62936C28.2466 2.60793 28.2027 2.59187 28.1589 2.58115C28.2685 2.67756 28.4164 2.74182 28.6027 2.77396C28.5918 2.80609 28.5808 2.8168 28.5699 2.80609C28.5589 2.78467 28.5479 2.78467 28.537 2.80609C28.5808 2.8168 28.6137 2.82216 28.6356 2.82216C28.6575 2.81145 28.6959 2.8168 28.7507 2.83823C28.7397 2.88107 28.7178 2.89178 28.6849 2.87036C28.7288 2.9025 28.7616 2.93463 28.7836 2.96676C28.8164 2.98819 28.8493 2.98283 28.8822 2.9507L28.7507 2.9025C28.8274 2.85965 28.8712 2.87036 28.8822 2.93463C28.9041 2.98819 28.937 3.02568 28.9808 3.0471C29.0027 3.02568 29.0027 3.01496 28.9808 3.01496C28.9589 3.00425 28.9425 2.98819 28.9315 2.96676C28.9534 2.93463 28.9753 2.93999 28.9973 2.98283C29.0192 3.01496 29.0356 3.02032 29.0466 2.9989C29.0685 3.02032 29.0685 3.02568 29.0466 3.01496C29.0247 3.00425 29.0137 3.00961 29.0137 3.03103C29.0356 3.05245 29.0575 3.05245 29.0795 3.03103C29.1123 2.9989 29.1342 3.00425 29.1452 3.0471C29.1342 3.06852 29.1233 3.07388 29.1123 3.06317C29.1123 3.05245 29.1014 3.0471 29.0795 3.0471C29.1123 3.12208 29.1452 3.1435 29.1781 3.11137C29.2219 3.07923 29.2548 3.07923 29.2767 3.11137C29.2438 3.15421 29.2329 3.16492 29.2438 3.1435C29.2658 3.11137 29.2493 3.10601 29.1945 3.12743C29.2055 3.14886 29.2219 3.15957 29.2438 3.15957C29.2658 3.14886 29.2822 3.13279 29.2932 3.11137C29.2932 3.13279 29.2932 3.15421 29.2932 3.17564C29.3041 3.19706 29.3041 3.21848 29.2932 3.2399C29.2493 3.22919 29.2164 3.21312 29.1945 3.1917C29.1726 3.15957 29.1452 3.1435 29.1123 3.1435C29.189 3.19706 29.2438 3.2399 29.2767 3.27204C29.3205 3.30417 29.3863 3.33631 29.474 3.36844C29.4959 3.43271 29.5452 3.48091 29.6219 3.51304C29.7096 3.54518 29.7589 3.60409 29.7699 3.68978C29.8247 3.7112 29.8575 3.7594 29.8685 3.83438C29.8795 3.89865 29.9123 3.94685 29.9671 3.97899C29.9342 3.92543 29.9178 3.88794 29.9178 3.86652C29.9288 3.84509 29.9123 3.80761 29.8685 3.75405C29.8904 3.73263 29.9014 3.72191 29.9014 3.72191C29.9123 3.72191 29.9397 3.72191 29.9836 3.72191C29.9616 3.66836 29.9342 3.65765 29.9014 3.68978C29.8795 3.7112 29.863 3.72191 29.8521 3.72191C29.8301 3.70049 29.8247 3.68978 29.8356 3.68978C29.8466 3.68978 29.863 3.68442 29.8849 3.67371C29.863 3.65229 29.8521 3.64693 29.8521 3.65765C29.8521 3.66836 29.8411 3.663 29.8192 3.64158C29.8192 3.63087 29.8247 3.62551 29.8356 3.62551C29.8466 3.62551 29.8521 3.6148 29.8521 3.59338ZM28.5699 3.35237C28.6356 3.3738 28.6959 3.40593 28.7507 3.44877C28.8164 3.48091 28.8767 3.50233 28.9315 3.51304C28.8986 3.49162 28.8712 3.44342 28.8493 3.36844C28.7836 3.34702 28.7233 3.32024 28.6685 3.2881C28.6247 3.24526 28.5753 3.21312 28.5205 3.1917C28.5205 3.1917 28.526 3.18635 28.537 3.17564C28.4603 3.15421 28.3671 3.12743 28.2575 3.0953C28.1589 3.06317 28.0822 3.02032 28.0274 2.96676C27.9397 2.98819 27.8521 2.97747 27.7644 2.93463C27.6767 2.88107 27.5836 2.85429 27.4849 2.85429L27.5178 2.82216C27.4521 2.84358 27.4027 2.83823 27.3699 2.80609C27.337 2.77396 27.2932 2.7686 27.2384 2.79003C27.2384 2.77931 27.2384 2.77396 27.2384 2.77396C27.2493 2.76325 27.2548 2.75254 27.2548 2.74182C27.1342 2.73111 27.0247 2.71505 26.926 2.69362C26.8274 2.66149 26.7342 2.63471 26.6466 2.61329C26.5589 2.58115 26.4658 2.55438 26.3671 2.53295C26.2685 2.51153 26.1534 2.49546 26.0219 2.48475C26.0329 2.45262 26.011 2.43655 25.9562 2.43655C25.9014 2.43655 25.863 2.43655 25.8411 2.43655C25.8411 2.42584 25.8411 2.42048 25.8411 2.42048C25.8521 2.42048 25.8575 2.41513 25.8575 2.40442C25.8356 2.40442 25.8082 2.40442 25.7753 2.40442C25.7534 2.40442 25.726 2.39906 25.6932 2.38835C25.8137 2.45262 25.9671 2.50617 26.1534 2.54902C26.3397 2.58115 26.5041 2.60793 26.6466 2.62936C26.7452 2.6722 26.8603 2.71505 26.9918 2.75789C27.1342 2.80074 27.2712 2.84358 27.4027 2.88643C27.5452 2.92927 27.6767 2.97212 27.7973 3.01496C27.9178 3.0471 28.011 3.08459 28.0767 3.12743C28.1096 3.12743 28.1315 3.12208 28.1425 3.11137C28.1863 3.15421 28.2301 3.1917 28.274 3.22384C28.3288 3.24526 28.3836 3.24526 28.4384 3.22384C28.4164 3.24526 28.411 3.26133 28.4219 3.27204C28.4438 3.28275 28.4658 3.28275 28.4877 3.27204C28.4658 3.29346 28.4712 3.30953 28.5041 3.32024C28.537 3.33095 28.5589 3.32559 28.5699 3.30417C28.5589 3.30417 28.5479 3.30417 28.537 3.30417C28.537 3.29346 28.5479 3.2881 28.5699 3.2881C28.5699 3.30953 28.5699 3.32024 28.5699 3.32024C28.5808 3.32024 28.5808 3.33095 28.5699 3.35237ZM0.542466 3.65765C0.958904 3.37915 1.4137 3.13815 1.90685 2.93463C2.41096 2.73111 2.93151 2.54366 3.46849 2.37228C3.45753 2.32944 3.43562 2.31873 3.40274 2.34015C3.38082 2.36157 3.3589 2.38299 3.33699 2.40442C3.31507 2.39371 3.30959 2.38835 3.32055 2.38835C3.34247 2.37764 3.34247 2.36693 3.32055 2.35622C3.29863 2.38835 3.27123 2.40442 3.23836 2.40442C3.21644 2.39371 3.18356 2.39906 3.13973 2.42048C3.11781 2.44191 3.09589 2.45262 3.07397 2.45262L2.74521 2.58115C2.72329 2.59187 2.69041 2.60258 2.64658 2.61329C2.6137 2.61329 2.56986 2.624 2.51507 2.64542C2.43836 2.68827 2.31781 2.73647 2.15342 2.79003C2 2.84358 1.83562 2.91321 1.66027 2.9989C1.66027 2.98819 1.66027 2.98283 1.66027 2.98283C1.67123 2.98283 1.67671 2.97747 1.67671 2.96676C1.57808 3.02032 1.49041 3.06852 1.4137 3.11137C1.34795 3.15421 1.25479 3.1917 1.13425 3.22384C1.05753 3.27739 0.99726 3.32024 0.953425 3.35237C0.909589 3.38451 0.860274 3.40057 0.805479 3.40057C0.827397 3.46484 0.816438 3.49162 0.772603 3.48091C0.728767 3.45949 0.717808 3.4702 0.739726 3.51304C0.728767 3.53447 0.717808 3.53982 0.706849 3.52911C0.69589 3.50769 0.679452 3.50769 0.657534 3.52911L0.509589 3.64158H0.542466V3.65765ZM29.1616 4.94301C29.2603 4.91088 29.3753 4.86267 29.5069 4.79841C29.6384 4.73414 29.6767 4.64845 29.6219 4.54133C29.5452 4.6056 29.4685 4.66987 29.3918 4.73414C29.326 4.80912 29.2493 4.87874 29.1616 4.94301ZM25.6767 2.40442C25.6767 2.40442 25.6822 2.39906 25.6932 2.38835C25.5726 2.36693 25.5014 2.3455 25.4795 2.32408C25.3918 2.33479 25.2767 2.32408 25.1342 2.29195C25.0027 2.25981 24.8932 2.23304 24.8055 2.21161V2.19555C24.7397 2.20626 24.6849 2.2009 24.6411 2.17948C24.5973 2.15806 24.5425 2.14734 24.4767 2.14734C24.663 2.22232 24.8548 2.27588 25.0521 2.30801C25.2493 2.32944 25.4575 2.36693 25.6767 2.42048V2.40442ZM29.589 3.41664C29.589 3.43806 29.6 3.44877 29.6219 3.44877C29.589 3.4702 29.5562 3.45949 29.5233 3.41664C29.5014 3.3738 29.4685 3.34166 29.4247 3.32024C29.4466 3.29882 29.4521 3.2881 29.4411 3.2881C29.4411 3.27739 29.4521 3.26133 29.474 3.2399C29.4301 3.25061 29.4082 3.27739 29.4082 3.32024C29.3863 3.30953 29.3699 3.29882 29.3589 3.2881C29.3479 3.27739 29.326 3.27204 29.2932 3.27204C29.3151 3.22919 29.337 3.20241 29.3589 3.1917C29.3479 3.17028 29.337 3.17028 29.326 3.1917C29.326 3.20241 29.3205 3.19706 29.3096 3.17564C29.3425 3.13279 29.3589 3.13279 29.3589 3.17564C29.3589 3.21848 29.3699 3.24526 29.3918 3.25597C29.4137 3.24526 29.4192 3.2399 29.4082 3.2399C29.3973 3.22919 29.3918 3.21312 29.3918 3.1917C29.4137 3.21312 29.4301 3.22384 29.4411 3.22384C29.4521 3.22384 29.4685 3.22919 29.4904 3.2399C29.4685 3.26133 29.463 3.27204 29.474 3.27204C29.4849 3.27204 29.4795 3.28275 29.4575 3.30417C29.4795 3.30417 29.4904 3.29882 29.4904 3.2881C29.5014 3.27739 29.5178 3.26668 29.5397 3.25597C29.5178 3.20241 29.4904 3.18099 29.4575 3.1917C29.4247 3.1917 29.4027 3.17028 29.3918 3.12743C29.4795 3.18099 29.5507 3.22384 29.6055 3.25597C29.6712 3.2881 29.726 3.34702 29.7699 3.43271L29.5562 3.25597C29.5562 3.27739 29.5507 3.29346 29.5397 3.30417C29.5397 3.31488 29.5342 3.33095 29.5233 3.35237C29.5233 3.3738 29.5288 3.38451 29.5397 3.38451C29.5616 3.3738 29.5781 3.36308 29.589 3.35237C29.589 3.33095 29.5836 3.33095 29.5726 3.35237C29.5616 3.36308 29.5562 3.35773 29.5562 3.33631C29.5342 3.31488 29.5397 3.31488 29.5726 3.33631C29.6164 3.34702 29.6493 3.36308 29.6712 3.38451C29.6603 3.39522 29.6493 3.40057 29.6384 3.40057C29.6274 3.40057 29.6219 3.41128 29.6219 3.43271C29.6 3.422 29.6 3.41664 29.6219 3.41664C29.6438 3.40593 29.6493 3.39522 29.6384 3.38451C29.6274 3.38451 29.611 3.39522 29.589 3.41664ZM28.537 2.67756C28.6795 2.76325 28.8219 2.83287 28.9644 2.88643C29.1178 2.93998 29.2438 3.01496 29.3425 3.11137C29.2219 3.02568 29.0849 2.95605 28.9315 2.9025C28.789 2.84894 28.6575 2.77396 28.537 2.67756ZM29.7041 3.40057C29.726 3.40057 29.737 3.41128 29.737 3.43271C29.737 3.44342 29.7479 3.45413 29.7699 3.46484C29.7479 3.50769 29.7479 3.53447 29.7699 3.54518C29.7918 3.54518 29.8137 3.56124 29.8356 3.59338C29.8027 3.6148 29.7699 3.60945 29.737 3.57731C29.7151 3.53447 29.6767 3.50233 29.6219 3.48091C29.6438 3.45949 29.6438 3.44877 29.6219 3.44877C29.6329 3.41664 29.6438 3.41128 29.6548 3.43271C29.6767 3.44342 29.6932 3.43271 29.7041 3.40057ZM23.8356 2.03488C23.8904 2.07772 23.9726 2.10985 24.0822 2.13128C24.1918 2.14199 24.274 2.13663 24.3288 2.11521C24.3178 2.09379 24.2849 2.08843 24.2301 2.09914C24.1863 2.10985 24.1753 2.1045 24.1973 2.08308C24.1425 2.09379 24.0877 2.09379 24.0329 2.08308C23.9781 2.06165 23.9123 2.04559 23.8356 2.03488ZM4.22466 2.14734C4.24658 2.12592 4.29589 2.11521 4.3726 2.11521C4.44932 2.1045 4.46027 2.07772 4.40548 2.03488C4.38356 2.08843 4.35069 2.10985 4.30685 2.09914C4.27397 2.08843 4.23562 2.09914 4.19178 2.13128C4.19178 2.10985 4.19726 2.09914 4.20822 2.09914C4.21918 2.09914 4.2137 2.09379 4.19178 2.08308C4.19178 2.1045 4.1863 2.11521 4.17534 2.11521C4.16438 2.1045 4.1589 2.10985 4.1589 2.13128C4.18082 2.12057 4.19178 2.12057 4.19178 2.13128C4.19178 2.14199 4.20274 2.14734 4.22466 2.14734ZM3.74795 2.22768C3.72603 2.25981 3.68767 2.28124 3.63288 2.29195C3.58904 2.30266 3.54521 2.32408 3.50137 2.35622C3.55616 2.33479 3.61096 2.31873 3.66575 2.30801C3.73151 2.28659 3.77534 2.26517 3.79726 2.24375C3.77534 2.26517 3.76438 2.27052 3.76438 2.25981C3.77534 2.2491 3.76986 2.23839 3.74795 2.22768ZM3.94521 2.22768C3.98904 2.20626 4.0274 2.19555 4.06027 2.19555C4.10411 2.18483 4.14247 2.16877 4.17534 2.14734C4.14247 2.12592 4.11507 2.12592 4.09315 2.14734C4.07123 2.16877 4.04932 2.17948 4.0274 2.17948C4.03836 2.19019 4.01644 2.19555 3.96164 2.19555C3.91781 2.19555 3.91233 2.20626 3.94521 2.22768ZM23.3096 1.95454C23.3534 1.97596 23.4082 1.99739 23.474 2.01881C23.5397 2.02952 23.5945 2.01881 23.6384 1.98667C23.5836 1.99739 23.5288 1.99739 23.474 1.98667C23.4301 1.97596 23.3753 1.96525 23.3096 1.95454ZM23.6548 2.05094C23.6767 2.05094 23.7096 2.05094 23.7534 2.05094C23.8082 2.05094 23.8192 2.04023 23.7863 2.01881C23.7863 2.01881 23.7699 2.01881 23.737 2.01881C23.726 2.01881 23.7096 2.01345 23.6877 2.00274C23.6877 2.00274 23.6877 1.99739 23.6877 1.98667C23.6877 2.01881 23.6767 2.02416 23.6548 2.00274V2.05094ZM5.0137 1.92241C5.09041 1.92241 5.13425 1.90098 5.14521 1.85814C5.12329 1.84743 5.10685 1.85278 5.09589 1.8742C5.09589 1.88492 5.07945 1.88492 5.04658 1.8742C5.04658 1.89563 5.0411 1.90634 5.03014 1.90634C5.01918 1.90634 5.0137 1.90098 5.0137 1.89027C5.0137 1.87956 5.00822 1.8742 4.99726 1.8742C4.99726 1.89563 5.00274 1.91169 5.0137 1.92241ZM26.4822 5.32862C26.5151 5.32862 26.5534 5.33397 26.5973 5.34469C26.6411 5.3554 26.674 5.35004 26.6959 5.32862C26.663 5.32862 26.6247 5.32326 26.5808 5.31255C26.537 5.30184 26.5041 5.3072 26.4822 5.32862ZM23.1123 1.90634C23.0904 1.93847 23.1123 1.9599 23.1781 1.97061C23.2438 1.97061 23.2548 1.95454 23.211 1.92241C23.211 1.94383 23.1945 1.94918 23.1616 1.93847C23.1397 1.91705 23.1233 1.90634 23.1123 1.90634ZM28.5205 2.70969C28.4877 2.70969 28.4658 2.70434 28.4548 2.69362C28.4438 2.68291 28.4274 2.67756 28.4055 2.67756C28.4055 2.65613 28.4219 2.65078 28.4548 2.66149C28.4986 2.66149 28.5205 2.67756 28.5205 2.70969ZM5.86849 1.7296C5.86849 1.68676 5.86301 1.66533 5.85206 1.66533C5.85206 1.68676 5.84658 1.69747 5.83562 1.69747C5.82466 1.67604 5.80822 1.6814 5.7863 1.71353C5.77534 1.73496 5.7589 1.7296 5.73699 1.69747C5.73699 1.74031 5.75343 1.75102 5.7863 1.7296C5.81918 1.70818 5.84658 1.70818 5.86849 1.7296ZM4.86575 1.97061C4.88767 1.94918 4.90959 1.94383 4.93151 1.95454C4.95343 1.95454 4.97534 1.94383 4.99726 1.92241C4.97534 1.90098 4.94247 1.90098 4.89863 1.92241C4.85479 1.94383 4.84384 1.9599 4.86575 1.97061ZM5.60548 1.7778C5.61644 1.74567 5.63288 1.74031 5.65479 1.76174C5.67671 1.77245 5.69863 1.76174 5.72055 1.7296C5.70959 1.71889 5.68767 1.71353 5.65479 1.71353C5.63288 1.71353 5.61096 1.72425 5.58904 1.74567C5.61096 1.74567 5.61096 1.75102 5.58904 1.76174C5.57808 1.77245 5.58356 1.7778 5.60548 1.7778ZM26.2849 5.26435C26.274 5.29648 26.3069 5.31255 26.3836 5.31255C26.4603 5.31255 26.4822 5.31255 26.4493 5.31255C26.4164 5.29113 26.3836 5.28042 26.3507 5.28042C26.3288 5.29113 26.3069 5.28577 26.2849 5.26435ZM26.8767 5.36075C26.8986 5.35004 26.926 5.35004 26.9589 5.36075C27.0027 5.37146 27.0301 5.36611 27.0411 5.34469C27.0192 5.3554 26.9863 5.3554 26.9425 5.34469C26.9096 5.33397 26.8877 5.33933 26.8767 5.36075ZM24.3452 2.16341C24.3671 2.1527 24.389 2.1527 24.411 2.16341C24.4329 2.17412 24.4493 2.16877 24.4603 2.14734C24.4384 2.12592 24.4164 2.12592 24.3945 2.14734C24.3836 2.15806 24.3726 2.1527 24.3616 2.13128C24.3726 2.13128 24.3781 2.13128 24.3781 2.13128C24.389 2.12057 24.3836 2.11521 24.3616 2.11521C24.3616 2.11521 24.3562 2.12057 24.3452 2.13128V2.16341ZM4.45479 2.06701C4.47671 2.06701 4.50959 2.06165 4.55342 2.05094C4.60822 2.04023 4.60822 2.02416 4.55342 2.00274C4.55342 2.0563 4.53699 2.07236 4.50411 2.05094C4.47123 2.02952 4.45479 2.03488 4.45479 2.06701ZM22.9479 1.90634C22.9479 1.91705 22.9644 1.92776 22.9973 1.93847C23.0301 1.93847 23.0466 1.92776 23.0466 1.90634C23.0247 1.91705 23.0027 1.91705 22.9808 1.90634C22.9699 1.88492 22.9589 1.88492 22.9479 1.90634ZM4.73425 2.00274C4.75616 2.00274 4.7726 1.99739 4.78356 1.98667C4.80548 1.97596 4.80548 1.9599 4.78356 1.93847C4.78356 1.94918 4.7726 1.96525 4.75069 1.98667C4.75069 1.95454 4.74521 1.93847 4.73425 1.93847V2.00274ZM29.9671 3.81832C29.9671 3.79689 29.9671 3.77547 29.9671 3.75405C29.9781 3.73263 29.9671 3.72727 29.9342 3.73798C29.9342 3.77012 29.9452 3.79689 29.9671 3.81832ZM22.1918 1.80994C22.2137 1.79923 22.2356 1.79923 22.2575 1.80994C22.2904 1.82065 22.3069 1.81529 22.3069 1.79387C22.2849 1.79387 22.263 1.79387 22.2411 1.79387C22.2192 1.78316 22.2027 1.78851 22.1918 1.80994ZM6.2137 1.6332C6.2137 1.61178 6.21918 1.60642 6.23014 1.61713C6.25206 1.62784 6.26301 1.62249 6.26301 1.60106C6.26301 1.57964 6.24658 1.57429 6.2137 1.585C6.18082 1.59571 6.18082 1.61178 6.2137 1.6332ZM29.0137 3.11137C29.0356 3.11137 29.0521 3.12208 29.063 3.1435C29.074 3.16492 29.0849 3.16492 29.0959 3.1435C29.0849 3.1435 29.0795 3.13279 29.0795 3.11137C29.0356 3.11137 29.0137 3.11137 29.0137 3.11137ZM29.7534 3.62551C29.7753 3.60409 29.7863 3.60945 29.7863 3.64158C29.7973 3.663 29.8137 3.66836 29.8356 3.65765C29.8137 3.67907 29.7973 3.67907 29.7863 3.65765C29.7863 3.63622 29.7753 3.62551 29.7534 3.62551ZM6.09863 1.61713C6.07671 1.63855 6.08219 1.65462 6.11507 1.66533C6.14795 1.66533 6.1589 1.65462 6.14795 1.6332C6.13699 1.6332 6.13151 1.62784 6.13151 1.61713C6.13151 1.60642 6.12055 1.60642 6.09863 1.61713ZM22.4384 1.84207C22.4712 1.84207 22.4932 1.83671 22.5041 1.826C22.4603 1.826 22.4384 1.83136 22.4384 1.84207ZM28.1425 2.56509C28.1425 2.5758 28.126 2.58115 28.0932 2.58115C28.0932 2.57044 28.1096 2.56509 28.1425 2.56509ZM22.5534 1.84207C22.5644 1.86349 22.5699 1.86885 22.5699 1.85814C22.5699 1.83671 22.5589 1.826 22.537 1.826C22.5151 1.84743 22.5205 1.85278 22.5534 1.84207ZM22.8658 1.90634C22.8986 1.90634 22.9151 1.90098 22.9151 1.89027C22.8822 1.89027 22.8658 1.89563 22.8658 1.90634ZM28.6356 2.85429C28.6356 2.84358 28.6301 2.83823 28.6192 2.83823C28.6082 2.83823 28.6027 2.84358 28.6027 2.85429C28.6137 2.85429 28.6192 2.85965 28.6192 2.87036C28.6192 2.88107 28.6247 2.87572 28.6356 2.85429ZM26.0877 5.23222C26.1206 5.23222 26.137 5.22686 26.137 5.21615C26.1041 5.21615 26.0877 5.2215 26.0877 5.23222ZM8.25206 1.21546C8.28493 1.21546 8.30137 1.2101 8.30137 1.19939C8.26849 1.19939 8.25206 1.20474 8.25206 1.21546ZM5.37534 1.826C5.3863 1.81529 5.39726 1.81529 5.40822 1.826C5.41918 1.826 5.42466 1.82065 5.42466 1.80994C5.39178 1.80994 5.37534 1.81529 5.37534 1.826ZM21.074 1.66533C21.0849 1.65462 21.0959 1.65462 21.1068 1.66533C21.1178 1.66533 21.1233 1.65998 21.1233 1.64927C21.0904 1.64927 21.074 1.65462 21.074 1.66533ZM7.54521 1.34399C7.55616 1.33328 7.56712 1.33328 7.57808 1.34399C7.58904 1.34399 7.59452 1.33864 7.59452 1.32793C7.56164 1.32793 7.54521 1.33328 7.54521 1.34399ZM22.011 1.7778C22.0329 1.7778 22.0493 1.77245 22.0603 1.76174C22.0274 1.76174 22.011 1.76709 22.011 1.7778ZM19.989 1.5368C20.011 1.5368 20.0274 1.53144 20.0384 1.52073C20.0055 1.52073 19.989 1.52609 19.989 1.5368ZM26.7945 5.34469C26.8274 5.34469 26.8438 5.33933 26.8438 5.32862C26.8329 5.33933 26.8219 5.33933 26.811 5.32862C26.811 5.32862 26.8055 5.33397 26.7945 5.34469ZM4.66849 2.01881C4.69041 1.99739 4.70137 1.99203 4.70137 2.00274H4.68493C4.67397 2.00274 4.66849 2.0081 4.66849 2.01881ZM10.9644 0.894115C10.9644 0.883404 10.9699 0.883404 10.9808 0.894115C10.9918 0.894115 11.0027 0.888759 11.0137 0.878048C11.0137 0.888759 10.9973 0.894115 10.9644 0.894115ZM21.6822 1.7296C21.7041 1.7296 21.7151 1.72425 21.7151 1.71353C21.6932 1.71353 21.6822 1.71889 21.6822 1.7296ZM7.31507 1.37613C7.33699 1.37613 7.34795 1.37077 7.34795 1.36006C7.32603 1.36006 7.31507 1.36541 7.31507 1.37613ZM6.32877 1.56893C6.35069 1.56893 6.36164 1.56358 6.36164 1.55286C6.33973 1.55286 6.32877 1.55822 6.32877 1.56893ZM10.0932 0.97445C10.1151 0.97445 10.126 0.969095 10.126 0.958383C10.1041 0.958383 10.0932 0.963739 10.0932 0.97445ZM10.1425 0.97445C10.1644 0.97445 10.1753 0.969095 10.1753 0.958383C10.1534 0.958383 10.1425 0.963739 10.1425 0.97445ZM26.7288 5.34469C26.7507 5.34469 26.7616 5.33933 26.7616 5.32862C26.7397 5.32862 26.7288 5.33397 26.7288 5.34469ZM21.4027 1.69747C21.4247 1.69747 21.4356 1.69211 21.4356 1.6814C21.4137 1.6814 21.4027 1.68676 21.4027 1.69747ZM8.99178 1.11905C9.0137 1.11905 9.02466 1.1137 9.02466 1.10299C9.00274 1.10299 8.99178 1.10834 8.99178 1.11905ZM27.1726 5.36075C27.1945 5.36075 27.2055 5.3554 27.2055 5.34469H27.189C27.1781 5.34469 27.1726 5.35004 27.1726 5.36075ZM14.8767 2.08308C14.8767 2.08308 14.8822 2.07772 14.8932 2.06701C14.8712 2.06701 14.8603 2.07236 14.8603 2.08308H14.8767ZM20.7781 1.61713C20.7781 1.61713 20.7836 1.61178 20.7945 1.60106C20.7726 1.60106 20.7616 1.60642 20.7616 1.61713H20.7781ZM6.46027 1.5368C6.46027 1.54751 6.47123 1.54215 6.49315 1.52073C6.49315 1.53144 6.48219 1.5368 6.46027 1.5368ZM25.9397 5.13581C25.9397 5.13581 25.9288 5.13581 25.9069 5.13581H25.9397ZM21.8137 1.7296C21.8027 1.7296 21.7918 1.73496 21.7808 1.74567C21.8027 1.74567 21.8137 1.74031 21.8137 1.7296ZM0.542466 3.65765C0.531507 3.66836 0.526028 3.67371 0.526028 3.67371L0.542466 3.65765Z" fill="black"/>
</svg>
