<svg width="100" height="16" viewBox="0 0 100 16" fill="none" xmlns="http://www.w3.org/2000/svg">
<path d="M98.9217 4.36397C99.0467 4.58104 99.2655 4.71129 99.5781 4.7547C99.9531 4.79812 100.078 4.99349 99.9531 5.34081C99.7656 5.25398 99.5156 5.23227 99.203 5.27569C98.8905 5.27569 98.5779 5.27569 98.2653 5.27569C98.0153 5.40593 97.8278 5.53618 97.7028 5.66643C97.6403 5.79667 97.484 5.97033 97.2339 6.18741C94.421 5.70984 91.3268 5.27569 87.9512 4.88495C84.6382 4.49421 81.2315 4.1903 77.7309 3.97323C74.2929 3.75615 70.8548 3.6042 67.4168 3.51737C64.0413 3.43054 60.8845 3.45224 57.9466 3.58249C57.3215 3.6259 56.7276 3.66932 56.165 3.71274C55.6024 3.75615 55.0399 3.73444 54.4773 3.64761C54.5398 3.73444 54.4773 3.77786 54.2897 3.77786C54.1022 3.73444 53.9459 3.75615 53.8209 3.84298C53.1958 3.75615 52.602 3.77786 52.0394 3.9081C51.5393 3.99493 51.0392 3.99493 50.5392 3.9081C50.6017 3.95152 50.5391 3.99493 50.3516 4.03835C50.1641 4.08177 49.9141 4.12518 49.6015 4.1686C49.3515 4.1686 49.0702 4.1686 48.7576 4.1686C48.4451 4.1686 48.195 4.1686 48.0075 4.1686C48.195 4.25543 48.07 4.32055 47.6324 4.36397C47.1949 4.40738 46.8198 4.40738 46.5073 4.36397C46.6323 4.40738 46.601 4.4508 46.4135 4.49421C46.226 4.49421 46.101 4.4508 46.0384 4.36397C46.0384 4.32055 46.1322 4.29884 46.3197 4.29884C46.0697 4.21201 45.7572 4.21201 45.3821 4.29884C45.007 4.34226 44.7257 4.40738 44.5382 4.49421C44.7257 4.62446 45.007 4.7547 45.3821 4.88495C45.7572 4.97178 46.101 4.99349 46.4135 4.95007C46.4135 5.08032 46.5073 5.14544 46.6948 5.14544C46.8823 5.10203 47.0386 5.12373 47.1636 5.21056C47.4762 5.25398 47.4762 5.27569 47.1636 5.27569C46.8511 5.27569 46.6948 5.23227 46.6948 5.14544C46.5073 5.14544 46.351 5.12373 46.226 5.08032C46.1635 5.0369 46.0072 5.0369 45.7572 5.08032C45.5696 4.99349 45.3508 4.92836 45.1008 4.88495C44.8508 4.84153 44.5695 4.79812 44.2569 4.7547C45.8197 5.27569 47.6324 5.66642 49.6953 5.92692C51.7581 6.14399 53.5396 6.53473 55.0399 7.09913C54.9148 6.92547 54.5085 6.77352 53.8209 6.64327C53.1958 6.46961 52.5707 6.29595 51.9456 6.12229C52.3832 6.03546 52.9145 6.12229 53.5396 6.38278C54.1647 6.59986 54.6023 6.75181 54.8523 6.83864C55.1024 6.79522 55.1649 6.86035 55.0399 7.03401C55.3524 6.99059 55.6024 7.07742 55.79 7.2945C56.04 7.46816 55.915 7.42475 55.4149 7.16425C55.7275 7.38133 56.0088 7.62012 56.2588 7.88061C56.5713 8.09768 56.8214 8.31476 57.0089 8.53184C57.1339 8.44501 57.1339 8.35818 57.0089 8.27135C56.8839 8.1411 56.7901 8.03256 56.7276 7.94573C56.7901 7.8589 56.8839 7.94573 57.0089 8.20622C57.1964 8.4233 57.2902 8.55355 57.2902 8.59696C57.4152 8.68379 57.384 8.72721 57.1964 8.72721C57.0714 8.72721 57.0089 8.68379 57.0089 8.59696C56.8839 8.68379 56.9151 8.77062 57.1027 8.85745C57.2902 8.94428 57.3215 9.07453 57.1964 9.24819C57.509 9.20478 57.5402 9.13965 57.2902 9.05282C57.1027 8.92258 57.1652 8.83574 57.4777 8.79233C57.5402 9.09624 57.6028 9.37844 57.6653 9.63893C57.7278 9.89942 57.759 10.1816 57.759 10.4855C57.634 10.4421 57.5715 10.2902 57.5715 10.0297C57.634 9.72576 57.6028 9.46527 57.4777 9.24819C57.3527 9.5521 57.3215 9.98625 57.384 10.5507C57.509 11.0716 57.509 11.5709 57.384 12.0485C57.384 12.1353 57.3527 12.1787 57.2902 12.1787C57.2902 12.1353 57.2589 12.1136 57.1964 12.1136L57.384 13.2207C57.3215 13.3075 57.2589 13.3075 57.1964 13.2207C57.1964 13.0904 57.1964 12.9819 57.1964 12.8951C57.0089 13.2424 56.8839 13.5463 56.8214 13.8068C56.7589 14.0239 56.6964 14.2192 56.6339 14.3929C56.5713 14.5666 56.4776 14.7185 56.3526 14.8488C56.2275 15.0224 56.0088 15.2395 55.6962 15.5C55.9462 14.9356 56.165 14.3061 56.3526 13.6114C56.6026 12.8734 56.7589 12.157 56.8214 11.4624C56.8839 10.7677 56.8214 10.1165 56.6339 9.50868C56.4463 8.90087 56.0713 8.40159 55.5087 8.01085C54.696 7.53328 53.7584 7.18596 52.6957 6.96889C51.6331 6.70839 50.5391 6.49132 49.414 6.31766C48.2888 6.10058 47.1636 5.90521 46.0384 5.73155C44.9758 5.55789 44.0069 5.29739 43.1317 4.95007C43.1317 4.60275 43.163 4.38567 43.2255 4.29884C43.3505 4.21201 43.4755 4.06006 43.6006 3.84298C44.6632 3.49566 45.8822 3.21346 47.2574 2.99638C48.6951 2.73589 50.1641 2.54052 51.6643 2.41028C51.1642 2.32344 50.6329 2.34515 50.0703 2.4754C49.5702 2.56223 49.0702 2.60564 48.5701 2.60564C48.6951 2.51881 48.8514 2.4754 49.0389 2.4754C49.2264 2.4754 49.414 2.4754 49.6015 2.4754C49.414 2.30174 49.1014 2.25832 48.6639 2.34515C48.2263 2.43198 48.1013 2.41027 48.2888 2.28003C48.1638 2.28003 48.1013 2.30174 48.1013 2.34515C48.1013 2.38857 48.0388 2.41028 47.9137 2.41028C40.9126 2.41028 34.0991 2.69247 27.473 3.25687C20.847 3.82127 14.3147 4.64616 7.87623 5.73155C6.68855 5.94862 5.56337 6.20912 4.5007 6.51302C3.43804 6.77352 2.34412 6.94718 1.21894 7.03401C1.09392 6.77352 1.06267 6.55644 1.12518 6.38278C1.18769 6.20912 1.2502 6.03546 1.31271 5.86179C1.37521 5.77496 1.28145 5.73155 1.03141 5.73155C1.21894 5.51447 1.2502 5.3191 1.12518 5.14544C1.00016 4.92836 0.875137 4.68958 0.750117 4.42909C1.2502 4.25543 1.81278 4.14689 2.43788 4.10347C3.06298 4.06006 3.75059 3.99493 4.5007 3.9081C4.25066 3.69103 3.87561 3.6042 3.37553 3.64761C2.87545 3.64761 2.40663 3.64761 1.96906 3.64761C1.71902 3.38712 1.594 3.19175 1.594 3.0615C1.09392 3.10492 0.562588 3.01809 0 2.80101C0 2.71418 0.0625098 2.69247 0.187529 2.73589C0.375059 2.77931 0.437568 2.73589 0.375058 2.60564C1.00016 2.64906 1.68776 2.58394 2.43788 2.41028C3.188 2.23661 3.90686 2.1932 4.59447 2.28003C6.40725 1.97612 8.3138 1.78075 10.3141 1.69392C12.3769 1.56368 14.5023 1.39001 16.6901 1.17294C19.378 1.04269 22.2222 0.934153 25.2227 0.847323C28.2232 0.717077 31.2236 0.630246 34.2241 0.58683C37.2246 0.5 40.1 0.478293 42.8504 0.521707C45.6634 0.521707 48.195 0.565123 50.4454 0.651954C50.5079 0.651954 50.5392 0.695369 50.5392 0.7822C50.6642 0.695369 50.7579 0.717077 50.8204 0.847323C50.883 0.847323 50.883 0.825615 50.8204 0.7822C50.8204 0.738784 50.7892 0.717077 50.7267 0.717077C50.8517 0.630246 51.008 0.608538 51.1955 0.651954C51.4455 0.695369 51.4143 0.738784 51.1017 0.7822C51.4143 0.912445 51.5393 0.890738 51.4768 0.717077C51.5393 0.760492 51.6643 0.760492 51.8519 0.717077C52.1019 0.673661 52.1331 0.738784 51.9456 0.912446C52.0706 0.825615 52.1331 0.825615 52.1331 0.912446C52.1331 0.7822 52.1957 0.717077 52.3207 0.717077C52.5082 0.717077 52.7582 0.717077 53.0708 0.717077C53.0083 0.803908 52.8833 0.825615 52.6957 0.7822C52.5707 0.738784 52.477 0.760492 52.4144 0.847323C53.7897 0.977569 55.1336 1.0644 56.4463 1.10781C57.8215 1.15123 59.1968 1.17294 60.572 1.17294C60.3219 1.17294 60.0094 1.12952 59.6343 1.04269C59.6343 0.999276 59.6343 0.977568 59.6343 0.977568C59.6968 0.977568 59.7281 0.999276 59.7281 1.04269C59.9156 1.04269 60.2282 1.04269 60.6657 1.04269C61.1033 1.04269 61.4784 1.0644 61.7909 1.10781C61.6659 1.10781 61.5409 1.12952 61.4159 1.17294C61.3533 1.17294 61.2596 1.17294 61.1346 1.17294H61.8847C61.8847 1.17294 61.8534 1.15123 61.7909 1.10781C63.4162 1.10781 65.0727 1.08611 66.7604 1.04269C68.4482 0.955861 70.1672 0.890738 71.9175 0.847323C75.6056 0.760492 79.2936 0.7822 82.9817 0.912446C86.6698 1.04269 89.9203 1.32489 92.7332 1.75904C94.0459 1.84588 95.2649 2.10637 96.3901 2.54052C97.5778 2.93126 98.7654 3.36541 99.9531 3.84298C99.8281 3.97323 99.7656 4.08177 99.7656 4.1686C99.8281 4.21201 99.7969 4.29884 99.6718 4.42909C99.6093 4.38567 99.5781 4.29884 99.5781 4.1686C99.453 4.34226 99.3905 4.42909 99.3905 4.42909C99.3905 4.38567 99.2343 4.36397 98.9217 4.36397ZM30.8486 1.56368C35.1617 1.3466 39.6624 1.25977 44.3507 1.30318C49.0389 1.30318 53.8522 1.3466 58.7904 1.43343C57.3527 1.3466 55.6962 1.28148 53.8209 1.23806C52.0081 1.19465 50.1641 1.17294 48.2888 1.17294C44.8508 1.08611 41.9128 1.08611 39.4749 1.17294C39.4124 1.12952 39.0686 1.12952 38.4435 1.17294C37.8184 1.17294 37.3496 1.19465 37.037 1.23806C36.2869 1.19465 35.3493 1.23806 34.2241 1.36831C33.0989 1.45514 32.13 1.45514 31.3174 1.36831C31.3799 1.41172 31.4424 1.43343 31.5049 1.43343C31.5674 1.39001 31.5987 1.41172 31.5987 1.49855C31.4112 1.54197 31.2549 1.52026 31.1299 1.43343C31.0048 1.3466 30.9111 1.39001 30.8486 1.56368ZM88.6076 2.67077C90.1078 2.7576 91.5456 2.93126 92.9208 3.19175C94.3585 3.40883 95.765 3.51737 97.1402 3.51737C95.765 3.30029 94.4835 3.12663 93.2958 2.99638C92.1081 2.86614 90.9205 2.7576 89.7328 2.67077C88.5451 2.54052 87.3261 2.43198 86.076 2.34515C84.8883 2.25832 83.5756 2.14978 82.1378 2.01954C82.3254 2.01954 82.4191 1.99783 82.4191 1.95441C81.7315 2.04124 81.1064 2.08466 80.5438 2.08466C79.9812 2.04124 79.2624 1.97612 78.3873 1.88929C78.5748 1.88929 78.606 1.93271 78.481 2.01954C78.356 1.97612 78.1997 1.95441 78.0122 1.95441C77.8872 1.95441 77.7309 1.93271 77.5434 1.88929H76.2307C76.2307 1.88929 76.2619 1.86758 76.3244 1.82417C76.0119 1.78075 75.8556 1.78075 75.8556 1.82417C75.9181 1.86758 75.9181 1.911 75.8556 1.95441C75.5431 1.86758 75.2305 1.84588 74.918 1.88929C74.6679 1.88929 74.3866 1.88929 74.0741 1.88929C74.1366 1.88929 74.1678 1.911 74.1678 1.95441C74.2303 1.95441 74.2929 1.95441 74.3554 1.95441C76.9183 2.04124 79.3874 2.14978 81.7628 2.28003C84.1382 2.36686 86.4198 2.49711 88.6076 2.67077ZM18.1903 2.28003C16.5026 2.36686 14.8148 2.49711 13.1271 2.67077C11.5018 2.84443 10.0641 3.0398 8.81388 3.25687C11.2518 2.99638 13.7209 2.77931 16.2213 2.60564C18.7217 2.38857 21.2533 2.17149 23.8162 1.95441C25.0039 1.86758 26.1916 1.82417 27.3793 1.82417C28.567 1.78075 29.6921 1.65051 30.7548 1.43343C29.6921 1.43343 28.817 1.47685 28.1294 1.56368C27.5043 1.65051 26.8479 1.65051 26.1603 1.56368C26.2854 1.78075 26.1603 1.84588 25.7853 1.75904C25.6603 1.6288 25.5352 1.58538 25.4102 1.6288C25.3477 1.67221 25.1914 1.73734 24.9414 1.82417C24.9414 1.82417 24.9727 1.80246 25.0352 1.75904C24.7226 1.84588 24.4413 1.84588 24.1913 1.75904C24.0038 1.67221 23.8162 1.67221 23.6287 1.75904C23.8162 1.75904 23.91 1.78075 23.91 1.82417C23.5349 1.78075 23.0349 1.82417 22.4098 1.95441C21.8472 2.04124 21.2533 2.06295 20.6282 2.01954L20.722 2.08466C20.2844 2.12808 19.7843 2.17149 19.2218 2.21491C18.7217 2.21491 18.3466 2.1932 18.0966 2.14978C18.2841 2.14978 18.3154 2.1932 18.1903 2.28003ZM49.0389 3.9081C49.0389 3.9081 49.0702 3.92981 49.1327 3.97323C48.7576 3.8864 48.3826 3.8864 48.0075 3.97323C47.6324 4.01664 47.3199 4.08177 47.0699 4.1686C47.1949 4.1686 47.2574 4.1903 47.2574 4.23372C47.3199 4.23372 47.4137 4.23372 47.5387 4.23372C47.6012 4.14689 47.7887 4.08177 48.1013 4.03835C48.4138 3.95152 48.6326 3.95152 48.7576 4.03835C48.5076 4.03835 48.4451 4.06006 48.5701 4.10347C48.6951 4.06006 48.8201 4.06006 48.9451 4.10347C49.0702 4.10347 49.1639 4.06006 49.2264 3.97323H49.1327C49.5077 4.06006 49.7578 4.03835 49.8828 3.9081C50.0703 3.73444 50.4141 3.73444 50.9142 3.9081C50.7267 3.69103 50.4141 3.6259 49.9766 3.71274C49.6015 3.79957 49.289 3.86469 49.0389 3.9081ZM71.9175 3.25687C72.6051 3.21346 73.2927 3.23517 73.9803 3.322C74.7304 3.36541 75.418 3.3437 76.0431 3.25687C75.6681 3.25687 75.293 3.25687 74.918 3.25687C74.6054 3.25687 74.2929 3.23517 73.9803 3.19175C73.6678 3.23517 73.2927 3.23517 72.8551 3.19175C72.4801 3.14834 72.1675 3.17004 71.9175 3.25687ZM66.2916 3.12663C66.4791 3.17004 66.6667 3.19175 66.8542 3.19175C67.0417 3.14834 66.9792 3.10492 66.6667 3.0615C66.1666 3.01809 65.729 3.01809 65.354 3.0615C64.9789 3.10492 64.6664 3.08321 64.4163 2.99638C64.4788 3.17004 64.6038 3.23517 64.7914 3.19175C65.0414 3.14834 65.1977 3.12663 65.2602 3.12663H66.2916ZM57.1027 0.977568C56.7901 0.934154 56.4463 0.912446 56.0713 0.912446C55.7587 0.912446 55.4462 0.912446 55.1336 0.912446C55.5087 0.825615 55.9775 0.825615 56.5401 0.912446C57.1027 0.955861 57.7278 0.955861 58.4154 0.912446C58.7279 0.955861 58.7592 0.999276 58.5091 1.04269C58.3216 1.04269 58.1653 1.02098 58.0403 0.977568H57.1027ZM48.4763 5.53618C48.8514 5.44935 49.289 5.47106 49.789 5.6013C50.3516 5.73155 50.7892 5.79667 51.1017 5.79667C50.7892 5.92692 50.3516 5.90521 49.789 5.73155C49.289 5.55789 48.8514 5.49276 48.4763 5.53618ZM59.2593 3.322C59.6343 3.23517 60.0719 3.21346 60.572 3.25687C61.072 3.30029 61.3846 3.23517 61.5096 3.0615C61.0095 3.14834 60.4782 3.19175 59.9156 3.19175C59.353 3.14834 58.9155 3.19175 58.6029 3.322C58.8529 3.322 58.978 3.30029 58.978 3.25687C59.0405 3.21346 59.1342 3.23517 59.2593 3.322ZM80.1688 1.17294C79.7937 1.17294 79.3562 1.15123 78.8561 1.10781C78.4185 1.0644 78.0435 1.08611 77.7309 1.17294C78.106 1.17294 78.5123 1.19465 78.9498 1.23806C79.4499 1.28148 79.8562 1.25977 80.1688 1.17294ZM48.6639 0.717077C48.4138 0.760492 48.1325 0.760492 47.82 0.717077C47.5074 0.630246 47.2886 0.630246 47.1636 0.717077C47.6637 0.717077 48.195 0.760492 48.7576 0.847323C49.3202 0.890738 49.789 0.869031 50.1641 0.7822C49.9141 0.738784 49.664 0.717077 49.414 0.717077C49.1639 0.717077 48.9139 0.717077 48.6639 0.717077ZM46.0384 2.14978C46.226 2.1932 46.5073 2.21491 46.8823 2.21491C47.3199 2.17149 47.6012 2.10637 47.7262 2.01954C47.3512 2.10637 46.7886 2.10637 46.0384 2.01954V2.14978ZM42.1941 2.21491C42.2566 2.08466 42.2254 2.06295 42.1003 2.14978C42.0378 2.1932 41.9441 2.1932 41.819 2.14978C41.7565 2.10637 41.569 2.10637 41.2564 2.14978C41.0064 2.14978 40.8189 2.17149 40.6939 2.21491C40.5688 2.21491 40.3501 2.1932 40.0375 2.14978C39.7875 2.10637 39.725 2.12807 39.85 2.21491C40.3501 2.30174 40.7564 2.32344 41.0689 2.28003C41.3815 2.1932 41.7565 2.17149 42.1941 2.21491ZM47.0699 0.717077C46.8823 0.630246 46.5698 0.58683 46.1322 0.58683C45.6946 0.58683 45.3821 0.630246 45.1946 0.717077C45.3821 0.760492 45.6634 0.7822 46.0384 0.7822C46.4135 0.738784 46.7573 0.717077 47.0699 0.717077ZM4.5007 5.79667C4.81325 5.70984 5.15706 5.64472 5.53211 5.6013C5.90717 5.55789 6.25098 5.47106 6.56353 5.34081C6.25098 5.42764 5.84466 5.51447 5.34458 5.6013C4.90702 5.64472 4.62572 5.70984 4.5007 5.79667ZM65.1664 1.36831C65.479 1.36831 65.854 1.36831 66.2916 1.36831C66.7292 1.36831 66.9792 1.32489 67.0417 1.23806C66.7292 1.23806 66.4166 1.23806 66.1041 1.23806C65.7915 1.23806 65.479 1.28148 65.1664 1.36831ZM44.7257 0.651954C44.4132 0.695369 44.0694 0.695369 43.6943 0.651954C43.3193 0.608538 43.038 0.630246 42.8504 0.717077C43.163 0.673661 43.4755 0.673661 43.7881 0.717077C44.1632 0.760492 44.4757 0.738784 44.7257 0.651954ZM7.03235 5.34081C7.3449 5.25398 7.65745 5.21056 7.97 5.21056C8.28254 5.16715 8.59509 5.08032 8.90764 4.95007C8.6576 4.95007 8.40756 4.99349 8.15753 5.08032C7.97 5.16715 7.78247 5.16715 7.59494 5.08032C7.59494 5.12373 7.50117 5.14544 7.31364 5.14544L7.03235 5.34081ZM51.2893 3.9081C51.3518 3.69103 51.5393 3.6259 51.8519 3.71274C52.1644 3.75615 52.4457 3.71273 52.6957 3.58249C52.3832 3.53907 52.1019 3.56078 51.8519 3.64761C51.6018 3.69103 51.4143 3.66932 51.2893 3.58249C51.3518 3.66932 51.3205 3.73444 51.1955 3.77786C51.133 3.82127 51.1642 3.86469 51.2893 3.9081ZM77.1683 3.45224C77.4809 3.40883 77.7934 3.43054 78.106 3.51737C78.481 3.56078 78.6998 3.53907 78.7623 3.45224C78.5123 3.45224 78.1685 3.43054 77.7309 3.38712C77.2933 3.34371 77.1058 3.36541 77.1683 3.45224ZM69.6671 1.17294C69.4171 1.21635 69.3858 1.23806 69.5734 1.23806C69.7609 1.23806 69.9172 1.21635 70.0422 1.17294C70.1672 1.17294 70.3547 1.19465 70.6048 1.23806C70.9173 1.23806 71.0111 1.19465 70.8861 1.10781C70.6986 1.15123 70.4798 1.15123 70.2297 1.10781C69.9797 1.0644 69.7922 1.08611 69.6671 1.17294ZM75.293 1.10781C74.9805 1.15123 74.6679 1.15123 74.3554 1.10781C74.0428 1.02098 73.824 1.02098 73.699 1.10781C73.9491 1.10781 74.2303 1.12952 74.5429 1.17294C74.8554 1.21635 75.1055 1.19465 75.293 1.10781ZM45.1008 2.21491C44.9133 2.12807 44.9758 2.10637 45.2883 2.14978C45.6009 2.1932 45.7572 2.17149 45.7572 2.08466C45.6321 2.08466 45.4133 2.08466 45.1008 2.08466C44.7883 2.04124 44.5695 2.06295 44.4444 2.14978C44.5695 2.14978 44.6945 2.17149 44.8195 2.21491C44.9445 2.25832 45.0383 2.25832 45.1008 2.21491ZM25.2227 3.0615C25.5352 3.01809 25.8165 3.01809 26.0666 3.0615C26.3791 3.0615 26.6292 3.01809 26.8167 2.93126C26.5041 2.88784 26.1603 2.88784 25.7853 2.93126C25.4727 2.97467 25.2852 3.01809 25.2227 3.0615ZM57.2902 3.322C57.7903 3.36541 57.9153 3.36541 57.6653 3.322C57.4777 3.23517 57.2277 3.21346 56.9151 3.25687C56.7276 3.21346 56.5713 3.25687 56.4463 3.38712C56.3213 3.51737 56.3838 3.53907 56.6339 3.45224C56.5088 3.45224 56.4776 3.43054 56.5401 3.38712C56.6651 3.43054 56.7901 3.43054 56.9151 3.38712C57.0402 3.34371 57.1652 3.322 57.2902 3.322ZM11.6268 4.62446C11.9394 4.62446 11.9706 4.60275 11.7206 4.55933C11.4705 4.4725 11.3455 4.49421 11.3455 4.62446C10.9705 4.62446 10.6892 4.66787 10.5016 4.7547C10.4391 4.79812 10.3766 4.81983 10.3141 4.81983H10.2203C10.3454 4.81983 10.5016 4.81983 10.6892 4.81983C10.8767 4.77641 11.033 4.7547 11.158 4.7547C11.2205 4.66787 11.3768 4.62446 11.6268 4.62446ZM61.4159 1.49855C60.7908 1.49855 60.3844 1.54197 60.1969 1.6288C60.3844 1.6288 60.6345 1.6288 60.947 1.6288C61.3221 1.6288 61.4784 1.58538 61.4159 1.49855ZM50.7267 2.08466C50.9142 2.08466 51.133 2.10637 51.383 2.14978C51.6956 2.1932 51.9144 2.17149 52.0394 2.08466C51.7893 2.08466 51.5393 2.06295 51.2893 2.01954C51.0392 1.97612 50.8517 1.99783 50.7267 2.08466ZM29.8172 2.73589C30.0672 2.69247 30.3485 2.69247 30.661 2.73589C31.0361 2.73589 31.3174 2.69247 31.5049 2.60564C31.1924 2.64906 30.8486 2.67077 30.4735 2.67077C30.161 2.62735 29.9422 2.64906 29.8172 2.73589ZM54.8523 0.717077C54.9773 0.890738 54.8836 0.955861 54.571 0.912446C54.321 0.869031 54.1335 0.825615 54.0084 0.7822C54.1335 0.651954 54.2897 0.651954 54.4773 0.7822C54.6648 0.869031 54.7898 0.847323 54.8523 0.717077ZM68.7295 3.0615C68.3544 3.0615 68.1356 3.08321 68.0731 3.12663C68.0731 3.12663 68.1356 3.12663 68.2607 3.12663C68.4482 3.12663 68.6357 3.12663 68.8233 3.12663C69.0733 3.12663 69.2921 3.10492 69.4796 3.0615H68.7295ZM32.6301 2.54052C33.0052 2.54052 33.2552 2.54052 33.3802 2.54052C33.5677 2.54052 33.8178 2.49711 34.1303 2.41028C33.7553 2.45369 33.474 2.4754 33.2865 2.4754C33.0989 2.43198 32.8801 2.45369 32.6301 2.54052ZM97.3277 3.9081C97.5778 3.9081 97.7653 3.84298 97.8903 3.71274C97.4527 3.71274 97.2339 3.71274 97.2339 3.71274C97.359 3.79957 97.3902 3.86469 97.3277 3.9081ZM18.0028 3.77786C18.5029 3.77786 18.8154 3.73444 18.9405 3.64761C18.5654 3.56078 18.2529 3.6042 18.0028 3.77786ZM69.2921 1.88929C69.1045 1.93271 68.8858 1.93271 68.6357 1.88929C68.4482 1.84588 68.2919 1.86758 68.1669 1.95441C68.3544 1.911 68.542 1.911 68.7295 1.95441C68.9795 1.99783 69.1671 1.97612 69.2921 1.88929ZM39.2874 0.651954C39.0999 0.695369 38.8811 0.695369 38.631 0.651954C38.4435 0.608538 38.2872 0.630246 38.1622 0.717077C38.3497 0.673661 38.5373 0.673661 38.7248 0.717077C38.9748 0.760492 39.1624 0.738784 39.2874 0.651954ZM12.752 4.36397C12.0644 4.49421 11.9394 4.53763 12.3769 4.49421C12.8145 4.4508 13.1896 4.38567 13.5021 4.29884C13.3771 4.25543 13.2521 4.27713 13.1271 4.36397C13.0645 4.40738 12.9395 4.40738 12.752 4.36397ZM48.4763 2.54052C48.4763 2.71418 48.3513 2.77931 48.1013 2.73589C47.8512 2.69247 47.695 2.71418 47.6324 2.80101C47.5074 2.71418 47.5699 2.67077 47.82 2.67077C48.1325 2.62735 48.3513 2.58394 48.4763 2.54052ZM53.0708 3.58249C53.3208 3.53907 53.4771 3.53907 53.5396 3.58249C53.6021 3.58249 53.6959 3.53907 53.8209 3.45224C53.6334 3.49566 53.4459 3.51737 53.2583 3.51737C53.0708 3.51737 52.9458 3.53907 52.8833 3.58249C52.9458 3.58249 53.0083 3.6259 53.0708 3.71274C53.1333 3.79957 53.1958 3.77786 53.2583 3.64761C53.1333 3.64761 53.0708 3.6259 53.0708 3.58249ZM79.1374 3.58249C79.2624 3.58249 79.4187 3.6042 79.6062 3.64761C79.7937 3.64761 79.8875 3.6042 79.8875 3.51737C79.7625 3.51737 79.6374 3.51737 79.5124 3.51737C79.3874 3.47395 79.2624 3.49566 79.1374 3.58249ZM9.09517 4.95007C9.22019 4.95007 9.37647 4.95007 9.564 4.95007C9.75152 4.95007 9.84529 4.88495 9.84529 4.7547C9.72027 4.79812 9.53274 4.84153 9.2827 4.88495C9.09517 4.88495 9.03266 4.90666 9.09517 4.95007ZM49.0389 2.14978C49.1639 2.14978 49.3515 2.14978 49.6015 2.14978C49.8515 2.14978 49.8828 2.10637 49.6953 2.01954C49.5702 2.10637 49.4452 2.12808 49.3202 2.08466C49.2577 1.99783 49.1639 2.01954 49.0389 2.14978ZM37.5059 2.34515C37.8184 2.34515 37.9747 2.34515 37.9747 2.34515C38.0372 2.30174 38.0059 2.28003 37.8809 2.28003C37.8184 2.23661 37.6934 2.23661 37.5059 2.28003C37.3808 2.28003 37.2871 2.32344 37.2246 2.41028C37.2871 2.41028 37.3183 2.41028 37.3183 2.41028C37.3808 2.36686 37.4434 2.34515 37.5059 2.34515ZM81.2002 1.23806C81.0752 1.23806 80.8876 1.21635 80.6376 1.17294C80.4501 1.12952 80.3251 1.15123 80.2625 1.23806C80.3876 1.23806 80.5438 1.25977 80.7314 1.30318C80.9814 1.3466 81.1377 1.32489 81.2002 1.23806ZM83.6381 3.9081C83.7006 3.82127 83.6068 3.77786 83.3568 3.77786C83.1067 3.73444 82.9192 3.75615 82.7942 3.84298C82.9817 3.79957 83.1067 3.82127 83.1692 3.9081C83.2943 3.95152 83.4505 3.95152 83.6381 3.9081ZM63.2911 3.12663C63.4787 3.12663 63.6662 3.14834 63.8537 3.19175C64.0413 3.19175 64.1975 3.14834 64.3226 3.0615C64.1975 3.10492 64.01 3.10492 63.76 3.0615C63.5724 3.01809 63.4162 3.0398 63.2911 3.12663ZM71.73 1.17294C71.855 1.12952 72.0113 1.12952 72.1988 1.17294C72.3863 1.21635 72.5113 1.19465 72.5738 1.10781C72.4488 1.15123 72.2926 1.15123 72.105 1.10781C71.9175 1.0644 71.7925 1.08611 71.73 1.17294ZM80.7314 3.71274C80.8564 3.66932 81.0127 3.66932 81.2002 3.71274C81.3877 3.75615 81.5127 3.73444 81.5752 3.64761C81.4502 3.69103 81.294 3.69103 81.1064 3.64761C80.9189 3.6042 80.7939 3.6259 80.7314 3.71274ZM55.79 7.48987C55.6649 7.44645 55.5399 7.38133 55.4149 7.2945C55.3524 7.20767 55.2274 7.14255 55.0399 7.09913C55.1024 7.18596 55.2274 7.2945 55.4149 7.42475C55.6024 7.51158 55.7275 7.53328 55.79 7.48987ZM92.1707 4.81983C92.2957 4.733 92.2332 4.68958 91.9831 4.68958C91.7331 4.64616 91.6393 4.66787 91.7018 4.7547C91.8268 4.7547 91.8894 4.77641 91.8894 4.81983C91.9519 4.86324 92.0456 4.86324 92.1707 4.81983ZM53.6334 0.7822C53.6959 0.869031 53.6021 0.912446 53.3521 0.912446C53.102 0.869031 53.0395 0.803908 53.1646 0.717077C53.2896 0.673661 53.3521 0.673661 53.3521 0.717077C53.4146 0.760492 53.5084 0.7822 53.6334 0.7822ZM32.9114 0.7822C32.7864 0.825615 32.6301 0.825615 32.4426 0.7822C32.255 0.738784 32.13 0.760492 32.0675 0.847323C32.1925 0.803908 32.3488 0.803908 32.5363 0.847323C32.7239 0.890738 32.8489 0.869031 32.9114 0.7822ZM22.0347 3.45224C22.0972 3.36541 22.191 3.322 22.316 3.322C22.5035 3.322 22.6285 3.27858 22.691 3.19175C22.566 3.23517 22.3785 3.27858 22.1285 3.322C21.8784 3.322 21.8472 3.36541 22.0347 3.45224ZM86.9198 4.1686C86.9198 4.25543 87.0449 4.29884 87.2949 4.29884C87.5449 4.29884 87.6074 4.25543 87.4824 4.1686C87.3574 4.21201 87.2011 4.21201 87.0136 4.1686C86.8261 4.08177 86.7948 4.08177 86.9198 4.1686ZM49.9766 2.28003C50.1016 2.1932 49.9453 2.17149 49.5077 2.21491C49.1327 2.25832 48.9451 2.23661 48.9451 2.14978C48.9451 2.06295 48.9139 2.01954 48.8514 2.01954C48.7264 2.23661 48.8201 2.32344 49.1327 2.28003C49.5077 2.23661 49.789 2.23661 49.9766 2.28003ZM23.7225 3.19175C23.8475 3.14834 23.9725 3.14834 24.0975 3.19175C24.285 3.23517 24.3476 3.19175 24.285 3.0615C23.9725 3.0615 23.785 3.10492 23.7225 3.19175ZM45.5696 4.42909C45.5696 4.34226 45.6321 4.32055 45.7572 4.36397C45.8822 4.36397 45.9759 4.38567 46.0384 4.42909C45.9759 4.51592 45.8822 4.53763 45.7572 4.49421C45.6946 4.4508 45.6321 4.42909 45.5696 4.42909ZM54.571 3.45224C54.696 3.49566 54.8523 3.51737 55.0399 3.51737C55.2899 3.47395 55.3524 3.40883 55.2274 3.322C55.1649 3.40883 55.0711 3.43054 54.9461 3.38712C54.8211 3.34371 54.696 3.36541 54.571 3.45224ZM88.8889 4.42909C89.0139 4.42909 89.1702 4.4508 89.3577 4.49421C89.5453 4.53763 89.639 4.51592 89.639 4.42909C89.514 4.42909 89.3577 4.40738 89.1702 4.36397C89.0452 4.32055 88.9514 4.34226 88.8889 4.42909ZM46.8823 4.1686C46.8198 4.21201 46.8198 4.25543 46.8823 4.29884C46.9448 4.34226 47.0073 4.32055 47.0699 4.23372C47.0073 4.23372 46.9761 4.1686 46.9761 4.03835C46.9136 4.08177 46.7886 4.12518 46.601 4.1686C46.4135 4.1686 46.3822 4.1903 46.5073 4.23372C46.6323 4.23372 46.6948 4.23372 46.6948 4.23372C46.7573 4.1903 46.8198 4.1686 46.8823 4.1686ZM48.2888 2.21491C48.4138 2.08466 48.3513 2.01954 48.1013 2.01954C47.9137 1.97612 47.82 1.99783 47.82 2.08466C47.945 2.17149 48.0075 2.1932 48.0075 2.14978C48.07 2.10637 48.1638 2.12807 48.2888 2.21491ZM41.3502 0.651954C41.2252 0.695369 41.0689 0.695369 40.8814 0.651954C40.7564 0.608538 40.6939 0.630246 40.6939 0.717077C40.8189 0.673661 40.9439 0.673661 41.0689 0.717077C41.2564 0.760492 41.3502 0.738784 41.3502 0.651954ZM20.0656 3.58249C20.1907 3.53907 20.3157 3.53907 20.4407 3.58249C20.5657 3.58249 20.6595 3.53907 20.722 3.45224C20.597 3.49566 20.4407 3.49566 20.2532 3.45224C20.0656 3.40883 20.0031 3.45224 20.0656 3.58249ZM36.5682 2.34515C36.6932 2.34515 36.8183 2.36686 36.9433 2.41028C37.1308 2.41028 37.1933 2.34515 37.1308 2.21491C36.7557 2.30174 36.5682 2.34515 36.5682 2.34515ZM67.5106 1.23806C67.6356 1.23806 67.7606 1.25977 67.8856 1.30318C68.0731 1.30318 68.1982 1.25977 68.2607 1.17294C68.1356 1.21635 67.9794 1.21635 67.7918 1.17294C67.6043 1.12952 67.5106 1.15123 67.5106 1.23806ZM49.8828 2.08466C50.2579 2.17149 50.5079 2.14978 50.6329 2.01954C50.4454 2.10637 50.2891 2.12808 50.1641 2.08466C50.1016 1.99783 50.0078 1.99783 49.8828 2.08466ZM37.3183 0.651954C37.1933 0.695369 37.037 0.695369 36.8495 0.651954C36.662 0.608538 36.5682 0.630246 36.5682 0.717077C36.6932 0.717077 36.8183 0.738784 36.9433 0.7822C37.1308 0.7822 37.2558 0.738784 37.3183 0.651954ZM34.3179 0.717077C34.1928 0.760492 34.0366 0.760492 33.849 0.717077C33.6615 0.673661 33.5677 0.695369 33.5677 0.7822C33.6928 0.7822 33.8178 0.803908 33.9428 0.847323C34.1303 0.847323 34.2554 0.803908 34.3179 0.717077ZM51.9456 2.28003C52.0706 2.28003 52.2269 2.30174 52.4144 2.34515C52.602 2.34515 52.6957 2.30174 52.6957 2.21491C52.5707 2.25832 52.4144 2.25832 52.2269 2.21491C52.1019 2.17149 52.0081 2.1932 51.9456 2.28003ZM14.0647 4.29884C14.1897 4.21201 14.3147 4.1903 14.4398 4.23372C14.5648 4.23372 14.6898 4.1903 14.8148 4.10347C14.7523 4.10347 14.6273 4.12518 14.4398 4.1686C14.2522 4.1686 14.096 4.1903 13.9709 4.23372C13.8459 4.23372 13.7522 4.25543 13.6896 4.29884C13.6896 4.29884 13.8147 4.29884 14.0647 4.29884ZM44.4444 3.9081C44.507 3.82127 44.6632 3.77786 44.9133 3.77786C45.1633 3.73444 45.2258 3.66932 45.1008 3.58249C45.0383 3.66932 44.8508 3.73444 44.5382 3.77786C44.2882 3.77786 44.2569 3.82127 44.4444 3.9081ZM42.7567 2.08466C42.6317 2.08466 42.5066 2.08466 42.3816 2.08466C42.2566 2.08466 42.2254 2.12807 42.2879 2.21491C42.5379 2.21491 42.6942 2.17149 42.7567 2.08466ZM43.6943 2.14978C43.8193 2.14978 43.9444 2.17149 44.0694 2.21491C44.1944 2.21491 44.2882 2.17149 44.3507 2.08466C43.9756 2.08466 43.7568 2.10637 43.6943 2.14978ZM47.0699 2.73589C47.2574 2.82272 47.2261 2.86614 46.9761 2.86614C46.7886 2.86614 46.6323 2.88784 46.5073 2.93126C46.5073 2.84443 46.5698 2.82272 46.6948 2.86614C46.8823 2.86614 47.0073 2.82272 47.0699 2.73589ZM17.1589 3.9081C17.2214 3.82127 17.3777 3.79957 17.6278 3.84298C17.8778 3.84298 17.9403 3.82127 17.8153 3.77786C17.6903 3.73444 17.5027 3.73444 17.2527 3.77786C17.0652 3.77786 17.0339 3.82127 17.1589 3.9081ZM73.324 1.82417C73.1989 1.911 73.2302 1.97612 73.4177 2.01954C73.6678 2.01954 73.7615 1.97612 73.699 1.88929C73.574 1.88929 73.4802 1.88929 73.4177 1.88929C73.4177 1.84588 73.3865 1.82417 73.324 1.82417ZM69.2921 1.17294C69.1671 1.17294 69.042 1.17294 68.917 1.17294C68.792 1.12952 68.6982 1.15123 68.6357 1.23806C68.7607 1.19465 68.8858 1.19465 69.0108 1.23806C69.1983 1.28148 69.2921 1.25977 69.2921 1.17294ZM29.2546 0.912446C29.1296 0.912446 29.0045 0.912446 28.8795 0.912446C28.7545 0.869031 28.6607 0.890738 28.5982 0.977568C28.7232 0.934154 28.8483 0.934154 28.9733 0.977568C29.1608 1.02098 29.2546 0.999276 29.2546 0.912446ZM85.8884 4.1686C86.0134 4.12518 86.1385 4.12518 86.2635 4.1686C86.451 4.21201 86.576 4.1903 86.6385 4.10347C86.5135 4.14689 86.3572 4.14689 86.1697 4.10347C85.9822 4.06006 85.8884 4.08177 85.8884 4.1686ZM27.098 2.93126C27.223 2.88784 27.348 2.88784 27.473 2.93126C27.5981 2.97467 27.6606 2.95297 27.6606 2.86614C27.5981 2.86614 27.473 2.86614 27.2855 2.86614C27.1605 2.82272 27.098 2.84443 27.098 2.93126ZM28.1294 0.912446C28.0044 0.955861 27.8794 0.955861 27.7543 0.912446C27.6293 0.869031 27.5668 0.890738 27.5668 0.977568C27.6918 0.977568 27.8168 0.999276 27.9419 1.04269C28.0669 1.04269 28.1294 0.999276 28.1294 0.912446ZM81.8565 1.23806C81.7315 1.23806 81.6065 1.23806 81.4815 1.23806C81.3565 1.19465 81.294 1.21635 81.294 1.30318C81.419 1.25977 81.544 1.25977 81.669 1.30318C81.794 1.3466 81.8565 1.32489 81.8565 1.23806ZM65.0727 1.30318C64.9477 1.3466 64.8226 1.3466 64.6976 1.30318C64.5726 1.25977 64.5101 1.28148 64.5101 1.36831C64.6351 1.36831 64.7601 1.39001 64.8851 1.43343C65.0102 1.43343 65.0727 1.39001 65.0727 1.30318ZM70.7923 3.19175C70.9173 3.19175 71.0424 3.21346 71.1674 3.25687C71.2924 3.25687 71.3549 3.21346 71.3549 3.12663C71.2299 3.17004 71.1049 3.17004 70.9798 3.12663C70.8548 3.08321 70.7923 3.10492 70.7923 3.19175ZM55.4149 3.45224C55.5399 3.40883 55.6649 3.40883 55.79 3.45224C55.915 3.49566 55.9775 3.47395 55.9775 3.38712C55.8525 3.38712 55.7275 3.38712 55.6024 3.38712C55.4774 3.34371 55.4149 3.36541 55.4149 3.45224ZM62.3535 3.19175C62.4785 3.14834 62.6035 3.14834 62.7286 3.19175C62.9161 3.23517 63.0098 3.21346 63.0098 3.12663C62.8848 3.17004 62.7285 3.17004 62.541 3.12663C62.416 3.08321 62.3535 3.10492 62.3535 3.19175ZM15.6587 4.03835C15.9087 4.03835 16.0338 3.99493 16.0338 3.9081H15.7525C15.7525 3.95152 15.7212 3.97323 15.6587 3.97323C15.6587 3.97323 15.6587 3.99493 15.6587 4.03835ZM36.0056 2.41028C36.1932 2.45369 36.3494 2.41027 36.4745 2.28003C36.2869 2.28003 36.1306 2.32344 36.0056 2.41028ZM38.631 2.34515C38.6935 2.25832 38.7561 2.23661 38.8186 2.28003C38.9436 2.32344 39.0061 2.30174 39.0061 2.21491C38.8811 2.17149 38.7561 2.17149 38.631 2.21491C38.506 2.25832 38.506 2.30174 38.631 2.34515ZM91.4205 4.7547C91.5456 4.66787 91.5143 4.62446 91.3268 4.62446C91.2018 4.58104 91.1392 4.60275 91.1392 4.68958C91.2018 4.733 91.2643 4.7547 91.3268 4.7547H91.4205ZM28.5045 2.80101C28.6295 2.7576 28.7545 2.7576 28.8795 2.80101C29.0045 2.84443 29.067 2.82272 29.067 2.73589C28.942 2.77931 28.817 2.77931 28.692 2.73589C28.567 2.69247 28.5045 2.71418 28.5045 2.80101ZM35.3493 2.41028C35.4743 2.36686 35.5993 2.36686 35.7243 2.41028C35.8494 2.45369 35.9119 2.43198 35.9119 2.34515C35.7868 2.38857 35.6618 2.38857 35.5368 2.34515C35.4118 2.30174 35.3493 2.32344 35.3493 2.41028ZM45.007 4.42909C45.1321 4.51592 45.1321 4.58104 45.007 4.62446C44.882 4.62446 44.7882 4.58104 44.7257 4.49421L45.007 4.42909ZM51.383 5.99204C51.258 5.90521 51.258 5.8835 51.383 5.92692C51.5706 5.97033 51.7268 5.99204 51.8519 5.99204C51.7893 6.07887 51.7268 6.10058 51.6643 6.05716C51.6018 5.97033 51.508 5.94862 51.383 5.99204ZM67.4168 2.01954C67.5418 2.01954 67.6668 1.95441 67.7918 1.82417C67.6668 1.86758 67.5731 1.88929 67.5106 1.88929C67.448 1.88929 67.4168 1.93271 67.4168 2.01954ZM31.6925 2.67077C31.755 2.58394 31.8175 2.56223 31.88 2.60564C32.005 2.60564 32.0675 2.58394 32.0675 2.54052C31.9425 2.49711 31.8175 2.49711 31.6925 2.54052C31.5674 2.58394 31.5674 2.62735 31.6925 2.67077ZM57.759 11.1368V11.2019C57.759 11.2887 57.7903 11.3538 57.8528 11.3972C57.7903 11.1802 57.7278 11.0065 57.6653 10.8763C57.6653 10.7026 57.6965 10.7894 57.759 11.1368ZM1.594 6.4479C1.71902 6.49132 1.78153 6.46961 1.78153 6.38278C1.84404 6.25253 1.81278 6.23082 1.68776 6.31766C1.68776 6.40449 1.62525 6.4479 1.50023 6.4479C1.43772 6.40449 1.46898 6.40449 1.594 6.4479ZM34.5054 2.54052C34.6304 2.45369 34.5992 2.41028 34.4116 2.41028C34.2866 2.36686 34.2241 2.38857 34.2241 2.4754C34.2866 2.43198 34.3491 2.43198 34.4116 2.4754C34.5366 2.4754 34.5679 2.49711 34.5054 2.54052ZM32.1613 2.60564C32.2863 2.60564 32.4113 2.56223 32.5363 2.4754C32.4113 2.4754 32.2863 2.51881 32.1613 2.60564ZM21.1908 1.23806C21.0033 1.23806 20.8783 1.25977 20.8158 1.30318C21.0658 1.30318 21.1908 1.28148 21.1908 1.23806ZM42.4754 2.41028C42.7254 2.41028 42.8504 2.38857 42.8504 2.34515C42.6004 2.34515 42.4754 2.36686 42.4754 2.41028ZM84.482 3.97323C84.5445 3.97323 84.5757 3.99493 84.5757 4.03835C84.6382 4.08177 84.6695 4.06006 84.6695 3.97323C84.6695 3.92981 84.6382 3.9081 84.5757 3.9081C84.5132 3.86469 84.482 3.8864 84.482 3.97323ZM89.9203 2.4754C89.6703 2.4754 89.5452 2.49711 89.5452 2.54052C89.7328 2.54052 89.8578 2.51881 89.9203 2.4754ZM84.2007 2.01954C83.9506 2.01954 83.8256 2.04124 83.8256 2.08466C84.0131 2.08466 84.1382 2.06295 84.2007 2.01954ZM19.503 1.36831C19.253 1.36831 19.128 1.39001 19.128 1.43343C19.3155 1.43343 19.4405 1.41172 19.503 1.36831ZM54.1022 2.14978C54.2897 2.14978 54.4148 2.12808 54.4773 2.08466C54.2272 2.08466 54.1022 2.10637 54.1022 2.14978ZM44.0694 3.97323C44.1944 3.8864 44.1631 3.86469 43.9756 3.9081C43.9131 3.82127 43.8819 3.82127 43.8819 3.9081C43.8819 3.99493 43.9444 4.01664 44.0694 3.97323ZM89.7328 4.55933C89.9828 4.55933 90.1078 4.53763 90.1078 4.49421C89.9203 4.49421 89.7953 4.51592 89.7328 4.55933ZM77.5434 1.10781C77.2933 1.10781 77.1683 1.12952 77.1683 1.17294C77.3558 1.17294 77.4809 1.15123 77.5434 1.10781ZM32.4426 2.73589C32.6926 2.73589 32.8176 2.71418 32.8176 2.67077C32.6926 2.71418 32.5988 2.73589 32.5363 2.73589C32.5363 2.69247 32.5051 2.69247 32.4426 2.73589ZM70.3235 3.19175C70.511 3.19175 70.6048 3.17004 70.6048 3.12663C70.4173 3.12663 70.3235 3.14834 70.3235 3.19175ZM39.0999 2.28003C39.2874 2.28003 39.3812 2.25832 39.3812 2.21491C39.1936 2.21491 39.0999 2.23661 39.0999 2.28003ZM19.128 3.64761C19.3155 3.64761 19.4093 3.6259 19.4093 3.58249C19.2218 3.58249 19.128 3.6042 19.128 3.64761ZM55.6024 3.58249C55.79 3.58249 55.8837 3.56078 55.8837 3.51737C55.6962 3.51737 55.6024 3.53907 55.6024 3.58249ZM76.3244 1.04269C76.3244 1.08611 76.2307 1.10781 76.0431 1.10781C76.0431 1.0644 76.0744 1.0644 76.1369 1.10781C76.1994 1.10781 76.2619 1.08611 76.3244 1.04269ZM25.4102 1.04269C25.2852 1.04269 25.2227 1.0644 25.2227 1.10781C25.3477 1.02098 25.4102 0.999276 25.4102 1.04269ZM39.5687 2.4754C39.6312 2.43198 39.6937 2.43198 39.7562 2.4754C39.8187 2.4754 39.85 2.45369 39.85 2.41028C39.6625 2.41028 39.5687 2.43198 39.5687 2.4754ZM48.3826 2.08466C48.3826 2.04124 48.4138 2.04124 48.4763 2.08466C48.5388 2.08466 48.6013 2.06295 48.6639 2.01954C48.6639 2.06295 48.5701 2.08466 48.3826 2.08466ZM57.759 2.41028C57.884 2.32344 57.9466 2.30174 57.9466 2.34515C57.8215 2.34515 57.759 2.36686 57.759 2.41028ZM48.195 6.25253C48.2575 6.20912 48.3513 6.18741 48.4763 6.18741C48.4763 6.23082 48.3826 6.25253 48.195 6.25253ZM43.9756 2.34515C44.1006 2.34515 44.1944 2.32344 44.2569 2.28003C44.0694 2.28003 43.9756 2.30174 43.9756 2.34515ZM51.8519 3.84298C52.0394 3.84298 52.1331 3.82127 52.1331 3.77786C52.0081 3.77786 51.9144 3.79957 51.8519 3.84298ZM52.4144 3.77786C52.5395 3.77786 52.6332 3.75615 52.6957 3.71274C52.5082 3.71274 52.4144 3.73444 52.4144 3.77786ZM30.286 0.847323C30.0985 0.847323 30.0047 0.869031 30.0047 0.912446C30.1297 0.912446 30.2235 0.890738 30.286 0.847323ZM50.2579 0.7822C50.2579 0.825615 50.2891 0.847323 50.3516 0.847323C50.4141 0.847323 50.4454 0.825615 50.4454 0.7822C50.3829 0.825615 50.3204 0.825615 50.2579 0.7822ZM25.0352 1.04269C25.0352 1.08611 24.9414 1.10781 24.7539 1.10781C24.8164 1.0644 24.8476 1.0644 24.8476 1.10781C24.9101 1.10781 24.9727 1.08611 25.0352 1.04269ZM90.2954 2.4754C90.2954 2.51881 90.2329 2.54052 90.1078 2.54052C90.1078 2.58394 90.1704 2.56223 90.2954 2.4754ZM77.8247 1.82417C77.8247 1.86758 77.7309 1.88929 77.5434 1.88929C77.5434 1.84588 77.5746 1.84588 77.6371 1.88929C77.6996 1.88929 77.7622 1.86758 77.8247 1.82417ZM16.8776 3.84298C16.8151 3.84298 16.7526 3.86469 16.6901 3.9081C16.6901 3.9081 16.6589 3.9081 16.5963 3.9081H16.7839L16.8776 3.84298ZM60.1031 1.56368C59.9781 1.56368 59.9156 1.58538 59.9156 1.6288C60.0406 1.6288 60.1031 1.60709 60.1031 1.56368ZM43.6943 2.34515C43.8193 2.34515 43.8819 2.32344 43.8819 2.28003C43.7568 2.28003 43.6943 2.30174 43.6943 2.34515ZM45.8509 2.08466C45.8509 2.12808 45.8822 2.14978 45.9447 2.14978C45.9447 2.10637 45.9134 2.08466 45.8509 2.08466C45.8509 2.04124 45.8509 2.04124 45.8509 2.08466ZM25.879 1.04269C25.754 1.04269 25.6915 1.0644 25.6915 1.10781C25.8165 1.10781 25.879 1.08611 25.879 1.04269ZM87.8575 2.28003C87.7325 2.28003 87.6699 2.30174 87.6699 2.34515C87.795 2.34515 87.8575 2.32344 87.8575 2.28003ZM7.59494 3.38712C7.46992 3.38712 7.40741 3.40883 7.40741 3.45224C7.53243 3.45224 7.59494 3.43054 7.59494 3.38712ZM70.0422 3.19175C70.1672 3.19175 70.2297 3.17004 70.2297 3.12663C70.1047 3.12663 70.0422 3.14834 70.0422 3.19175ZM14.7211 2.34515C14.596 2.34515 14.5335 2.36686 14.5335 2.41028C14.6585 2.41028 14.7211 2.38857 14.7211 2.34515ZM62.0722 3.38712C62.1972 3.38712 62.2597 3.36541 62.2597 3.322C62.1347 3.322 62.0722 3.34371 62.0722 3.38712ZM41.7253 0.651954C41.6003 0.651954 41.5377 0.673661 41.5377 0.717077C41.6628 0.717077 41.7253 0.695369 41.7253 0.651954ZM53.2583 2.14978C53.2583 2.10637 53.2896 2.10637 53.3521 2.14978C53.4146 2.14978 53.4459 2.12808 53.4459 2.08466C53.4459 2.12808 53.3833 2.14978 53.2583 2.14978ZM3.84435 2.73589C3.96937 2.73589 4.03188 2.71418 4.03188 2.67077C3.90686 2.67077 3.84435 2.69247 3.84435 2.73589ZM52.0394 7.03401C52.0394 6.99059 52.1019 6.96889 52.2269 6.96889C52.2269 7.0123 52.1644 7.03401 52.0394 7.03401ZM27.473 0.912446C27.348 0.912446 27.2855 0.934154 27.2855 0.977568C27.4105 0.977568 27.473 0.955861 27.473 0.912446ZM19.7843 3.58249C19.9094 3.58249 19.9719 3.56078 19.9719 3.51737C19.8469 3.51737 19.7843 3.53907 19.7843 3.58249ZM9.564 2.93126C9.43898 2.93126 9.37647 2.95297 9.37647 2.99638C9.50149 2.99638 9.564 2.97467 9.564 2.93126ZM87.6699 4.36397C87.795 4.36397 87.8575 4.34226 87.8575 4.29884C87.7325 4.29884 87.6699 4.32055 87.6699 4.36397ZM43.3193 5.27569C43.3193 5.18886 43.3505 5.14544 43.413 5.14544C43.413 5.23227 43.3818 5.27569 43.3193 5.27569ZM59.0717 3.45224C59.1968 3.45224 59.2593 3.43054 59.2593 3.38712C59.1342 3.38712 59.0717 3.40883 59.0717 3.45224ZM93.3896 5.01519C93.5146 5.01519 93.5771 4.99349 93.5771 4.95007C93.4521 4.95007 93.3896 4.97178 93.3896 5.01519ZM22.8786 1.17294C22.7536 1.17294 22.691 1.19465 22.691 1.23806C22.8161 1.23806 22.8786 1.21635 22.8786 1.17294ZM92.827 4.95007C92.952 4.95007 93.0145 4.92836 93.0145 4.88495C92.8895 4.88495 92.827 4.90666 92.827 4.95007ZM59.6343 2.21491C59.5718 2.21491 59.5406 2.23661 59.5406 2.28003C59.6656 2.28003 59.7281 2.25832 59.7281 2.21491H59.6343ZM3.56306 5.99204C3.56306 5.99204 3.59431 5.97033 3.65682 5.92692C3.5318 5.92692 3.46929 5.94862 3.46929 5.99204H3.56306ZM45.1008 3.19175C45.1008 3.19175 45.1321 3.17004 45.1946 3.12663H45.2883C45.2883 3.17004 45.2258 3.19175 45.1008 3.19175ZM40.6001 0.651954C40.4751 0.651954 40.4126 0.673661 40.4126 0.717077H40.5063C40.5063 0.717077 40.5376 0.695369 40.6001 0.651954ZM23.8162 1.10781C23.7537 1.10781 23.7225 1.12952 23.7225 1.17294C23.8475 1.17294 23.91 1.15123 23.91 1.10781H23.8162ZM46.1322 2.99638C46.1322 2.95297 46.1947 2.93126 46.3197 2.93126C46.3197 2.97467 46.2885 2.99638 46.226 2.99638H46.1322ZM97.9841 2.67077C97.9841 2.71418 97.9528 2.73589 97.8903 2.73589H97.7965C97.7965 2.69247 97.859 2.67077 97.9841 2.67077ZM29.7234 2.67077C29.5984 2.67077 29.5359 2.69247 29.5359 2.73589H29.6296C29.6296 2.73589 29.6609 2.71418 29.7234 2.67077ZM29.1608 2.73589C29.2858 2.73589 29.3483 2.71418 29.3483 2.67077H29.2546C29.1921 2.67077 29.1608 2.69247 29.1608 2.73589ZM58.2278 3.25687C58.2278 3.30029 58.2904 3.27858 58.4154 3.19175C58.4154 3.23517 58.3529 3.25687 58.2278 3.25687ZM45.2883 2.34515C45.4134 2.25832 45.4759 2.23661 45.4759 2.28003C45.3508 2.28003 45.2883 2.30174 45.2883 2.34515ZM22.7848 3.322C22.9098 3.23517 22.9723 3.21346 22.9723 3.25687C22.8473 3.25687 22.7848 3.27858 22.7848 3.322ZM71.4487 3.19175C71.4487 3.23517 71.5112 3.21346 71.6362 3.12663C71.6362 3.17004 71.5737 3.19175 71.4487 3.19175ZM37.5996 0.717077C37.4746 0.717077 37.4121 0.738784 37.4121 0.7822C37.5371 0.695369 37.5996 0.673661 37.5996 0.717077ZM16.1275 3.97323C16.1275 4.01664 16.19 3.99493 16.3151 3.9081C16.3151 3.95152 16.2525 3.97323 16.1275 3.97323ZM98.5466 3.97323C98.5466 4.01664 98.6092 3.99493 98.7342 3.9081C98.7342 3.95152 98.6717 3.97323 98.5466 3.97323ZM31.2236 0.7822C31.1611 0.825615 31.1299 0.847323 31.1299 0.847323H31.0361C31.0361 0.890738 31.0986 0.869031 31.2236 0.7822ZM63.76 3.322C63.6975 3.322 63.6349 3.34371 63.5724 3.38712C63.6975 3.38712 63.76 3.36541 63.76 3.322ZM76.887 1.10781C76.8245 1.10781 76.762 1.12952 76.6995 1.17294C76.8245 1.17294 76.887 1.15123 76.887 1.10781ZM69.9484 3.12663C69.8859 3.12663 69.8234 3.14834 69.7609 3.19175C69.8859 3.19175 69.9484 3.17004 69.9484 3.12663ZM20.3469 1.95441C20.4094 1.95441 20.4407 1.97612 20.4407 2.01954C20.5032 2.01954 20.5657 2.01954 20.6282 2.01954C20.5657 1.97612 20.472 1.95441 20.3469 1.95441ZM48.195 1.17294C48.195 1.17294 48.2263 1.17294 48.2888 1.17294H48.195ZM45.9447 2.14978V2.21491C45.9447 2.21491 45.9759 2.1932 46.0384 2.14978H45.9447Z" fill="#202020"/>
</svg>
