<svg width="28" height="32" viewBox="0 0 28 32" fill="none" xmlns="http://www.w3.org/2000/svg">
<path d="M26.2075 7.39221L15.0476 0.844797C14.3438 0.439755 13.4274 0.439755 12.718 0.844797L1.43882 7.39221C0.712487 7.81438 0.198486 8.60785 0.198486 9.45654V22.534C0.198486 23.3827 0.7259 24.1764 1.45223 24.6009L4.43222 26.311C5.85654 27.0199 6.35992 27.0199 7.00805 27.0199C9.11694 27.0199 10.3216 25.7314 10.3216 23.4839V10.5732C10.3216 10.3909 10.2277 10.1196 10.0505 10.1196H8.62749C8.4473 10.1196 8.04389 10.3909 8.04389 10.573V23.4837C8.04389 24.4799 7.15205 25.4713 5.48528 24.6293L2.40608 22.836C2.29878 22.7772 2.22311 22.6588 2.22311 22.534V9.45654C2.22311 9.33329 2.36357 9.20953 2.47163 9.14637L13.7144 2.61021C13.8194 2.55012 13.9738 2.55012 14.0785 2.61021L25.1841 9.14483C25.2904 9.20953 25.2529 9.32946 25.2529 9.45654V22.534C25.2529 22.6588 25.2992 22.7802 25.1942 22.8403L14.037 29.3803C13.9414 29.4384 13.8227 29.4384 13.7179 29.3803L10.8563 27.6545C10.77 27.6039 10.6675 27.5858 10.5848 27.6325C9.78861 28.0885 9.64183 28.1491 8.89499 28.4107C8.71126 28.4754 8.44021 28.5876 8.99876 28.9039L12.7438 31.1424C13.1013 31.3511 13.507 31.4609 13.9199 31.461C14.3354 31.461 14.7424 31.3521 15.101 31.1424L26.2073 24.6009C26.9336 24.1733 27.2778 23.3827 27.2778 22.534V9.45654C27.2778 8.60785 26.9336 7.81643 26.2075 7.39221ZM17.385 20.4617C14.4174 20.4617 13.7637 19.6345 13.5458 18.1435C13.5205 17.9829 13.3856 17.7908 13.2239 17.7908H11.7735C11.5941 17.7908 11.4498 18.0108 11.4498 18.1913C11.4498 20.1004 12.4771 22.4135 17.3852 22.4135C20.9382 22.4135 22.9752 21.0187 22.9752 18.55C22.9752 16.1024 21.3386 15.4601 17.8929 14.9993C14.4101 14.5341 14.0563 14.2991 14.0563 13.4747C14.0563 12.7951 14.3559 11.8886 16.9348 11.8886C19.239 11.8886 20.0884 12.3882 20.4379 13.9575C20.4677 14.1051 20.6011 14.2109 20.7517 14.2109H22.2079C22.2975 14.2109 22.383 14.1744 22.4458 14.1097C22.5065 14.0401 22.5387 13.9529 22.5306 13.8593C22.3051 11.157 20.5282 9.89764 16.9345 9.89764C13.7379 9.89764 11.8309 11.2616 11.8309 13.5479C11.8309 16.0277 13.7283 16.713 16.7968 17.0196C20.4677 17.3832 20.7532 17.9253 20.7532 18.6549C20.7532 19.9219 19.7465 20.4617 17.385 20.4617Z" fill="#959595"/>
</svg>
