<svg width="129" height="128" viewBox="0 0 129 128" fill="none" xmlns="http://www.w3.org/2000/svg">
<path d="M113.271 30.334L69.174 4.72902C66.393 3.14502 62.772 3.14502 59.969 4.72902L15.401 30.334C12.531 31.985 10.5 35.088 10.5 38.407V89.549C10.5 92.868 12.584 95.972 15.454 97.632L27.229 104.32C32.857 107.092 34.846 107.092 37.407 107.092C45.74 107.092 50.5 102.053 50.5 93.264V42.774C50.5 42.061 50.129 41 49.429 41H43.806C43.094 41 41.5 42.061 41.5 42.773V93.263C41.5 97.159 37.976 101.036 31.39 97.743L19.223 90.73C18.799 90.5 18.5 90.037 18.5 89.549V38.407C18.5 37.925 19.055 37.441 19.482 37.194L63.906 11.633C64.321 11.398 64.931 11.398 65.345 11.633L109.227 37.188C109.647 37.441 109.499 37.91 109.499 38.407V89.549C109.499 90.037 109.682 90.512 109.267 90.747L65.181 116.323C64.803 116.55 64.334 116.55 63.92 116.323L52.613 109.574C52.272 109.376 51.867 109.305 51.54 109.488C48.394 111.271 47.814 111.508 44.863 112.531C44.137 112.784 43.066 113.223 45.273 114.46L60.071 123.214C61.4838 124.03 63.0865 124.46 64.718 124.46C66.36 124.46 67.968 124.034 69.385 123.214L113.27 97.632C116.14 95.96 117.5 92.868 117.5 89.549V38.407C117.5 35.088 116.14 31.993 113.271 30.334ZM78.41 81.445C66.684 81.445 64.101 78.21 63.24 72.379C63.14 71.751 62.607 71 61.968 71H56.237C55.528 71 54.958 71.86 54.958 72.566C54.958 80.032 59.017 89.078 78.411 89.078C92.45 89.078 100.499 83.623 100.499 73.969C100.499 64.397 94.032 61.885 80.417 60.083C66.655 58.264 65.257 57.345 65.257 54.121C65.257 51.463 66.441 47.918 76.631 47.918C85.736 47.918 89.092 49.872 90.473 56.009C90.591 56.586 91.118 57 91.713 57H97.467C97.821 57 98.159 56.857 98.407 56.604C98.647 56.332 98.774 55.991 98.742 55.625C97.851 45.057 90.83 40.132 76.63 40.132C63.999 40.132 56.464 45.466 56.464 54.407C56.464 64.105 63.961 66.785 76.086 67.984C90.591 69.406 91.719 71.526 91.719 74.379C91.719 79.334 87.741 81.445 78.41 81.445Z" fill="white"/>
</svg>
