<svg width="1920" height="138" viewBox="0 0 1920 138" fill="none" xmlns="http://www.w3.org/2000/svg">
<path d="M1915.51 89.0738C1913.52 96.3698 1914.02 102.164 1917.01 106.455C1917.01 115.039 1911.03 121.477 1899.07 125.768C1887.11 130.06 1875.64 132.635 1864.68 133.494C1862.69 134.352 1860.19 135.21 1857.2 136.069C1854.21 137.356 1850.23 138 1845.24 138C1848.23 136.712 1848.73 135.64 1846.74 134.781C1845.74 133.494 1845.74 131.992 1846.74 130.275C1848.73 128.129 1851.22 126.412 1854.21 125.125C1857.2 123.408 1859.7 121.477 1861.69 119.331C1856.71 119.76 1853.72 120.833 1852.72 122.55C1852.72 123.837 1850.73 124.696 1846.74 125.125L1858.7 116.112C1840.76 104.524 1815.34 95.0823 1782.45 87.7863C1750.55 80.4902 1714.67 74.9109 1674.8 71.0483C1635.92 66.7566 1594.06 63.9669 1549.21 62.6794C1505.35 60.9627 1461.99 60.1043 1419.13 60.1043C1389.23 60.1043 1358.83 60.1043 1327.93 60.1043C1298.02 60.1043 1270.12 60.7481 1244.2 62.0356C1158.48 64.1815 1079.24 68.2587 1006.47 74.2672C933.711 80.2757 859.452 86.2841 783.699 92.2926C753.796 95.2969 721.402 98.0865 686.515 100.662C651.629 102.807 621.228 104.524 595.312 105.812C551.455 110.103 503.611 112.893 451.779 114.181C400.945 115.039 350.11 113.537 299.276 109.674H285.82C259.904 107.958 233.988 106.026 208.073 103.88C183.154 101.305 159.232 98.5157 136.306 95.5115C113.381 92.078 91.9507 88.2154 72.0156 83.9237C52.0805 79.6319 34.6373 74.4818 19.6859 68.4733C15.6989 66.3274 11.2135 64.1815 6.22972 62.0356C1.24594 59.4606 -0.747568 56.8855 0.24919 54.3104C1.24595 52.5937 2.2427 52.5937 3.23946 54.3104C5.23297 56.0271 7.22648 56.6709 9.21998 56.2417C9.21998 55.3834 9.21998 54.525 9.21998 53.6667C9.21998 52.3791 7.22648 52.1645 3.23946 53.0229C5.23297 50.0187 5.23297 46.7998 3.23946 43.3664C5.23297 42.5081 6.22972 42.2935 6.22972 42.7226C6.22972 42.7226 7.22648 42.5081 9.21998 42.0789C8.22323 40.3622 6.7281 39.0746 4.73459 38.2163C3.73784 36.9287 3.23946 35.4266 3.23946 33.7099C8.22323 31.9932 13.207 32.2078 18.1908 34.3537C24.1713 36.0704 29.1551 37.3579 33.1421 38.2163C35.1356 38.2163 35.634 37.7871 34.6372 36.9287C34.6372 36.0704 35.634 35.6412 37.6275 35.6412C32.6437 32.2078 25.6665 29.2036 16.6957 26.6285C8.72161 24.0534 4.23621 20.8346 3.23946 16.972C5.23297 16.1137 8.22323 16.1137 12.2103 16.972C16.1973 17.8304 18.6892 18.9033 19.6859 20.1908C21.6794 19.7617 24.6697 20.1908 28.6567 21.4784C32.6437 22.7659 36.1324 24.4826 39.1226 26.6285C42.1129 26.1993 43.608 24.9118 43.608 22.7659C46.5983 23.6243 49.0902 24.6972 51.0837 25.9847C53.0772 26.8431 56.5659 26.8431 61.5496 25.9847C68.5269 28.1306 73.5107 30.4911 76.501 33.0662C80.488 35.6412 86.4685 37.3579 94.4426 38.2163C95.4393 38.2163 95.4393 38.4309 94.4426 38.8601C95.4393 40.5768 99.4264 42.0789 106.404 43.3664C114.378 44.2248 118.863 44.4394 119.86 44.0102C120.857 42.7226 121.853 42.5081 122.85 43.3664C124.844 43.7956 125.342 44.4394 124.345 45.2977C126.339 45.7269 127.336 45.7269 127.336 45.2977C128.332 44.4394 129.827 44.2248 131.821 44.6539C139.795 46.3707 150.261 47.8728 163.219 49.1603C177.173 50.0187 191.626 50.877 206.578 51.7354C221.529 52.5937 235.982 53.4521 249.936 54.3104C264.888 54.7396 277.347 55.3834 287.315 56.2417C298.279 55.3834 309.243 54.9542 320.208 54.9542C331.172 54.9542 342.136 55.1688 353.101 55.598C355.094 55.598 356.091 55.8126 356.091 56.2417C357.088 56.6709 358.084 56.8855 359.081 56.8855C361.075 56.8855 363.567 56.6709 366.557 56.2417C369.547 55.8126 372.537 55.3834 375.528 54.9542C399.45 54.0958 423.87 53.4521 448.789 53.0229C473.708 52.5937 498.128 51.7354 522.051 50.4478C561.921 47.8728 601.293 44.8685 640.166 41.4351C679.04 38.0017 717.913 34.5683 756.786 31.1349L861.446 24.0534C878.391 22.7659 894.339 21.2638 909.29 19.5471C924.241 17.8304 939.691 16.5428 955.639 15.6845C1017.44 11.8219 1083.72 8.17388 1154.49 4.74046C1225.26 0.877862 1295.03 -0.624259 1363.81 0.234097C1375.77 0.663276 1390.22 0.877865 1407.17 0.877865C1425.11 0.448687 1441.06 1.09245 1455.01 2.80916C1454.02 1.95081 1456.51 1.73622 1462.49 2.16539C1469.47 2.16539 1473.45 2.59457 1474.45 3.45292C1489.4 3.45292 1504.85 3.66751 1520.8 4.09669C1536.75 4.52587 1550.2 5.8134 1561.17 7.95928C1593.06 8.81764 1622.97 11.3927 1650.88 15.6845C1678.79 19.5471 1707.19 22.7659 1736.1 25.341C1734.11 26.1993 1734.6 27.0577 1737.59 27.916C1740.58 28.3452 1744.07 28.7744 1748.06 29.2036C1752.05 29.6327 1755.54 30.2765 1758.53 31.1349C1761.52 31.564 1762.51 31.9932 1761.52 32.4224C1766.5 31.564 1769.49 31.564 1770.49 32.4224C1771.48 32.8516 1774.47 34.1391 1779.46 36.285C1781.45 36.285 1782.45 35.8558 1782.45 34.9975C1782.45 34.1391 1783.44 33.9245 1785.44 34.3537C1781.45 35.212 1780.95 35.6412 1783.94 35.6412C1787.93 35.6412 1790.92 36.0704 1792.91 36.9287C1792.91 36.4996 1790.92 36.7142 1786.93 37.5725C1795.9 38.4309 1800.89 38.6455 1801.88 38.2163C1803.88 37.7871 1808.36 38.6455 1815.34 40.7914C1813.35 42.5081 1810.86 42.5081 1807.86 40.7914C1804.87 39.0746 1800.89 38.4309 1795.9 38.8601C1799.89 39.7184 1803.88 40.5768 1807.86 41.4351C1811.85 42.2935 1816.34 43.1518 1821.32 44.0102C1822.32 42.2935 1821.32 41.8643 1818.33 42.7226C1816.34 43.581 1815.84 43.1518 1816.84 41.4351C1818.83 41.4351 1820.32 41.8643 1821.32 42.7226C1822.32 43.1518 1822.82 42.5081 1822.82 40.7914C1824.81 41.6497 1825.31 42.2935 1824.31 42.7226C1824.31 42.7226 1823.81 42.9372 1822.82 43.3664C1826.8 45.5123 1831.79 47.4436 1837.77 49.1603C1844.74 50.877 1851.72 51.95 1858.7 52.3791H1857.2C1871.16 57.1001 1883.12 62.2502 1893.09 67.8295C1904.05 73.4088 1911.53 80.4902 1915.51 89.0738ZM1791.42 51.0916C1798.4 52.3791 1805.87 54.0958 1813.85 56.2417C1821.82 57.9584 1828.8 59.246 1834.78 60.1043C1816.84 53.6667 1796.4 48.5165 1773.48 44.6539C1750.55 40.7913 1726.13 37.7871 1700.22 35.6412C1675.3 33.0662 1649.38 31.1349 1622.47 29.8473C1596.55 28.5598 1571.14 27.2723 1546.22 25.9847C1548.21 26.4139 1547.21 26.8431 1543.23 27.2723C1539.24 27.2723 1537.74 26.8431 1538.74 25.9847C1536.75 26.8431 1535.75 27.0577 1535.75 26.6285C1533.76 26.6285 1532.26 26.4139 1531.27 25.9847C1531.27 25.5556 1530.27 25.7701 1528.28 26.6285C1522.29 25.7701 1516.81 25.5556 1511.83 25.9847C1507.84 26.4139 1510.33 26.6285 1519.3 26.6285C1562.16 27.916 1602.53 30.2765 1640.41 33.7099C1678.29 36.7142 1714.17 39.7184 1748.06 42.7226C1746.07 44.0102 1748.06 44.8685 1754.04 45.2977C1760.02 45.7269 1764.51 46.3707 1767.5 47.229L1791.42 51.0916ZM323.198 77.486C333.165 77.0568 344.13 77.2714 356.091 78.1298C368.052 78.9881 377.521 78.7735 384.498 77.486C355.592 77.0568 330.674 76.1985 309.742 74.9109C288.81 73.6234 262.894 71.6921 231.995 69.117C206.079 66.9712 180.164 63.9669 154.248 60.1043C129.329 55.8126 105.905 51.95 83.9766 48.5165C114.876 58.3876 151.258 65.0399 193.121 68.4733C234.985 71.9067 278.344 74.9109 323.198 77.486ZM1870.66 132.206C1876.64 130.06 1883.12 127.7 1890.1 125.125C1897.07 122.12 1901.06 118.472 1902.06 114.181C1901.06 114.61 1900.06 114.395 1899.07 113.537C1899.07 114.824 1897.57 116.327 1894.58 118.043C1892.59 119.331 1889.6 120.833 1885.61 122.55C1882.62 123.837 1879.63 125.339 1876.64 127.056C1873.65 128.773 1871.66 130.489 1870.66 132.206ZM1857.2 49.8041C1855.21 51.0916 1852.72 51.0916 1849.73 49.8041C1847.74 48.0874 1849.23 47.229 1854.21 47.229C1850.23 48.9457 1851.22 49.8041 1857.2 49.8041ZM345.625 102.593C346.622 103.451 349.114 103.88 353.101 103.88C357.088 103.451 357.586 102.807 354.596 101.949C353.599 102.807 351.605 103.022 348.615 102.593C345.625 101.735 344.628 101.735 345.625 102.593ZM363.567 103.237C363.567 104.095 365.56 104.524 369.547 104.524C374.531 104.095 375.029 103.451 371.042 102.593C371.042 103.88 369.547 104.095 366.557 103.237C364.563 101.949 363.567 101.949 363.567 103.237ZM1890.1 63.3232C1887.11 62.4648 1886.11 61.3919 1887.11 60.1043C1890.1 59.6751 1891.09 59.8897 1890.1 60.7481C1889.1 61.6064 1889.1 62.4648 1890.1 63.3232ZM381.508 104.524C383.502 104.095 385.993 104.095 388.984 104.524C391.974 104.953 393.968 104.739 394.964 103.88C392.971 103.88 390.479 103.88 387.489 103.88C384.498 103.451 382.505 103.666 381.508 104.524ZM1891.59 61.3919C1893.59 61.821 1894.58 63.1086 1894.58 65.2545C1892.59 65.2545 1891.59 63.9669 1891.59 61.3919ZM1365.31 49.1603H1360.82V51.0916H1365.31V49.1603ZM833.038 33.7099C840.016 33.7099 843.504 33.2807 843.504 32.4224C841.511 32.8516 839.517 33.0662 837.524 33.0662C835.53 32.637 834.035 32.8516 833.038 33.7099ZM1831.79 45.2977C1828.8 45.2977 1827.3 45.0831 1827.3 44.6539C1828.3 44.2248 1828.8 43.581 1828.8 42.7226C1829.79 42.7226 1830.29 43.1518 1830.29 44.0102C1831.29 44.0102 1831.79 44.0102 1831.79 44.0102C1832.78 43.581 1834.28 43.3664 1836.27 43.3664C1835.28 43.7956 1834.28 44.0102 1833.28 44.0102C1832.29 44.0102 1831.79 44.4394 1831.79 45.2977ZM1899.07 68.4733C1897.07 67.6149 1896.08 66.542 1896.08 65.2545C1899.07 64.8253 1900.06 65.0399 1899.07 65.8982C1899.07 66.7566 1899.07 67.6149 1899.07 68.4733ZM1879.63 58.173C1878.63 57.7439 1877.14 57.5293 1875.15 57.5293C1874.15 57.5293 1874.15 57.1001 1875.15 56.2417C1879.13 56.2417 1880.63 56.8855 1879.63 58.173ZM257.412 98.0865C259.406 98.9449 261.897 98.7303 264.888 97.4427C263.891 97.4427 262.396 97.4427 260.402 97.4427C258.409 97.0136 257.412 97.2282 257.412 98.0865ZM1458 50.4478C1460 50.4478 1461.99 50.6624 1463.98 51.0916C1465.98 51.0916 1466.97 50.6624 1466.97 49.8041C1464.98 50.2332 1462.99 50.2332 1460.99 49.8041C1459 49.3749 1458 49.5895 1458 50.4478ZM1100.67 15.0407C1102.66 15.0407 1104.16 15.2553 1105.15 15.6845C1107.15 15.6845 1107.64 15.0407 1106.65 13.7532C1104.65 13.7532 1102.66 14.1824 1100.67 15.0407ZM394.964 78.1298C397.955 78.559 400.446 78.1298 402.44 76.8422C399.45 76.8422 396.958 77.2714 394.964 78.1298ZM741.835 42.0789C741.835 41.2205 742.832 41.0059 744.825 41.4351C746.819 41.4351 747.816 41.0059 747.816 40.1476C745.822 39.7184 743.829 39.933 741.835 40.7914C739.842 41.2205 739.842 41.6497 741.835 42.0789ZM1884.12 60.1043C1883.12 59.6751 1882.12 59.246 1881.13 58.8168C1880.13 57.9584 1880.63 57.5293 1882.62 57.5293C1882.62 58.3876 1883.12 59.0314 1884.12 59.4606C1884.12 59.8897 1884.12 60.1043 1884.12 60.1043ZM634.186 51.0916C636.179 50.2332 635.681 49.8041 632.69 49.8041C629.7 49.3749 628.703 49.5895 629.7 50.4478L634.186 51.0916ZM1812.35 36.9287C1810.36 36.0704 1810.36 35.8558 1812.35 36.285C1814.34 36.7142 1816.34 36.9287 1818.33 36.9287C1817.33 37.7871 1815.34 37.7871 1812.35 36.9287ZM92.9474 36.285C91.9507 36.7142 91.4523 36.7142 91.4523 36.285C88.462 34.1391 88.462 33.7099 91.4523 34.9975C94.4426 35.8558 94.941 36.285 92.9474 36.285ZM72.0156 27.916C70.0221 27.916 69.0253 27.7014 69.0253 27.2723C70.0221 26.8431 69.5237 26.6285 67.5302 26.6285C68.5269 26.1993 69.0253 25.9847 69.0253 25.9847C70.0221 25.9847 70.0221 26.1993 69.0253 26.6285C72.0156 25.7701 73.0123 25.5556 72.0156 25.9847C72.0156 26.4139 72.0156 27.0577 72.0156 27.916ZM1912.52 77.486C1913.52 77.486 1913.52 77.7006 1912.52 78.1298C1912.52 78.559 1913.52 78.7735 1915.51 78.7735C1914.52 79.6319 1913.02 79.8465 1911.03 79.4173C1910.03 78.9881 1910.53 78.3444 1912.52 77.486ZM1776.47 33.7099C1773.48 33.2807 1773.48 33.0662 1776.47 33.0662C1779.46 32.637 1780.45 32.8516 1779.46 33.7099C1779.46 34.1391 1779.96 34.3537 1780.95 34.3537C1779.96 34.3537 1778.96 34.3537 1777.96 34.3537C1777.96 33.9245 1777.46 33.7099 1776.47 33.7099ZM1857.2 47.8728C1855.21 47.0144 1855.21 46.7998 1857.2 47.229C1859.2 47.6582 1861.19 47.8728 1863.18 47.8728C1862.19 48.7311 1861.19 48.9457 1860.19 48.5165C1860.19 48.0874 1859.2 47.8728 1857.2 47.8728ZM82.4815 32.4224C80.488 32.4224 79.4912 31.7786 79.4912 30.4911C81.4848 30.4911 82.4815 31.1349 82.4815 32.4224ZM1912.52 74.2672C1914.52 74.2672 1915.02 74.4818 1914.02 74.9109C1914.02 75.3401 1913.52 75.7693 1912.52 76.1985C1911.53 76.1985 1910.53 76.1985 1909.53 76.1985C1909.53 76.1985 1910.53 75.7693 1912.52 74.9109V74.2672ZM1915.51 83.9237C1918.5 83.4945 1920 83.7091 1920 84.5674C1917.01 84.5674 1915.51 84.3528 1915.51 83.9237ZM1354.84 50.4478C1355.84 49.5895 1355.34 49.3749 1353.34 49.8041C1352.35 48.9457 1351.85 48.9457 1351.85 49.8041C1351.85 50.6624 1352.85 50.877 1354.84 50.4478ZM998.998 20.8346C1002.99 20.8346 1004.98 20.62 1004.98 20.1908C1001.99 20.1908 999.995 20.4054 998.998 20.8346ZM1794.41 33.7099C1792.42 32.8516 1792.42 32.637 1794.41 33.0662C1796.4 33.4953 1798.4 33.7099 1800.39 33.7099C1799.39 34.5683 1798.4 34.7829 1797.4 34.3537C1797.4 33.9245 1796.4 33.7099 1794.41 33.7099ZM1447.54 50.4478C1450.53 50.4478 1452.52 50.2332 1453.52 49.8041C1450.53 49.8041 1448.53 50.0187 1447.54 50.4478ZM1158.98 11.8219C1161.97 11.8219 1163.46 11.6073 1163.46 11.1781C1160.47 11.1781 1158.98 11.3927 1158.98 11.8219ZM190.131 92.9364C193.121 92.9364 194.617 92.7218 194.617 92.2926C191.626 92.2926 190.131 92.5072 190.131 92.9364ZM1635.92 58.173C1636.92 58.173 1637.42 58.3876 1637.42 58.8168C1637.42 59.246 1637.92 59.0314 1638.91 58.173C1638.91 57.7439 1638.42 57.5293 1637.42 57.5293C1636.42 57.5293 1635.92 57.7439 1635.92 58.173ZM1906.54 69.7608C1906.54 70.19 1905.05 70.4046 1902.06 70.4046C1902.06 69.9754 1903.55 69.7608 1906.54 69.7608ZM121.355 40.1476C121.355 40.5768 119.86 40.7914 116.87 40.7914C116.87 40.3622 118.365 40.1476 121.355 40.1476ZM76.501 29.2036C75.5042 29.6327 75.0058 29.6327 75.0058 29.2036C75.0058 28.7744 74.5075 28.5598 73.5107 28.5598C73.5107 28.1306 74.0091 27.916 75.0058 27.916C76.0026 27.916 76.501 28.3452 76.501 29.2036ZM1617.98 57.5293C1618.98 57.1001 1619.98 57.1001 1620.97 57.5293C1621.97 57.5293 1622.97 57.3147 1623.96 56.8855C1623.96 57.3147 1621.97 57.5293 1617.98 57.5293ZM1758.53 27.916C1758.53 28.3452 1757.03 28.5598 1754.04 28.5598C1754.04 28.1306 1755.54 27.916 1758.53 27.916ZM427.857 105.168C430.848 105.168 432.343 104.953 432.343 104.524C429.352 104.524 427.857 104.739 427.857 105.168ZM507.099 58.8168C510.09 58.8168 511.585 58.6022 511.585 58.173C508.594 58.173 507.099 58.3876 507.099 58.8168ZM1194.86 10.5344C1197.85 10.5344 1199.35 10.3198 1199.35 9.89059C1196.36 9.89059 1194.86 10.1052 1194.86 10.5344ZM514.575 58.8168C517.565 58.8168 519.06 58.6022 519.06 58.173C516.07 58.173 514.575 58.3876 514.575 58.8168ZM1915.51 83.9237C1914.52 83.9237 1914.02 83.4945 1914.02 82.6361C1915.02 82.6361 1915.51 83.0653 1915.51 83.9237ZM547.468 56.8855C549.461 56.0271 550.458 55.8126 550.458 56.2417C548.465 56.2417 547.468 56.4563 547.468 56.8855ZM601.293 52.3791C601.293 51.95 601.791 51.95 602.788 52.3791C603.785 52.3791 604.781 52.1645 605.778 51.7354C605.778 52.1645 604.283 52.3791 601.293 52.3791ZM166.209 90.3613C168.202 89.503 169.199 89.2884 169.199 89.7176C167.206 89.7176 166.209 89.9321 166.209 90.3613ZM1671.81 62.0356C1674.8 62.0356 1676.29 61.821 1676.29 61.3919C1674.3 61.3919 1672.8 61.6064 1671.81 62.0356ZM1118.61 14.3969C1119.61 13.9678 1120.6 13.9678 1121.6 14.3969C1122.6 14.3969 1123.09 14.1824 1123.09 13.7532C1120.1 13.7532 1118.61 13.9678 1118.61 14.3969ZM505.604 102.593C507.598 102.593 509.093 102.378 510.09 101.949C507.099 101.949 505.604 102.164 505.604 102.593ZM1208.32 9.89059C1208.32 10.3198 1209.31 10.1052 1211.31 9.24682C1211.31 9.676 1210.31 9.89059 1208.32 9.89059ZM442.809 61.3919C442.809 61.821 443.805 61.6064 445.799 60.7481C445.799 61.1773 444.802 61.3919 442.809 61.3919ZM589.332 53.6667C589.332 53.2375 589.83 53.2375 590.827 53.6667C591.823 53.6667 592.82 53.4521 593.817 53.0229C593.817 53.4521 592.322 53.6667 589.332 53.6667ZM1489.4 25.9847C1490.4 25.5556 1491.4 25.5556 1492.39 25.9847C1493.39 25.9847 1493.89 25.7701 1493.89 25.341C1490.9 25.341 1489.4 25.5556 1489.4 25.9847ZM1840.76 44.0102C1838.76 44.8685 1837.77 45.0831 1837.77 44.6539C1839.76 44.6539 1840.76 44.4394 1840.76 44.0102ZM1021.42 19.5471C1022.42 19.1179 1022.92 19.1179 1022.92 19.5471C1023.92 19.5471 1024.91 19.3325 1025.91 18.9033C1022.92 18.9033 1021.42 19.1179 1021.42 19.5471ZM1214.3 10.5344C1215.29 10.1052 1216.29 10.1052 1217.29 10.5344C1218.28 10.5344 1218.78 10.3198 1218.78 9.89059C1215.79 9.89059 1214.3 10.1052 1214.3 10.5344ZM523.546 58.173C525.539 58.173 526.536 57.9584 526.536 57.5293C524.542 57.5293 523.546 57.7439 523.546 58.173ZM982.552 22.1221C984.545 22.1221 985.542 21.9075 985.542 21.4784C983.548 21.4784 982.552 21.693 982.552 22.1221ZM1779.46 30.4911C1779.46 30.9203 1778.46 31.1349 1776.47 31.1349C1776.47 30.7057 1777.46 30.4911 1779.46 30.4911ZM1087.21 59.4606C1089.2 59.4606 1090.2 59.246 1090.2 58.8168C1088.21 58.8168 1087.21 59.0314 1087.21 59.4606ZM1825.81 38.8601C1825.81 39.2892 1824.81 39.5038 1822.82 39.5038C1822.82 39.0746 1823.81 38.8601 1825.81 38.8601ZM1271.11 51.7354C1273.11 51.7354 1274.1 51.5208 1274.1 51.0916C1272.11 51.0916 1271.11 51.3062 1271.11 51.7354ZM949.659 24.0534C949.659 23.6243 950.157 23.6243 951.154 24.0534C952.151 24.0534 952.649 23.8388 952.649 23.4097C952.649 23.8388 951.652 24.0534 949.659 24.0534ZM864.436 31.1349C866.43 31.1349 867.426 30.9203 867.426 30.4911C865.433 30.4911 864.436 30.7057 864.436 31.1349ZM934.707 25.341C936.701 25.341 937.698 25.1264 937.698 24.6972C935.704 24.6972 934.707 24.9118 934.707 25.341ZM1232.24 52.3791C1234.23 52.3791 1235.23 52.1645 1235.23 51.7354C1233.24 51.7354 1232.24 51.95 1232.24 52.3791ZM417.391 105.168C419.385 105.168 420.382 104.953 420.382 104.524C418.388 104.524 417.391 104.739 417.391 105.168ZM502.614 59.4606C504.607 59.4606 505.604 59.246 505.604 58.8168C503.611 58.8168 502.614 59.0314 502.614 59.4606ZM794.165 36.9287C796.158 36.9287 797.155 36.7142 797.155 36.285C795.162 36.285 794.165 36.4996 794.165 36.9287ZM1498.37 25.9847C1500.37 25.9847 1501.36 25.7701 1501.36 25.341C1499.37 25.341 1498.37 25.5556 1498.37 25.9847ZM979.561 22.1221C979.561 22.1221 980.06 21.9075 981.056 21.4784C979.063 21.4784 978.066 21.693 978.066 22.1221H979.561ZM855.465 31.7786C857.459 31.7786 858.456 31.564 858.456 31.1349H856.96C855.964 31.1349 855.465 31.3494 855.465 31.7786ZM139.297 44.0102C139.297 44.4394 138.798 44.6539 137.801 44.6539H136.306C136.306 44.2248 137.303 44.0102 139.297 44.0102ZM806.126 81.3486C806.126 81.3486 806.624 81.134 807.621 80.7048C805.628 80.7048 804.631 80.9194 804.631 81.3486H806.126ZM1789.92 32.4224C1789.92 32.8516 1789.43 33.0662 1788.43 33.0662H1786.93C1786.93 32.637 1787.93 32.4224 1789.92 32.4224ZM1244.2 9.24682C1244.2 9.24682 1244.7 9.03223 1245.7 8.60305C1243.7 8.60305 1242.7 8.81764 1242.7 9.24682H1244.2ZM563.914 55.598C565.908 55.598 566.905 55.3834 566.905 54.9542H565.409C564.413 54.9542 563.914 55.1688 563.914 55.598ZM1538.74 25.9847C1539.74 25.9847 1540.24 25.9847 1540.24 25.9847C1541.23 25.5556 1540.73 25.341 1538.74 25.341V25.9847ZM1182.9 11.1781C1182.9 11.1781 1183.4 10.9635 1184.39 10.5344C1182.4 10.5344 1181.4 10.7489 1181.4 11.1781H1182.9ZM1187.38 54.3104C1189.38 54.3104 1190.38 54.0958 1190.38 53.6667H1188.88C1187.88 53.6667 1187.38 53.8813 1187.38 54.3104ZM375.528 103.88C375.528 104.31 376.524 104.095 378.518 103.237C378.518 103.666 377.521 103.88 375.528 103.88ZM1126.08 13.7532C1128.08 12.8948 1129.07 12.6802 1129.07 13.1094C1127.08 13.1094 1126.08 13.324 1126.08 13.7532ZM535.507 56.8855C535.507 57.3147 536.504 57.1001 538.497 56.2417C538.497 56.6709 537.5 56.8855 535.507 56.8855ZM1570.14 54.3104C1570.14 54.7396 1571.14 54.525 1573.13 53.6667C1573.13 54.0958 1572.13 54.3104 1570.14 54.3104ZM1468.47 51.0916C1470.46 50.2332 1471.46 50.0187 1471.46 50.4478C1469.47 50.4478 1468.47 50.6624 1468.47 51.0916ZM1861.69 52.3791C1861.69 52.3791 1860.69 52.3791 1858.7 52.3791H1861.69ZM1583.6 54.3104C1582.6 54.3104 1581.6 54.525 1580.6 54.9542C1582.6 54.9542 1583.6 54.7396 1583.6 54.3104Z" fill="#C1C1C1"/>
</svg>
