<svg width="129" height="128" viewBox="0 0 129 128" fill="none" xmlns="http://www.w3.org/2000/svg">
<path fill-rule="evenodd" clip-rule="evenodd" d="M1.71899 56.156C1.71899 56.859 1.92599 57.323 2.04199 57.774C2.79799 60.707 4.42299 63.224 6.35099 65.52C9.09699 68.792 12.46 71.426 15.905 73.903C18.893 76.051 21.942 78.151 24.942 80.283C25.457 80.649 25.944 81.07 26.503 81.519C26.022 81.779 25.622 82.008 25.206 82.219C21.247 84.227 17.438 86.478 13.927 89.205C11.811 90.849 9.76499 92.596 8.31999 94.879C5.99499 98.551 5.17199 102.463 6.90499 106.64C7.41099 107.86 8.18299 108.914 9.27199 109.693C9.62499 109.945 10.021 110.195 10.434 110.293C11.492 110.542 12.57 110.705 13.641 110.902L16.674 110.9C20.028 110.601 23.081 109.452 25.84 107.548C30.152 104.572 33.057 100.582 34.306 95.461C35.214 91.739 35.251 88.013 34.181 84.308C34.0786 83.9648 33.9605 83.6264 33.827 83.294C33.697 82.961 33.544 82.637 33.364 82.222L40.24 78.268L40.343 78.356C40.218 78.765 40.085 79.173 39.972 79.586C39.155 82.57 38.612 85.606 38.807 88.703C39.015 92.003 39.936 95.092 41.868 97.849C43.43 100.079 47.152 100.162 48.812 97.924C49.401 97.129 49.972 96.298 50.401 95.411C51.522 93.096 52.56 90.74 53.631 88.4L53.818 87.972C53.741 89.08 53.651 90.053 53.61 91.027C53.546 92.548 53.635 94.06 54.155 95.507C54.6 96.745 55.357 97.67 56.775 97.833C57.745 97.944 58.518 97.5 59.231 96.937C60.3356 96.0641 61.2511 94.9757 61.922 93.738C63.823 90.247 65.775 86.777 67.498 83.198C69.362 79.327 70.992 75.343 72.723 71.406L73.009 70.708C73.418 72.315 73.703 73.889 74.228 75.379C74.838 77.108 75.593 78.796 76.415 80.437C76.804 81.212 76.759 81.715 76.22 82.365C73.964 85.085 71.747 87.838 69.528 90.588C69.037 91.195 68.548 91.813 68.139 92.476C67.8909 92.8947 67.7277 93.3582 67.659 93.84C67.5902 94.2836 67.6957 94.7366 67.9536 95.104C68.2114 95.4715 68.6015 95.7248 69.042 95.811C69.9311 96.0025 70.8427 96.0675 71.75 96.004C74.847 95.776 77.659 94.689 80.145 92.847C83.366 90.461 84.4 87.205 83.62 83.346C83.409 82.299 83.036 81.281 82.673 80.272C82.51 79.817 82.499 79.498 82.796 79.074C85.371 75.397 87.571 71.496 89.617 67.505C89.698 67.348 89.781 67.191 89.923 67.023C90.586 70.473 91.584 73.798 93.372 76.815C92.46 77.694 91.557 78.491 90.74 79.369C88.941 81.303 87.381 83.403 86.567 85.964C86.217 87.068 85.948 88.19 86.104 89.369C86.346 91.2 87.846 92.39 89.647 91.973C93.501 91.081 96.828 89.265 99.259 86.048C100.895 83.882 101.044 81.466 100.359 78.935C100.171 78.247 99.948 77.57 99.708 76.781C100.659 76.486 101.586 76.132 102.545 75.913C107.524 74.777 112.449 74.975 117.247 76.773C120.048 77.823 122.311 79.58 123.653 82.344C125.292 85.723 124.386 88.929 121.201 91.065C120.904 91.264 120.564 91.421 120.318 91.67C120.239 91.7613 120.18 91.8681 120.145 91.9834C120.11 92.0988 120.099 92.2202 120.113 92.34C120.134 92.463 120.459 92.617 120.646 92.615C121.693 92.607 122.542 92.058 123.357 91.494C125.399 90.081 126.889 88.18 127.21 85.677L127.273 85.489L127.196 83.859C127.165 83.765 127.219 83.672 127.212 83.601C126.778 79.956 124.831 77.129 121.999 74.913C118.719 72.348 114.846 71.292 110.75 71.125C107.428 70.982 104.11 71.4927 100.985 72.628C100.088 72.953 99.199 73.338 98.297 73.701C98.176 73.482 98.046 73.272 97.939 73.055C97.013 71.159 95.891 69.347 95.643 67.173C95.467 65.629 95.251 64.087 95.618 62.56C95.971 61.091 96.431 59.647 96.864 58.198C97.087 57.452 96.93 57.034 96.218 56.698C95.9699 56.5743 95.7051 56.4874 95.432 56.44C93.682 56.186 91.956 56.331 90.261 56.824C89.661 56.999 89.225 57.335 89.092 57.999C89.016 58.38 88.861 58.745 88.753 59.121C88.31 60.684 87.996 62.277 87.28 63.766C85.486 67.501 83.438 71.095 81.342 74.663C81.115 75.048 80.876 75.426 80.59 75.893C79.854 74.353 79.069 72.971 78.831 71.351C78.562 69.519 78.35 67.69 78.806 65.872C79.145 64.516 79.588 63.185 79.996 61.847C80.189 61.211 80.1 60.877 79.524 60.542C79.233 60.373 78.904 60.223 78.576 60.174C76.7816 59.9007 74.9481 60.0507 73.222 60.612C72.679 60.788 72.394 61.139 72.228 61.699C71.74 63.351 71.324 65.043 70.639 66.614C67.865 72.974 65.011 79.301 62.16 85.627C61.565 86.948 60.868 88.223 60.197 89.509C60.027 89.835 59.779 90.122 59.567 90.428C59.397 90.227 59.331 90.089 59.332 89.951C59.337 89.138 59.24 88.301 59.395 87.515C59.871 85.1378 60.3971 82.771 60.973 80.416C61.443 78.47 61.99 76.542 62.511 74.609C62.686 73.962 62.689 73.357 62.224 72.813C61.443 71.902 59.811 71.702 58.843 72.404L58.415 72.646L58.498 71.956C58.702 70.477 58.743 69.003 58.337 67.546C57.831 65.73 56.535 64.685 54.651 64.743C53.773 64.77 52.851 64.92 52.038 65.24C48.619 66.58 45.99 68.953 43.752 71.808C43.5445 72.0731 43.2874 72.2952 42.995 72.462C40.102 74.066 37.2 75.65 34.299 77.24L31.07 79.009C30.204 78.183 29.417 77.326 28.524 76.599C25.797 74.375 23.026 72.206 20.28 70.007C17.846 68.058 15.488 66.028 13.684 63.447C12.342 61.527 11.477 59.426 11.394 57.052C11.289 54.027 12.147 51.263 13.687 48.69C15.657 45.398 18.344 42.756 21.298 40.363C24.423 37.833 27.803 35.685 31.306 33.724C36.207 30.981 41.248 28.553 46.653 26.95C52.195 25.306 57.818 24.365 63.618 25.021C65.898 25.279 68.112 25.801 70.145 26.916C71.702 27.769 72.979 28.886 73.573 30.632C74.159 32.35 74.141 34.091 73.735 35.836C72.91 39.37 70.975 42.283 68.54 44.886C64.546 49.153 59.674 52.058 54.189 53.977C51.0353 55.0818 47.754 55.7817 44.424 56.06C41.695 56.289 39.023 56.047 36.439 55.098C34.728 54.469 33.238 53.507 32.04 52.111C31.826 51.861 31.552 51.59 31.153 51.824C30.762 52.054 30.693 52.426 30.824 52.803C31.043 53.429 31.245 54.081 31.586 54.641C32.443 56.046 33.693 57.065 35.069 57.939C37.712 59.62 40.666 60.185 43.729 60.316C48.377 60.517 52.912 59.823 57.383 58.576C63.766 56.796 69.316 53.652 73.767 48.692C77.473 44.562 80.12 39.901 80.687 34.273C80.964 31.526 80.669 28.835 79.383 26.329C77.988 23.614 75.77 21.595 73.118 20.204C69.256 18.179 65.088 17 60.786 17H56.476C51.266 17 46.229 18.493 41.333 20.274C37.627 21.623 33.993 23.215 30.465 24.977C22.782 28.816 15.627 33.445 9.74999 39.81C6.82199 42.981 4.34299 46.48 2.91699 50.6C2.4866 51.8301 2.11583 53.0802 1.80599 54.346M29.645 90.359C29.312 94.818 27.291 98.433 23.988 101.361C22.13 103.007 19.999 104.179 17.517 104.591C16.617 104.74 15.696 104.776 14.823 104.403C13.578 103.871 13.299 102.766 13.275 101.589C13.238 99.713 13.895 98.017 14.796 96.403C15.972 94.299 17.696 92.695 19.537 91.197C22.437 88.836 25.583 86.838 28.805 84.952L29.048 84.852C29.546 86.692 29.783 88.509 29.645 90.359ZM54.803 70.98C54.568 72.404 54.274 73.829 53.858 75.209C52.42 79.986 50.573 84.615 48.576 89.182C48.207 90.027 47.67 90.798 47.203 91.599C47.1235 91.7221 47.0284 91.8344 46.92 91.933C46.342 92.504 45.794 92.474 45.502 91.727C45.162 90.859 44.953 89.93 44.773 89.011C44.652 88.394 44.681 87.746 44.643 87.114C44.682 82.62 46.053 78.536 48.379 74.734C49.338 73.166 50.382 71.672 51.977 70.68C52.4732 70.3715 53.01 70.1339 53.572 69.974C54.422 69.735 54.944 70.128 54.803 70.98ZM71.967 92.848L78.136 85.645C78.393 88.32 73.846 93.66 71.967 92.848ZM91.67 88.001C91.234 88.251 90.759 88.431 90.312 88.662C89.903 88.874 89.768 88.66 89.756 88.308C89.75 88.0643 89.7813 87.8212 89.849 87.587C90.682 84.649 92.215 82.141 94.496 80.101L94.656 80.019C95.741 83.054 94.487 86.387 91.67 88.001Z" fill="white"/>
</svg>
