<svg width="202" height="185" viewBox="0 0 202 185" fill="none" xmlns="http://www.w3.org/2000/svg">
<path d="M4.89419 22.6055C37.4009 24.4276 69.9157 26.6842 102.457 27.8165C130.935 28.8075 159.561 27.8901 188.006 29.3364C234.531 31.7022 95.9445 43.9904 50.4188 53.872C49.6525 54.0383 31.5911 56.9514 31.0943 58.9383C30.8125 60.0656 33.4098 59.1387 34.5684 59.2278C42.4017 59.8303 50.205 60.8872 58.0183 61.6886C99.1865 65.911 140.475 69.3124 181.781 71.8212C217.085 73.9655 252.448 73.9951 287.74 76.019C292.216 76.2757 305.494 77.2582 301.057 77.9008C293.572 78.9848 276.918 80.1276 271.962 80.5064C223.865 84.1826 175.817 87.8582 127.861 93.1722C99.0063 96.3696 70.9608 99.7427 42.4574 104.825C30.2601 106.999 16.4965 109.435 5.18369 115.247C-0.0841408 117.953 5.47379 118.721 8.00636 119.083C53.0083 125.512 98.2465 128.387 143.567 132.038C190.801 135.843 237.877 138.475 283.977 150.132C299.141 153.967 314.04 158.537 329.284 162.002" stroke="#D1D1D1" stroke-width="5" stroke-linecap="round"/>
<path d="M4.89419 2.60547C37.4009 4.42759 69.9157 6.68415 102.457 7.81655C130.935 8.80755 159.561 7.89009 188.006 9.33645C234.531 11.7022 95.9445 23.9904 50.4188 33.872C49.6525 34.0383 31.5911 36.9514 31.0943 38.9383C30.8125 40.0656 33.4098 39.1387 34.5684 39.2278C42.4017 39.8303 50.205 40.8872 58.0183 41.6886C99.1865 45.911 140.475 49.3124 181.781 51.8212C217.085 53.9655 252.448 53.9951 287.74 56.019C292.216 56.2757 305.494 57.2582 301.057 57.9008C293.572 58.9848 276.918 60.1276 271.962 60.5064C223.865 64.1826 175.817 67.8582 127.861 73.1722C99.0063 76.3696 70.9608 79.7427 42.4574 84.8247C30.2601 86.9995 16.4965 89.4348 5.18369 95.2469C-0.0841408 97.9533 5.47379 98.721 8.00636 99.0828C53.0083 105.512 98.2465 108.387 143.567 112.038C190.801 115.843 237.877 118.475 283.977 130.132C299.141 133.967 314.04 138.537 329.284 142.002" stroke="#D1D1D1" stroke-width="5" stroke-linecap="round"/>
<path d="M4.89419 42.6055C37.4009 44.4276 69.9157 46.6842 102.457 47.8165C130.935 48.8075 159.561 47.8901 188.006 49.3364C234.531 51.7022 95.9445 63.9904 50.4188 73.872C49.6525 74.0383 31.5911 76.9514 31.0943 78.9383C30.8125 80.0656 33.4098 79.1387 34.5684 79.2278C42.4017 79.8303 50.205 80.8872 58.0183 81.6886C99.1865 85.911 140.475 89.3124 181.781 91.8212C217.085 93.9655 252.448 93.9951 287.74 96.019C292.216 96.2757 305.494 97.2582 301.057 97.9008C293.572 98.9848 276.918 100.128 271.962 100.506C223.865 104.183 175.817 107.858 127.861 113.172C99.0063 116.37 70.9608 119.743 42.4574 124.825C30.2601 126.999 16.4965 129.435 5.18369 135.247C-0.0841408 137.953 5.47379 138.721 8.00636 139.083C53.0083 145.512 98.2465 148.387 143.567 152.038C190.801 155.843 237.877 158.475 283.977 170.132C299.141 173.967 314.04 178.537 329.284 182.002" stroke="#D1D1D1" stroke-width="5" stroke-linecap="round"/>
</svg>
