<svg width="201" height="12" viewBox="0 0 201 12" fill="none" xmlns="http://www.w3.org/2000/svg">
<path d="M200.009 7.42411C200.082 7.42411 200.119 7.43696 200.119 7.46267C200.119 7.46267 200.082 7.46267 200.009 7.46267C200.009 7.48837 200.009 7.50123 200.009 7.50123C200.082 7.50123 200.119 7.48837 200.119 7.46267C200.192 7.46267 200.229 7.47552 200.229 7.50123V7.61691C200.302 7.61691 200.376 7.60406 200.449 7.57835C200.156 7.32128 199.825 7.16703 199.458 7.11562C199.825 7.08991 200.119 7.15418 200.339 7.30842C200.559 7.46267 200.78 7.5912 201 7.69403C201 7.79686 200.963 7.87398 200.89 7.9254C200.89 7.97681 200.89 8.02823 200.89 8.07964C200.89 8.15676 200.89 8.24674 200.89 8.34957C200.89 8.42669 200.853 8.58093 200.78 8.8123C200.706 8.76088 200.633 8.73518 200.559 8.73518C200.559 8.76088 200.523 8.74803 200.449 8.69662C200.302 8.72232 200.229 8.79945 200.229 8.92798C200.229 9.08222 200.119 9.18505 199.899 9.23647C200.045 9.28788 200.119 9.26218 200.119 9.15935C200.192 9.05652 200.302 8.99225 200.449 8.96654C200.596 9.04366 200.559 9.10793 200.339 9.15935C200.192 9.23647 200.082 9.31359 200.009 9.39071C200.229 9.72491 200.229 9.99483 200.009 10.2005C199.862 10.4061 199.568 10.5861 199.128 10.7403C198.32 10.8689 197.402 10.9846 196.374 11.0874C195.346 11.1902 194.392 11.2673 193.511 11.3188C192.116 11.6272 190.207 11.82 187.784 11.8972C185.361 12 182.864 12.0257 180.294 11.9743C179.119 11.9229 177.945 11.8458 176.77 11.7429C175.595 11.6658 174.604 11.5116 173.796 11.2802C173.796 11.2031 173.906 11.1645 174.127 11.1645C173.98 11.1131 173.833 11.0488 173.686 10.9717C173.613 10.8946 173.649 10.7918 173.796 10.6632C174.163 10.7146 174.604 10.7661 175.118 10.8175C175.632 10.8689 176.182 10.8689 176.77 10.8175C176.55 10.7661 176.109 10.7275 175.448 10.7018C174.787 10.6761 174.384 10.599 174.237 10.4704C177.247 10.5218 179.89 10.4447 182.167 10.2391C184.516 10.0591 186.866 9.8663 189.215 9.66064C188.408 9.60922 187.6 9.64778 186.792 9.77632C185.985 9.93056 185.14 10.0077 184.259 10.0077C182.424 10.1362 180.808 10.2519 179.413 10.3547C178.018 10.4576 176.256 10.4704 174.127 10.3933C176.77 10.3162 179.193 10.1748 181.396 9.96913C183.598 9.78917 185.691 9.59637 187.673 9.39071C186.572 9.10793 185.397 8.88942 184.149 8.73518C182.901 8.60664 181.616 8.43954 180.294 8.23388C174.567 7.66833 168.95 7.19274 163.443 6.80713C157.936 6.42152 152.246 6.08733 146.372 5.80455C142.995 5.59889 139.764 5.44465 136.68 5.34182C133.67 5.21328 130.255 5.08475 126.437 4.95621C122.252 4.80197 117.993 4.68628 113.661 4.60916C109.403 4.53204 105.548 4.48062 102.097 4.45492C91.0099 4.42921 80.2899 4.55775 69.937 4.84053C59.5841 5.0976 49.3414 5.58604 39.2088 6.30584C36.1984 6.5115 33.1512 6.74286 30.0674 6.99994C27.057 7.25701 24.12 7.52694 21.2564 7.80972C20.0082 7.98967 18.6866 8.15676 17.2915 8.31101C15.9699 8.43954 14.6482 8.58093 13.3266 8.73518C11.9315 8.94083 10.5732 9.14649 9.25151 9.35215C8.00329 9.58352 7.08548 9.95627 6.49808 10.4704C6.13096 10.3676 5.72712 10.3162 5.28658 10.3162C5.13973 10.2648 5.0663 10.2133 5.0663 10.1619C5.0663 10.1105 5.13973 10.072 5.28658 10.0462C4.47891 10.1748 3.70795 10.3419 2.9737 10.5475C2.23945 10.7789 1.68877 11.0617 1.32164 11.3959C0.734247 11.3959 0.293699 11.383 0 11.3573C0 11.1002 0.0367124 10.856 0.110137 10.6247C0.183562 10.419 0.367124 10.2005 0.660822 9.96913C0.293699 9.76347 0.183562 9.58352 0.330412 9.42927C0.550686 9.27503 0.807672 9.12079 1.10137 8.96654C1.39507 8.8123 1.68877 8.67091 1.98247 8.54237C2.27617 8.38813 2.34959 8.23389 2.20274 8.07964C2.49644 8.13106 2.71671 8.10535 2.86356 8.00252C3.01041 7.87398 3.15726 7.78401 3.30411 7.73259C3.23069 7.73259 3.15726 7.74545 3.08384 7.77115C3.08384 7.77115 3.04712 7.77115 2.9737 7.77115C3.04712 7.71974 3.23069 7.66833 3.52438 7.61691H3.19397C3.34082 7.5655 3.41425 7.53979 3.41425 7.53979L2.42301 7.84828C2.42301 7.87398 2.45973 7.88684 2.53315 7.88684H2.64329C2.64329 7.91254 2.49644 7.9254 2.20274 7.9254C2.12932 7.97681 2.20274 8.00252 2.42301 8.00252C2.34959 8.05394 2.23945 8.07964 2.0926 8.07964C2.01918 8.05394 1.90904 8.05394 1.76219 8.07964C1.90904 8.13106 1.94575 8.16962 1.87233 8.19532C1.7989 8.22103 1.83562 8.29815 1.98247 8.42669C1.83562 8.29815 1.68877 8.2853 1.54192 8.38813C1.46849 8.46525 1.32164 8.52952 1.10137 8.58093C0.807672 8.40098 0.477261 8.33671 0.110137 8.38813C0.0367124 8.33671 0.0367124 8.29815 0.110137 8.27245C0.183562 8.22103 0.14685 8.22103 0 8.27245C0 8.22103 0 8.13106 0 8.00252C0.0734248 7.84828 0.293699 7.79686 0.660822 7.84828C0.513973 7.77115 0.513973 7.71974 0.660822 7.69403C0.881096 7.66833 0.954521 7.61691 0.881096 7.53979C1.02795 7.53979 1.21151 7.50123 1.43178 7.42411C1.65206 7.32128 1.83562 7.2313 1.98247 7.15418C3.01041 6.89711 4.03836 6.66574 5.0663 6.46008C6.09425 6.25443 7.01206 6.04877 7.81973 5.84311C9.87562 5.56033 12.0049 5.2647 14.2077 4.95621C16.4104 4.64772 18.5397 4.35209 20.5956 4.06931C20.669 4.06931 20.669 4.08216 20.5956 4.10787C20.5956 4.13358 20.6323 4.15928 20.7058 4.18499C21.3666 4.05646 22.1742 3.94077 23.1288 3.83794C24.1567 3.73511 25.0745 3.65799 25.8822 3.60658C28.3052 3.24668 31.0586 2.95104 34.1425 2.71968C37.2263 2.4626 40.1266 2.17983 42.8433 1.87134C43.0636 1.94846 43.2471 1.96131 43.394 1.9099C43.5408 1.83278 43.6877 1.84563 43.8345 1.94846C43.9814 1.94846 44.0548 1.9099 44.0548 1.83278C52.8658 1.24151 61.9704 0.778779 71.3688 0.444585C80.7671 0.084683 90.5693 -0.0567071 100.775 0.0204145C103.933 0.0461218 106.98 0.0846828 109.917 0.136097C112.854 0.161805 116.084 0.213219 119.609 0.290341C121.151 0.341756 122.693 0.39317 124.235 0.444585C125.85 0.495999 127.208 0.547414 128.31 0.598828C128.163 0.598828 128.493 0.598828 129.301 0.598828C130.109 0.573121 130.733 0.585975 131.173 0.637389C131.32 0.637389 131.357 0.637389 131.283 0.637389C131.283 0.637389 131.283 0.663096 131.283 0.714511H131.614C138.736 0.868754 145.564 1.13868 152.099 1.52429C158.634 1.9099 164.875 2.33407 170.822 2.7968L171.593 2.91248C172.842 2.9639 174.053 3.06673 175.228 3.22097C176.403 3.37521 177.578 3.4909 178.752 3.56802C178.899 3.56802 178.973 3.60658 178.973 3.6837C181.322 3.86365 183.341 4.10787 185.03 4.41636C186.719 4.69914 188.444 4.94336 190.207 5.14901C190.06 5.17472 189.839 5.16187 189.546 5.11045C189.252 5.05904 188.958 5.02048 188.665 4.99477C189.399 5.22614 190.39 5.38038 191.638 5.4575C191.565 5.53462 191.492 5.56033 191.418 5.53462C191.345 5.48321 191.271 5.48321 191.198 5.53462C191.492 5.56033 191.712 5.57318 191.859 5.57318C192.005 5.54748 192.262 5.56033 192.63 5.61174C192.556 5.71457 192.409 5.74028 192.189 5.68887C192.483 5.76599 192.703 5.84311 192.85 5.92023C193.07 5.97165 193.29 5.95879 193.511 5.88167L192.63 5.76599C193.144 5.66316 193.437 5.68887 193.511 5.84311C193.658 5.97165 193.878 6.06162 194.172 6.11304C194.318 6.06162 194.318 6.03591 194.172 6.03591C194.025 6.01021 193.915 5.97165 193.841 5.92023C193.988 5.84311 194.135 5.85596 194.282 5.95879C194.429 6.03591 194.539 6.04877 194.612 5.99735C194.759 6.04877 194.759 6.06162 194.612 6.03591C194.465 6.01021 194.392 6.02306 194.392 6.07447C194.539 6.12589 194.685 6.12589 194.832 6.07447C195.053 5.99735 195.199 6.01021 195.273 6.11304C195.199 6.16445 195.126 6.1773 195.053 6.1516C195.053 6.12589 194.979 6.11304 194.832 6.11304C195.053 6.29299 195.273 6.3444 195.493 6.26728C195.787 6.19016 196.007 6.19016 196.154 6.26728C195.934 6.37011 195.86 6.39582 195.934 6.3444C196.081 6.26728 195.97 6.25443 195.603 6.30584C195.677 6.35725 195.787 6.38296 195.934 6.38296C196.081 6.35725 196.191 6.31869 196.264 6.26728C196.264 6.31869 196.264 6.37011 196.264 6.42152C196.338 6.47294 196.338 6.52435 196.264 6.57577C195.97 6.55006 195.75 6.5115 195.603 6.46008C195.456 6.38296 195.273 6.3444 195.053 6.3444C195.567 6.47294 195.934 6.57577 196.154 6.65289C196.448 6.73001 196.888 6.80713 197.476 6.88425C197.622 7.0385 197.953 7.15418 198.467 7.2313C199.054 7.30842 199.385 7.44981 199.458 7.65547C199.825 7.70689 200.046 7.82257 200.119 8.00252C200.192 8.15676 200.413 8.27245 200.78 8.34957C200.559 8.22103 200.449 8.13106 200.449 8.07964C200.523 8.02823 200.413 7.93825 200.119 7.80972C200.266 7.7583 200.339 7.73259 200.339 7.73259C200.413 7.73259 200.596 7.73259 200.89 7.73259C200.743 7.60406 200.559 7.57835 200.339 7.65547C200.192 7.70689 200.082 7.73259 200.009 7.73259C199.862 7.68118 199.825 7.65547 199.899 7.65547C199.972 7.65547 200.082 7.64262 200.229 7.61691C200.082 7.5655 200.009 7.55264 200.009 7.57835C200.009 7.60406 199.935 7.5912 199.788 7.53979C199.788 7.51408 199.825 7.50123 199.899 7.50123C199.972 7.50123 200.009 7.47552 200.009 7.42411ZM191.418 6.84569C191.859 6.89711 192.262 6.97423 192.63 7.07706C193.07 7.15418 193.474 7.20559 193.841 7.2313C193.621 7.17989 193.437 7.0642 193.29 6.88425C192.85 6.83284 192.446 6.76857 192.079 6.69145C191.785 6.58862 191.455 6.5115 191.088 6.46008C191.088 6.46008 191.124 6.44723 191.198 6.42152C190.684 6.37011 190.06 6.30584 189.326 6.22872C188.665 6.1516 188.151 6.04877 187.784 5.92023C187.196 5.97165 186.609 5.94594 186.021 5.84311C185.434 5.71457 184.81 5.65031 184.149 5.65031L184.369 5.57318C183.929 5.6246 183.598 5.61174 183.378 5.53462C183.158 5.4575 182.864 5.44465 182.497 5.49606C182.497 5.47035 182.497 5.4575 182.497 5.4575C182.57 5.43179 182.607 5.40609 182.607 5.38038C181.799 5.35467 181.065 5.31611 180.404 5.2647C179.744 5.18757 179.119 5.12331 178.532 5.07189C177.945 4.99477 177.321 4.9305 176.66 4.87909C175.999 4.82767 175.228 4.78911 174.347 4.7634C174.42 4.68628 174.273 4.64772 173.906 4.64772C173.539 4.64772 173.282 4.64772 173.135 4.64772C173.135 4.62201 173.135 4.60916 173.135 4.60916C173.209 4.60916 173.245 4.59631 173.245 4.5706C173.099 4.5706 172.915 4.5706 172.695 4.5706C172.548 4.5706 172.364 4.55775 172.144 4.53204C172.952 4.68628 173.98 4.81482 175.228 4.91765C176.476 4.99477 177.578 5.05904 178.532 5.11045C179.193 5.21328 179.964 5.31611 180.845 5.41894C181.799 5.52177 182.717 5.6246 183.598 5.72743C184.553 5.83026 185.434 5.93309 186.242 6.03591C187.049 6.11304 187.673 6.20301 188.114 6.30584C188.334 6.30584 188.481 6.29299 188.555 6.26728C188.848 6.37011 189.142 6.46008 189.436 6.53721C189.803 6.58862 190.17 6.58862 190.537 6.53721C190.39 6.58862 190.353 6.62718 190.427 6.65289C190.574 6.6786 190.721 6.6786 190.867 6.65289C190.721 6.7043 190.757 6.74286 190.978 6.76857C191.198 6.79428 191.345 6.78142 191.418 6.73001C191.345 6.73001 191.271 6.73001 191.198 6.73001C191.198 6.7043 191.271 6.69145 191.418 6.69145C191.418 6.74286 191.418 6.76857 191.418 6.76857C191.492 6.76857 191.492 6.79428 191.418 6.84569ZM3.63452 7.57835C6.42466 6.90996 9.47178 6.33155 12.7759 5.84311C16.1534 5.35467 19.6411 4.90479 23.2389 4.49348C23.1655 4.39065 23.0186 4.36494 22.7984 4.41636C22.6515 4.46777 22.5047 4.51919 22.3578 4.5706C22.211 4.54489 22.1742 4.53204 22.2477 4.53204C22.3945 4.50633 22.3945 4.48062 22.2477 4.45492C22.1008 4.53204 21.9173 4.5706 21.697 4.5706C21.5501 4.54489 21.3299 4.55775 21.0362 4.60916C20.8893 4.66058 20.7425 4.68628 20.5956 4.68628L18.3929 4.99477C18.246 5.02048 18.0258 5.04618 17.7321 5.07189C17.5118 5.07189 17.2181 5.0976 16.851 5.14901C16.337 5.25184 15.5293 5.36753 14.4279 5.49606C13.4 5.6246 12.2986 5.7917 11.1238 5.99735C11.1238 5.97165 11.1238 5.95879 11.1238 5.95879C11.1973 5.95879 11.234 5.94594 11.234 5.92023C10.5732 6.04877 9.98575 6.16445 9.47178 6.26728C9.03123 6.37011 8.40712 6.46008 7.59945 6.53721C7.08548 6.66574 6.68164 6.76857 6.38795 6.84569C6.09425 6.92281 5.76384 6.96138 5.39671 6.96138C5.54356 7.11562 5.47014 7.17989 5.17644 7.15418C4.88274 7.10277 4.80932 7.12847 4.95617 7.2313C4.88274 7.28272 4.80932 7.29557 4.73589 7.26986C4.66247 7.21845 4.55233 7.21845 4.40548 7.26986L3.41425 7.53979H3.63452V7.57835ZM195.383 10.6632C196.044 10.5861 196.815 10.4704 197.696 10.3162C198.577 10.1619 198.834 9.95627 198.467 9.6992C197.953 9.85344 197.439 10.0077 196.925 10.1619C196.484 10.3419 195.97 10.509 195.383 10.6632ZM172.034 4.5706C172.034 4.5706 172.071 4.55775 172.144 4.53204C171.336 4.48062 170.859 4.42921 170.712 4.3778C170.125 4.4035 169.354 4.3778 168.399 4.30067C167.518 4.22355 166.784 4.15928 166.197 4.10787V4.06931C165.756 4.09502 165.389 4.08216 165.095 4.03075C164.802 3.97933 164.435 3.95363 163.994 3.95363C165.242 4.13358 166.527 4.26211 167.849 4.33923C169.17 4.39065 170.565 4.48063 172.034 4.60916V4.5706ZM198.247 6.99994C198.247 7.05135 198.32 7.07706 198.467 7.07706C198.247 7.12847 198.026 7.10277 197.806 6.99994C197.659 6.89711 197.439 6.81999 197.145 6.76857C197.292 6.71716 197.329 6.69145 197.255 6.69145C197.255 6.66574 197.329 6.62718 197.476 6.57577C197.182 6.60147 197.035 6.66574 197.035 6.76857C196.888 6.74286 196.778 6.71716 196.705 6.69145C196.631 6.66574 196.484 6.65289 196.264 6.65289C196.411 6.55006 196.558 6.48579 196.705 6.46008C196.631 6.40867 196.558 6.40867 196.484 6.46008C196.484 6.48579 196.448 6.47294 196.374 6.42152C196.595 6.31869 196.705 6.31869 196.705 6.42152C196.705 6.52435 196.778 6.58862 196.925 6.61433C197.072 6.58862 197.109 6.57577 197.035 6.57577C196.962 6.55006 196.925 6.5115 196.925 6.46008C197.072 6.5115 197.182 6.53721 197.255 6.53721C197.329 6.53721 197.439 6.55006 197.586 6.57577C197.439 6.62718 197.402 6.65289 197.476 6.65289C197.549 6.65289 197.512 6.6786 197.365 6.73001C197.512 6.73001 197.586 6.71716 197.586 6.69145C197.659 6.66574 197.769 6.64003 197.916 6.61433C197.769 6.48579 197.586 6.43438 197.365 6.46008C197.145 6.46008 196.998 6.40867 196.925 6.30584C197.512 6.43438 197.99 6.53721 198.357 6.61433C198.797 6.69145 199.164 6.83284 199.458 7.0385L198.026 6.61433C198.026 6.66574 197.99 6.7043 197.916 6.73001C197.916 6.75572 197.879 6.79428 197.806 6.84569C197.806 6.89711 197.843 6.92281 197.916 6.92281C198.063 6.89711 198.173 6.8714 198.247 6.84569C198.247 6.79428 198.21 6.79428 198.136 6.84569C198.063 6.8714 198.026 6.85855 198.026 6.80713C197.879 6.75572 197.916 6.75572 198.136 6.80713C198.43 6.83284 198.65 6.8714 198.797 6.92281C198.724 6.94852 198.65 6.96138 198.577 6.96138C198.504 6.96138 198.467 6.98708 198.467 7.0385C198.32 7.01279 198.32 6.99994 198.467 6.99994C198.614 6.97423 198.65 6.94852 198.577 6.92281C198.504 6.92281 198.393 6.94852 198.247 6.99994ZM191.198 5.22614C192.152 5.43179 193.107 5.59889 194.061 5.72743C195.089 5.85596 195.934 6.03591 196.595 6.26728C195.787 6.06162 194.869 5.89452 193.841 5.76599C192.887 5.63745 192.005 5.4575 191.198 5.22614ZM199.018 6.96138C199.164 6.96138 199.238 6.98708 199.238 7.0385C199.238 7.0642 199.311 7.08991 199.458 7.11562C199.311 7.21845 199.311 7.28272 199.458 7.30842C199.605 7.30842 199.752 7.34698 199.899 7.42411C199.678 7.47552 199.458 7.46267 199.238 7.38555C199.091 7.28272 198.834 7.20559 198.467 7.15418C198.614 7.10277 198.614 7.07706 198.467 7.07706C198.54 6.99994 198.614 6.98708 198.687 7.0385C198.834 7.0642 198.944 7.0385 199.018 6.96138ZM159.699 3.6837C160.066 3.78653 160.616 3.86365 161.351 3.91507C162.085 3.94077 162.636 3.92792 163.003 3.8765C162.929 3.82509 162.709 3.81224 162.342 3.83794C162.048 3.86365 161.975 3.8508 162.122 3.79938C161.755 3.82509 161.387 3.82509 161.02 3.79938C160.653 3.74797 160.213 3.70941 159.699 3.6837ZM28.3052 3.95363C28.4521 3.90221 28.7825 3.8765 29.2964 3.8765C29.8104 3.8508 29.8838 3.78653 29.5167 3.6837C29.3699 3.81224 29.1496 3.86365 28.8559 3.83794C28.6356 3.81224 28.3786 3.83794 28.0849 3.91507C28.0849 3.86365 28.1216 3.83794 28.1951 3.83794C28.2685 3.83794 28.2318 3.82509 28.0849 3.79938C28.0849 3.8508 28.0482 3.8765 27.9748 3.8765C27.9014 3.8508 27.8647 3.86365 27.8647 3.91507C28.0115 3.88936 28.0849 3.88936 28.0849 3.91507C28.0849 3.94077 28.1584 3.95363 28.3052 3.95363ZM25.1112 4.14643C24.9644 4.22355 24.7074 4.27497 24.3403 4.30067C24.0466 4.32638 23.7529 4.3778 23.4592 4.45492C23.8263 4.4035 24.1934 4.36494 24.5605 4.33923C25.0011 4.28782 25.2948 4.23641 25.4416 4.18499C25.2948 4.23641 25.2214 4.24926 25.2214 4.22355C25.2948 4.19784 25.2581 4.17214 25.1112 4.14643ZM26.4329 4.14643C26.7266 4.09502 26.9836 4.06931 27.2038 4.06931C27.4975 4.0436 27.7545 4.00504 27.9748 3.95363C27.7545 3.90221 27.571 3.90221 27.4241 3.95363C27.2773 4.00504 27.1304 4.03075 26.9836 4.03075C27.057 4.05646 26.9101 4.06931 26.543 4.06931C26.2493 4.06931 26.2126 4.09502 26.4329 4.14643ZM156.174 3.4909C156.468 3.54231 156.835 3.59372 157.276 3.64514C157.716 3.67085 158.083 3.64514 158.377 3.56802C158.01 3.59372 157.643 3.59372 157.276 3.56802C156.982 3.54231 156.615 3.5166 156.174 3.4909ZM158.487 3.72226C158.634 3.72226 158.854 3.72226 159.148 3.72226C159.515 3.72226 159.589 3.69655 159.368 3.64514C159.368 3.64514 159.258 3.64514 159.038 3.64514C158.964 3.64514 158.854 3.63229 158.707 3.60658C158.707 3.60658 158.707 3.59372 158.707 3.56802C158.707 3.64514 158.634 3.65799 158.487 3.60658V3.72226ZM33.5918 3.41377C34.1058 3.41377 34.3995 3.36236 34.4729 3.25953C34.326 3.23382 34.2159 3.24668 34.1425 3.29809C34.1425 3.3238 34.0323 3.3238 33.8121 3.29809C33.8121 3.34951 33.7753 3.37521 33.7019 3.37521C33.6285 3.37521 33.5918 3.36236 33.5918 3.33665C33.5918 3.31094 33.5551 3.29809 33.4816 3.29809C33.4816 3.34951 33.5184 3.38807 33.5918 3.41377ZM177.431 11.5887C177.651 11.5887 177.908 11.6015 178.202 11.6272C178.495 11.653 178.716 11.6401 178.862 11.5887C178.642 11.5887 178.385 11.5758 178.092 11.5501C177.798 11.5244 177.578 11.5373 177.431 11.5887ZM154.853 3.37521C154.706 3.45233 154.853 3.50375 155.293 3.52946C155.734 3.52946 155.807 3.4909 155.513 3.41377C155.513 3.46519 155.403 3.47804 155.183 3.45233C155.036 3.40092 154.926 3.37521 154.853 3.37521ZM191.088 5.30326C190.867 5.30326 190.721 5.2904 190.647 5.2647C190.574 5.23899 190.464 5.22614 190.317 5.22614C190.317 5.17472 190.427 5.16187 190.647 5.18757C190.941 5.18757 191.088 5.22614 191.088 5.30326ZM39.3189 2.95104C39.3189 2.84821 39.2822 2.7968 39.2088 2.7968C39.2088 2.84821 39.1721 2.87392 39.0986 2.87392C39.0252 2.82251 38.9151 2.83536 38.7682 2.91248C38.6948 2.9639 38.5847 2.95104 38.4378 2.87392C38.4378 2.97675 38.5479 3.00246 38.7682 2.95104C38.9885 2.89963 39.1721 2.89963 39.3189 2.95104ZM32.6005 3.52946C32.7474 3.47804 32.8942 3.46519 33.0411 3.4909C33.188 3.4909 33.3348 3.46519 33.4816 3.41377C33.3348 3.36236 33.1145 3.36236 32.8208 3.41377C32.5271 3.46519 32.4537 3.50375 32.6005 3.52946ZM37.5567 3.06673C37.6301 2.9896 37.7403 2.97675 37.8871 3.02816C38.034 3.05387 38.1808 3.02816 38.3277 2.95104C38.2542 2.92534 38.1074 2.91248 37.8871 2.91248C37.7403 2.91248 37.5934 2.93819 37.4466 2.9896C37.5934 2.9896 37.5934 3.00246 37.4466 3.02816C37.3732 3.05387 37.4099 3.06673 37.5567 3.06673ZM176.109 11.4344C176.036 11.5116 176.256 11.5501 176.77 11.5501C177.284 11.5501 177.431 11.5501 177.21 11.5501C176.99 11.4987 176.77 11.473 176.55 11.473C176.403 11.4987 176.256 11.4859 176.109 11.4344ZM180.074 11.6658C180.221 11.6401 180.404 11.6401 180.625 11.6658C180.918 11.6915 181.102 11.6787 181.175 11.6272C181.029 11.653 180.808 11.653 180.515 11.6272C180.294 11.6015 180.147 11.6144 180.074 11.6658ZM163.113 3.99219C163.26 3.96648 163.407 3.96648 163.553 3.99219C163.7 4.01789 163.81 4.00504 163.884 3.95363C163.737 3.90221 163.59 3.90221 163.443 3.95363C163.37 3.97933 163.296 3.96648 163.223 3.91507C163.296 3.91507 163.333 3.91507 163.333 3.91507C163.407 3.88936 163.37 3.8765 163.223 3.8765C163.223 3.8765 163.186 3.88936 163.113 3.91507V3.99219ZM29.8471 3.76082C29.994 3.76082 30.2142 3.74797 30.5079 3.72226C30.8751 3.69655 30.8751 3.65799 30.5079 3.60658C30.5079 3.73511 30.3978 3.77368 30.1775 3.72226C29.9573 3.67085 29.8471 3.6837 29.8471 3.76082ZM153.751 3.37521C153.751 3.40092 153.861 3.42663 154.082 3.45233C154.302 3.45233 154.412 3.42663 154.412 3.37521C154.265 3.40092 154.118 3.40092 153.972 3.37521C153.898 3.3238 153.825 3.3238 153.751 3.37521ZM31.7195 3.60658C31.8663 3.60658 31.9764 3.59372 32.0499 3.56802C32.1967 3.54231 32.1967 3.50375 32.0499 3.45233C32.0499 3.47804 31.9764 3.5166 31.8296 3.56802C31.8296 3.4909 31.7929 3.45233 31.7195 3.45233V3.60658ZM200.78 7.96396C200.78 7.91254 200.78 7.86113 200.78 7.80972C200.853 7.7583 200.78 7.74545 200.559 7.77115C200.559 7.84828 200.633 7.91254 200.78 7.96396ZM148.685 3.14385C148.832 3.11814 148.979 3.11814 149.125 3.14385C149.346 3.16955 149.456 3.1567 149.456 3.10529C149.309 3.10529 149.162 3.10529 149.015 3.10529C148.868 3.07958 148.758 3.09243 148.685 3.14385ZM41.6318 2.71968C41.6318 2.66826 41.6685 2.65541 41.7419 2.68112C41.8888 2.70682 41.9622 2.69397 41.9622 2.64256C41.9622 2.59114 41.8521 2.57829 41.6318 2.60399C41.4115 2.6297 41.4115 2.66826 41.6318 2.71968ZM194.392 6.26728C194.539 6.26728 194.649 6.29299 194.722 6.3444C194.796 6.39582 194.869 6.39582 194.942 6.3444C194.869 6.3444 194.832 6.31869 194.832 6.26728C194.539 6.26728 194.392 6.26728 194.392 6.26728ZM199.348 7.50123C199.495 7.44981 199.568 7.46267 199.568 7.53979C199.642 7.5912 199.752 7.60406 199.899 7.57835C199.752 7.62976 199.642 7.62976 199.568 7.57835C199.568 7.52694 199.495 7.50123 199.348 7.50123ZM40.8608 2.68112C40.714 2.73253 40.7507 2.77109 40.971 2.7968C41.1912 2.7968 41.2647 2.77109 41.1912 2.71968C41.1178 2.71968 41.0811 2.70682 41.0811 2.68112C41.0811 2.65541 41.0077 2.65541 40.8608 2.68112ZM150.337 3.22097C150.557 3.22097 150.704 3.20812 150.778 3.18241C150.484 3.18241 150.337 3.19526 150.337 3.22097ZM188.555 4.95621C188.555 4.98192 188.444 4.99477 188.224 4.99477C188.224 4.96906 188.334 4.95621 188.555 4.95621ZM151.108 3.22097C151.181 3.27238 151.218 3.28524 151.218 3.25953C151.218 3.20812 151.145 3.18241 150.998 3.18241C150.851 3.23382 150.888 3.24668 151.108 3.22097ZM153.201 3.37521C153.421 3.37521 153.531 3.36236 153.531 3.33665C153.311 3.33665 153.201 3.34951 153.201 3.37521ZM191.859 5.65031C191.859 5.6246 191.822 5.61174 191.748 5.61174C191.675 5.61174 191.638 5.6246 191.638 5.65031C191.712 5.65031 191.748 5.66316 191.748 5.68887C191.748 5.71457 191.785 5.70172 191.859 5.65031ZM174.787 11.3573C175.008 11.3573 175.118 11.3445 175.118 11.3188C174.898 11.3188 174.787 11.3316 174.787 11.3573ZM55.2888 1.71709C55.509 1.71709 55.6192 1.70424 55.6192 1.67853C55.3989 1.67853 55.2888 1.69139 55.2888 1.71709ZM36.0148 3.18241C36.0882 3.1567 36.1616 3.1567 36.2351 3.18241C36.3085 3.18241 36.3452 3.16955 36.3452 3.14385C36.1249 3.14385 36.0148 3.1567 36.0148 3.18241ZM141.196 2.7968C141.269 2.77109 141.342 2.77109 141.416 2.7968C141.489 2.7968 141.526 2.78395 141.526 2.75824C141.306 2.75824 141.196 2.77109 141.196 2.7968ZM50.5529 2.02558C50.6263 1.99987 50.6997 1.99987 50.7732 2.02558C50.8466 2.02558 50.8833 2.01273 50.8833 1.98702C50.663 1.98702 50.5529 1.99987 50.5529 2.02558ZM147.473 3.06673C147.62 3.06673 147.73 3.05387 147.804 3.02816C147.584 3.02816 147.473 3.04102 147.473 3.06673ZM133.927 2.48831C134.073 2.48831 134.184 2.47546 134.257 2.44975C134.037 2.44975 133.927 2.4626 133.927 2.48831ZM179.523 11.6272C179.744 11.6272 179.854 11.6144 179.854 11.5887C179.78 11.6144 179.707 11.6144 179.633 11.5887C179.633 11.5887 179.597 11.6015 179.523 11.6272ZM31.2789 3.64514C31.4258 3.59372 31.4992 3.58087 31.4992 3.60658H31.389C31.3156 3.60658 31.2789 3.61943 31.2789 3.64514ZM73.4614 0.945876C73.4614 0.920169 73.4981 0.920169 73.5715 0.945876C73.6449 0.945876 73.7184 0.933022 73.7918 0.907315C73.7918 0.933022 73.6817 0.945876 73.4614 0.945876ZM145.271 2.95104C145.418 2.95104 145.491 2.93819 145.491 2.91248C145.344 2.91248 145.271 2.92534 145.271 2.95104ZM49.011 2.1027C49.1578 2.1027 49.2312 2.08985 49.2312 2.06414C49.0844 2.06414 49.011 2.077 49.011 2.1027ZM42.4027 2.56543C42.5496 2.56543 42.623 2.55258 42.623 2.52687C42.4762 2.52687 42.4027 2.53973 42.4027 2.56543ZM67.6241 1.13868C67.771 1.13868 67.8444 1.12583 67.8444 1.10012C67.6975 1.10012 67.6241 1.11297 67.6241 1.13868ZM67.9545 1.13868C68.1014 1.13868 68.1748 1.12583 68.1748 1.10012C68.0279 1.10012 67.9545 1.11297 67.9545 1.13868ZM179.083 11.6272C179.23 11.6272 179.303 11.6144 179.303 11.5887C179.156 11.5887 179.083 11.6015 179.083 11.6272ZM143.398 2.87392C143.545 2.87392 143.619 2.86107 143.619 2.83536C143.472 2.83536 143.398 2.84821 143.398 2.87392ZM60.2449 1.48573C60.3918 1.48573 60.4652 1.47287 60.4652 1.44717C60.3184 1.44717 60.2449 1.46002 60.2449 1.48573ZM182.056 11.6658C182.203 11.6658 182.277 11.653 182.277 11.6272H182.167C182.093 11.6272 182.056 11.6401 182.056 11.6658ZM99.674 3.79938C99.674 3.79938 99.7107 3.78653 99.7841 3.76082C99.6373 3.76082 99.5638 3.77368 99.5638 3.79938H99.674ZM139.213 2.68112C139.213 2.68112 139.25 2.66826 139.323 2.64256C139.176 2.64256 139.103 2.65541 139.103 2.68112H139.213ZM43.2838 2.48831C43.2838 2.51402 43.3573 2.50117 43.5041 2.44975C43.5041 2.47546 43.4307 2.48831 43.2838 2.48831ZM173.796 11.126C173.796 11.126 173.723 11.126 173.576 11.126H173.796ZM146.152 2.95104C146.078 2.95104 146.005 2.9639 145.932 2.9896C146.078 2.9896 146.152 2.97675 146.152 2.95104ZM3.63452 7.57835C3.5611 7.60406 3.52438 7.61691 3.52438 7.61691L3.63452 7.57835Z" fill="#404040"/>
</svg>
