<svg width="9" height="14" viewBox="0 0 9 14" fill="none" xmlns="http://www.w3.org/2000/svg">
<g clip-path="url(#clip0_514_248)">
<path d="M4.81312 12.5525V0.71465C4.81312 -0.0813073 3.57611 -0.082626 3.57611 0.71465V12.5525C3.57611 13.3484 4.81312 13.3498 4.81312 12.5525Z" fill="#A0A0A0"/>
<path d="M1.16497 4.72537C1.57492 4.06751 2.0329 3.44637 2.54983 2.86849C2.8193 2.56724 3.10161 2.2775 3.39595 2.00049C3.52392 1.88006 3.65415 1.76201 3.78654 1.64647C3.91504 1.53432 4.18611 1.38677 4.27241 1.2414L4.2982 1.22219C4.01012 1.131 3.92593 1.13534 4.04563 1.23521C4.09568 1.32894 4.22903 1.41547 4.30549 1.49063C4.4643 1.64672 4.6231 1.8028 4.78191 1.95889C5.09951 2.27107 5.41712 2.58324 5.73473 2.89542C6.39882 3.54815 7.06291 4.20088 7.727 4.85361C8.29524 5.41213 9.1706 4.53808 8.6017 3.97891C7.85099 3.24104 7.10028 2.50317 6.34957 1.76531C5.97421 1.39637 5.59886 1.02744 5.2235 0.658501C4.85044 0.291826 4.47279 -0.147919 3.8946 0.0485059C3.47012 0.192709 3.08231 0.616074 2.75401 0.911616C2.41444 1.21732 2.08958 1.53932 1.78116 1.87644C1.15284 2.56322 0.589024 3.31119 0.0968518 4.10102C-0.325367 4.77859 0.744388 5.40031 1.16497 4.72537Z" fill="#A0A0A0"/>
</g>
<defs>
<clipPath id="clip0_514_248">
<rect width="8.78635" height="13.15" fill="white"/>
</clipPath>
</defs>
</svg>
